<?xml version="1.0" encoding="utf-8" standalone="no"?>
<!DOCTYPE svg PUBLIC "-//W3C//DTD SVG 1.1//EN"
  "http://www.w3.org/Graphics/SVG/1.1/DTD/svg11.dtd">
<svg xmlns:xlink="http://www.w3.org/1999/xlink" width="1080pt" height="324pt" viewBox="0 0 1080 324" xmlns="http://www.w3.org/2000/svg" version="1.1">
 <metadata>
  <rdf:RDF xmlns:dc="http://purl.org/dc/elements/1.1/" xmlns:cc="http://creativecommons.org/ns#" xmlns:rdf="http://www.w3.org/1999/02/22-rdf-syntax-ns#">
   <cc:Work>
    <dc:type rdf:resource="http://purl.org/dc/dcmitype/StillImage"/>
    <dc:date>2025-10-29T09:10:30.330637</dc:date>
    <dc:format>image/svg+xml</dc:format>
    <dc:creator>
     <cc:Agent>
      <dc:title>Matplotlib v3.10.0, https://matplotlib.org/</dc:title>
     </cc:Agent>
    </dc:creator>
   </cc:Work>
  </rdf:RDF>
 </metadata>
 <defs>
  <style type="text/css">*{stroke-linejoin: round; stroke-linecap: butt}</style>
 </defs>
 <g id="figure_1">
  <g id="patch_1">
   <path d="M 0 324 
L 1080 324 
L 1080 0 
L 0 0 
z
" style="fill: #ffffff"/>
  </g>
  <g id="axes_1">
   <g id="patch_2">
    <path d="M 72.164 262.6 
L 522.775 262.6 
L 522.775 37.68 
L 72.164 37.68 
z
" style="fill: #ffffff"/>
   </g>
   <g id="patch_3">
    <path d="M 343.899146 262.6 
L 388.918051 262.6 
L 388.918051 37.68 
L 343.899146 37.68 
z
" clip-path="url(#p3fbe2ffda2)" style="fill: #800080; opacity: 0.08"/>
   </g>
   <g id="patch_4">
    <path d="M 388.918051 262.6 
L 431.158337 262.6 
L 431.158337 37.68 
L 388.918051 37.68 
z
" clip-path="url(#p3fbe2ffda2)" style="fill: #ffff00; opacity: 0.12"/>
   </g>
   <g id="matplotlib.axis_1">
    <g id="xtick_1">
     <g id="line2d_1">
      <defs>
       <path id="m9f8b144bec" d="M 0 0 
L 0 3.5 
" style="stroke: #000000; stroke-width: 0.8"/>
      </defs>
      <g>
       <use xlink:href="#m9f8b144bec" x="92.646318" y="262.6" style="stroke: #000000; stroke-width: 0.8"/>
      </g>
     </g>
     <g id="text_1">
      <!-- -50 -->
      <g transform="translate(79.580068 281.7575) scale(0.16 -0.16)">
       <defs>
        <path id="DejaVuSans-2d" d="M 313 2009 
L 1997 2009 
L 1997 1497 
L 313 1497 
L 313 2009 
z
" transform="scale(0.015625)"/>
        <path id="DejaVuSans-35" d="M 691 4666 
L 3169 4666 
L 3169 4134 
L 1269 4134 
L 1269 2991 
Q 1406 3038 1543 3061 
Q 1681 3084 1819 3084 
Q 2600 3084 3056 2656 
Q 3513 2228 3513 1497 
Q 3513 744 3044 326 
Q 2575 -91 1722 -91 
Q 1428 -91 1123 -41 
Q 819 9 494 109 
L 494 744 
Q 775 591 1075 516 
Q 1375 441 1709 441 
Q 2250 441 2565 725 
Q 2881 1009 2881 1497 
Q 2881 1984 2565 2268 
Q 2250 2553 1709 2553 
Q 1456 2553 1204 2497 
Q 953 2441 691 2322 
L 691 4666 
z
" transform="scale(0.015625)"/>
        <path id="DejaVuSans-30" d="M 2034 4250 
Q 1547 4250 1301 3770 
Q 1056 3291 1056 2328 
Q 1056 1369 1301 889 
Q 1547 409 2034 409 
Q 2525 409 2770 889 
Q 3016 1369 3016 2328 
Q 3016 3291 2770 3770 
Q 2525 4250 2034 4250 
z
M 2034 4750 
Q 2819 4750 3233 4129 
Q 3647 3509 3647 2328 
Q 3647 1150 3233 529 
Q 2819 -91 2034 -91 
Q 1250 -91 836 529 
Q 422 1150 422 2328 
Q 422 3509 836 4129 
Q 1250 4750 2034 4750 
z
" transform="scale(0.015625)"/>
       </defs>
       <use xlink:href="#DejaVuSans-2d"/>
       <use xlink:href="#DejaVuSans-35" transform="translate(36.083984 0)"/>
       <use xlink:href="#DejaVuSans-30" transform="translate(99.707031 0)"/>
      </g>
     </g>
    </g>
    <g id="xtick_2">
     <g id="line2d_2">
      <g>
       <use xlink:href="#m9f8b144bec" x="125.602444" y="262.6" style="stroke: #000000; stroke-width: 0.8"/>
      </g>
     </g>
     <g id="text_2">
      <!-- -40 -->
      <g transform="translate(112.536194 281.7575) scale(0.16 -0.16)">
       <defs>
        <path id="DejaVuSans-34" d="M 2419 4116 
L 825 1625 
L 2419 1625 
L 2419 4116 
z
M 2253 4666 
L 3047 4666 
L 3047 1625 
L 3713 1625 
L 3713 1100 
L 3047 1100 
L 3047 0 
L 2419 0 
L 2419 1100 
L 313 1100 
L 313 1709 
L 2253 4666 
z
" transform="scale(0.015625)"/>
       </defs>
       <use xlink:href="#DejaVuSans-2d"/>
       <use xlink:href="#DejaVuSans-34" transform="translate(36.083984 0)"/>
       <use xlink:href="#DejaVuSans-30" transform="translate(99.707031 0)"/>
      </g>
     </g>
    </g>
    <g id="xtick_3">
     <g id="line2d_3">
      <g>
       <use xlink:href="#m9f8b144bec" x="163.780663" y="262.6" style="stroke: #000000; stroke-width: 0.8"/>
      </g>
     </g>
     <g id="text_3">
      <!-- -30 -->
      <g transform="translate(150.714413 281.7575) scale(0.16 -0.16)">
       <defs>
        <path id="DejaVuSans-33" d="M 2597 2516 
Q 3050 2419 3304 2112 
Q 3559 1806 3559 1356 
Q 3559 666 3084 287 
Q 2609 -91 1734 -91 
Q 1441 -91 1130 -33 
Q 819 25 488 141 
L 488 750 
Q 750 597 1062 519 
Q 1375 441 1716 441 
Q 2309 441 2620 675 
Q 2931 909 2931 1356 
Q 2931 1769 2642 2001 
Q 2353 2234 1838 2234 
L 1294 2234 
L 1294 2753 
L 1863 2753 
Q 2328 2753 2575 2939 
Q 2822 3125 2822 3475 
Q 2822 3834 2567 4026 
Q 2313 4219 1838 4219 
Q 1578 4219 1281 4162 
Q 984 4106 628 3988 
L 628 4550 
Q 988 4650 1302 4700 
Q 1616 4750 1894 4750 
Q 2613 4750 3031 4423 
Q 3450 4097 3450 3541 
Q 3450 3153 3228 2886 
Q 3006 2619 2597 2516 
z
" transform="scale(0.015625)"/>
       </defs>
       <use xlink:href="#DejaVuSans-2d"/>
       <use xlink:href="#DejaVuSans-33" transform="translate(36.083984 0)"/>
       <use xlink:href="#DejaVuSans-30" transform="translate(99.707031 0)"/>
      </g>
     </g>
    </g>
    <g id="xtick_4">
     <g id="line2d_4">
      <g>
       <use xlink:href="#m9f8b144bec" x="206.020949" y="262.6" style="stroke: #000000; stroke-width: 0.8"/>
      </g>
     </g>
     <g id="text_4">
      <!-- -20 -->
      <g transform="translate(192.954699 281.7575) scale(0.16 -0.16)">
       <defs>
        <path id="DejaVuSans-32" d="M 1228 531 
L 3431 531 
L 3431 0 
L 469 0 
L 469 531 
Q 828 903 1448 1529 
Q 2069 2156 2228 2338 
Q 2531 2678 2651 2914 
Q 2772 3150 2772 3378 
Q 2772 3750 2511 3984 
Q 2250 4219 1831 4219 
Q 1534 4219 1204 4116 
Q 875 4013 500 3803 
L 500 4441 
Q 881 4594 1212 4672 
Q 1544 4750 1819 4750 
Q 2544 4750 2975 4387 
Q 3406 4025 3406 3419 
Q 3406 3131 3298 2873 
Q 3191 2616 2906 2266 
Q 2828 2175 2409 1742 
Q 1991 1309 1228 531 
z
" transform="scale(0.015625)"/>
       </defs>
       <use xlink:href="#DejaVuSans-2d"/>
       <use xlink:href="#DejaVuSans-32" transform="translate(36.083984 0)"/>
       <use xlink:href="#DejaVuSans-30" transform="translate(99.707031 0)"/>
      </g>
     </g>
    </g>
    <g id="xtick_5">
     <g id="line2d_5">
      <g>
       <use xlink:href="#m9f8b144bec" x="251.039854" y="262.6" style="stroke: #000000; stroke-width: 0.8"/>
      </g>
     </g>
     <g id="text_5">
      <!-- -10 -->
      <g transform="translate(237.973604 281.7575) scale(0.16 -0.16)">
       <defs>
        <path id="DejaVuSans-31" d="M 794 531 
L 1825 531 
L 1825 4091 
L 703 3866 
L 703 4441 
L 1819 4666 
L 2450 4666 
L 2450 531 
L 3481 531 
L 3481 0 
L 794 0 
L 794 531 
z
" transform="scale(0.015625)"/>
       </defs>
       <use xlink:href="#DejaVuSans-2d"/>
       <use xlink:href="#DejaVuSans-31" transform="translate(36.083984 0)"/>
       <use xlink:href="#DejaVuSans-30" transform="translate(99.707031 0)"/>
      </g>
     </g>
    </g>
    <g id="xtick_6">
     <g id="line2d_6">
      <g>
       <use xlink:href="#m9f8b144bec" x="297.4695" y="262.6" style="stroke: #000000; stroke-width: 0.8"/>
      </g>
     </g>
     <g id="text_6">
      <!-- 0 -->
      <g transform="translate(292.3795 281.7575) scale(0.16 -0.16)">
       <use xlink:href="#DejaVuSans-30"/>
      </g>
     </g>
    </g>
    <g id="xtick_7">
     <g id="line2d_7">
      <g>
       <use xlink:href="#m9f8b144bec" x="343.899146" y="262.6" style="stroke: #000000; stroke-width: 0.8"/>
      </g>
     </g>
     <g id="text_7">
      <!-- 10 -->
      <g transform="translate(333.719146 281.7575) scale(0.16 -0.16)">
       <use xlink:href="#DejaVuSans-31"/>
       <use xlink:href="#DejaVuSans-30" transform="translate(63.623047 0)"/>
      </g>
     </g>
    </g>
    <g id="xtick_8">
     <g id="line2d_8">
      <g>
       <use xlink:href="#m9f8b144bec" x="388.918051" y="262.6" style="stroke: #000000; stroke-width: 0.8"/>
      </g>
     </g>
     <g id="text_8">
      <!-- 20 -->
      <g transform="translate(378.738051 281.7575) scale(0.16 -0.16)">
       <use xlink:href="#DejaVuSans-32"/>
       <use xlink:href="#DejaVuSans-30" transform="translate(63.623047 0)"/>
      </g>
     </g>
    </g>
    <g id="xtick_9">
     <g id="line2d_9">
      <g>
       <use xlink:href="#m9f8b144bec" x="431.158337" y="262.6" style="stroke: #000000; stroke-width: 0.8"/>
      </g>
     </g>
     <g id="text_9">
      <!-- 30 -->
      <g transform="translate(420.978337 281.7575) scale(0.16 -0.16)">
       <use xlink:href="#DejaVuSans-33"/>
       <use xlink:href="#DejaVuSans-30" transform="translate(63.623047 0)"/>
      </g>
     </g>
    </g>
    <g id="xtick_10">
     <g id="line2d_10">
      <g>
       <use xlink:href="#m9f8b144bec" x="469.336556" y="262.6" style="stroke: #000000; stroke-width: 0.8"/>
      </g>
     </g>
     <g id="text_10">
      <!-- 40 -->
      <g transform="translate(459.156556 281.7575) scale(0.16 -0.16)">
       <use xlink:href="#DejaVuSans-34"/>
       <use xlink:href="#DejaVuSans-30" transform="translate(63.623047 0)"/>
      </g>
     </g>
    </g>
    <g id="xtick_11">
     <g id="line2d_11">
      <g>
       <use xlink:href="#m9f8b144bec" x="502.292682" y="262.6" style="stroke: #000000; stroke-width: 0.8"/>
      </g>
     </g>
     <g id="text_11">
      <!-- 50 -->
      <g transform="translate(492.112682 281.7575) scale(0.16 -0.16)">
       <use xlink:href="#DejaVuSans-35"/>
       <use xlink:href="#DejaVuSans-30" transform="translate(63.623047 0)"/>
      </g>
     </g>
    </g>
    <g id="text_12">
     <!-- Latitude -->
     <g transform="translate(264.54325 301.2425) scale(0.16 -0.16)">
      <defs>
       <path id="DejaVuSans-4c" d="M 628 4666 
L 1259 4666 
L 1259 531 
L 3531 531 
L 3531 0 
L 628 0 
L 628 4666 
z
" transform="scale(0.015625)"/>
       <path id="DejaVuSans-61" d="M 2194 1759 
Q 1497 1759 1228 1600 
Q 959 1441 959 1056 
Q 959 750 1161 570 
Q 1363 391 1709 391 
Q 2188 391 2477 730 
Q 2766 1069 2766 1631 
L 2766 1759 
L 2194 1759 
z
M 3341 1997 
L 3341 0 
L 2766 0 
L 2766 531 
Q 2569 213 2275 61 
Q 1981 -91 1556 -91 
Q 1019 -91 701 211 
Q 384 513 384 1019 
Q 384 1609 779 1909 
Q 1175 2209 1959 2209 
L 2766 2209 
L 2766 2266 
Q 2766 2663 2505 2880 
Q 2244 3097 1772 3097 
Q 1472 3097 1187 3025 
Q 903 2953 641 2809 
L 641 3341 
Q 956 3463 1253 3523 
Q 1550 3584 1831 3584 
Q 2591 3584 2966 3190 
Q 3341 2797 3341 1997 
z
" transform="scale(0.015625)"/>
       <path id="DejaVuSans-74" d="M 1172 4494 
L 1172 3500 
L 2356 3500 
L 2356 3053 
L 1172 3053 
L 1172 1153 
Q 1172 725 1289 603 
Q 1406 481 1766 481 
L 2356 481 
L 2356 0 
L 1766 0 
Q 1100 0 847 248 
Q 594 497 594 1153 
L 594 3053 
L 172 3053 
L 172 3500 
L 594 3500 
L 594 4494 
L 1172 4494 
z
" transform="scale(0.015625)"/>
       <path id="DejaVuSans-69" d="M 603 3500 
L 1178 3500 
L 1178 0 
L 603 0 
L 603 3500 
z
M 603 4863 
L 1178 4863 
L 1178 4134 
L 603 4134 
L 603 4863 
z
" transform="scale(0.015625)"/>
       <path id="DejaVuSans-75" d="M 544 1381 
L 544 3500 
L 1119 3500 
L 1119 1403 
Q 1119 906 1312 657 
Q 1506 409 1894 409 
Q 2359 409 2629 706 
Q 2900 1003 2900 1516 
L 2900 3500 
L 3475 3500 
L 3475 0 
L 2900 0 
L 2900 538 
Q 2691 219 2414 64 
Q 2138 -91 1772 -91 
Q 1169 -91 856 284 
Q 544 659 544 1381 
z
M 1991 3584 
L 1991 3584 
z
" transform="scale(0.015625)"/>
       <path id="DejaVuSans-64" d="M 2906 2969 
L 2906 4863 
L 3481 4863 
L 3481 0 
L 2906 0 
L 2906 525 
Q 2725 213 2448 61 
Q 2172 -91 1784 -91 
Q 1150 -91 751 415 
Q 353 922 353 1747 
Q 353 2572 751 3078 
Q 1150 3584 1784 3584 
Q 2172 3584 2448 3432 
Q 2725 3281 2906 2969 
z
M 947 1747 
Q 947 1113 1208 752 
Q 1469 391 1925 391 
Q 2381 391 2643 752 
Q 2906 1113 2906 1747 
Q 2906 2381 2643 2742 
Q 2381 3103 1925 3103 
Q 1469 3103 1208 2742 
Q 947 2381 947 1747 
z
" transform="scale(0.015625)"/>
       <path id="DejaVuSans-65" d="M 3597 1894 
L 3597 1613 
L 953 1613 
Q 991 1019 1311 708 
Q 1631 397 2203 397 
Q 2534 397 2845 478 
Q 3156 559 3463 722 
L 3463 178 
Q 3153 47 2828 -22 
Q 2503 -91 2169 -91 
Q 1331 -91 842 396 
Q 353 884 353 1716 
Q 353 2575 817 3079 
Q 1281 3584 2069 3584 
Q 2775 3584 3186 3129 
Q 3597 2675 3597 1894 
z
M 3022 2063 
Q 3016 2534 2758 2815 
Q 2500 3097 2075 3097 
Q 1594 3097 1305 2825 
Q 1016 2553 972 2059 
L 3022 2063 
z
" transform="scale(0.015625)"/>
      </defs>
      <use xlink:href="#DejaVuSans-4c"/>
      <use xlink:href="#DejaVuSans-61" transform="translate(55.712891 0)"/>
      <use xlink:href="#DejaVuSans-74" transform="translate(116.992188 0)"/>
      <use xlink:href="#DejaVuSans-69" transform="translate(156.201172 0)"/>
      <use xlink:href="#DejaVuSans-74" transform="translate(183.984375 0)"/>
      <use xlink:href="#DejaVuSans-75" transform="translate(223.193359 0)"/>
      <use xlink:href="#DejaVuSans-64" transform="translate(286.572266 0)"/>
      <use xlink:href="#DejaVuSans-65" transform="translate(350.048828 0)"/>
     </g>
    </g>
   </g>
   <g id="matplotlib.axis_2">
    <g id="ytick_1">
     <g id="line2d_12">
      <defs>
       <path id="mb4ed6629d5" d="M 0 0 
L -3.5 0 
" style="stroke: #000000; stroke-width: 0.8"/>
      </defs>
      <g>
       <use xlink:href="#mb4ed6629d5" x="72.164" y="262.6" style="stroke: #000000; stroke-width: 0.8"/>
      </g>
     </g>
     <g id="line2d_13">
      <defs>
       <path id="m99f62189d8" d="M 0 0 
L 3.5 0 
" style="stroke: #000000; stroke-width: 0.8"/>
      </defs>
      <g>
       <use xlink:href="#m99f62189d8" x="522.775" y="262.6" style="stroke: #000000; stroke-width: 0.8"/>
      </g>
     </g>
     <g id="text_13">
      <!-- −6 -->
      <g transform="translate(41.5765 268.67875) scale(0.16 -0.16)">
       <defs>
        <path id="DejaVuSans-2212" d="M 678 2272 
L 4684 2272 
L 4684 1741 
L 678 1741 
L 678 2272 
z
" transform="scale(0.015625)"/>
        <path id="DejaVuSans-36" d="M 2113 2584 
Q 1688 2584 1439 2293 
Q 1191 2003 1191 1497 
Q 1191 994 1439 701 
Q 1688 409 2113 409 
Q 2538 409 2786 701 
Q 3034 994 3034 1497 
Q 3034 2003 2786 2293 
Q 2538 2584 2113 2584 
z
M 3366 4563 
L 3366 3988 
Q 3128 4100 2886 4159 
Q 2644 4219 2406 4219 
Q 1781 4219 1451 3797 
Q 1122 3375 1075 2522 
Q 1259 2794 1537 2939 
Q 1816 3084 2150 3084 
Q 2853 3084 3261 2657 
Q 3669 2231 3669 1497 
Q 3669 778 3244 343 
Q 2819 -91 2113 -91 
Q 1303 -91 875 529 
Q 447 1150 447 2328 
Q 447 3434 972 4092 
Q 1497 4750 2381 4750 
Q 2619 4750 2861 4703 
Q 3103 4656 3366 4563 
z
" transform="scale(0.015625)"/>
       </defs>
       <use xlink:href="#DejaVuSans-2212"/>
       <use xlink:href="#DejaVuSans-36" transform="translate(83.789062 0)"/>
      </g>
     </g>
    </g>
    <g id="ytick_2">
     <g id="line2d_14">
      <g>
       <use xlink:href="#mb4ed6629d5" x="72.164" y="225.113333" style="stroke: #000000; stroke-width: 0.8"/>
      </g>
     </g>
     <g id="line2d_15">
      <g>
       <use xlink:href="#m99f62189d8" x="522.775" y="225.113333" style="stroke: #000000; stroke-width: 0.8"/>
      </g>
     </g>
     <g id="text_14">
      <!-- −4 -->
      <g transform="translate(41.5765 231.192083) scale(0.16 -0.16)">
       <use xlink:href="#DejaVuSans-2212"/>
       <use xlink:href="#DejaVuSans-34" transform="translate(83.789062 0)"/>
      </g>
     </g>
    </g>
    <g id="ytick_3">
     <g id="line2d_16">
      <g>
       <use xlink:href="#mb4ed6629d5" x="72.164" y="187.626667" style="stroke: #000000; stroke-width: 0.8"/>
      </g>
     </g>
     <g id="line2d_17">
      <g>
       <use xlink:href="#m99f62189d8" x="522.775" y="187.626667" style="stroke: #000000; stroke-width: 0.8"/>
      </g>
     </g>
     <g id="text_15">
      <!-- −2 -->
      <g transform="translate(41.5765 193.705417) scale(0.16 -0.16)">
       <use xlink:href="#DejaVuSans-2212"/>
       <use xlink:href="#DejaVuSans-32" transform="translate(83.789062 0)"/>
      </g>
     </g>
    </g>
    <g id="ytick_4">
     <g id="line2d_18">
      <g>
       <use xlink:href="#mb4ed6629d5" x="72.164" y="150.14" style="stroke: #000000; stroke-width: 0.8"/>
      </g>
     </g>
     <g id="line2d_19">
      <g>
       <use xlink:href="#m99f62189d8" x="522.775" y="150.14" style="stroke: #000000; stroke-width: 0.8"/>
      </g>
     </g>
     <g id="text_16">
      <!-- 0 -->
      <g transform="translate(54.984 156.21875) scale(0.16 -0.16)">
       <use xlink:href="#DejaVuSans-30"/>
      </g>
     </g>
    </g>
    <g id="ytick_5">
     <g id="line2d_20">
      <g>
       <use xlink:href="#mb4ed6629d5" x="72.164" y="112.653333" style="stroke: #000000; stroke-width: 0.8"/>
      </g>
     </g>
     <g id="line2d_21">
      <g>
       <use xlink:href="#m99f62189d8" x="522.775" y="112.653333" style="stroke: #000000; stroke-width: 0.8"/>
      </g>
     </g>
     <g id="text_17">
      <!-- 2 -->
      <g transform="translate(54.984 118.732083) scale(0.16 -0.16)">
       <use xlink:href="#DejaVuSans-32"/>
      </g>
     </g>
    </g>
    <g id="ytick_6">
     <g id="line2d_22">
      <g>
       <use xlink:href="#mb4ed6629d5" x="72.164" y="75.166667" style="stroke: #000000; stroke-width: 0.8"/>
      </g>
     </g>
     <g id="line2d_23">
      <g>
       <use xlink:href="#m99f62189d8" x="522.775" y="75.166667" style="stroke: #000000; stroke-width: 0.8"/>
      </g>
     </g>
     <g id="text_18">
      <!-- 4 -->
      <g transform="translate(54.984 81.245417) scale(0.16 -0.16)">
       <use xlink:href="#DejaVuSans-34"/>
      </g>
     </g>
    </g>
    <g id="ytick_7">
     <g id="line2d_24">
      <g>
       <use xlink:href="#mb4ed6629d5" x="72.164" y="37.68" style="stroke: #000000; stroke-width: 0.8"/>
      </g>
     </g>
     <g id="line2d_25">
      <g>
       <use xlink:href="#m99f62189d8" x="522.775" y="37.68" style="stroke: #000000; stroke-width: 0.8"/>
      </g>
     </g>
     <g id="text_19">
      <!-- 6 -->
      <g transform="translate(54.984 43.75875) scale(0.16 -0.16)">
       <use xlink:href="#DejaVuSans-36"/>
      </g>
     </g>
    </g>
    <g id="text_20">
     <!-- LHFLX [W m$^{-2}$] -->
     <g transform="translate(34.249 210.78) rotate(-90) scale(0.16 -0.16)">
      <defs>
       <path id="DejaVuSans-48" d="M 628 4666 
L 1259 4666 
L 1259 2753 
L 3553 2753 
L 3553 4666 
L 4184 4666 
L 4184 0 
L 3553 0 
L 3553 2222 
L 1259 2222 
L 1259 0 
L 628 0 
L 628 4666 
z
" transform="scale(0.015625)"/>
       <path id="DejaVuSans-46" d="M 628 4666 
L 3309 4666 
L 3309 4134 
L 1259 4134 
L 1259 2759 
L 3109 2759 
L 3109 2228 
L 1259 2228 
L 1259 0 
L 628 0 
L 628 4666 
z
" transform="scale(0.015625)"/>
       <path id="DejaVuSans-58" d="M 403 4666 
L 1081 4666 
L 2241 2931 
L 3406 4666 
L 4084 4666 
L 2584 2425 
L 4184 0 
L 3506 0 
L 2194 1984 
L 872 0 
L 191 0 
L 1856 2491 
L 403 4666 
z
" transform="scale(0.015625)"/>
       <path id="DejaVuSans-20" transform="scale(0.015625)"/>
       <path id="DejaVuSans-5b" d="M 550 4863 
L 1875 4863 
L 1875 4416 
L 1125 4416 
L 1125 -397 
L 1875 -397 
L 1875 -844 
L 550 -844 
L 550 4863 
z
" transform="scale(0.015625)"/>
       <path id="DejaVuSans-57" d="M 213 4666 
L 850 4666 
L 1831 722 
L 2809 4666 
L 3519 4666 
L 4500 722 
L 5478 4666 
L 6119 4666 
L 4947 0 
L 4153 0 
L 3169 4050 
L 2175 0 
L 1381 0 
L 213 4666 
z
" transform="scale(0.015625)"/>
       <path id="DejaVuSans-6d" d="M 3328 2828 
Q 3544 3216 3844 3400 
Q 4144 3584 4550 3584 
Q 5097 3584 5394 3201 
Q 5691 2819 5691 2113 
L 5691 0 
L 5113 0 
L 5113 2094 
Q 5113 2597 4934 2840 
Q 4756 3084 4391 3084 
Q 3944 3084 3684 2787 
Q 3425 2491 3425 1978 
L 3425 0 
L 2847 0 
L 2847 2094 
Q 2847 2600 2669 2842 
Q 2491 3084 2119 3084 
Q 1678 3084 1418 2786 
Q 1159 2488 1159 1978 
L 1159 0 
L 581 0 
L 581 3500 
L 1159 3500 
L 1159 2956 
Q 1356 3278 1631 3431 
Q 1906 3584 2284 3584 
Q 2666 3584 2933 3390 
Q 3200 3197 3328 2828 
z
" transform="scale(0.015625)"/>
       <path id="DejaVuSans-5d" d="M 1947 4863 
L 1947 -844 
L 622 -844 
L 622 -397 
L 1369 -397 
L 1369 4416 
L 622 4416 
L 622 4863 
L 1947 4863 
z
" transform="scale(0.015625)"/>
      </defs>
      <use xlink:href="#DejaVuSans-4c" transform="translate(0 0.765625)"/>
      <use xlink:href="#DejaVuSans-48" transform="translate(55.712891 0.765625)"/>
      <use xlink:href="#DejaVuSans-46" transform="translate(130.908203 0.765625)"/>
      <use xlink:href="#DejaVuSans-4c" transform="translate(188.427734 0.765625)"/>
      <use xlink:href="#DejaVuSans-58" transform="translate(244.140625 0.765625)"/>
      <use xlink:href="#DejaVuSans-20" transform="translate(312.646484 0.765625)"/>
      <use xlink:href="#DejaVuSans-5b" transform="translate(344.433594 0.765625)"/>
      <use xlink:href="#DejaVuSans-57" transform="translate(383.447266 0.765625)"/>
      <use xlink:href="#DejaVuSans-20" transform="translate(482.324219 0.765625)"/>
      <use xlink:href="#DejaVuSans-6d" transform="translate(514.111328 0.765625)"/>
      <use xlink:href="#DejaVuSans-2212" transform="translate(612.480469 39.046875) scale(0.7)"/>
      <use xlink:href="#DejaVuSans-32" transform="translate(671.132812 39.046875) scale(0.7)"/>
      <use xlink:href="#DejaVuSans-5d" transform="translate(718.40332 0.765625)"/>
     </g>
    </g>
   </g>
   <g id="line2d_26">
    <path d="M 92.646318 116.539877 
L 94.153921 117.333652 
L 95.677007 118.266176 
L 97.215461 118.819943 
L 98.769165 118.953805 
L 100.338 119.696384 
L 103.520587 122.19627 
L 105.134097 123.048441 
L 106.762254 123.210185 
L 108.404933 122.791852 
L 110.062011 122.229367 
L 113.418854 118.910821 
L 115.118364 117.785307 
L 116.831761 118.989269 
L 118.558914 122.467775 
L 122.053962 131.933512 
L 125.602444 140.171407 
L 127.396385 144.611151 
L 129.203277 148.141831 
L 131.022984 151.233579 
L 132.855366 153.292062 
L 134.700285 154.219863 
L 136.557599 154.87784 
L 138.427166 154.723228 
L 140.308846 154.365681 
L 142.202494 154.712631 
L 146.025118 155.998662 
L 147.953802 156.506589 
L 149.893872 156.597677 
L 153.80758 156.026886 
L 155.780919 157.154845 
L 157.765049 160.012202 
L 159.759817 163.632737 
L 161.765073 165.28612 
L 163.780663 165.977958 
L 169.8879 165.548037 
L 171.943285 164.387117 
L 174.00823 162.466429 
L 176.082576 161.106475 
L 178.166166 159.493798 
L 180.258842 157.165832 
L 184.470812 150.160651 
L 186.589785 149.023713 
L 188.717202 149.326707 
L 190.852901 150.256553 
L 192.996719 150.440712 
L 195.148494 151.263638 
L 197.30806 150.664871 
L 199.475254 148.979642 
L 201.649911 148.977738 
L 203.831865 150.115668 
L 206.020949 155.134132 
L 208.216998 159.284979 
L 210.419844 159.89737 
L 212.629319 159.199598 
L 214.845255 156.881101 
L 217.067483 152.217344 
L 219.295833 148.586439 
L 223.770225 144.122018 
L 226.015924 142.182822 
L 228.267066 139.996413 
L 230.523477 136.857698 
L 232.784986 134.296104 
L 235.051421 132.170588 
L 237.32261 129.117272 
L 239.598379 125.710833 
L 241.878556 123.827746 
L 244.162965 123.2843 
L 246.451435 122.884427 
L 248.743789 122.873809 
L 251.039854 123.944978 
L 253.339455 125.598173 
L 255.642417 126.261603 
L 257.948563 126.667178 
L 260.25772 127.834053 
L 262.56971 132.054656 
L 264.884358 137.118051 
L 267.201488 138.596875 
L 269.520923 137.116476 
L 271.842486 140.079958 
L 274.166 144.725349 
L 276.491289 147.594319 
L 278.818176 147.343381 
L 281.146483 147.657101 
L 283.476034 147.0532 
L 285.80665 145.322881 
L 288.138154 145.138858 
L 290.470368 145.333691 
L 292.803116 144.62431 
L 295.136219 144.341069 
L 299.802781 145.303428 
L 302.135884 145.113334 
L 304.468632 144.656394 
L 306.800846 143.390307 
L 309.13235 140.299953 
L 311.462966 135.943414 
L 313.792517 134.103492 
L 316.120824 136.358323 
L 318.447711 139.236546 
L 320.773 141.054186 
L 323.096514 141.1593 
L 325.418077 138.713944 
L 327.737512 132.98674 
L 330.054642 129.477864 
L 332.36929 128.751945 
L 334.68128 128.303278 
L 336.990437 126.845131 
L 341.599545 122.798055 
L 343.899146 121.157089 
L 346.195211 119.29297 
L 348.487565 118.797832 
L 350.776035 120.730006 
L 353.060444 125.496883 
L 355.340621 131.256037 
L 357.61639 139.175801 
L 359.887579 148.492826 
L 362.154014 156.030666 
L 364.415523 161.224972 
L 371.168775 175.343247 
L 375.643167 183.994891 
L 377.871517 186.902857 
L 380.093745 188.636329 
L 382.309681 188.90998 
L 384.519156 188.420294 
L 386.722002 187.749755 
L 388.918051 186.356708 
L 391.107135 185.180825 
L 393.289089 184.857523 
L 395.463746 184.194162 
L 397.63094 184.155439 
L 399.790506 182.737429 
L 401.942281 180.252916 
L 404.086099 177.348659 
L 406.221798 174.933631 
L 408.349215 172.275231 
L 410.468188 170.45126 
L 412.578556 169.842096 
L 414.680158 168.85886 
L 416.772834 167.665747 
L 420.93077 165.638834 
L 422.995715 164.538506 
L 425.0511 162.186078 
L 427.096769 160.778033 
L 429.132566 160.848535 
L 433.173927 161.338375 
L 435.179183 161.423215 
L 437.173951 162.151843 
L 443.093819 163.338528 
L 445.045128 161.995195 
L 446.985198 159.88677 
L 450.831034 157.964848 
L 452.736506 156.528468 
L 454.630154 154.304194 
L 456.511834 151.668114 
L 460.238715 147.183161 
L 463.916016 143.817564 
L 465.735723 142.293701 
L 467.542615 141.309904 
L 469.336556 139.989098 
L 471.117409 137.79523 
L 474.639308 135.117032 
L 476.380086 134.580368 
L 478.107239 135.61733 
L 479.820636 136.946188 
L 481.520146 138.416824 
L 486.534067 144.062501 
L 489.804903 146.990011 
L 491.418413 147.920847 
L 493.017152 147.282442 
L 494.601 146.363418 
L 497.723539 146.132585 
L 499.261993 145.392909 
L 500.785079 145.026196 
L 502.292682 144.484818 
L 502.292682 144.484818 
" clip-path="url(#p3fbe2ffda2)" style="fill: none; stroke: #000000; stroke-width: 3; stroke-linecap: square"/>
   </g>
   <g id="line2d_27">
    <path d="M 92.646318 131.605091 
L 94.153921 131.015898 
L 95.677007 130.631206 
L 100.338 130.150781 
L 101.921848 130.167593 
L 103.520587 129.70038 
L 105.134097 128.875509 
L 106.762254 127.783256 
L 108.404933 126.258483 
L 110.062011 124.563854 
L 113.418854 119.552706 
L 115.118364 117.364666 
L 116.831761 116.448137 
L 118.558914 117.166968 
L 120.299692 118.74904 
L 123.821591 122.881235 
L 125.602444 125.311059 
L 131.022984 135.042197 
L 134.700285 140.366122 
L 136.557599 142.730139 
L 138.427166 143.961993 
L 140.308846 144.663403 
L 142.202494 145.806434 
L 146.025118 149.194686 
L 147.953802 150.947099 
L 149.893872 152.869007 
L 153.80758 156.347362 
L 155.780919 159.021552 
L 159.759817 165.481911 
L 161.765073 167.554345 
L 163.780663 168.764343 
L 165.806434 169.061387 
L 167.842231 168.883892 
L 169.8879 168.550928 
L 171.943285 166.980163 
L 174.00823 164.410531 
L 178.166166 160.470658 
L 180.258842 157.971422 
L 182.360444 154.771274 
L 184.470812 150.304556 
L 186.589785 147.279555 
L 188.717202 145.542696 
L 190.852901 144.338129 
L 192.996719 142.520365 
L 195.148494 140.928589 
L 199.475254 135.579281 
L 201.649911 134.535949 
L 203.831865 133.708678 
L 206.020949 135.151774 
L 208.216998 136.432 
L 210.419844 136.080282 
L 212.629319 135.567758 
L 214.845255 134.353714 
L 217.067483 131.658458 
L 219.295833 129.775275 
L 221.530138 128.524116 
L 223.770225 127.809548 
L 226.015924 127.47072 
L 228.267066 127.389063 
L 230.523477 127.01655 
L 232.784986 127.354622 
L 235.051421 127.826092 
L 237.32261 127.816715 
L 239.598379 126.657779 
L 241.878556 126.424547 
L 244.162965 126.551472 
L 246.451435 126.560538 
L 248.743789 127.200018 
L 253.339455 129.233722 
L 255.642417 129.059975 
L 257.948563 129.110298 
L 260.25772 131.039765 
L 264.884358 140.443192 
L 267.201488 143.106264 
L 269.520923 142.192875 
L 271.842486 143.365719 
L 274.166 146.109229 
L 276.491289 147.777623 
L 278.818176 147.764638 
L 281.146483 147.973709 
L 283.476034 147.590374 
L 285.80665 146.476642 
L 288.138154 146.245053 
L 290.470368 146.480227 
L 292.803116 146.476647 
L 295.136219 147.40527 
L 297.4695 149.06278 
L 299.802781 150.071444 
L 302.135884 150.43483 
L 304.468632 150.415284 
L 306.800846 149.677575 
L 309.13235 147.371429 
L 311.462966 143.697124 
L 313.792517 141.641468 
L 316.120824 142.431216 
L 318.447711 143.473992 
L 320.773 143.313561 
L 323.096514 141.373212 
L 325.418077 137.403903 
L 327.737512 132.350875 
L 330.054642 128.643423 
L 332.36929 125.26968 
L 334.68128 121.39911 
L 336.990437 116.106235 
L 339.296583 109.841695 
L 341.599545 105.135739 
L 343.899146 102.30157 
L 346.195211 101.845131 
L 348.487565 104.423885 
L 350.776035 110.189218 
L 353.060444 119.13087 
L 355.340621 128.714114 
L 357.61639 140.194596 
L 359.887579 152.532391 
L 362.154014 161.976808 
L 364.415523 167.81666 
L 366.671934 172.737821 
L 368.923076 177.138281 
L 371.168775 181.07079 
L 373.408862 183.94087 
L 375.643167 186.49137 
L 377.871517 187.55558 
L 380.093745 187.250135 
L 382.309681 186.460247 
L 386.722002 184.110879 
L 391.107135 180.842961 
L 395.463746 178.812219 
L 397.63094 178.455936 
L 399.790506 177.972247 
L 401.942281 176.455865 
L 408.349215 170.710118 
L 410.468188 169.256081 
L 412.578556 168.713245 
L 414.680158 169.222225 
L 420.93077 172.216752 
L 422.995715 172.908492 
L 425.0511 172.938326 
L 427.096769 174.30248 
L 431.158337 180.347602 
L 433.173927 182.343471 
L 435.179183 183.495624 
L 437.173951 184.40178 
L 439.158081 184.406369 
L 441.13142 183.551724 
L 443.093819 181.266023 
L 445.045128 177.839269 
L 446.985198 173.921875 
L 448.913882 170.595596 
L 450.831034 167.612963 
L 456.511834 159.715995 
L 462.083634 152.214041 
L 465.735723 146.694983 
L 467.542615 144.639663 
L 469.336556 142.881499 
L 472.885038 139.172497 
L 474.639308 137.368402 
L 476.380086 136.109868 
L 478.107239 135.893539 
L 479.820636 136.254985 
L 481.520146 136.801583 
L 483.20564 137.58276 
L 484.876989 138.667302 
L 486.534067 140.190852 
L 489.804903 142.418159 
L 491.418413 143.621511 
L 494.601 144.85101 
L 496.169835 145.834202 
L 497.723539 146.668249 
L 499.261993 147.028421 
L 500.785079 147.270125 
L 502.292682 147.669336 
L 502.292682 147.669336 
" clip-path="url(#p3fbe2ffda2)" style="fill: none; stroke: #808080; stroke-width: 3; stroke-linecap: square"/>
   </g>
   <g id="line2d_28">
    <path d="M 92.646318 134.845933 
L 95.677007 133.118593 
L 97.215461 132.523214 
L 100.338 131.448678 
L 101.921848 130.843763 
L 103.520587 129.73234 
L 106.762254 127.110056 
L 110.062011 123.80482 
L 111.73336 121.652309 
L 115.118364 116.627376 
L 116.831761 114.404125 
L 118.558914 113.190612 
L 120.299692 112.753455 
L 122.053962 112.803376 
L 123.821591 113.291999 
L 125.602444 114.190713 
L 127.396385 116.483058 
L 129.203277 119.782433 
L 134.700285 130.817198 
L 136.557599 134.634335 
L 138.427166 137.195762 
L 140.308846 138.996367 
L 142.202494 141.171947 
L 147.953802 148.260515 
L 149.893872 151.114018 
L 153.80758 157.437751 
L 155.780919 161.115473 
L 157.765049 164.23479 
L 159.759817 167.058968 
L 161.765073 169.336064 
L 163.780663 170.845108 
L 165.806434 171.585182 
L 169.8879 171.704102 
L 171.943285 170.510643 
L 174.00823 168.456907 
L 178.166166 165.438005 
L 180.258842 163.567475 
L 182.360444 161.370218 
L 184.470812 157.757243 
L 186.589785 154.680251 
L 188.717202 152.281667 
L 190.852901 150.360123 
L 192.996719 148.217873 
L 195.148494 146.684208 
L 197.30806 144.520579 
L 199.475254 142.883257 
L 203.831865 141.367154 
L 206.020949 141.228688 
L 208.216998 140.950633 
L 210.419844 139.992267 
L 212.629319 139.424635 
L 214.845255 138.507849 
L 217.067483 136.87935 
L 219.295833 136.123749 
L 221.530138 135.72455 
L 223.770225 136.068766 
L 226.015924 136.838845 
L 228.267066 138.226572 
L 230.523477 139.867753 
L 235.051421 144.745602 
L 237.32261 146.488773 
L 239.598379 146.730927 
L 244.162965 148.605401 
L 246.451435 149.252869 
L 248.743789 150.166735 
L 251.039854 150.491535 
L 253.339455 150.092112 
L 255.642417 148.309929 
L 257.948563 147.074109 
L 260.25772 148.181809 
L 264.884358 154.538589 
L 267.201488 156.604512 
L 269.520923 155.119962 
L 271.842486 154.013249 
L 274.166 154.405785 
L 276.491289 154.381144 
L 278.818176 153.569442 
L 281.146483 153.105759 
L 283.476034 152.498294 
L 285.80665 151.441585 
L 288.138154 150.972274 
L 290.470368 151.140813 
L 292.803116 151.481896 
L 295.136219 152.879025 
L 297.4695 154.948885 
L 299.802781 156.126204 
L 302.135884 156.638702 
L 304.468632 157.023409 
L 306.800846 156.933804 
L 309.13235 155.828833 
L 311.462966 153.78072 
L 313.792517 153.055948 
L 318.447711 155.689101 
L 320.773 155.557279 
L 323.096514 153.499653 
L 330.054642 142.169374 
L 332.36929 137.197129 
L 334.68128 131.648513 
L 336.990437 124.634023 
L 339.296583 116.652968 
L 341.599545 111.242116 
L 343.899146 108.413891 
L 346.195211 109.100271 
L 348.487565 113.367485 
L 350.776035 121.063054 
L 353.060444 132.265865 
L 355.340621 144.086837 
L 359.887579 171.413856 
L 362.154014 181.758525 
L 364.415523 188.113052 
L 366.671934 193.491498 
L 368.923076 198.131703 
L 371.168775 202.157505 
L 373.408862 204.750007 
L 375.643167 206.582708 
L 377.871517 206.713604 
L 380.093745 204.888114 
L 384.519156 200.840004 
L 386.722002 198.366521 
L 388.918051 195.181016 
L 391.107135 192.279856 
L 393.289089 190.02804 
L 395.463746 188.347237 
L 397.63094 186.972374 
L 399.790506 185.75016 
L 401.942281 183.269506 
L 404.086099 180.402527 
L 406.221798 177.733573 
L 410.468188 171.629206 
L 412.578556 169.348896 
L 414.680158 169.113617 
L 416.772834 170.421754 
L 418.856424 172.104156 
L 422.995715 176.028825 
L 425.0511 177.536888 
L 427.096769 180.332331 
L 431.158337 189.2913 
L 433.173927 192.256809 
L 435.179183 194.198276 
L 437.173951 195.341671 
L 439.158081 195.501626 
L 441.13142 194.597592 
L 443.093819 191.700546 
L 445.045128 187.844266 
L 448.913882 179.641089 
L 450.831034 176.053678 
L 452.736506 173.291851 
L 454.630154 171.184683 
L 458.381401 167.448576 
L 462.083634 162.856415 
L 467.542615 154.121414 
L 474.639308 143.892892 
L 476.380086 141.751269 
L 478.107239 140.472598 
L 479.820636 139.965685 
L 481.520146 139.778396 
L 483.20564 139.844742 
L 484.876989 140.474986 
L 489.804903 144.771512 
L 493.017152 148.523525 
L 494.601 150.279929 
L 497.723539 154.255269 
L 499.261993 155.696374 
L 502.292682 158.061857 
L 502.292682 158.061857 
" clip-path="url(#p3fbe2ffda2)" style="fill: none; stroke: #1f77b4; stroke-width: 1.5; stroke-linecap: square"/>
   </g>
   <g id="line2d_29">
    <path d="M 92.646318 140.856384 
L 97.215461 143.067041 
L 101.921848 144.177787 
L 103.520587 144.326938 
L 105.134097 144.331103 
L 106.762254 144.002501 
L 108.404933 143.439398 
L 110.062011 142.673566 
L 111.73336 141.487574 
L 113.418854 140.573 
L 115.118364 140.185558 
L 116.831761 140.904798 
L 118.558914 142.477507 
L 125.602444 149.732242 
L 127.396385 151.253836 
L 129.203277 151.770737 
L 131.022984 151.830996 
L 132.855366 151.669134 
L 134.700285 151.35888 
L 138.427166 150.180366 
L 144.107966 148.832833 
L 147.953802 148.149231 
L 149.893872 147.478478 
L 151.845181 146.24405 
L 153.80758 144.869314 
L 155.780919 144.006813 
L 159.759817 144.422009 
L 163.780663 143.41688 
L 165.806434 142.643036 
L 169.8879 141.537981 
L 171.943285 140.912028 
L 178.166166 138.378071 
L 180.258842 137.258481 
L 184.470812 134.069144 
L 186.589785 133.154673 
L 188.717202 132.875852 
L 190.852901 132.757998 
L 192.996719 131.919951 
L 195.148494 130.59727 
L 197.30806 128.743911 
L 199.475254 126.478658 
L 203.831865 124.122517 
L 206.020949 124.442928 
L 208.216998 125.157771 
L 210.419844 125.536406 
L 212.629319 125.510222 
L 214.845255 125.192539 
L 217.067483 124.081115 
L 219.295833 122.67014 
L 223.770225 120.189598 
L 226.015924 118.906643 
L 228.267066 117.317508 
L 232.784986 113.49125 
L 235.051421 112.036289 
L 237.32261 110.945726 
L 239.598379 110.138627 
L 241.878556 109.555852 
L 244.162965 109.37265 
L 246.451435 109.623811 
L 248.743789 110.154845 
L 251.039854 111.615405 
L 255.642417 116.20288 
L 257.948563 118.108937 
L 260.25772 119.821221 
L 262.56971 121.904547 
L 264.884358 124.251056 
L 269.520923 127.233593 
L 274.166 133.499216 
L 276.491289 135.945292 
L 278.818176 137.483503 
L 281.146483 138.644657 
L 283.476034 139.233232 
L 288.138154 139.544481 
L 290.470368 139.290914 
L 297.4695 137.631562 
L 299.802781 137.439869 
L 304.468632 137.396236 
L 306.800846 136.869472 
L 309.13235 135.500717 
L 313.792517 131.341048 
L 316.120824 129.898309 
L 318.447711 128.672774 
L 320.773 127.925377 
L 325.418077 126.913199 
L 327.737512 125.696447 
L 330.054642 125.546612 
L 334.68128 127.783607 
L 336.990437 128.729916 
L 339.296583 129.827334 
L 341.599545 130.259128 
L 343.899146 130.171627 
L 346.195211 129.2512 
L 348.487565 128.046458 
L 350.776035 126.649071 
L 353.060444 124.747097 
L 359.887579 118.295895 
L 362.154014 116.800146 
L 364.415523 115.577627 
L 368.923076 112.892677 
L 371.168775 111.760382 
L 373.408862 110.899352 
L 375.643167 110.422108 
L 377.871517 110.441805 
L 380.093745 111.432576 
L 382.309681 112.54771 
L 384.519156 113.529618 
L 386.722002 115.140297 
L 388.918051 117.05473 
L 391.107135 118.693761 
L 393.289089 120.156705 
L 395.463746 121.164452 
L 397.63094 122.713319 
L 399.790506 124.63462 
L 404.086099 129.009668 
L 406.221798 130.737391 
L 408.349215 132.698348 
L 410.468188 135.243963 
L 412.578556 138.251227 
L 414.680158 140.293013 
L 416.772834 140.903311 
L 418.856424 140.867946 
L 420.93077 140.463764 
L 422.995715 139.84288 
L 427.096769 137.92698 
L 429.132566 137.247951 
L 431.158337 136.43064 
L 435.179183 135.508692 
L 439.158081 135.587355 
L 441.13142 135.497244 
L 443.093819 136.121569 
L 446.985198 137.607785 
L 450.831034 139.688059 
L 452.736506 140.273908 
L 454.630154 140.440604 
L 458.381401 140.336434 
L 467.542615 141.375097 
L 469.336556 141.627479 
L 471.117409 141.539121 
L 476.380086 141.509688 
L 479.820636 141.897688 
L 483.20564 142.108335 
L 484.876989 142.044557 
L 486.534067 141.804763 
L 488.176746 141.427245 
L 489.804903 140.906157 
L 491.418413 140.12903 
L 496.169835 136.971431 
L 500.785079 134.572243 
L 502.292682 133.908773 
L 502.292682 133.908773 
" clip-path="url(#p3fbe2ffda2)" style="fill: none; stroke: #ff7f0e; stroke-width: 1.5; stroke-linecap: square"/>
   </g>
   <g id="line2d_30">
    <path d="M 92.646318 156.182774 
L 95.677007 155.400131 
L 97.215461 155.141115 
L 98.769165 155.042515 
L 100.338 155.098777 
L 101.921848 155.426042 
L 106.762254 156.950699 
L 110.062011 158.365469 
L 113.418854 160.07168 
L 115.118364 160.831732 
L 116.831761 161.419214 
L 118.558914 161.778848 
L 120.299692 162.018014 
L 122.053962 162.144837 
L 123.821591 162.106738 
L 129.203277 160.697813 
L 131.022984 160.105162 
L 134.700285 158.470044 
L 136.557599 157.609055 
L 140.308846 156.230684 
L 142.202494 155.702224 
L 146.025118 155.030915 
L 151.845181 154.406784 
L 157.765049 154.037861 
L 171.943285 155.837492 
L 178.166166 156.934583 
L 182.360444 157.977738 
L 184.470812 158.75817 
L 188.717202 160.665177 
L 190.852901 161.500007 
L 195.148494 163.927111 
L 197.30806 165.304894 
L 199.475254 166.497366 
L 201.649911 167.332286 
L 206.020949 169.760158 
L 208.216998 170.603596 
L 210.419844 170.831609 
L 219.295833 171.261386 
L 221.530138 171.606237 
L 226.015924 172.005233 
L 228.267066 172.124983 
L 230.523477 172.071368 
L 232.784986 171.763288 
L 235.051421 171.324201 
L 239.598379 170.068224 
L 241.878556 169.530088 
L 244.162965 168.85342 
L 248.743789 167.158439 
L 255.642417 164.827165 
L 257.948563 164.207251 
L 260.25772 163.316735 
L 267.201488 161.068075 
L 271.842486 159.221158 
L 278.818176 156.991693 
L 281.146483 156.503292 
L 283.476034 156.138847 
L 285.80665 155.88831 
L 288.138154 156.008297 
L 290.470368 156.3285 
L 295.136219 156.653051 
L 299.802781 156.785371 
L 302.135884 156.605104 
L 304.468632 156.275639 
L 306.800846 156.154299 
L 309.13235 156.321879 
L 311.462966 156.805706 
L 313.792517 157.524471 
L 318.447711 159.392117 
L 320.773 160.110905 
L 323.096514 160.704511 
L 325.418077 161.044843 
L 327.737512 161.066883 
L 330.054642 161.207438 
L 332.36929 161.646256 
L 334.68128 162.24699 
L 336.990437 163.022295 
L 339.296583 163.641394 
L 341.599545 163.914495 
L 343.899146 163.996052 
L 346.195211 163.77366 
L 353.060444 162.397909 
L 355.340621 162.318204 
L 357.61639 162.564898 
L 362.154014 163.698137 
L 364.415523 164.405982 
L 366.671934 165.312432 
L 373.408862 168.571511 
L 375.643167 169.766554 
L 377.871517 170.680171 
L 380.093745 171.209446 
L 382.309681 171.303827 
L 384.519156 171.241051 
L 393.289089 169.881046 
L 395.463746 169.58053 
L 397.63094 169.050244 
L 404.086099 165.431812 
L 408.349215 163.694479 
L 410.468188 162.662912 
L 414.680158 160.095596 
L 416.772834 159.16807 
L 422.995715 157.316788 
L 427.096769 156.323169 
L 429.132566 155.520381 
L 431.158337 154.905663 
L 435.179183 154.068655 
L 437.173951 153.740351 
L 439.158081 153.597388 
L 441.13142 153.736888 
L 443.093819 153.723909 
L 445.045128 153.403598 
L 446.985198 152.907378 
L 450.831034 152.151225 
L 452.736506 151.64784 
L 460.238715 149.201254 
L 462.083634 148.893788 
L 463.916016 148.872152 
L 465.735723 149.034745 
L 467.542615 149.423152 
L 471.117409 150.589145 
L 474.639308 152.271607 
L 478.107239 153.950724 
L 481.520146 155.289049 
L 484.876989 156.427759 
L 486.534067 156.751256 
L 489.804903 157.02049 
L 491.418413 157.03909 
L 497.723539 156.560707 
L 500.785079 156.141158 
L 502.292682 155.978706 
L 502.292682 155.978706 
" clip-path="url(#p3fbe2ffda2)" style="fill: none; stroke: #2ca02c; stroke-width: 1.5; stroke-linecap: square"/>
   </g>
   <g id="line2d_31">
    <path d="M 72.164 150.14 
L 522.775 150.14 
" clip-path="url(#p3fbe2ffda2)" style="fill: none; stroke: #808080; stroke-width: 0.5; stroke-linecap: square"/>
   </g>
   <g id="line2d_32">
    <path d="M 92.646318 262.6 
L 92.646318 37.68 
" clip-path="url(#p3fbe2ffda2)" style="fill: none; stroke: #808080; stroke-width: 0.5; stroke-linecap: square"/>
   </g>
   <g id="line2d_33">
    <path d="M 125.602444 262.6 
L 125.602444 37.68 
" clip-path="url(#p3fbe2ffda2)" style="fill: none; stroke: #808080; stroke-width: 0.5; stroke-linecap: square"/>
   </g>
   <g id="line2d_34">
    <path d="M 163.780663 262.6 
L 163.780663 37.68 
" clip-path="url(#p3fbe2ffda2)" style="fill: none; stroke: #808080; stroke-width: 0.5; stroke-linecap: square"/>
   </g>
   <g id="line2d_35">
    <path d="M 206.020949 262.6 
L 206.020949 37.68 
" clip-path="url(#p3fbe2ffda2)" style="fill: none; stroke: #808080; stroke-width: 0.5; stroke-linecap: square"/>
   </g>
   <g id="line2d_36">
    <path d="M 251.039854 262.6 
L 251.039854 37.68 
" clip-path="url(#p3fbe2ffda2)" style="fill: none; stroke: #808080; stroke-width: 0.5; stroke-linecap: square"/>
   </g>
   <g id="line2d_37">
    <path d="M 297.4695 262.6 
L 297.4695 37.68 
" clip-path="url(#p3fbe2ffda2)" style="fill: none; stroke: #808080; stroke-width: 0.5; stroke-linecap: square"/>
   </g>
   <g id="line2d_38">
    <path d="M 343.899146 262.6 
L 343.899146 37.68 
" clip-path="url(#p3fbe2ffda2)" style="fill: none; stroke: #808080; stroke-width: 0.5; stroke-linecap: square"/>
   </g>
   <g id="line2d_39">
    <path d="M 388.918051 262.6 
L 388.918051 37.68 
" clip-path="url(#p3fbe2ffda2)" style="fill: none; stroke: #808080; stroke-width: 0.5; stroke-linecap: square"/>
   </g>
   <g id="line2d_40">
    <path d="M 431.158337 262.6 
L 431.158337 37.68 
" clip-path="url(#p3fbe2ffda2)" style="fill: none; stroke: #808080; stroke-width: 0.5; stroke-linecap: square"/>
   </g>
   <g id="line2d_41">
    <path d="M 469.336556 262.6 
L 469.336556 37.68 
" clip-path="url(#p3fbe2ffda2)" style="fill: none; stroke: #808080; stroke-width: 0.5; stroke-linecap: square"/>
   </g>
   <g id="line2d_42">
    <path d="M 502.292682 262.6 
L 502.292682 37.68 
" clip-path="url(#p3fbe2ffda2)" style="fill: none; stroke: #808080; stroke-width: 0.5; stroke-linecap: square"/>
   </g>
   <g id="patch_5">
    <path d="M 72.164 262.6 
L 72.164 37.68 
" style="fill: none; stroke: #000000; stroke-width: 0.8; stroke-linejoin: miter; stroke-linecap: square"/>
   </g>
   <g id="patch_6">
    <path d="M 522.775 262.6 
L 522.775 37.68 
" style="fill: none; stroke: #000000; stroke-width: 0.8; stroke-linejoin: miter; stroke-linecap: square"/>
   </g>
   <g id="patch_7">
    <path d="M 72.164 262.6 
L 522.775 262.6 
" style="fill: none; stroke: #000000; stroke-width: 0.8; stroke-linejoin: miter; stroke-linecap: square"/>
   </g>
   <g id="patch_8">
    <path d="M 72.164 37.68 
L 522.775 37.68 
" style="fill: none; stroke: #000000; stroke-width: 0.8; stroke-linejoin: miter; stroke-linecap: square"/>
   </g>
   <g id="text_21">
    <!-- UNSEED$-$CTRL -->
    <g transform="translate(224.9895 31.68) scale(0.192 -0.192)">
     <defs>
      <path id="DejaVuSans-55" d="M 556 4666 
L 1191 4666 
L 1191 1831 
Q 1191 1081 1462 751 
Q 1734 422 2344 422 
Q 2950 422 3222 751 
Q 3494 1081 3494 1831 
L 3494 4666 
L 4128 4666 
L 4128 1753 
Q 4128 841 3676 375 
Q 3225 -91 2344 -91 
Q 1459 -91 1007 375 
Q 556 841 556 1753 
L 556 4666 
z
" transform="scale(0.015625)"/>
      <path id="DejaVuSans-4e" d="M 628 4666 
L 1478 4666 
L 3547 763 
L 3547 4666 
L 4159 4666 
L 4159 0 
L 3309 0 
L 1241 3903 
L 1241 0 
L 628 0 
L 628 4666 
z
" transform="scale(0.015625)"/>
      <path id="DejaVuSans-53" d="M 3425 4513 
L 3425 3897 
Q 3066 4069 2747 4153 
Q 2428 4238 2131 4238 
Q 1616 4238 1336 4038 
Q 1056 3838 1056 3469 
Q 1056 3159 1242 3001 
Q 1428 2844 1947 2747 
L 2328 2669 
Q 3034 2534 3370 2195 
Q 3706 1856 3706 1288 
Q 3706 609 3251 259 
Q 2797 -91 1919 -91 
Q 1588 -91 1214 -16 
Q 841 59 441 206 
L 441 856 
Q 825 641 1194 531 
Q 1563 422 1919 422 
Q 2459 422 2753 634 
Q 3047 847 3047 1241 
Q 3047 1584 2836 1778 
Q 2625 1972 2144 2069 
L 1759 2144 
Q 1053 2284 737 2584 
Q 422 2884 422 3419 
Q 422 4038 858 4394 
Q 1294 4750 2059 4750 
Q 2388 4750 2728 4690 
Q 3069 4631 3425 4513 
z
" transform="scale(0.015625)"/>
      <path id="DejaVuSans-45" d="M 628 4666 
L 3578 4666 
L 3578 4134 
L 1259 4134 
L 1259 2753 
L 3481 2753 
L 3481 2222 
L 1259 2222 
L 1259 531 
L 3634 531 
L 3634 0 
L 628 0 
L 628 4666 
z
" transform="scale(0.015625)"/>
      <path id="DejaVuSans-44" d="M 1259 4147 
L 1259 519 
L 2022 519 
Q 2988 519 3436 956 
Q 3884 1394 3884 2338 
Q 3884 3275 3436 3711 
Q 2988 4147 2022 4147 
L 1259 4147 
z
M 628 4666 
L 1925 4666 
Q 3281 4666 3915 4102 
Q 4550 3538 4550 2338 
Q 4550 1131 3912 565 
Q 3275 0 1925 0 
L 628 0 
L 628 4666 
z
" transform="scale(0.015625)"/>
      <path id="DejaVuSans-43" d="M 4122 4306 
L 4122 3641 
Q 3803 3938 3442 4084 
Q 3081 4231 2675 4231 
Q 1875 4231 1450 3742 
Q 1025 3253 1025 2328 
Q 1025 1406 1450 917 
Q 1875 428 2675 428 
Q 3081 428 3442 575 
Q 3803 722 4122 1019 
L 4122 359 
Q 3791 134 3420 21 
Q 3050 -91 2638 -91 
Q 1578 -91 968 557 
Q 359 1206 359 2328 
Q 359 3453 968 4101 
Q 1578 4750 2638 4750 
Q 3056 4750 3426 4639 
Q 3797 4528 4122 4306 
z
" transform="scale(0.015625)"/>
      <path id="DejaVuSans-54" d="M -19 4666 
L 3928 4666 
L 3928 4134 
L 2272 4134 
L 2272 0 
L 1638 0 
L 1638 4134 
L -19 4134 
L -19 4666 
z
" transform="scale(0.015625)"/>
      <path id="DejaVuSans-52" d="M 2841 2188 
Q 3044 2119 3236 1894 
Q 3428 1669 3622 1275 
L 4263 0 
L 3584 0 
L 2988 1197 
Q 2756 1666 2539 1819 
Q 2322 1972 1947 1972 
L 1259 1972 
L 1259 0 
L 628 0 
L 628 4666 
L 2053 4666 
Q 2853 4666 3247 4331 
Q 3641 3997 3641 3322 
Q 3641 2881 3436 2590 
Q 3231 2300 2841 2188 
z
M 1259 4147 
L 1259 2491 
L 2053 2491 
Q 2509 2491 2742 2702 
Q 2975 2913 2975 3322 
Q 2975 3731 2742 3939 
Q 2509 4147 2053 4147 
L 1259 4147 
z
" transform="scale(0.015625)"/>
     </defs>
     <use xlink:href="#DejaVuSans-55" transform="translate(0 0.78125)"/>
     <use xlink:href="#DejaVuSans-4e" transform="translate(73.193359 0.78125)"/>
     <use xlink:href="#DejaVuSans-53" transform="translate(147.998047 0.78125)"/>
     <use xlink:href="#DejaVuSans-45" transform="translate(211.474609 0.78125)"/>
     <use xlink:href="#DejaVuSans-45" transform="translate(274.658203 0.78125)"/>
     <use xlink:href="#DejaVuSans-44" transform="translate(337.841797 0.78125)"/>
     <use xlink:href="#DejaVuSans-2212" transform="translate(414.84375 0.78125)"/>
     <use xlink:href="#DejaVuSans-43" transform="translate(498.632812 0.78125)"/>
     <use xlink:href="#DejaVuSans-54" transform="translate(568.457031 0.78125)"/>
     <use xlink:href="#DejaVuSans-52" transform="translate(629.541016 0.78125)"/>
     <use xlink:href="#DejaVuSans-4c" transform="translate(699.023438 0.78125)"/>
    </g>
   </g>
   <g id="text_22">
    <!-- (a) -->
    <g transform="translate(72.164 31.68) scale(0.192 -0.192)">
     <defs>
      <path id="DejaVuSans-28" d="M 1984 4856 
Q 1566 4138 1362 3434 
Q 1159 2731 1159 2009 
Q 1159 1288 1364 580 
Q 1569 -128 1984 -844 
L 1484 -844 
Q 1016 -109 783 600 
Q 550 1309 550 2009 
Q 550 2706 781 3412 
Q 1013 4119 1484 4856 
L 1984 4856 
z
" transform="scale(0.015625)"/>
      <path id="DejaVuSans-29" d="M 513 4856 
L 1013 4856 
Q 1481 4119 1714 3412 
Q 1947 2706 1947 2009 
Q 1947 1309 1714 600 
Q 1481 -109 1013 -844 
L 513 -844 
Q 928 -128 1133 580 
Q 1338 1288 1338 2009 
Q 1338 2731 1133 3434 
Q 928 4138 513 4856 
z
" transform="scale(0.015625)"/>
     </defs>
     <use xlink:href="#DejaVuSans-28"/>
     <use xlink:href="#DejaVuSans-61" transform="translate(39.013672 0)"/>
     <use xlink:href="#DejaVuSans-29" transform="translate(100.292969 0)"/>
    </g>
   </g>
   <g id="legend_1">
    <g id="patch_9">
     <path d="M 232.989187 256.6 
L 361.949813 256.6 
Q 364.349812 256.6 364.349812 254.2 
L 364.349812 167.33125 
Q 364.349812 164.93125 361.949813 164.93125 
L 232.989187 164.93125 
Q 230.589187 164.93125 230.589187 167.33125 
L 230.589187 254.2 
Q 230.589187 256.6 232.989187 256.6 
z
" style="fill: #ffffff; opacity: 0.8; stroke: #cccccc; stroke-linejoin: miter"/>
    </g>
    <g id="line2d_43">
     <path d="M 235.389187 174.649375 
L 247.389187 174.649375 
L 259.389187 174.649375 
" style="fill: none; stroke: #000000; stroke-width: 3; stroke-linecap: square"/>
    </g>
    <g id="text_23">
     <!-- truth -->
     <g transform="translate(268.989188 178.849375) scale(0.12 -0.12)">
      <defs>
       <path id="DejaVuSans-72" d="M 2631 2963 
Q 2534 3019 2420 3045 
Q 2306 3072 2169 3072 
Q 1681 3072 1420 2755 
Q 1159 2438 1159 1844 
L 1159 0 
L 581 0 
L 581 3500 
L 1159 3500 
L 1159 2956 
Q 1341 3275 1631 3429 
Q 1922 3584 2338 3584 
Q 2397 3584 2469 3576 
Q 2541 3569 2628 3553 
L 2631 2963 
z
" transform="scale(0.015625)"/>
       <path id="DejaVuSans-68" d="M 3513 2113 
L 3513 0 
L 2938 0 
L 2938 2094 
Q 2938 2591 2744 2837 
Q 2550 3084 2163 3084 
Q 1697 3084 1428 2787 
Q 1159 2491 1159 1978 
L 1159 0 
L 581 0 
L 581 4863 
L 1159 4863 
L 1159 2956 
Q 1366 3272 1645 3428 
Q 1925 3584 2291 3584 
Q 2894 3584 3203 3211 
Q 3513 2838 3513 2113 
z
" transform="scale(0.015625)"/>
      </defs>
      <use xlink:href="#DejaVuSans-74"/>
      <use xlink:href="#DejaVuSans-72" transform="translate(39.208984 0)"/>
      <use xlink:href="#DejaVuSans-75" transform="translate(80.322266 0)"/>
      <use xlink:href="#DejaVuSans-74" transform="translate(143.701172 0)"/>
      <use xlink:href="#DejaVuSans-68" transform="translate(182.910156 0)"/>
     </g>
    </g>
    <g id="line2d_44">
     <path d="M 235.389187 192.263125 
L 247.389187 192.263125 
L 259.389187 192.263125 
" style="fill: none; stroke: #808080; stroke-width: 3; stroke-linecap: square"/>
    </g>
    <g id="text_24">
     <!-- linear estimate -->
     <g transform="translate(268.989188 196.463125) scale(0.12 -0.12)">
      <defs>
       <path id="DejaVuSans-6c" d="M 603 4863 
L 1178 4863 
L 1178 0 
L 603 0 
L 603 4863 
z
" transform="scale(0.015625)"/>
       <path id="DejaVuSans-6e" d="M 3513 2113 
L 3513 0 
L 2938 0 
L 2938 2094 
Q 2938 2591 2744 2837 
Q 2550 3084 2163 3084 
Q 1697 3084 1428 2787 
Q 1159 2491 1159 1978 
L 1159 0 
L 581 0 
L 581 3500 
L 1159 3500 
L 1159 2956 
Q 1366 3272 1645 3428 
Q 1925 3584 2291 3584 
Q 2894 3584 3203 3211 
Q 3513 2838 3513 2113 
z
" transform="scale(0.015625)"/>
       <path id="DejaVuSans-73" d="M 2834 3397 
L 2834 2853 
Q 2591 2978 2328 3040 
Q 2066 3103 1784 3103 
Q 1356 3103 1142 2972 
Q 928 2841 928 2578 
Q 928 2378 1081 2264 
Q 1234 2150 1697 2047 
L 1894 2003 
Q 2506 1872 2764 1633 
Q 3022 1394 3022 966 
Q 3022 478 2636 193 
Q 2250 -91 1575 -91 
Q 1294 -91 989 -36 
Q 684 19 347 128 
L 347 722 
Q 666 556 975 473 
Q 1284 391 1588 391 
Q 1994 391 2212 530 
Q 2431 669 2431 922 
Q 2431 1156 2273 1281 
Q 2116 1406 1581 1522 
L 1381 1569 
Q 847 1681 609 1914 
Q 372 2147 372 2553 
Q 372 3047 722 3315 
Q 1072 3584 1716 3584 
Q 2034 3584 2315 3537 
Q 2597 3491 2834 3397 
z
" transform="scale(0.015625)"/>
      </defs>
      <use xlink:href="#DejaVuSans-6c"/>
      <use xlink:href="#DejaVuSans-69" transform="translate(27.783203 0)"/>
      <use xlink:href="#DejaVuSans-6e" transform="translate(55.566406 0)"/>
      <use xlink:href="#DejaVuSans-65" transform="translate(118.945312 0)"/>
      <use xlink:href="#DejaVuSans-61" transform="translate(180.46875 0)"/>
      <use xlink:href="#DejaVuSans-72" transform="translate(241.748047 0)"/>
      <use xlink:href="#DejaVuSans-20" transform="translate(282.861328 0)"/>
      <use xlink:href="#DejaVuSans-65" transform="translate(314.648438 0)"/>
      <use xlink:href="#DejaVuSans-73" transform="translate(376.171875 0)"/>
      <use xlink:href="#DejaVuSans-74" transform="translate(428.271484 0)"/>
      <use xlink:href="#DejaVuSans-69" transform="translate(467.480469 0)"/>
      <use xlink:href="#DejaVuSans-6d" transform="translate(495.263672 0)"/>
      <use xlink:href="#DejaVuSans-61" transform="translate(592.675781 0)"/>
      <use xlink:href="#DejaVuSans-74" transform="translate(653.955078 0)"/>
      <use xlink:href="#DejaVuSans-65" transform="translate(693.164062 0)"/>
     </g>
    </g>
    <g id="line2d_45">
     <path d="M 235.389187 209.876875 
L 247.389187 209.876875 
L 259.389187 209.876875 
" style="fill: none; stroke: #1f77b4; stroke-width: 1.5; stroke-linecap: square"/>
    </g>
    <g id="text_25">
     <!-- wind speed -->
     <g transform="translate(268.989188 214.076875) scale(0.12 -0.12)">
      <defs>
       <path id="DejaVuSans-77" d="M 269 3500 
L 844 3500 
L 1563 769 
L 2278 3500 
L 2956 3500 
L 3675 769 
L 4391 3500 
L 4966 3500 
L 4050 0 
L 3372 0 
L 2619 2869 
L 1863 0 
L 1184 0 
L 269 3500 
z
" transform="scale(0.015625)"/>
       <path id="DejaVuSans-70" d="M 1159 525 
L 1159 -1331 
L 581 -1331 
L 581 3500 
L 1159 3500 
L 1159 2969 
Q 1341 3281 1617 3432 
Q 1894 3584 2278 3584 
Q 2916 3584 3314 3078 
Q 3713 2572 3713 1747 
Q 3713 922 3314 415 
Q 2916 -91 2278 -91 
Q 1894 -91 1617 61 
Q 1341 213 1159 525 
z
M 3116 1747 
Q 3116 2381 2855 2742 
Q 2594 3103 2138 3103 
Q 1681 3103 1420 2742 
Q 1159 2381 1159 1747 
Q 1159 1113 1420 752 
Q 1681 391 2138 391 
Q 2594 391 2855 752 
Q 3116 1113 3116 1747 
z
" transform="scale(0.015625)"/>
      </defs>
      <use xlink:href="#DejaVuSans-77"/>
      <use xlink:href="#DejaVuSans-69" transform="translate(81.787109 0)"/>
      <use xlink:href="#DejaVuSans-6e" transform="translate(109.570312 0)"/>
      <use xlink:href="#DejaVuSans-64" transform="translate(172.949219 0)"/>
      <use xlink:href="#DejaVuSans-20" transform="translate(236.425781 0)"/>
      <use xlink:href="#DejaVuSans-73" transform="translate(268.212891 0)"/>
      <use xlink:href="#DejaVuSans-70" transform="translate(320.3125 0)"/>
      <use xlink:href="#DejaVuSans-65" transform="translate(383.789062 0)"/>
      <use xlink:href="#DejaVuSans-65" transform="translate(445.3125 0)"/>
      <use xlink:href="#DejaVuSans-64" transform="translate(506.835938 0)"/>
     </g>
    </g>
    <g id="line2d_46">
     <path d="M 235.389187 227.490625 
L 247.389187 227.490625 
L 259.389187 227.490625 
" style="fill: none; stroke: #ff7f0e; stroke-width: 1.5; stroke-linecap: square"/>
    </g>
    <g id="text_26">
     <!-- SST -->
     <g transform="translate(268.989188 231.690625) scale(0.12 -0.12)">
      <use xlink:href="#DejaVuSans-53"/>
      <use xlink:href="#DejaVuSans-53" transform="translate(63.476562 0)"/>
      <use xlink:href="#DejaVuSans-54" transform="translate(126.953125 0)"/>
     </g>
    </g>
    <g id="line2d_47">
     <path d="M 235.389187 245.104375 
L 247.389187 245.104375 
L 259.389187 245.104375 
" style="fill: none; stroke: #2ca02c; stroke-width: 1.5; stroke-linecap: square"/>
    </g>
    <g id="text_27">
     <!-- qa -->
     <g transform="translate(268.989188 249.304375) scale(0.12 -0.12)">
      <defs>
       <path id="DejaVuSans-71" d="M 947 1747 
Q 947 1113 1208 752 
Q 1469 391 1925 391 
Q 2381 391 2643 752 
Q 2906 1113 2906 1747 
Q 2906 2381 2643 2742 
Q 2381 3103 1925 3103 
Q 1469 3103 1208 2742 
Q 947 2381 947 1747 
z
M 2906 525 
Q 2725 213 2448 61 
Q 2172 -91 1784 -91 
Q 1150 -91 751 415 
Q 353 922 353 1747 
Q 353 2572 751 3078 
Q 1150 3584 1784 3584 
Q 2172 3584 2448 3432 
Q 2725 3281 2906 2969 
L 2906 3500 
L 3481 3500 
L 3481 -1331 
L 2906 -1331 
L 2906 525 
z
" transform="scale(0.015625)"/>
      </defs>
      <use xlink:href="#DejaVuSans-71"/>
      <use xlink:href="#DejaVuSans-61" transform="translate(63.476562 0)"/>
     </g>
    </g>
   </g>
  </g>
  <g id="axes_2">
   <g id="patch_10">
    <path d="M 608.609 262.6 
L 1059.22 262.6 
L 1059.22 37.68 
L 608.609 37.68 
z
" style="fill: #ffffff"/>
   </g>
   <g id="patch_11">
    <path d="M 880.344146 262.6 
L 925.363051 262.6 
L 925.363051 37.68 
L 880.344146 37.68 
z
" clip-path="url(#pf29f5ac411)" style="fill: #800080; opacity: 0.08"/>
   </g>
   <g id="patch_12">
    <path d="M 925.363051 262.6 
L 967.603337 262.6 
L 967.603337 37.68 
L 925.363051 37.68 
z
" clip-path="url(#pf29f5ac411)" style="fill: #ffff00; opacity: 0.12"/>
   </g>
   <g id="matplotlib.axis_3">
    <g id="xtick_12">
     <g id="line2d_48">
      <g>
       <use xlink:href="#m9f8b144bec" x="629.091318" y="262.6" style="stroke: #000000; stroke-width: 0.8"/>
      </g>
     </g>
     <g id="text_28">
      <!-- -50 -->
      <g transform="translate(616.025068 281.7575) scale(0.16 -0.16)">
       <use xlink:href="#DejaVuSans-2d"/>
       <use xlink:href="#DejaVuSans-35" transform="translate(36.083984 0)"/>
       <use xlink:href="#DejaVuSans-30" transform="translate(99.707031 0)"/>
      </g>
     </g>
    </g>
    <g id="xtick_13">
     <g id="line2d_49">
      <g>
       <use xlink:href="#m9f8b144bec" x="662.047444" y="262.6" style="stroke: #000000; stroke-width: 0.8"/>
      </g>
     </g>
     <g id="text_29">
      <!-- -40 -->
      <g transform="translate(648.981194 281.7575) scale(0.16 -0.16)">
       <use xlink:href="#DejaVuSans-2d"/>
       <use xlink:href="#DejaVuSans-34" transform="translate(36.083984 0)"/>
       <use xlink:href="#DejaVuSans-30" transform="translate(99.707031 0)"/>
      </g>
     </g>
    </g>
    <g id="xtick_14">
     <g id="line2d_50">
      <g>
       <use xlink:href="#m9f8b144bec" x="700.225663" y="262.6" style="stroke: #000000; stroke-width: 0.8"/>
      </g>
     </g>
     <g id="text_30">
      <!-- -30 -->
      <g transform="translate(687.159413 281.7575) scale(0.16 -0.16)">
       <use xlink:href="#DejaVuSans-2d"/>
       <use xlink:href="#DejaVuSans-33" transform="translate(36.083984 0)"/>
       <use xlink:href="#DejaVuSans-30" transform="translate(99.707031 0)"/>
      </g>
     </g>
    </g>
    <g id="xtick_15">
     <g id="line2d_51">
      <g>
       <use xlink:href="#m9f8b144bec" x="742.465949" y="262.6" style="stroke: #000000; stroke-width: 0.8"/>
      </g>
     </g>
     <g id="text_31">
      <!-- -20 -->
      <g transform="translate(729.399699 281.7575) scale(0.16 -0.16)">
       <use xlink:href="#DejaVuSans-2d"/>
       <use xlink:href="#DejaVuSans-32" transform="translate(36.083984 0)"/>
       <use xlink:href="#DejaVuSans-30" transform="translate(99.707031 0)"/>
      </g>
     </g>
    </g>
    <g id="xtick_16">
     <g id="line2d_52">
      <g>
       <use xlink:href="#m9f8b144bec" x="787.484854" y="262.6" style="stroke: #000000; stroke-width: 0.8"/>
      </g>
     </g>
     <g id="text_32">
      <!-- -10 -->
      <g transform="translate(774.418604 281.7575) scale(0.16 -0.16)">
       <use xlink:href="#DejaVuSans-2d"/>
       <use xlink:href="#DejaVuSans-31" transform="translate(36.083984 0)"/>
       <use xlink:href="#DejaVuSans-30" transform="translate(99.707031 0)"/>
      </g>
     </g>
    </g>
    <g id="xtick_17">
     <g id="line2d_53">
      <g>
       <use xlink:href="#m9f8b144bec" x="833.9145" y="262.6" style="stroke: #000000; stroke-width: 0.8"/>
      </g>
     </g>
     <g id="text_33">
      <!-- 0 -->
      <g transform="translate(828.8245 281.7575) scale(0.16 -0.16)">
       <use xlink:href="#DejaVuSans-30"/>
      </g>
     </g>
    </g>
    <g id="xtick_18">
     <g id="line2d_54">
      <g>
       <use xlink:href="#m9f8b144bec" x="880.344146" y="262.6" style="stroke: #000000; stroke-width: 0.8"/>
      </g>
     </g>
     <g id="text_34">
      <!-- 10 -->
      <g transform="translate(870.164146 281.7575) scale(0.16 -0.16)">
       <use xlink:href="#DejaVuSans-31"/>
       <use xlink:href="#DejaVuSans-30" transform="translate(63.623047 0)"/>
      </g>
     </g>
    </g>
    <g id="xtick_19">
     <g id="line2d_55">
      <g>
       <use xlink:href="#m9f8b144bec" x="925.363051" y="262.6" style="stroke: #000000; stroke-width: 0.8"/>
      </g>
     </g>
     <g id="text_35">
      <!-- 20 -->
      <g transform="translate(915.183051 281.7575) scale(0.16 -0.16)">
       <use xlink:href="#DejaVuSans-32"/>
       <use xlink:href="#DejaVuSans-30" transform="translate(63.623047 0)"/>
      </g>
     </g>
    </g>
    <g id="xtick_20">
     <g id="line2d_56">
      <g>
       <use xlink:href="#m9f8b144bec" x="967.603337" y="262.6" style="stroke: #000000; stroke-width: 0.8"/>
      </g>
     </g>
     <g id="text_36">
      <!-- 30 -->
      <g transform="translate(957.423337 281.7575) scale(0.16 -0.16)">
       <use xlink:href="#DejaVuSans-33"/>
       <use xlink:href="#DejaVuSans-30" transform="translate(63.623047 0)"/>
      </g>
     </g>
    </g>
    <g id="xtick_21">
     <g id="line2d_57">
      <g>
       <use xlink:href="#m9f8b144bec" x="1005.781556" y="262.6" style="stroke: #000000; stroke-width: 0.8"/>
      </g>
     </g>
     <g id="text_37">
      <!-- 40 -->
      <g transform="translate(995.601556 281.7575) scale(0.16 -0.16)">
       <use xlink:href="#DejaVuSans-34"/>
       <use xlink:href="#DejaVuSans-30" transform="translate(63.623047 0)"/>
      </g>
     </g>
    </g>
    <g id="xtick_22">
     <g id="line2d_58">
      <g>
       <use xlink:href="#m9f8b144bec" x="1038.737682" y="262.6" style="stroke: #000000; stroke-width: 0.8"/>
      </g>
     </g>
     <g id="text_38">
      <!-- 50 -->
      <g transform="translate(1028.557682 281.7575) scale(0.16 -0.16)">
       <use xlink:href="#DejaVuSans-35"/>
       <use xlink:href="#DejaVuSans-30" transform="translate(63.623047 0)"/>
      </g>
     </g>
    </g>
    <g id="text_39">
     <!-- Latitude -->
     <g transform="translate(800.98825 301.2425) scale(0.16 -0.16)">
      <use xlink:href="#DejaVuSans-4c"/>
      <use xlink:href="#DejaVuSans-61" transform="translate(55.712891 0)"/>
      <use xlink:href="#DejaVuSans-74" transform="translate(116.992188 0)"/>
      <use xlink:href="#DejaVuSans-69" transform="translate(156.201172 0)"/>
      <use xlink:href="#DejaVuSans-74" transform="translate(183.984375 0)"/>
      <use xlink:href="#DejaVuSans-75" transform="translate(223.193359 0)"/>
      <use xlink:href="#DejaVuSans-64" transform="translate(286.572266 0)"/>
      <use xlink:href="#DejaVuSans-65" transform="translate(350.048828 0)"/>
     </g>
    </g>
   </g>
   <g id="matplotlib.axis_4">
    <g id="ytick_8">
     <g id="line2d_59">
      <g>
       <use xlink:href="#mb4ed6629d5" x="608.609" y="262.6" style="stroke: #000000; stroke-width: 0.8"/>
      </g>
     </g>
     <g id="line2d_60">
      <g>
       <use xlink:href="#m99f62189d8" x="1059.22" y="262.6" style="stroke: #000000; stroke-width: 0.8"/>
      </g>
     </g>
     <g id="text_40">
      <!-- −30 -->
      <g transform="translate(567.8415 268.67875) scale(0.16 -0.16)">
       <use xlink:href="#DejaVuSans-2212"/>
       <use xlink:href="#DejaVuSans-33" transform="translate(83.789062 0)"/>
       <use xlink:href="#DejaVuSans-30" transform="translate(147.412109 0)"/>
      </g>
     </g>
    </g>
    <g id="ytick_9">
     <g id="line2d_61">
      <g>
       <use xlink:href="#mb4ed6629d5" x="608.609" y="225.113333" style="stroke: #000000; stroke-width: 0.8"/>
      </g>
     </g>
     <g id="line2d_62">
      <g>
       <use xlink:href="#m99f62189d8" x="1059.22" y="225.113333" style="stroke: #000000; stroke-width: 0.8"/>
      </g>
     </g>
     <g id="text_41">
      <!-- −20 -->
      <g transform="translate(567.8415 231.192083) scale(0.16 -0.16)">
       <use xlink:href="#DejaVuSans-2212"/>
       <use xlink:href="#DejaVuSans-32" transform="translate(83.789062 0)"/>
       <use xlink:href="#DejaVuSans-30" transform="translate(147.412109 0)"/>
      </g>
     </g>
    </g>
    <g id="ytick_10">
     <g id="line2d_63">
      <g>
       <use xlink:href="#mb4ed6629d5" x="608.609" y="187.626667" style="stroke: #000000; stroke-width: 0.8"/>
      </g>
     </g>
     <g id="line2d_64">
      <g>
       <use xlink:href="#m99f62189d8" x="1059.22" y="187.626667" style="stroke: #000000; stroke-width: 0.8"/>
      </g>
     </g>
     <g id="text_42">
      <!-- −10 -->
      <g transform="translate(567.8415 193.705417) scale(0.16 -0.16)">
       <use xlink:href="#DejaVuSans-2212"/>
       <use xlink:href="#DejaVuSans-31" transform="translate(83.789062 0)"/>
       <use xlink:href="#DejaVuSans-30" transform="translate(147.412109 0)"/>
      </g>
     </g>
    </g>
    <g id="ytick_11">
     <g id="line2d_65">
      <g>
       <use xlink:href="#mb4ed6629d5" x="608.609" y="150.14" style="stroke: #000000; stroke-width: 0.8"/>
      </g>
     </g>
     <g id="line2d_66">
      <g>
       <use xlink:href="#m99f62189d8" x="1059.22" y="150.14" style="stroke: #000000; stroke-width: 0.8"/>
      </g>
     </g>
     <g id="text_43">
      <!-- 0 -->
      <g transform="translate(591.429 156.21875) scale(0.16 -0.16)">
       <use xlink:href="#DejaVuSans-30"/>
      </g>
     </g>
    </g>
    <g id="ytick_12">
     <g id="line2d_67">
      <g>
       <use xlink:href="#mb4ed6629d5" x="608.609" y="112.653333" style="stroke: #000000; stroke-width: 0.8"/>
      </g>
     </g>
     <g id="line2d_68">
      <g>
       <use xlink:href="#m99f62189d8" x="1059.22" y="112.653333" style="stroke: #000000; stroke-width: 0.8"/>
      </g>
     </g>
     <g id="text_44">
      <!-- 10 -->
      <g transform="translate(581.249 118.732083) scale(0.16 -0.16)">
       <use xlink:href="#DejaVuSans-31"/>
       <use xlink:href="#DejaVuSans-30" transform="translate(63.623047 0)"/>
      </g>
     </g>
    </g>
    <g id="ytick_13">
     <g id="line2d_69">
      <g>
       <use xlink:href="#mb4ed6629d5" x="608.609" y="75.166667" style="stroke: #000000; stroke-width: 0.8"/>
      </g>
     </g>
     <g id="line2d_70">
      <g>
       <use xlink:href="#m99f62189d8" x="1059.22" y="75.166667" style="stroke: #000000; stroke-width: 0.8"/>
      </g>
     </g>
     <g id="text_45">
      <!-- 20 -->
      <g transform="translate(581.249 81.245417) scale(0.16 -0.16)">
       <use xlink:href="#DejaVuSans-32"/>
       <use xlink:href="#DejaVuSans-30" transform="translate(63.623047 0)"/>
      </g>
     </g>
    </g>
    <g id="ytick_14">
     <g id="line2d_71">
      <g>
       <use xlink:href="#mb4ed6629d5" x="608.609" y="37.68" style="stroke: #000000; stroke-width: 0.8"/>
      </g>
     </g>
     <g id="line2d_72">
      <g>
       <use xlink:href="#m99f62189d8" x="1059.22" y="37.68" style="stroke: #000000; stroke-width: 0.8"/>
      </g>
     </g>
     <g id="text_46">
      <!-- 30 -->
      <g transform="translate(581.249 43.75875) scale(0.16 -0.16)">
       <use xlink:href="#DejaVuSans-33"/>
       <use xlink:href="#DejaVuSans-30" transform="translate(63.623047 0)"/>
      </g>
     </g>
    </g>
    <g id="text_47">
     <!-- LHFLX [W m$^{-2}$] -->
     <g transform="translate(560.514 210.78) rotate(-90) scale(0.16 -0.16)">
      <use xlink:href="#DejaVuSans-4c" transform="translate(0 0.765625)"/>
      <use xlink:href="#DejaVuSans-48" transform="translate(55.712891 0.765625)"/>
      <use xlink:href="#DejaVuSans-46" transform="translate(130.908203 0.765625)"/>
      <use xlink:href="#DejaVuSans-4c" transform="translate(188.427734 0.765625)"/>
      <use xlink:href="#DejaVuSans-58" transform="translate(244.140625 0.765625)"/>
      <use xlink:href="#DejaVuSans-20" transform="translate(312.646484 0.765625)"/>
      <use xlink:href="#DejaVuSans-5b" transform="translate(344.433594 0.765625)"/>
      <use xlink:href="#DejaVuSans-57" transform="translate(383.447266 0.765625)"/>
      <use xlink:href="#DejaVuSans-20" transform="translate(482.324219 0.765625)"/>
      <use xlink:href="#DejaVuSans-6d" transform="translate(514.111328 0.765625)"/>
      <use xlink:href="#DejaVuSans-2212" transform="translate(612.480469 39.046875) scale(0.7)"/>
      <use xlink:href="#DejaVuSans-32" transform="translate(671.132812 39.046875) scale(0.7)"/>
      <use xlink:href="#DejaVuSans-5d" transform="translate(718.40332 0.765625)"/>
     </g>
    </g>
   </g>
   <g id="line2d_73">
    <path d="M 629.091318 140.884671 
L 630.598921 140.548218 
L 632.122007 140.439804 
L 635.214165 140.691545 
L 636.783 141.181101 
L 638.366848 141.426538 
L 639.965587 141.323623 
L 641.579097 140.970688 
L 646.507011 139.160049 
L 648.17836 138.267801 
L 649.863854 137.596955 
L 651.563364 137.35646 
L 653.276761 137.781086 
L 658.498962 140.630528 
L 662.047444 141.264131 
L 665.648277 142.913406 
L 667.467984 143.314315 
L 669.300366 143.308535 
L 673.002599 142.646298 
L 676.753846 142.47478 
L 680.552966 142.693769 
L 682.470118 142.860196 
L 684.398802 143.201505 
L 686.338872 143.835851 
L 688.290181 145.031944 
L 690.25258 146.558619 
L 692.225919 147.589144 
L 696.204817 147.436935 
L 700.225663 148.000693 
L 702.251434 148.577416 
L 704.287231 149.501663 
L 710.45323 153.177292 
L 714.611166 155.99304 
L 716.703842 157.260048 
L 718.805444 158.681218 
L 723.034785 161.169635 
L 725.162202 162.328068 
L 727.297901 163.310129 
L 729.441719 164.115448 
L 731.593494 164.545547 
L 733.75306 165.732854 
L 735.920254 167.493519 
L 738.094911 168.925158 
L 740.276865 171.103298 
L 742.465949 174.183742 
L 744.661998 176.149937 
L 746.864844 175.638609 
L 749.074319 174.763981 
L 751.290255 172.995932 
L 753.512483 170.00438 
L 755.740833 166.424574 
L 757.975138 163.285813 
L 760.215225 160.790315 
L 762.460924 159.000987 
L 764.712066 157.658708 
L 766.968477 156.801509 
L 776.043379 155.027912 
L 778.323556 154.973777 
L 780.607965 155.287018 
L 782.896435 156.144417 
L 785.188789 157.326186 
L 787.484854 158.771568 
L 789.784455 158.79542 
L 792.087417 156.726833 
L 794.393563 153.256461 
L 796.70272 151.751434 
L 799.01471 155.873495 
L 801.329358 168.205711 
L 803.646488 184.145003 
L 805.965923 197.219851 
L 808.287486 201.578984 
L 810.611 193.897064 
L 812.936289 176.974248 
L 817.591483 132.578052 
L 819.921034 112.283024 
L 822.25165 96.370516 
L 824.583154 86.34276 
L 826.915368 79.527619 
L 829.248116 74.670152 
L 831.581219 72.416263 
L 833.9145 72.434362 
L 836.247781 74.118613 
L 838.580884 77.449706 
L 843.245846 86.268058 
L 845.57735 90.606249 
L 847.907966 96.419131 
L 850.237517 106.025614 
L 852.565824 120.964439 
L 857.218 161.462112 
L 859.541514 177.724271 
L 861.863077 186.462686 
L 864.182512 186.932263 
L 866.499642 182.549634 
L 868.81429 174.890621 
L 871.12628 165.890592 
L 873.435437 155.132008 
L 878.044545 131.833603 
L 882.640211 109.431896 
L 887.221035 90.91319 
L 889.505444 83.421203 
L 891.785621 77.172681 
L 894.06139 72.19041 
L 896.332579 69.110952 
L 898.599014 68.253842 
L 900.860523 69.06998 
L 903.116934 71.660671 
L 905.368076 75.470159 
L 907.613775 80.11324 
L 909.853862 85.956428 
L 912.088167 93.281484 
L 916.538745 111.192513 
L 918.754681 118.234645 
L 920.964156 123.172825 
L 923.167002 129.870645 
L 925.363051 135.993258 
L 927.552135 140.387909 
L 929.734089 143.996697 
L 931.908746 146.488485 
L 934.07594 150.366067 
L 936.235506 154.779891 
L 938.387281 158.278689 
L 940.531099 160.097117 
L 944.794215 162.040607 
L 946.913188 162.980984 
L 949.023556 163.766735 
L 951.125158 164.062747 
L 955.301424 163.883178 
L 959.440715 163.623033 
L 961.4961 163.709871 
L 963.541769 163.969607 
L 965.577566 164.037689 
L 969.618927 163.603447 
L 971.624183 163.240832 
L 975.603081 162.338118 
L 977.57642 162.319229 
L 979.538819 162.509587 
L 981.490128 162.518375 
L 985.358882 162.350553 
L 991.075154 162.38188 
L 994.826401 162.255867 
L 996.683715 162.536002 
L 1000.361016 163.370823 
L 1009.330038 164.240863 
L 1011.084308 164.15983 
L 1012.825086 163.910837 
L 1016.265636 163.690658 
L 1021.321989 162.68118 
L 1022.979067 162.484714 
L 1024.621746 162.060303 
L 1027.863413 160.884867 
L 1031.046 159.326518 
L 1032.614835 158.778553 
L 1034.168539 158.433147 
L 1035.706993 158.22067 
L 1038.737682 157.980231 
L 1038.737682 157.980231 
" clip-path="url(#pf29f5ac411)" style="fill: none; stroke: #000000; stroke-width: 3; stroke-linecap: square"/>
   </g>
   <g id="line2d_74">
    <path d="M 629.091318 148.039662 
L 630.598921 147.54804 
L 632.122007 147.178815 
L 635.214165 146.703308 
L 638.366848 146.348963 
L 639.965587 145.884728 
L 643.207254 144.546293 
L 646.507011 143.030027 
L 648.17836 142.131731 
L 649.863854 141.398472 
L 651.563364 140.934593 
L 653.276761 140.825659 
L 656.744692 141.2371 
L 658.498962 141.357686 
L 662.047444 141.046792 
L 667.467984 141.813127 
L 669.300366 141.822612 
L 673.002599 141.661298 
L 676.753846 141.934559 
L 678.647494 142.247153 
L 682.470118 143.202023 
L 684.398802 143.894372 
L 686.338872 144.893877 
L 688.290181 146.405516 
L 690.25258 148.273471 
L 692.225919 149.94639 
L 700.225663 153.927615 
L 702.251434 155.12419 
L 704.287231 156.481789 
L 710.45323 161.273882 
L 714.611166 164.314733 
L 716.703842 165.817324 
L 718.805444 167.555034 
L 723.034785 170.199722 
L 725.162202 171.237315 
L 729.441719 172.888666 
L 731.593494 173.537275 
L 733.75306 174.548658 
L 735.920254 175.733736 
L 738.094911 176.643781 
L 740.276865 177.950776 
L 742.465949 179.607203 
L 744.661998 180.393039 
L 749.074319 179.144611 
L 751.290255 177.984338 
L 753.512483 176.06983 
L 755.740833 173.734074 
L 757.975138 171.630686 
L 760.215225 169.914749 
L 762.460924 168.584249 
L 766.968477 166.322329 
L 769.229986 165.309994 
L 771.496421 164.05558 
L 773.76761 162.11138 
L 778.323556 156.883656 
L 780.607965 153.773187 
L 782.896435 149.672302 
L 785.188789 145.28136 
L 787.484854 138.972161 
L 789.784455 131.248264 
L 792.087417 121.598245 
L 794.393563 111.07288 
L 796.70272 103.900713 
L 799.01471 103.665947 
L 801.329358 113.287244 
L 803.646488 130.486847 
L 805.965923 149.349412 
L 808.287486 163.838126 
L 810.611 167.860355 
L 812.936289 162.752938 
L 815.263176 151.870718 
L 817.591483 139.597648 
L 819.921034 128.344347 
L 822.25165 119.94191 
L 824.583154 115.226357 
L 826.915368 112.626991 
L 829.248116 111.441083 
L 831.581219 111.768249 
L 833.9145 113.079097 
L 836.247781 114.641379 
L 838.580884 116.459192 
L 840.913632 118.435656 
L 843.245846 119.812376 
L 845.57735 120.673731 
L 847.907966 122.041538 
L 850.237517 125.95541 
L 852.565824 133.70021 
L 857.218 156.979694 
L 859.541514 165.178585 
L 861.863077 166.908314 
L 864.182512 162.512063 
L 866.499642 154.429017 
L 868.81429 143.555913 
L 871.12628 131.849935 
L 873.435437 118.777868 
L 875.741583 104.74411 
L 878.044545 91.581606 
L 882.640211 67.438831 
L 884.932565 59.089052 
L 887.221035 52.139334 
L 889.505444 48.036228 
L 891.785621 46.19067 
L 894.06139 46.996075 
L 896.332579 50.347319 
L 898.599014 55.187573 
L 900.860523 61.322245 
L 909.853862 92.592978 
L 912.088167 101.561263 
L 914.316517 111.280986 
L 916.538745 120.012597 
L 918.754681 126.312483 
L 920.964156 130.475133 
L 923.167002 135.890937 
L 925.363051 140.2814 
L 927.552135 142.633806 
L 929.734089 143.824206 
L 931.908746 144.300799 
L 934.07594 144.655803 
L 936.235506 144.45722 
L 938.387281 143.002048 
L 942.666798 138.771604 
L 944.794215 136.202392 
L 946.913188 132.843343 
L 951.125158 125.112666 
L 953.217834 122.024946 
L 957.37577 116.776144 
L 959.440715 114.037577 
L 961.4961 111.776872 
L 963.541769 110.256685 
L 965.577566 109.41955 
L 967.603337 108.987668 
L 969.618927 108.931609 
L 971.624183 109.037837 
L 973.618951 109.441431 
L 975.603081 110.299337 
L 977.57642 111.726774 
L 981.490128 115.186154 
L 983.430198 116.72584 
L 987.276034 120.194171 
L 989.181506 122.233797 
L 992.956834 126.880875 
L 994.826401 129.471729 
L 1000.361016 137.780429 
L 1003.987615 142.662369 
L 1007.562409 147.070947 
L 1009.330038 148.97463 
L 1011.084308 150.532741 
L 1014.552239 152.838048 
L 1016.265636 153.699206 
L 1017.965146 154.253765 
L 1022.979067 155.087382 
L 1024.621746 155.08632 
L 1027.863413 154.778735 
L 1032.614835 154.070928 
L 1038.737682 153.438785 
L 1038.737682 153.438785 
" clip-path="url(#pf29f5ac411)" style="fill: none; stroke: #808080; stroke-width: 3; stroke-linecap: square"/>
   </g>
   <g id="line2d_75">
    <path d="M 629.091318 153.3872 
L 638.366848 151.621532 
L 641.579097 150.494454 
L 646.507011 148.407457 
L 649.863854 146.804859 
L 653.276761 145.549456 
L 656.744692 144.648749 
L 662.047444 142.824901 
L 663.841385 142.506374 
L 665.648277 142.454175 
L 671.145285 142.77441 
L 673.002599 143.072459 
L 676.753846 143.93626 
L 678.647494 144.535353 
L 682.470118 146.041784 
L 684.398802 146.986727 
L 686.338872 148.218524 
L 688.290181 149.87853 
L 694.210049 155.765694 
L 698.210073 159.186979 
L 706.3329 164.668149 
L 708.388285 165.945753 
L 710.45323 167.095114 
L 712.527576 168.082988 
L 718.805444 170.571601 
L 723.034785 171.233864 
L 727.297901 171.248248 
L 733.75306 170.810481 
L 740.276865 170.464526 
L 742.465949 170.13718 
L 744.661998 169.343054 
L 746.864844 168.26604 
L 749.074319 167.510292 
L 751.290255 166.490927 
L 753.512483 165.145889 
L 755.740833 163.630576 
L 757.975138 162.298017 
L 760.215225 161.149695 
L 764.712066 159.096154 
L 766.968477 157.804291 
L 769.229986 156.37886 
L 771.496421 154.451212 
L 773.76761 151.422445 
L 776.043379 147.429241 
L 778.323556 143.151842 
L 780.607965 138.136907 
L 785.188789 124.734192 
L 787.484854 115.489095 
L 789.784455 105.598545 
L 792.087417 94.9957 
L 794.393563 85.118005 
L 796.70272 79.832722 
L 799.01471 81.907771 
L 801.329358 93.907861 
L 803.646488 114.095866 
L 805.965923 137.667895 
L 808.287486 159.597659 
L 810.611 172.570039 
L 812.936289 176.498697 
L 815.263176 173.625792 
L 819.921034 161.126032 
L 822.25165 156.883504 
L 824.583154 155.697114 
L 826.915368 156.521462 
L 829.248116 158.589973 
L 831.581219 161.124892 
L 833.9145 163.456455 
L 836.247781 164.680417 
L 838.580884 164.993855 
L 840.913632 164.625304 
L 845.57735 162.742228 
L 847.907966 162.538378 
L 850.237517 164.509121 
L 852.565824 168.754979 
L 854.892711 174.124534 
L 857.218 177.471445 
L 859.541514 176.632463 
L 861.863077 170.297521 
L 864.182512 160.39853 
L 866.499642 148.227139 
L 871.12628 119.485832 
L 878.044545 73.233412 
L 882.640211 45.865044 
L 884.932565 36.465666 
L 887.221035 28.692568 
L 889.505444 24.124822 
L 891.785621 21.999447 
L 894.06139 22.620524 
L 896.332579 25.859735 
L 898.599014 30.589271 
L 900.860523 36.643135 
L 907.613775 59.893203 
L 909.853862 68.272692 
L 912.088167 77.242655 
L 914.316517 86.895608 
L 916.538745 95.566456 
L 918.754681 101.82991 
L 920.964156 106.007736 
L 923.167002 111.561138 
L 925.363051 116.330811 
L 927.552135 119.242972 
L 929.734089 120.696267 
L 931.908746 121.244463 
L 934.07594 121.476217 
L 936.235506 121.024324 
L 938.387281 119.386694 
L 940.531099 117.197028 
L 942.666798 115.199238 
L 944.794215 112.730913 
L 946.913188 109.531843 
L 949.023556 105.618184 
L 951.125158 102.032792 
L 953.217834 99.210279 
L 957.37577 94.437434 
L 959.440715 91.898665 
L 961.4961 89.76382 
L 963.541769 88.284969 
L 965.577566 87.647299 
L 967.603337 87.533294 
L 969.618927 87.845285 
L 971.624183 88.392692 
L 973.618951 89.354755 
L 975.603081 90.827919 
L 977.57642 92.805324 
L 985.358882 101.777462 
L 987.276034 104.064033 
L 989.181506 106.794771 
L 992.956834 113.202907 
L 996.683715 120.524492 
L 1000.361016 127.736066 
L 1003.987615 134.359868 
L 1007.562409 140.291392 
L 1009.330038 142.902905 
L 1011.084308 145.205637 
L 1012.825086 147.124882 
L 1014.552239 148.760502 
L 1016.265636 150.090116 
L 1017.965146 151.081719 
L 1019.65064 151.732322 
L 1022.979067 152.59136 
L 1026.249903 152.810669 
L 1029.462152 152.707281 
L 1038.737682 151.842396 
L 1038.737682 151.842396 
" clip-path="url(#pf29f5ac411)" style="fill: none; stroke: #1f77b4; stroke-width: 1.5; stroke-linecap: square"/>
   </g>
   <g id="line2d_76">
    <path d="M 629.091318 143.051725 
L 630.598921 142.665118 
L 633.660461 142.200227 
L 636.783 141.958063 
L 639.965587 141.578707 
L 649.863854 139.889676 
L 651.563364 139.934156 
L 653.276761 140.249445 
L 656.744692 141.434478 
L 658.498962 142.108486 
L 662.047444 143.155005 
L 663.841385 143.8348 
L 665.648277 144.377706 
L 667.467984 144.72672 
L 671.145285 145.005382 
L 676.753846 145.223083 
L 684.398802 145.743106 
L 686.338872 145.967227 
L 692.225919 147.013464 
L 698.210073 146.706403 
L 700.225663 146.824885 
L 702.251434 147.23091 
L 704.287231 147.946715 
L 708.388285 149.968078 
L 712.527576 152.378046 
L 714.611166 153.600266 
L 716.703842 155.033178 
L 718.805444 156.824439 
L 723.034785 160.612121 
L 725.162202 162.246997 
L 727.297901 163.674909 
L 733.75306 168.606467 
L 735.920254 170.4341 
L 738.094911 171.770637 
L 740.276865 173.713793 
L 742.465949 176.209769 
L 744.661998 178.293854 
L 746.864844 179.171565 
L 749.074319 179.471769 
L 751.290255 179.556666 
L 753.512483 179.114718 
L 760.215225 176.559307 
L 762.460924 175.991385 
L 764.712066 175.565845 
L 766.968477 175.341372 
L 769.229986 175.295716 
L 771.496421 175.404552 
L 773.76761 175.703461 
L 778.323556 176.718494 
L 780.607965 177.420699 
L 785.188789 179.282366 
L 787.484854 180.138788 
L 789.784455 180.139335 
L 792.087417 178.66819 
L 794.393563 175.138882 
L 796.70272 170.205258 
L 799.01471 164.643926 
L 801.329358 158.559513 
L 803.646488 152.024565 
L 805.965923 144.136578 
L 808.287486 134.085022 
L 810.611 123.469738 
L 812.936289 113.538853 
L 815.263176 105.256788 
L 817.591483 99.285441 
L 819.921034 94.502318 
L 822.25165 90.22248 
L 829.248116 78.226764 
L 831.581219 75.673989 
L 833.9145 74.594534 
L 836.247781 75.213781 
L 838.580884 77.202623 
L 843.245846 83.090137 
L 845.57735 85.313922 
L 850.237517 88.711746 
L 852.565824 91.913972 
L 854.892711 97.956324 
L 857.218 106.380586 
L 861.863077 125.673207 
L 864.182512 133.484482 
L 868.81429 147.158407 
L 871.12628 152.962887 
L 873.435437 158.154436 
L 875.741583 162.930636 
L 882.640211 175.271447 
L 887.221035 181.854752 
L 896.332579 192.783316 
L 900.860523 197.594445 
L 903.116934 199.865704 
L 905.368076 201.609484 
L 914.316517 207.706811 
L 916.538745 208.832773 
L 918.754681 209.398415 
L 920.964156 209.650146 
L 923.167002 209.657529 
L 925.363051 208.980062 
L 929.734089 206.568073 
L 931.908746 205.767378 
L 934.07594 204.618314 
L 936.235506 203.084957 
L 940.531099 199.31043 
L 942.666798 197.680088 
L 944.794215 195.753213 
L 949.023556 190.576189 
L 951.125158 188.01144 
L 953.217834 185.787565 
L 955.301424 183.861286 
L 957.37577 181.773046 
L 961.4961 177.268136 
L 963.541769 175.341184 
L 967.603337 171.992015 
L 971.624183 169.092551 
L 975.603081 166.031951 
L 977.57642 164.68553 
L 981.490128 162.548124 
L 985.358882 160.78612 
L 989.181506 159.388794 
L 994.826401 157.158514 
L 996.683715 156.48402 
L 998.528634 155.979666 
L 1005.781556 154.499691 
L 1014.552239 153.410197 
L 1019.65064 153.177349 
L 1024.621746 153.192739 
L 1038.737682 152.427058 
L 1038.737682 152.427058 
" clip-path="url(#pf29f5ac411)" style="fill: none; stroke: #ff7f0e; stroke-width: 1.5; stroke-linecap: square"/>
   </g>
   <g id="line2d_77">
    <path d="M 629.091318 151.880737 
L 636.783 152.920301 
L 648.17836 154.78635 
L 653.276761 155.306758 
L 656.744692 155.433873 
L 660.266591 155.429545 
L 663.841385 155.219266 
L 667.467984 154.833578 
L 671.145285 154.219008 
L 688.290181 150.461372 
L 692.225919 149.247227 
L 696.204817 147.922945 
L 704.287231 145.53155 
L 712.527576 142.673001 
L 714.611166 142.066555 
L 716.703842 141.340629 
L 723.034785 138.633736 
L 733.75306 135.41171 
L 735.920254 134.854415 
L 740.276865 134.052457 
L 744.661998 133.03613 
L 746.864844 132.645549 
L 753.512483 132.089223 
L 755.740833 132.113356 
L 760.215225 132.485747 
L 764.712066 133.047519 
L 769.229986 133.915418 
L 771.496421 134.479816 
L 773.76761 135.265474 
L 778.323556 137.29332 
L 780.607965 138.495581 
L 785.188789 141.544803 
L 789.784455 145.790385 
L 792.087417 148.214355 
L 796.70272 154.142733 
L 799.01471 157.39425 
L 803.646488 164.646416 
L 805.965923 167.82494 
L 808.287486 170.435445 
L 810.611 172.100578 
L 812.936289 172.995389 
L 815.263176 173.268138 
L 819.921034 172.995997 
L 822.25165 173.115926 
L 824.583154 173.600251 
L 829.248116 174.904346 
L 831.581219 175.249368 
L 833.9145 175.308108 
L 836.247781 175.02718 
L 838.580884 174.542714 
L 843.245846 173.270394 
L 845.57735 172.89758 
L 847.907966 172.811438 
L 854.892711 173.509213 
L 857.218 173.407664 
L 859.541514 172.747678 
L 861.863077 171.217586 
L 864.182512 168.909051 
L 866.499642 166.039374 
L 868.81429 162.757139 
L 873.435437 156.755441 
L 875.741583 153.982295 
L 882.640211 146.582341 
L 884.932565 144.362162 
L 887.221035 141.872014 
L 891.785621 137.250258 
L 898.599014 129.631024 
L 903.116934 125.052763 
L 905.368076 123.207538 
L 912.088167 118.357794 
L 914.316517 116.958567 
L 916.538745 115.893369 
L 918.754681 115.364159 
L 920.964156 115.097252 
L 923.167002 114.95227 
L 925.363051 115.250527 
L 927.552135 115.950741 
L 929.734089 116.839867 
L 931.908746 117.568958 
L 934.07594 118.841272 
L 936.235506 120.62794 
L 938.387281 122.730372 
L 940.531099 124.6077 
L 942.666798 126.172278 
L 944.794215 127.998266 
L 946.913188 130.351089 
L 949.023556 132.951592 
L 951.125158 135.348435 
L 953.217834 137.307102 
L 957.37577 140.845664 
L 961.4961 145.024916 
L 963.541769 146.910532 
L 965.577566 148.428073 
L 967.603337 149.742359 
L 975.603081 153.719466 
L 977.57642 154.51592 
L 979.538819 155.134339 
L 983.430198 155.911427 
L 985.358882 156.174034 
L 989.181506 156.330232 
L 992.956834 156.067662 
L 996.683715 155.531809 
L 1000.361016 154.717568 
L 1016.265636 150.562338 
L 1019.65064 149.932514 
L 1022.979067 149.545547 
L 1026.249903 149.344024 
L 1031.046 149.272898 
L 1038.737682 149.449331 
L 1038.737682 149.449331 
" clip-path="url(#pf29f5ac411)" style="fill: none; stroke: #2ca02c; stroke-width: 1.5; stroke-linecap: square"/>
   </g>
   <g id="line2d_78">
    <path d="M 608.609 150.14 
L 1059.22 150.14 
" clip-path="url(#pf29f5ac411)" style="fill: none; stroke: #808080; stroke-width: 0.5; stroke-linecap: square"/>
   </g>
   <g id="line2d_79">
    <path d="M 629.091318 262.6 
L 629.091318 37.68 
" clip-path="url(#pf29f5ac411)" style="fill: none; stroke: #808080; stroke-width: 0.5; stroke-linecap: square"/>
   </g>
   <g id="line2d_80">
    <path d="M 662.047444 262.6 
L 662.047444 37.68 
" clip-path="url(#pf29f5ac411)" style="fill: none; stroke: #808080; stroke-width: 0.5; stroke-linecap: square"/>
   </g>
   <g id="line2d_81">
    <path d="M 700.225663 262.6 
L 700.225663 37.68 
" clip-path="url(#pf29f5ac411)" style="fill: none; stroke: #808080; stroke-width: 0.5; stroke-linecap: square"/>
   </g>
   <g id="line2d_82">
    <path d="M 742.465949 262.6 
L 742.465949 37.68 
" clip-path="url(#pf29f5ac411)" style="fill: none; stroke: #808080; stroke-width: 0.5; stroke-linecap: square"/>
   </g>
   <g id="line2d_83">
    <path d="M 787.484854 262.6 
L 787.484854 37.68 
" clip-path="url(#pf29f5ac411)" style="fill: none; stroke: #808080; stroke-width: 0.5; stroke-linecap: square"/>
   </g>
   <g id="line2d_84">
    <path d="M 833.9145 262.6 
L 833.9145 37.68 
" clip-path="url(#pf29f5ac411)" style="fill: none; stroke: #808080; stroke-width: 0.5; stroke-linecap: square"/>
   </g>
   <g id="line2d_85">
    <path d="M 880.344146 262.6 
L 880.344146 37.68 
" clip-path="url(#pf29f5ac411)" style="fill: none; stroke: #808080; stroke-width: 0.5; stroke-linecap: square"/>
   </g>
   <g id="line2d_86">
    <path d="M 925.363051 262.6 
L 925.363051 37.68 
" clip-path="url(#pf29f5ac411)" style="fill: none; stroke: #808080; stroke-width: 0.5; stroke-linecap: square"/>
   </g>
   <g id="line2d_87">
    <path d="M 967.603337 262.6 
L 967.603337 37.68 
" clip-path="url(#pf29f5ac411)" style="fill: none; stroke: #808080; stroke-width: 0.5; stroke-linecap: square"/>
   </g>
   <g id="line2d_88">
    <path d="M 1005.781556 262.6 
L 1005.781556 37.68 
" clip-path="url(#pf29f5ac411)" style="fill: none; stroke: #808080; stroke-width: 0.5; stroke-linecap: square"/>
   </g>
   <g id="line2d_89">
    <path d="M 1038.737682 262.6 
L 1038.737682 37.68 
" clip-path="url(#pf29f5ac411)" style="fill: none; stroke: #808080; stroke-width: 0.5; stroke-linecap: square"/>
   </g>
   <g id="patch_13">
    <path d="M 608.609 262.6 
L 608.609 37.68 
" style="fill: none; stroke: #000000; stroke-width: 0.8; stroke-linejoin: miter; stroke-linecap: square"/>
   </g>
   <g id="patch_14">
    <path d="M 1059.22 262.6 
L 1059.22 37.68 
" style="fill: none; stroke: #000000; stroke-width: 0.8; stroke-linejoin: miter; stroke-linecap: square"/>
   </g>
   <g id="patch_15">
    <path d="M 608.609 262.6 
L 1059.22 262.6 
" style="fill: none; stroke: #000000; stroke-width: 0.8; stroke-linejoin: miter; stroke-linecap: square"/>
   </g>
   <g id="patch_16">
    <path d="M 608.609 37.68 
L 1059.22 37.68 
" style="fill: none; stroke: #000000; stroke-width: 0.8; stroke-linejoin: miter; stroke-linecap: square"/>
   </g>
   <g id="text_48">
    <!-- SEED$-$CTRL -->
    <g transform="translate(775.6425 31.68) scale(0.192 -0.192)">
     <use xlink:href="#DejaVuSans-53" transform="translate(0 0.78125)"/>
     <use xlink:href="#DejaVuSans-45" transform="translate(63.476562 0.78125)"/>
     <use xlink:href="#DejaVuSans-45" transform="translate(126.660156 0.78125)"/>
     <use xlink:href="#DejaVuSans-44" transform="translate(189.84375 0.78125)"/>
     <use xlink:href="#DejaVuSans-2212" transform="translate(266.845703 0.78125)"/>
     <use xlink:href="#DejaVuSans-43" transform="translate(350.634766 0.78125)"/>
     <use xlink:href="#DejaVuSans-54" transform="translate(420.458984 0.78125)"/>
     <use xlink:href="#DejaVuSans-52" transform="translate(481.542969 0.78125)"/>
     <use xlink:href="#DejaVuSans-4c" transform="translate(551.025391 0.78125)"/>
    </g>
   </g>
   <g id="text_49">
    <!-- (b) -->
    <g transform="translate(608.609 31.68) scale(0.192 -0.192)">
     <defs>
      <path id="DejaVuSans-62" d="M 3116 1747 
Q 3116 2381 2855 2742 
Q 2594 3103 2138 3103 
Q 1681 3103 1420 2742 
Q 1159 2381 1159 1747 
Q 1159 1113 1420 752 
Q 1681 391 2138 391 
Q 2594 391 2855 752 
Q 3116 1113 3116 1747 
z
M 1159 2969 
Q 1341 3281 1617 3432 
Q 1894 3584 2278 3584 
Q 2916 3584 3314 3078 
Q 3713 2572 3713 1747 
Q 3713 922 3314 415 
Q 2916 -91 2278 -91 
Q 1894 -91 1617 61 
Q 1341 213 1159 525 
L 1159 0 
L 581 0 
L 581 4863 
L 1159 4863 
L 1159 2969 
z
" transform="scale(0.015625)"/>
     </defs>
     <use xlink:href="#DejaVuSans-28"/>
     <use xlink:href="#DejaVuSans-62" transform="translate(39.013672 0)"/>
     <use xlink:href="#DejaVuSans-29" transform="translate(102.490234 0)"/>
    </g>
   </g>
   <g id="legend_2">
    <g id="patch_17">
     <path d="M 617.009 135.34875 
L 745.969625 135.34875 
Q 748.369625 135.34875 748.369625 132.94875 
L 748.369625 46.08 
Q 748.369625 43.68 745.969625 43.68 
L 617.009 43.68 
Q 614.609 43.68 614.609 46.08 
L 614.609 132.94875 
Q 614.609 135.34875 617.009 135.34875 
z
" style="fill: #ffffff; opacity: 0.8; stroke: #cccccc; stroke-linejoin: miter"/>
    </g>
    <g id="line2d_90">
     <path d="M 619.409 53.398125 
L 631.409 53.398125 
L 643.409 53.398125 
" style="fill: none; stroke: #000000; stroke-width: 3; stroke-linecap: square"/>
    </g>
    <g id="text_50">
     <!-- truth -->
     <g transform="translate(653.009 57.598125) scale(0.12 -0.12)">
      <use xlink:href="#DejaVuSans-74"/>
      <use xlink:href="#DejaVuSans-72" transform="translate(39.208984 0)"/>
      <use xlink:href="#DejaVuSans-75" transform="translate(80.322266 0)"/>
      <use xlink:href="#DejaVuSans-74" transform="translate(143.701172 0)"/>
      <use xlink:href="#DejaVuSans-68" transform="translate(182.910156 0)"/>
     </g>
    </g>
    <g id="line2d_91">
     <path d="M 619.409 71.011875 
L 631.409 71.011875 
L 643.409 71.011875 
" style="fill: none; stroke: #808080; stroke-width: 3; stroke-linecap: square"/>
    </g>
    <g id="text_51">
     <!-- linear estimate -->
     <g transform="translate(653.009 75.211875) scale(0.12 -0.12)">
      <use xlink:href="#DejaVuSans-6c"/>
      <use xlink:href="#DejaVuSans-69" transform="translate(27.783203 0)"/>
      <use xlink:href="#DejaVuSans-6e" transform="translate(55.566406 0)"/>
      <use xlink:href="#DejaVuSans-65" transform="translate(118.945312 0)"/>
      <use xlink:href="#DejaVuSans-61" transform="translate(180.46875 0)"/>
      <use xlink:href="#DejaVuSans-72" transform="translate(241.748047 0)"/>
      <use xlink:href="#DejaVuSans-20" transform="translate(282.861328 0)"/>
      <use xlink:href="#DejaVuSans-65" transform="translate(314.648438 0)"/>
      <use xlink:href="#DejaVuSans-73" transform="translate(376.171875 0)"/>
      <use xlink:href="#DejaVuSans-74" transform="translate(428.271484 0)"/>
      <use xlink:href="#DejaVuSans-69" transform="translate(467.480469 0)"/>
      <use xlink:href="#DejaVuSans-6d" transform="translate(495.263672 0)"/>
      <use xlink:href="#DejaVuSans-61" transform="translate(592.675781 0)"/>
      <use xlink:href="#DejaVuSans-74" transform="translate(653.955078 0)"/>
      <use xlink:href="#DejaVuSans-65" transform="translate(693.164062 0)"/>
     </g>
    </g>
    <g id="line2d_92">
     <path d="M 619.409 88.625625 
L 631.409 88.625625 
L 643.409 88.625625 
" style="fill: none; stroke: #1f77b4; stroke-width: 1.5; stroke-linecap: square"/>
    </g>
    <g id="text_52">
     <!-- wind speed -->
     <g transform="translate(653.009 92.825625) scale(0.12 -0.12)">
      <use xlink:href="#DejaVuSans-77"/>
      <use xlink:href="#DejaVuSans-69" transform="translate(81.787109 0)"/>
      <use xlink:href="#DejaVuSans-6e" transform="translate(109.570312 0)"/>
      <use xlink:href="#DejaVuSans-64" transform="translate(172.949219 0)"/>
      <use xlink:href="#DejaVuSans-20" transform="translate(236.425781 0)"/>
      <use xlink:href="#DejaVuSans-73" transform="translate(268.212891 0)"/>
      <use xlink:href="#DejaVuSans-70" transform="translate(320.3125 0)"/>
      <use xlink:href="#DejaVuSans-65" transform="translate(383.789062 0)"/>
      <use xlink:href="#DejaVuSans-65" transform="translate(445.3125 0)"/>
      <use xlink:href="#DejaVuSans-64" transform="translate(506.835938 0)"/>
     </g>
    </g>
    <g id="line2d_93">
     <path d="M 619.409 106.239375 
L 631.409 106.239375 
L 643.409 106.239375 
" style="fill: none; stroke: #ff7f0e; stroke-width: 1.5; stroke-linecap: square"/>
    </g>
    <g id="text_53">
     <!-- SST -->
     <g transform="translate(653.009 110.439375) scale(0.12 -0.12)">
      <use xlink:href="#DejaVuSans-53"/>
      <use xlink:href="#DejaVuSans-53" transform="translate(63.476562 0)"/>
      <use xlink:href="#DejaVuSans-54" transform="translate(126.953125 0)"/>
     </g>
    </g>
    <g id="line2d_94">
     <path d="M 619.409 123.853125 
L 631.409 123.853125 
L 643.409 123.853125 
" style="fill: none; stroke: #2ca02c; stroke-width: 1.5; stroke-linecap: square"/>
    </g>
    <g id="text_54">
     <!-- qa -->
     <g transform="translate(653.009 128.053125) scale(0.12 -0.12)">
      <use xlink:href="#DejaVuSans-71"/>
      <use xlink:href="#DejaVuSans-61" transform="translate(63.476562 0)"/>
     </g>
    </g>
   </g>
  </g>
 </g>
 <defs>
  <clipPath id="p3fbe2ffda2">
   <rect x="72.164" y="37.68" width="450.611" height="224.92"/>
  </clipPath>
  <clipPath id="pf29f5ac411">
   <rect x="608.609" y="37.68" width="450.611" height="224.92"/>
  </clipPath>
 </defs>
</svg>
