<?xml version="1.0" encoding="utf-8" standalone="no"?>
<!DOCTYPE svg PUBLIC "-//W3C//DTD SVG 1.1//EN"
  "http://www.w3.org/Graphics/SVG/1.1/DTD/svg11.dtd">
<svg xmlns:xlink="http://www.w3.org/1999/xlink" width="1080pt" height="324pt" viewBox="0 0 1080 324" xmlns="http://www.w3.org/2000/svg" version="1.1">
 <metadata>
  <rdf:RDF xmlns:dc="http://purl.org/dc/elements/1.1/" xmlns:cc="http://creativecommons.org/ns#" xmlns:rdf="http://www.w3.org/1999/02/22-rdf-syntax-ns#">
   <cc:Work>
    <dc:type rdf:resource="http://purl.org/dc/dcmitype/StillImage"/>
    <dc:date>2026-01-08T09:21:59.337631</dc:date>
    <dc:format>image/svg+xml</dc:format>
    <dc:creator>
     <cc:Agent>
      <dc:title>Matplotlib v3.10.0, https://matplotlib.org/</dc:title>
     </cc:Agent>
    </dc:creator>
   </cc:Work>
  </rdf:RDF>
 </metadata>
 <defs>
  <style type="text/css">*{stroke-linejoin: round; stroke-linecap: butt}</style>
 </defs>
 <g id="figure_1">
  <g id="patch_1">
   <path d="M 0 324 
L 1080 324 
L 1080 0 
L 0 0 
z
" style="fill: #ffffff"/>
  </g>
  <g id="axes_1">
   <g id="patch_2">
    <path d="M 72.164 262.6 
L 522.775 262.6 
L 522.775 37.68 
L 72.164 37.68 
z
" style="fill: #ffffff"/>
   </g>
   <g id="patch_3">
    <path d="M 343.899146 262.6 
L 388.918051 262.6 
L 388.918051 37.68 
L 343.899146 37.68 
z
" clip-path="url(#p4a4107a744)" style="fill: #800080; opacity: 0.08"/>
   </g>
   <g id="patch_4">
    <path d="M 388.918051 262.6 
L 431.158337 262.6 
L 431.158337 37.68 
L 388.918051 37.68 
z
" clip-path="url(#p4a4107a744)" style="fill: #ffff00; opacity: 0.12"/>
   </g>
   <g id="matplotlib.axis_1">
    <g id="xtick_1">
     <g id="line2d_1">
      <defs>
       <path id="m5fd41761e5" d="M 0 0 
L 0 3.5 
" style="stroke: #000000; stroke-width: 0.8"/>
      </defs>
      <g>
       <use xlink:href="#m5fd41761e5" x="92.646318" y="262.6" style="stroke: #000000; stroke-width: 0.8"/>
      </g>
     </g>
     <g id="text_1">
      <!-- -50 -->
      <g transform="translate(79.580068 281.7575) scale(0.16 -0.16)">
       <defs>
        <path id="DejaVuSans-2d" d="M 313 2009 
L 1997 2009 
L 1997 1497 
L 313 1497 
L 313 2009 
z
" transform="scale(0.015625)"/>
        <path id="DejaVuSans-35" d="M 691 4666 
L 3169 4666 
L 3169 4134 
L 1269 4134 
L 1269 2991 
Q 1406 3038 1543 3061 
Q 1681 3084 1819 3084 
Q 2600 3084 3056 2656 
Q 3513 2228 3513 1497 
Q 3513 744 3044 326 
Q 2575 -91 1722 -91 
Q 1428 -91 1123 -41 
Q 819 9 494 109 
L 494 744 
Q 775 591 1075 516 
Q 1375 441 1709 441 
Q 2250 441 2565 725 
Q 2881 1009 2881 1497 
Q 2881 1984 2565 2268 
Q 2250 2553 1709 2553 
Q 1456 2553 1204 2497 
Q 953 2441 691 2322 
L 691 4666 
z
" transform="scale(0.015625)"/>
        <path id="DejaVuSans-30" d="M 2034 4250 
Q 1547 4250 1301 3770 
Q 1056 3291 1056 2328 
Q 1056 1369 1301 889 
Q 1547 409 2034 409 
Q 2525 409 2770 889 
Q 3016 1369 3016 2328 
Q 3016 3291 2770 3770 
Q 2525 4250 2034 4250 
z
M 2034 4750 
Q 2819 4750 3233 4129 
Q 3647 3509 3647 2328 
Q 3647 1150 3233 529 
Q 2819 -91 2034 -91 
Q 1250 -91 836 529 
Q 422 1150 422 2328 
Q 422 3509 836 4129 
Q 1250 4750 2034 4750 
z
" transform="scale(0.015625)"/>
       </defs>
       <use xlink:href="#DejaVuSans-2d"/>
       <use xlink:href="#DejaVuSans-35" transform="translate(36.083984 0)"/>
       <use xlink:href="#DejaVuSans-30" transform="translate(99.707031 0)"/>
      </g>
     </g>
    </g>
    <g id="xtick_2">
     <g id="line2d_2">
      <g>
       <use xlink:href="#m5fd41761e5" x="125.602444" y="262.6" style="stroke: #000000; stroke-width: 0.8"/>
      </g>
     </g>
     <g id="text_2">
      <!-- -40 -->
      <g transform="translate(112.536194 281.7575) scale(0.16 -0.16)">
       <defs>
        <path id="DejaVuSans-34" d="M 2419 4116 
L 825 1625 
L 2419 1625 
L 2419 4116 
z
M 2253 4666 
L 3047 4666 
L 3047 1625 
L 3713 1625 
L 3713 1100 
L 3047 1100 
L 3047 0 
L 2419 0 
L 2419 1100 
L 313 1100 
L 313 1709 
L 2253 4666 
z
" transform="scale(0.015625)"/>
       </defs>
       <use xlink:href="#DejaVuSans-2d"/>
       <use xlink:href="#DejaVuSans-34" transform="translate(36.083984 0)"/>
       <use xlink:href="#DejaVuSans-30" transform="translate(99.707031 0)"/>
      </g>
     </g>
    </g>
    <g id="xtick_3">
     <g id="line2d_3">
      <g>
       <use xlink:href="#m5fd41761e5" x="163.780663" y="262.6" style="stroke: #000000; stroke-width: 0.8"/>
      </g>
     </g>
     <g id="text_3">
      <!-- -30 -->
      <g transform="translate(150.714413 281.7575) scale(0.16 -0.16)">
       <defs>
        <path id="DejaVuSans-33" d="M 2597 2516 
Q 3050 2419 3304 2112 
Q 3559 1806 3559 1356 
Q 3559 666 3084 287 
Q 2609 -91 1734 -91 
Q 1441 -91 1130 -33 
Q 819 25 488 141 
L 488 750 
Q 750 597 1062 519 
Q 1375 441 1716 441 
Q 2309 441 2620 675 
Q 2931 909 2931 1356 
Q 2931 1769 2642 2001 
Q 2353 2234 1838 2234 
L 1294 2234 
L 1294 2753 
L 1863 2753 
Q 2328 2753 2575 2939 
Q 2822 3125 2822 3475 
Q 2822 3834 2567 4026 
Q 2313 4219 1838 4219 
Q 1578 4219 1281 4162 
Q 984 4106 628 3988 
L 628 4550 
Q 988 4650 1302 4700 
Q 1616 4750 1894 4750 
Q 2613 4750 3031 4423 
Q 3450 4097 3450 3541 
Q 3450 3153 3228 2886 
Q 3006 2619 2597 2516 
z
" transform="scale(0.015625)"/>
       </defs>
       <use xlink:href="#DejaVuSans-2d"/>
       <use xlink:href="#DejaVuSans-33" transform="translate(36.083984 0)"/>
       <use xlink:href="#DejaVuSans-30" transform="translate(99.707031 0)"/>
      </g>
     </g>
    </g>
    <g id="xtick_4">
     <g id="line2d_4">
      <g>
       <use xlink:href="#m5fd41761e5" x="206.020949" y="262.6" style="stroke: #000000; stroke-width: 0.8"/>
      </g>
     </g>
     <g id="text_4">
      <!-- -20 -->
      <g transform="translate(192.954699 281.7575) scale(0.16 -0.16)">
       <defs>
        <path id="DejaVuSans-32" d="M 1228 531 
L 3431 531 
L 3431 0 
L 469 0 
L 469 531 
Q 828 903 1448 1529 
Q 2069 2156 2228 2338 
Q 2531 2678 2651 2914 
Q 2772 3150 2772 3378 
Q 2772 3750 2511 3984 
Q 2250 4219 1831 4219 
Q 1534 4219 1204 4116 
Q 875 4013 500 3803 
L 500 4441 
Q 881 4594 1212 4672 
Q 1544 4750 1819 4750 
Q 2544 4750 2975 4387 
Q 3406 4025 3406 3419 
Q 3406 3131 3298 2873 
Q 3191 2616 2906 2266 
Q 2828 2175 2409 1742 
Q 1991 1309 1228 531 
z
" transform="scale(0.015625)"/>
       </defs>
       <use xlink:href="#DejaVuSans-2d"/>
       <use xlink:href="#DejaVuSans-32" transform="translate(36.083984 0)"/>
       <use xlink:href="#DejaVuSans-30" transform="translate(99.707031 0)"/>
      </g>
     </g>
    </g>
    <g id="xtick_5">
     <g id="line2d_5">
      <g>
       <use xlink:href="#m5fd41761e5" x="251.039854" y="262.6" style="stroke: #000000; stroke-width: 0.8"/>
      </g>
     </g>
     <g id="text_5">
      <!-- -10 -->
      <g transform="translate(237.973604 281.7575) scale(0.16 -0.16)">
       <defs>
        <path id="DejaVuSans-31" d="M 794 531 
L 1825 531 
L 1825 4091 
L 703 3866 
L 703 4441 
L 1819 4666 
L 2450 4666 
L 2450 531 
L 3481 531 
L 3481 0 
L 794 0 
L 794 531 
z
" transform="scale(0.015625)"/>
       </defs>
       <use xlink:href="#DejaVuSans-2d"/>
       <use xlink:href="#DejaVuSans-31" transform="translate(36.083984 0)"/>
       <use xlink:href="#DejaVuSans-30" transform="translate(99.707031 0)"/>
      </g>
     </g>
    </g>
    <g id="xtick_6">
     <g id="line2d_6">
      <g>
       <use xlink:href="#m5fd41761e5" x="297.4695" y="262.6" style="stroke: #000000; stroke-width: 0.8"/>
      </g>
     </g>
     <g id="text_6">
      <!-- 0 -->
      <g transform="translate(292.3795 281.7575) scale(0.16 -0.16)">
       <use xlink:href="#DejaVuSans-30"/>
      </g>
     </g>
    </g>
    <g id="xtick_7">
     <g id="line2d_7">
      <g>
       <use xlink:href="#m5fd41761e5" x="343.899146" y="262.6" style="stroke: #000000; stroke-width: 0.8"/>
      </g>
     </g>
     <g id="text_7">
      <!-- 10 -->
      <g transform="translate(333.719146 281.7575) scale(0.16 -0.16)">
       <use xlink:href="#DejaVuSans-31"/>
       <use xlink:href="#DejaVuSans-30" transform="translate(63.623047 0)"/>
      </g>
     </g>
    </g>
    <g id="xtick_8">
     <g id="line2d_8">
      <g>
       <use xlink:href="#m5fd41761e5" x="388.918051" y="262.6" style="stroke: #000000; stroke-width: 0.8"/>
      </g>
     </g>
     <g id="text_8">
      <!-- 20 -->
      <g transform="translate(378.738051 281.7575) scale(0.16 -0.16)">
       <use xlink:href="#DejaVuSans-32"/>
       <use xlink:href="#DejaVuSans-30" transform="translate(63.623047 0)"/>
      </g>
     </g>
    </g>
    <g id="xtick_9">
     <g id="line2d_9">
      <g>
       <use xlink:href="#m5fd41761e5" x="431.158337" y="262.6" style="stroke: #000000; stroke-width: 0.8"/>
      </g>
     </g>
     <g id="text_9">
      <!-- 30 -->
      <g transform="translate(420.978337 281.7575) scale(0.16 -0.16)">
       <use xlink:href="#DejaVuSans-33"/>
       <use xlink:href="#DejaVuSans-30" transform="translate(63.623047 0)"/>
      </g>
     </g>
    </g>
    <g id="xtick_10">
     <g id="line2d_10">
      <g>
       <use xlink:href="#m5fd41761e5" x="469.336556" y="262.6" style="stroke: #000000; stroke-width: 0.8"/>
      </g>
     </g>
     <g id="text_10">
      <!-- 40 -->
      <g transform="translate(459.156556 281.7575) scale(0.16 -0.16)">
       <use xlink:href="#DejaVuSans-34"/>
       <use xlink:href="#DejaVuSans-30" transform="translate(63.623047 0)"/>
      </g>
     </g>
    </g>
    <g id="xtick_11">
     <g id="line2d_11">
      <g>
       <use xlink:href="#m5fd41761e5" x="502.292682" y="262.6" style="stroke: #000000; stroke-width: 0.8"/>
      </g>
     </g>
     <g id="text_11">
      <!-- 50 -->
      <g transform="translate(492.112682 281.7575) scale(0.16 -0.16)">
       <use xlink:href="#DejaVuSans-35"/>
       <use xlink:href="#DejaVuSans-30" transform="translate(63.623047 0)"/>
      </g>
     </g>
    </g>
    <g id="text_12">
     <!-- Latitude -->
     <g transform="translate(264.54325 301.2425) scale(0.16 -0.16)">
      <defs>
       <path id="DejaVuSans-4c" d="M 628 4666 
L 1259 4666 
L 1259 531 
L 3531 531 
L 3531 0 
L 628 0 
L 628 4666 
z
" transform="scale(0.015625)"/>
       <path id="DejaVuSans-61" d="M 2194 1759 
Q 1497 1759 1228 1600 
Q 959 1441 959 1056 
Q 959 750 1161 570 
Q 1363 391 1709 391 
Q 2188 391 2477 730 
Q 2766 1069 2766 1631 
L 2766 1759 
L 2194 1759 
z
M 3341 1997 
L 3341 0 
L 2766 0 
L 2766 531 
Q 2569 213 2275 61 
Q 1981 -91 1556 -91 
Q 1019 -91 701 211 
Q 384 513 384 1019 
Q 384 1609 779 1909 
Q 1175 2209 1959 2209 
L 2766 2209 
L 2766 2266 
Q 2766 2663 2505 2880 
Q 2244 3097 1772 3097 
Q 1472 3097 1187 3025 
Q 903 2953 641 2809 
L 641 3341 
Q 956 3463 1253 3523 
Q 1550 3584 1831 3584 
Q 2591 3584 2966 3190 
Q 3341 2797 3341 1997 
z
" transform="scale(0.015625)"/>
       <path id="DejaVuSans-74" d="M 1172 4494 
L 1172 3500 
L 2356 3500 
L 2356 3053 
L 1172 3053 
L 1172 1153 
Q 1172 725 1289 603 
Q 1406 481 1766 481 
L 2356 481 
L 2356 0 
L 1766 0 
Q 1100 0 847 248 
Q 594 497 594 1153 
L 594 3053 
L 172 3053 
L 172 3500 
L 594 3500 
L 594 4494 
L 1172 4494 
z
" transform="scale(0.015625)"/>
       <path id="DejaVuSans-69" d="M 603 3500 
L 1178 3500 
L 1178 0 
L 603 0 
L 603 3500 
z
M 603 4863 
L 1178 4863 
L 1178 4134 
L 603 4134 
L 603 4863 
z
" transform="scale(0.015625)"/>
       <path id="DejaVuSans-75" d="M 544 1381 
L 544 3500 
L 1119 3500 
L 1119 1403 
Q 1119 906 1312 657 
Q 1506 409 1894 409 
Q 2359 409 2629 706 
Q 2900 1003 2900 1516 
L 2900 3500 
L 3475 3500 
L 3475 0 
L 2900 0 
L 2900 538 
Q 2691 219 2414 64 
Q 2138 -91 1772 -91 
Q 1169 -91 856 284 
Q 544 659 544 1381 
z
M 1991 3584 
L 1991 3584 
z
" transform="scale(0.015625)"/>
       <path id="DejaVuSans-64" d="M 2906 2969 
L 2906 4863 
L 3481 4863 
L 3481 0 
L 2906 0 
L 2906 525 
Q 2725 213 2448 61 
Q 2172 -91 1784 -91 
Q 1150 -91 751 415 
Q 353 922 353 1747 
Q 353 2572 751 3078 
Q 1150 3584 1784 3584 
Q 2172 3584 2448 3432 
Q 2725 3281 2906 2969 
z
M 947 1747 
Q 947 1113 1208 752 
Q 1469 391 1925 391 
Q 2381 391 2643 752 
Q 2906 1113 2906 1747 
Q 2906 2381 2643 2742 
Q 2381 3103 1925 3103 
Q 1469 3103 1208 2742 
Q 947 2381 947 1747 
z
" transform="scale(0.015625)"/>
       <path id="DejaVuSans-65" d="M 3597 1894 
L 3597 1613 
L 953 1613 
Q 991 1019 1311 708 
Q 1631 397 2203 397 
Q 2534 397 2845 478 
Q 3156 559 3463 722 
L 3463 178 
Q 3153 47 2828 -22 
Q 2503 -91 2169 -91 
Q 1331 -91 842 396 
Q 353 884 353 1716 
Q 353 2575 817 3079 
Q 1281 3584 2069 3584 
Q 2775 3584 3186 3129 
Q 3597 2675 3597 1894 
z
M 3022 2063 
Q 3016 2534 2758 2815 
Q 2500 3097 2075 3097 
Q 1594 3097 1305 2825 
Q 1016 2553 972 2059 
L 3022 2063 
z
" transform="scale(0.015625)"/>
      </defs>
      <use xlink:href="#DejaVuSans-4c"/>
      <use xlink:href="#DejaVuSans-61" transform="translate(55.712891 0)"/>
      <use xlink:href="#DejaVuSans-74" transform="translate(116.992188 0)"/>
      <use xlink:href="#DejaVuSans-69" transform="translate(156.201172 0)"/>
      <use xlink:href="#DejaVuSans-74" transform="translate(183.984375 0)"/>
      <use xlink:href="#DejaVuSans-75" transform="translate(223.193359 0)"/>
      <use xlink:href="#DejaVuSans-64" transform="translate(286.572266 0)"/>
      <use xlink:href="#DejaVuSans-65" transform="translate(350.048828 0)"/>
     </g>
    </g>
   </g>
   <g id="matplotlib.axis_2">
    <g id="ytick_1">
     <g id="line2d_12">
      <defs>
       <path id="m8320a7470f" d="M 0 0 
L -3.5 0 
" style="stroke: #000000; stroke-width: 0.8"/>
      </defs>
      <g>
       <use xlink:href="#m8320a7470f" x="72.164" y="262.6" style="stroke: #000000; stroke-width: 0.8"/>
      </g>
     </g>
     <g id="line2d_13">
      <defs>
       <path id="m3288a1beeb" d="M 0 0 
L 3.5 0 
" style="stroke: #000000; stroke-width: 0.8"/>
      </defs>
      <g>
       <use xlink:href="#m3288a1beeb" x="522.775" y="262.6" style="stroke: #000000; stroke-width: 0.8"/>
      </g>
     </g>
     <g id="text_13">
      <!-- −6 -->
      <g transform="translate(41.5765 268.67875) scale(0.16 -0.16)">
       <defs>
        <path id="DejaVuSans-2212" d="M 678 2272 
L 4684 2272 
L 4684 1741 
L 678 1741 
L 678 2272 
z
" transform="scale(0.015625)"/>
        <path id="DejaVuSans-36" d="M 2113 2584 
Q 1688 2584 1439 2293 
Q 1191 2003 1191 1497 
Q 1191 994 1439 701 
Q 1688 409 2113 409 
Q 2538 409 2786 701 
Q 3034 994 3034 1497 
Q 3034 2003 2786 2293 
Q 2538 2584 2113 2584 
z
M 3366 4563 
L 3366 3988 
Q 3128 4100 2886 4159 
Q 2644 4219 2406 4219 
Q 1781 4219 1451 3797 
Q 1122 3375 1075 2522 
Q 1259 2794 1537 2939 
Q 1816 3084 2150 3084 
Q 2853 3084 3261 2657 
Q 3669 2231 3669 1497 
Q 3669 778 3244 343 
Q 2819 -91 2113 -91 
Q 1303 -91 875 529 
Q 447 1150 447 2328 
Q 447 3434 972 4092 
Q 1497 4750 2381 4750 
Q 2619 4750 2861 4703 
Q 3103 4656 3366 4563 
z
" transform="scale(0.015625)"/>
       </defs>
       <use xlink:href="#DejaVuSans-2212"/>
       <use xlink:href="#DejaVuSans-36" transform="translate(83.789062 0)"/>
      </g>
     </g>
    </g>
    <g id="ytick_2">
     <g id="line2d_14">
      <g>
       <use xlink:href="#m8320a7470f" x="72.164" y="225.113333" style="stroke: #000000; stroke-width: 0.8"/>
      </g>
     </g>
     <g id="line2d_15">
      <g>
       <use xlink:href="#m3288a1beeb" x="522.775" y="225.113333" style="stroke: #000000; stroke-width: 0.8"/>
      </g>
     </g>
     <g id="text_14">
      <!-- −4 -->
      <g transform="translate(41.5765 231.192083) scale(0.16 -0.16)">
       <use xlink:href="#DejaVuSans-2212"/>
       <use xlink:href="#DejaVuSans-34" transform="translate(83.789062 0)"/>
      </g>
     </g>
    </g>
    <g id="ytick_3">
     <g id="line2d_16">
      <g>
       <use xlink:href="#m8320a7470f" x="72.164" y="187.626667" style="stroke: #000000; stroke-width: 0.8"/>
      </g>
     </g>
     <g id="line2d_17">
      <g>
       <use xlink:href="#m3288a1beeb" x="522.775" y="187.626667" style="stroke: #000000; stroke-width: 0.8"/>
      </g>
     </g>
     <g id="text_15">
      <!-- −2 -->
      <g transform="translate(41.5765 193.705417) scale(0.16 -0.16)">
       <use xlink:href="#DejaVuSans-2212"/>
       <use xlink:href="#DejaVuSans-32" transform="translate(83.789062 0)"/>
      </g>
     </g>
    </g>
    <g id="ytick_4">
     <g id="line2d_18">
      <g>
       <use xlink:href="#m8320a7470f" x="72.164" y="150.14" style="stroke: #000000; stroke-width: 0.8"/>
      </g>
     </g>
     <g id="line2d_19">
      <g>
       <use xlink:href="#m3288a1beeb" x="522.775" y="150.14" style="stroke: #000000; stroke-width: 0.8"/>
      </g>
     </g>
     <g id="text_16">
      <!-- 0 -->
      <g transform="translate(54.984 156.21875) scale(0.16 -0.16)">
       <use xlink:href="#DejaVuSans-30"/>
      </g>
     </g>
    </g>
    <g id="ytick_5">
     <g id="line2d_20">
      <g>
       <use xlink:href="#m8320a7470f" x="72.164" y="112.653333" style="stroke: #000000; stroke-width: 0.8"/>
      </g>
     </g>
     <g id="line2d_21">
      <g>
       <use xlink:href="#m3288a1beeb" x="522.775" y="112.653333" style="stroke: #000000; stroke-width: 0.8"/>
      </g>
     </g>
     <g id="text_17">
      <!-- 2 -->
      <g transform="translate(54.984 118.732083) scale(0.16 -0.16)">
       <use xlink:href="#DejaVuSans-32"/>
      </g>
     </g>
    </g>
    <g id="ytick_6">
     <g id="line2d_22">
      <g>
       <use xlink:href="#m8320a7470f" x="72.164" y="75.166667" style="stroke: #000000; stroke-width: 0.8"/>
      </g>
     </g>
     <g id="line2d_23">
      <g>
       <use xlink:href="#m3288a1beeb" x="522.775" y="75.166667" style="stroke: #000000; stroke-width: 0.8"/>
      </g>
     </g>
     <g id="text_18">
      <!-- 4 -->
      <g transform="translate(54.984 81.245417) scale(0.16 -0.16)">
       <use xlink:href="#DejaVuSans-34"/>
      </g>
     </g>
    </g>
    <g id="ytick_7">
     <g id="line2d_24">
      <g>
       <use xlink:href="#m8320a7470f" x="72.164" y="37.68" style="stroke: #000000; stroke-width: 0.8"/>
      </g>
     </g>
     <g id="line2d_25">
      <g>
       <use xlink:href="#m3288a1beeb" x="522.775" y="37.68" style="stroke: #000000; stroke-width: 0.8"/>
      </g>
     </g>
     <g id="text_19">
      <!-- 6 -->
      <g transform="translate(54.984 43.75875) scale(0.16 -0.16)">
       <use xlink:href="#DejaVuSans-36"/>
      </g>
     </g>
    </g>
    <g id="text_20">
     <!-- LHFLX [W m$^{-2}$] -->
     <g transform="translate(34.249 210.78) rotate(-90) scale(0.16 -0.16)">
      <defs>
       <path id="DejaVuSans-48" d="M 628 4666 
L 1259 4666 
L 1259 2753 
L 3553 2753 
L 3553 4666 
L 4184 4666 
L 4184 0 
L 3553 0 
L 3553 2222 
L 1259 2222 
L 1259 0 
L 628 0 
L 628 4666 
z
" transform="scale(0.015625)"/>
       <path id="DejaVuSans-46" d="M 628 4666 
L 3309 4666 
L 3309 4134 
L 1259 4134 
L 1259 2759 
L 3109 2759 
L 3109 2228 
L 1259 2228 
L 1259 0 
L 628 0 
L 628 4666 
z
" transform="scale(0.015625)"/>
       <path id="DejaVuSans-58" d="M 403 4666 
L 1081 4666 
L 2241 2931 
L 3406 4666 
L 4084 4666 
L 2584 2425 
L 4184 0 
L 3506 0 
L 2194 1984 
L 872 0 
L 191 0 
L 1856 2491 
L 403 4666 
z
" transform="scale(0.015625)"/>
       <path id="DejaVuSans-20" transform="scale(0.015625)"/>
       <path id="DejaVuSans-5b" d="M 550 4863 
L 1875 4863 
L 1875 4416 
L 1125 4416 
L 1125 -397 
L 1875 -397 
L 1875 -844 
L 550 -844 
L 550 4863 
z
" transform="scale(0.015625)"/>
       <path id="DejaVuSans-57" d="M 213 4666 
L 850 4666 
L 1831 722 
L 2809 4666 
L 3519 4666 
L 4500 722 
L 5478 4666 
L 6119 4666 
L 4947 0 
L 4153 0 
L 3169 4050 
L 2175 0 
L 1381 0 
L 213 4666 
z
" transform="scale(0.015625)"/>
       <path id="DejaVuSans-6d" d="M 3328 2828 
Q 3544 3216 3844 3400 
Q 4144 3584 4550 3584 
Q 5097 3584 5394 3201 
Q 5691 2819 5691 2113 
L 5691 0 
L 5113 0 
L 5113 2094 
Q 5113 2597 4934 2840 
Q 4756 3084 4391 3084 
Q 3944 3084 3684 2787 
Q 3425 2491 3425 1978 
L 3425 0 
L 2847 0 
L 2847 2094 
Q 2847 2600 2669 2842 
Q 2491 3084 2119 3084 
Q 1678 3084 1418 2786 
Q 1159 2488 1159 1978 
L 1159 0 
L 581 0 
L 581 3500 
L 1159 3500 
L 1159 2956 
Q 1356 3278 1631 3431 
Q 1906 3584 2284 3584 
Q 2666 3584 2933 3390 
Q 3200 3197 3328 2828 
z
" transform="scale(0.015625)"/>
       <path id="DejaVuSans-5d" d="M 1947 4863 
L 1947 -844 
L 622 -844 
L 622 -397 
L 1369 -397 
L 1369 4416 
L 622 4416 
L 622 4863 
L 1947 4863 
z
" transform="scale(0.015625)"/>
      </defs>
      <use xlink:href="#DejaVuSans-4c" transform="translate(0 0.765625)"/>
      <use xlink:href="#DejaVuSans-48" transform="translate(55.712891 0.765625)"/>
      <use xlink:href="#DejaVuSans-46" transform="translate(130.908203 0.765625)"/>
      <use xlink:href="#DejaVuSans-4c" transform="translate(188.427734 0.765625)"/>
      <use xlink:href="#DejaVuSans-58" transform="translate(244.140625 0.765625)"/>
      <use xlink:href="#DejaVuSans-20" transform="translate(312.646484 0.765625)"/>
      <use xlink:href="#DejaVuSans-5b" transform="translate(344.433594 0.765625)"/>
      <use xlink:href="#DejaVuSans-57" transform="translate(383.447266 0.765625)"/>
      <use xlink:href="#DejaVuSans-20" transform="translate(482.324219 0.765625)"/>
      <use xlink:href="#DejaVuSans-6d" transform="translate(514.111328 0.765625)"/>
      <use xlink:href="#DejaVuSans-2212" transform="translate(612.480469 39.046875) scale(0.7)"/>
      <use xlink:href="#DejaVuSans-32" transform="translate(671.132812 39.046875) scale(0.7)"/>
      <use xlink:href="#DejaVuSans-5d" transform="translate(718.40332 0.765625)"/>
     </g>
    </g>
   </g>
   <g id="line2d_26">
    <path d="M 92.646318 169.997739 
L 94.153921 170.810045 
L 95.677007 170.974286 
L 97.215461 170.382235 
L 98.769165 170.607316 
L 100.338 171.60351 
L 101.921848 171.140158 
L 105.134097 164.164853 
L 106.762254 163.064954 
L 108.404933 161.013004 
L 110.062011 156.649697 
L 113.418854 146.088972 
L 115.118364 143.27528 
L 116.831761 144.485113 
L 118.558914 147.879682 
L 120.299692 151.628632 
L 122.053962 153.668219 
L 123.821591 154.84639 
L 125.602444 157.161108 
L 127.396385 158.644658 
L 129.203277 159.175017 
L 131.022984 158.328704 
L 132.855366 156.141748 
L 134.700285 153.245314 
L 138.427166 144.732718 
L 142.202494 136.318219 
L 144.107966 132.592659 
L 146.025118 129.605531 
L 147.953802 127.30881 
L 149.893872 125.337173 
L 151.845181 123.888172 
L 155.780919 122.535578 
L 157.765049 121.629029 
L 159.759817 121.087148 
L 161.765073 121.194543 
L 163.780663 121.621423 
L 165.806434 121.43726 
L 167.842231 121.812198 
L 169.8879 121.768287 
L 171.943285 121.938934 
L 174.00823 121.896571 
L 176.082576 122.466046 
L 178.166166 122.227313 
L 180.258842 120.303214 
L 182.360444 116.361389 
L 184.470812 115.222429 
L 186.589785 118.690747 
L 188.717202 121.806543 
L 192.996719 126.374768 
L 195.148494 127.551685 
L 197.30806 127.153409 
L 199.475254 128.423964 
L 201.649911 130.842507 
L 203.831865 137.149176 
L 206.020949 147.729375 
L 208.216998 157.758523 
L 210.419844 162.791498 
L 212.629319 164.371842 
L 214.845255 164.953358 
L 219.295833 162.931007 
L 221.530138 162.301477 
L 223.770225 161.35749 
L 228.267066 157.937207 
L 230.523477 157.039566 
L 232.784986 155.966742 
L 235.051421 154.303546 
L 237.32261 151.20915 
L 241.878556 141.861656 
L 246.451435 131.842605 
L 248.743789 129.325704 
L 251.039854 129.857881 
L 253.339455 131.970071 
L 257.948563 138.343565 
L 262.56971 145.163513 
L 264.884358 149.696362 
L 267.201488 152.487342 
L 269.520923 153.583116 
L 271.842486 151.128555 
L 274.166 146.352722 
L 276.491289 140.101028 
L 278.818176 133.102239 
L 281.146483 128.334523 
L 283.476034 128.021859 
L 285.80665 129.806013 
L 288.138154 131.892427 
L 290.470368 133.295725 
L 295.136219 137.015902 
L 297.4695 137.547901 
L 299.802781 137.212952 
L 302.135884 138.137924 
L 304.468632 140.090765 
L 306.800846 142.629905 
L 309.13235 144.143209 
L 311.462966 144.606745 
L 313.792517 146.276385 
L 316.120824 149.61477 
L 318.447711 154.628139 
L 320.773 154.074786 
L 323.096514 147.065728 
L 325.418077 142.306506 
L 327.737512 141.644532 
L 330.054642 142.006703 
L 332.36929 143.968211 
L 334.68128 146.335206 
L 336.990437 151.540543 
L 339.296583 158.64112 
L 341.599545 164.518254 
L 343.899146 168.136623 
L 346.195211 170.959343 
L 348.487565 175.18128 
L 350.776035 181.163208 
L 355.340621 194.289431 
L 357.61639 200.103595 
L 359.887579 204.641459 
L 362.154014 207.169168 
L 364.415523 206.570611 
L 366.671934 205.295572 
L 368.923076 202.609676 
L 371.168775 199.240018 
L 373.408862 194.575388 
L 375.643167 191.370946 
L 380.093745 181.356669 
L 384.519156 173.466156 
L 386.722002 166.487524 
L 388.918051 157.824911 
L 391.107135 150.922873 
L 393.289089 145.230199 
L 395.463746 141.952543 
L 397.63094 138.066658 
L 399.790506 135.906814 
L 401.942281 135.219309 
L 404.086099 135.492374 
L 406.221798 135.391772 
L 408.349215 134.048698 
L 410.468188 131.804339 
L 412.578556 130.114245 
L 414.680158 130.468612 
L 416.772834 131.023371 
L 418.856424 131.321372 
L 420.93077 131.438591 
L 427.096769 133.267433 
L 429.132566 134.260322 
L 431.158337 134.857836 
L 433.173927 136.029843 
L 435.179183 137.043403 
L 437.173951 139.193264 
L 441.13142 145.035069 
L 443.093819 146.897676 
L 445.045128 147.781164 
L 446.985198 148.448335 
L 448.913882 148.579165 
L 450.831034 149.038167 
L 452.736506 149.219355 
L 454.630154 149.567252 
L 456.511834 151.04161 
L 460.238715 157.162592 
L 462.083634 159.568594 
L 463.916016 161.511996 
L 465.735723 161.589738 
L 469.336556 158.61974 
L 471.117409 156.607113 
L 476.380086 148.876437 
L 478.107239 146.45944 
L 479.820636 144.904024 
L 481.520146 144.500125 
L 484.876989 145.383635 
L 486.534067 145.046647 
L 488.176746 144.022668 
L 491.418413 141.699189 
L 493.017152 140.241435 
L 496.169835 134.505602 
L 497.723539 132.339907 
L 499.261993 130.938043 
L 500.785079 130.121816 
L 502.292682 129.640943 
L 502.292682 129.640943 
" clip-path="url(#p4a4107a744)" style="fill: none; stroke: #000000; stroke-width: 3; stroke-linecap: square"/>
   </g>
   <g id="line2d_27">
    <path d="M 92.646318 148.253492 
L 94.153921 148.356756 
L 95.677007 148.063796 
L 97.215461 147.498834 
L 98.769165 147.310189 
L 100.338 147.535848 
L 101.921848 147.345622 
L 103.520587 146.149054 
L 105.134097 145.472874 
L 106.762254 145.800166 
L 108.404933 145.759238 
L 110.062011 144.715818 
L 111.73336 143.357605 
L 113.418854 142.146295 
L 115.118364 142.083643 
L 116.831761 143.883172 
L 118.558914 147.051989 
L 120.299692 150.4879 
L 122.053962 152.693916 
L 123.821591 154.151319 
L 125.602444 156.237633 
L 127.396385 157.529983 
L 129.203277 158.065594 
L 131.022984 157.428159 
L 132.855366 155.547162 
L 134.700285 152.866143 
L 136.557599 149.286892 
L 142.202494 137.451632 
L 144.107966 133.71923 
L 146.025118 130.577491 
L 147.953802 128.065647 
L 149.893872 125.932753 
L 151.845181 124.153839 
L 153.80758 123.208283 
L 155.780919 123.155265 
L 157.765049 123.419452 
L 159.759817 124.304952 
L 161.765073 125.758642 
L 163.780663 127.505321 
L 165.806434 128.825272 
L 167.842231 130.476957 
L 169.8879 132.453626 
L 171.943285 135.742227 
L 176.082576 143.187043 
L 178.166166 145.829232 
L 180.258842 147.776296 
L 182.360444 149.094318 
L 184.470812 151.665162 
L 186.589785 156.259202 
L 188.717202 159.872954 
L 190.852901 162.616651 
L 192.996719 165.673282 
L 195.148494 168.109427 
L 197.30806 168.272427 
L 199.475254 168.240783 
L 201.649911 168.859315 
L 203.831865 171.257908 
L 206.020949 175.180874 
L 208.216998 178.741935 
L 210.419844 180.456208 
L 212.629319 180.818949 
L 214.845255 180.52556 
L 217.067483 179.118849 
L 219.295833 177.475001 
L 223.770225 174.851005 
L 226.015924 172.991157 
L 228.267066 170.975981 
L 232.784986 167.382422 
L 235.051421 164.81907 
L 237.32261 160.703119 
L 239.598379 155.200032 
L 246.451435 137.233158 
L 248.743789 133.025906 
L 251.039854 129.989804 
L 253.339455 128.947855 
L 255.642417 130.013795 
L 257.948563 132.240384 
L 260.25772 135.190345 
L 262.56971 138.929518 
L 264.884358 144.005288 
L 267.201488 148.510563 
L 269.520923 153.538558 
L 271.842486 156.511009 
L 274.166 157.573675 
L 276.491289 156.117575 
L 278.818176 152.257837 
L 281.146483 148.732511 
L 283.476034 147.773045 
L 288.138154 148.791471 
L 290.470368 148.925102 
L 295.136219 149.654247 
L 297.4695 149.086778 
L 299.802781 148.067298 
L 302.135884 148.90825 
L 304.468632 151.115578 
L 309.13235 156.49093 
L 311.462966 158.921934 
L 313.792517 161.612771 
L 316.120824 165.097342 
L 318.447711 168.956946 
L 320.773 168.305685 
L 323.096514 162.749447 
L 325.418077 158.419548 
L 327.737512 158.136897 
L 330.054642 160.168386 
L 332.36929 163.640389 
L 334.68128 167.45415 
L 336.990437 175.723136 
L 341.599545 198.920635 
L 346.195211 217.704153 
L 348.487565 225.848858 
L 350.776035 234.917157 
L 353.060444 242.167243 
L 355.340621 247.611041 
L 357.61639 250.565483 
L 359.887579 250.759039 
L 362.154014 247.932606 
L 364.415523 241.754689 
L 368.923076 226.305207 
L 371.168775 218.011465 
L 377.871517 188.61085 
L 380.093745 180.551308 
L 382.309681 174.365232 
L 384.519156 169.382562 
L 388.918051 153.86111 
L 391.107135 147.977449 
L 393.289089 143.190705 
L 395.463746 140.237558 
L 397.63094 136.441574 
L 399.790506 133.809292 
L 401.942281 132.062463 
L 404.086099 131.256443 
L 406.221798 130.286659 
L 408.349215 128.54544 
L 410.468188 126.285552 
L 412.578556 124.818118 
L 418.856424 124.845433 
L 420.93077 124.699434 
L 422.995715 125.761874 
L 425.0511 127.452581 
L 427.096769 129.75708 
L 429.132566 132.246649 
L 433.173927 138.080802 
L 435.179183 141.489602 
L 439.158081 148.950544 
L 441.13142 152.356225 
L 443.093819 154.621298 
L 445.045128 155.6002 
L 446.985198 155.820316 
L 452.736506 154.007999 
L 454.630154 153.813711 
L 456.511834 154.607403 
L 458.381401 156.797931 
L 460.238715 159.466107 
L 462.083634 162.311801 
L 463.916016 164.858238 
L 465.735723 166.070365 
L 469.336556 166.520693 
L 471.117409 165.960735 
L 472.885038 164.483771 
L 476.380086 161.111595 
L 478.107239 159.249488 
L 479.820636 157.839043 
L 481.520146 156.899329 
L 483.20564 156.187425 
L 484.876989 155.263916 
L 489.804903 150.180943 
L 493.017152 146.13017 
L 496.169835 140.892372 
L 497.723539 139.089755 
L 499.261993 138.008769 
L 502.292682 136.710518 
L 502.292682 136.710518 
" clip-path="url(#p4a4107a744)" style="fill: none; stroke: #808080; stroke-width: 3; stroke-linecap: square"/>
   </g>
   <g id="line2d_28">
    <path d="M 92.646318 150.130279 
L 94.153921 149.553906 
L 103.520587 144.214604 
L 105.134097 143.819667 
L 106.762254 143.849306 
L 110.062011 144.426757 
L 113.418854 145.42527 
L 115.118364 146.269023 
L 116.831761 147.644906 
L 120.299692 151.889504 
L 122.053962 153.455126 
L 125.602444 155.753296 
L 127.396385 156.163545 
L 129.203277 156.057822 
L 131.022984 155.006602 
L 132.855366 152.766484 
L 134.700285 149.575418 
L 136.557599 145.459219 
L 138.427166 140.971547 
L 142.202494 132.783753 
L 144.107966 128.918649 
L 146.025118 125.623249 
L 147.953802 122.818505 
L 149.893872 120.592333 
L 151.845181 118.706236 
L 153.80758 117.886534 
L 155.780919 118.537668 
L 157.765049 119.86606 
L 167.842231 131.415135 
L 169.8879 134.372258 
L 171.943285 138.122617 
L 174.00823 142.171246 
L 176.082576 145.882365 
L 180.258842 151.974809 
L 182.360444 155.648957 
L 184.470812 160.033464 
L 186.589785 165.063485 
L 188.717202 169.247106 
L 190.852901 172.622806 
L 195.148494 180.480707 
L 197.30806 182.724057 
L 199.475254 184.072465 
L 201.649911 185.193989 
L 203.831865 187.69761 
L 206.020949 190.596545 
L 208.216998 193.002611 
L 210.419844 194.509937 
L 212.629319 195.133857 
L 214.845255 195.518269 
L 217.067483 195.262478 
L 219.295833 194.352482 
L 223.770225 192.780701 
L 226.015924 191.378282 
L 230.523477 187.73019 
L 232.784986 185.674886 
L 235.051421 182.702923 
L 237.32261 178.089341 
L 239.598379 172.15453 
L 246.451435 152.533579 
L 248.743789 147.579863 
L 251.039854 142.973465 
L 253.339455 140.632324 
L 255.642417 140.804126 
L 257.948563 142.485883 
L 260.25772 145.030758 
L 262.56971 148.596649 
L 264.884358 153.535986 
L 267.201488 158.945774 
L 269.520923 165.88508 
L 271.842486 171.269545 
L 274.166 174.817035 
L 276.491289 175.358981 
L 278.818176 172.683117 
L 281.146483 169.252435 
L 283.476034 167.271228 
L 285.80665 166.511819 
L 290.470368 165.583017 
L 292.803116 165.218476 
L 295.136219 164.706418 
L 297.4695 163.561116 
L 299.802781 162.215168 
L 302.135884 162.508067 
L 304.468632 164.068179 
L 306.800846 166.271894 
L 309.13235 169.106811 
L 313.792517 176.315642 
L 316.120824 180.276821 
L 318.447711 183.758972 
L 320.773 183.828588 
L 325.418077 177.728117 
L 327.737512 177.449366 
L 330.054642 180.05354 
L 334.68128 187.524154 
L 336.990437 195.480902 
L 339.296583 207.546077 
L 346.195211 245.537013 
L 348.487565 255.90651 
L 350.776035 267.19229 
L 353.060444 276.223727 
L 355.340621 283.263888 
L 357.61639 287.858635 
L 359.887579 289.477995 
L 362.154014 287.853358 
L 364.415523 282.826116 
L 366.671934 275.955721 
L 368.923076 268.533963 
L 371.168775 260.123104 
L 375.643167 238.723421 
L 377.871517 226.7572 
L 380.093745 217.361205 
L 382.309681 210.161357 
L 384.519156 204.558017 
L 388.918051 187.720199 
L 391.107135 181.391244 
L 393.289089 176.35223 
L 395.463746 172.99047 
L 397.63094 168.22554 
L 399.790506 164.031709 
L 401.942281 160.465236 
L 406.221798 155.918588 
L 408.349215 152.919685 
L 410.468188 148.937873 
L 412.578556 145.295152 
L 414.680158 143.097288 
L 418.856424 139.051018 
L 420.93077 136.784251 
L 422.995715 135.87021 
L 425.0511 136.032239 
L 427.096769 137.25401 
L 429.132566 139.247673 
L 433.173927 145.311464 
L 435.179183 149.183872 
L 437.173951 153.299321 
L 439.158081 156.604102 
L 441.13142 158.968434 
L 443.093819 159.940235 
L 445.045128 159.926702 
L 446.985198 159.250128 
L 448.913882 157.942811 
L 450.831034 156.913644 
L 452.736506 156.10041 
L 454.630154 156.086373 
L 456.511834 157.189323 
L 458.381401 159.697135 
L 460.238715 163.053822 
L 463.916016 171.146705 
L 465.735723 174.052207 
L 469.336556 177.972367 
L 471.117409 179.121402 
L 472.885038 179.002788 
L 476.380086 177.674938 
L 478.107239 176.795966 
L 481.520146 175.924183 
L 483.20564 175.147745 
L 484.876989 173.631504 
L 488.176746 168.648197 
L 489.804903 166.3954 
L 493.017152 160.9395 
L 496.169835 154.763956 
L 497.723539 152.515493 
L 499.261993 150.886308 
L 502.292682 148.27271 
L 502.292682 148.27271 
" clip-path="url(#p4a4107a744)" style="fill: none; stroke: #1f77b4; stroke-width: 1.5; stroke-linecap: square"/>
   </g>
   <g id="line2d_29">
    <path d="M 92.646318 138.910537 
L 94.153921 139.33062 
L 95.677007 139.599884 
L 97.215461 139.654991 
L 98.769165 140.191106 
L 100.338 141.311243 
L 101.921848 142.045397 
L 103.520587 141.774598 
L 105.134097 141.618095 
L 106.762254 142.158038 
L 108.404933 142.212755 
L 110.062011 141.337698 
L 113.418854 138.744674 
L 115.118364 138.396499 
L 116.831761 139.572636 
L 120.299692 143.917879 
L 122.053962 145.459387 
L 123.821591 146.68709 
L 125.602444 148.477685 
L 127.396385 150.042927 
L 129.203277 151.069861 
L 138.427166 154.681484 
L 146.025118 155.985091 
L 147.953802 156.583672 
L 151.845181 157.421028 
L 153.80758 157.716516 
L 155.780919 157.778449 
L 157.765049 157.710638 
L 159.759817 157.440089 
L 161.765073 157.461003 
L 169.8879 158.608529 
L 174.00823 160.263575 
L 176.082576 160.832019 
L 178.166166 160.964802 
L 180.258842 160.160551 
L 182.360444 158.154654 
L 184.470812 155.949229 
L 186.589785 154.803513 
L 190.852901 151.970348 
L 192.996719 149.82391 
L 195.148494 146.806833 
L 197.30806 142.946483 
L 199.475254 139.589291 
L 201.649911 137.792172 
L 203.831865 135.641638 
L 206.020949 134.344656 
L 210.419844 132.312848 
L 212.629319 131.550206 
L 214.845255 130.486969 
L 217.067483 128.805749 
L 219.295833 127.32848 
L 221.530138 126.283137 
L 223.770225 125.459597 
L 226.015924 124.812369 
L 228.267066 124.37008 
L 230.523477 124.288438 
L 232.784986 124.456564 
L 239.598379 125.419942 
L 241.878556 125.528584 
L 244.162965 125.324268 
L 246.451435 124.93557 
L 248.743789 124.916417 
L 251.039854 125.584344 
L 257.948563 127.163375 
L 260.25772 127.836992 
L 262.56971 128.254671 
L 264.884358 128.383322 
L 267.201488 127.43309 
L 269.520923 125.710919 
L 274.166 121.757641 
L 276.491289 120.290938 
L 278.818176 119.68067 
L 281.146483 120.144487 
L 288.138154 124.311098 
L 292.803116 125.767624 
L 295.136219 126.752299 
L 297.4695 127.475903 
L 299.802781 128.054525 
L 302.135884 128.931782 
L 304.468632 130.239234 
L 306.800846 131.368236 
L 309.13235 131.536733 
L 311.462966 130.702558 
L 313.792517 129.65351 
L 316.120824 129.018404 
L 318.447711 129.17113 
L 320.773 128.355662 
L 323.096514 125.573125 
L 325.418077 123.991686 
L 327.737512 123.969625 
L 332.36929 123.190246 
L 334.68128 123.341883 
L 336.990437 123.874554 
L 339.296583 124.080221 
L 341.599545 122.846167 
L 343.899146 120.303623 
L 346.195211 117.131855 
L 348.487565 114.881765 
L 353.060444 110.090687 
L 355.340621 107.22918 
L 357.61639 103.931152 
L 362.154014 97.084656 
L 366.671934 90.569023 
L 368.923076 88.104415 
L 371.168775 86.148427 
L 373.408862 84.381879 
L 375.643167 82.890444 
L 377.871517 82.137836 
L 382.309681 81.300909 
L 384.519156 81.025461 
L 386.722002 80.55757 
L 393.289089 79.598637 
L 395.463746 79.813961 
L 397.63094 80.587378 
L 399.790506 81.989654 
L 401.942281 83.776569 
L 408.349215 88.058004 
L 410.468188 90.392516 
L 412.578556 93.675579 
L 414.680158 97.182303 
L 418.856424 103.397108 
L 420.93077 107.043858 
L 425.0511 115.345661 
L 427.096769 118.821064 
L 429.132566 121.435912 
L 431.158337 123.536816 
L 433.173927 125.187141 
L 437.173951 128.020989 
L 439.158081 129.862578 
L 441.13142 132.339409 
L 443.093819 135.01364 
L 445.045128 137.309777 
L 446.985198 139.307607 
L 448.913882 140.998772 
L 450.831034 142.334359 
L 452.736506 143.371133 
L 456.511834 144.93548 
L 458.381401 145.567757 
L 460.238715 145.733613 
L 462.083634 145.22879 
L 463.916016 144.374869 
L 467.542615 141.950609 
L 469.336556 140.937025 
L 474.639308 136.974913 
L 479.820636 132.745061 
L 481.520146 131.704761 
L 483.20564 131.041425 
L 484.876989 130.780274 
L 486.534067 130.661894 
L 493.017152 129.207756 
L 494.601 128.75108 
L 496.169835 128.471778 
L 497.723539 128.446854 
L 499.261993 128.596324 
L 502.292682 129.268532 
L 502.292682 129.268532 
" clip-path="url(#p4a4107a744)" style="fill: none; stroke: #ff7f0e; stroke-width: 1.5; stroke-linecap: square"/>
   </g>
   <g id="line2d_30">
    <path d="M 92.646318 159.492676 
L 98.769165 160.53987 
L 101.921848 160.488845 
L 105.134097 160.315112 
L 106.762254 160.072823 
L 110.062011 159.231363 
L 115.118364 157.69812 
L 116.831761 156.94563 
L 122.053962 154.059404 
L 125.602444 152.286652 
L 127.396385 151.603511 
L 131.022984 150.897187 
L 134.700285 150.281214 
L 138.427166 149.959969 
L 142.202494 149.666351 
L 146.025118 149.249151 
L 151.845181 148.306575 
L 153.80758 147.885233 
L 155.780919 147.119148 
L 167.842231 141.03704 
L 171.943285 138.496391 
L 174.00823 137.413896 
L 176.082576 136.752659 
L 180.258842 135.920936 
L 182.360444 135.570707 
L 184.470812 135.962469 
L 186.589785 136.672204 
L 190.852901 138.303497 
L 192.996719 139.581147 
L 195.148494 141.101887 
L 197.30806 142.881887 
L 199.475254 144.859028 
L 201.649911 146.153154 
L 203.831865 148.19866 
L 208.216998 152.713508 
L 210.419844 153.913423 
L 212.629319 154.414885 
L 214.845255 154.800322 
L 217.067483 155.330621 
L 219.295833 156.07404 
L 221.530138 156.597334 
L 226.015924 157.080506 
L 230.523477 157.483475 
L 237.32261 157.674422 
L 239.598379 157.90556 
L 241.878556 158.429409 
L 244.162965 159.124317 
L 246.451435 160.044009 
L 248.743789 160.809625 
L 251.039854 161.711995 
L 253.339455 162.493288 
L 255.642417 162.949996 
L 257.948563 162.871125 
L 262.56971 162.358198 
L 267.201488 162.411698 
L 269.520923 162.222559 
L 274.166 161.278999 
L 283.476034 159.216896 
L 288.138154 158.736669 
L 290.470368 158.592435 
L 295.136219 158.47553 
L 299.802781 158.077604 
L 302.135884 157.748401 
L 306.800846 156.528165 
L 309.13235 156.127386 
L 311.462966 155.881675 
L 313.792517 155.923619 
L 320.773 156.401436 
L 325.418077 156.979745 
L 327.737512 156.997906 
L 330.054642 156.785515 
L 334.68128 156.868113 
L 336.990437 156.64768 
L 341.599545 155.915951 
L 346.195211 155.315286 
L 348.487565 155.340582 
L 350.776035 155.564142 
L 353.060444 156.132829 
L 355.340621 157.397973 
L 357.61639 159.055696 
L 364.415523 165.410235 
L 366.671934 167.880686 
L 371.168775 172.019934 
L 373.408862 174.464532 
L 375.643167 177.34041 
L 377.871517 179.995814 
L 380.093745 181.796428 
L 382.309681 183.182966 
L 384.519156 184.079085 
L 386.722002 185.228061 
L 388.918051 186.202128 
L 391.107135 187.028686 
L 393.289089 187.519837 
L 399.790506 188.067929 
L 404.086099 188.056059 
L 406.221798 188.021735 
L 408.349215 187.84775 
L 410.468188 187.235163 
L 412.578556 186.127387 
L 414.680158 184.845841 
L 416.772834 183.854405 
L 418.856424 182.677307 
L 420.93077 181.151325 
L 422.995715 178.970755 
L 425.0511 176.354682 
L 427.096769 173.962006 
L 431.158337 169.598786 
L 433.173927 167.862196 
L 437.173951 164.263187 
L 441.13142 161.328383 
L 445.045128 158.643721 
L 448.913882 156.563412 
L 452.736506 154.816456 
L 458.381401 151.813039 
L 462.083634 150.191064 
L 471.117409 147.47148 
L 472.885038 147.45291 
L 474.639308 147.758104 
L 481.520146 149.550386 
L 483.20564 150.278254 
L 486.534067 152.092788 
L 493.017152 156.262914 
L 494.601 157.170766 
L 496.169835 157.936638 
L 499.261993 158.806137 
L 502.292682 159.449277 
L 502.292682 159.449277 
" clip-path="url(#p4a4107a744)" style="fill: none; stroke: #2ca02c; stroke-width: 1.5; stroke-linecap: square"/>
   </g>
   <g id="line2d_31">
    <path d="M 72.164 150.14 
L 522.775 150.14 
" clip-path="url(#p4a4107a744)" style="fill: none; stroke: #808080; stroke-width: 0.5; stroke-linecap: square"/>
   </g>
   <g id="line2d_32">
    <path d="M 92.646318 262.6 
L 92.646318 37.68 
" clip-path="url(#p4a4107a744)" style="fill: none; stroke: #808080; stroke-width: 0.5; stroke-linecap: square"/>
   </g>
   <g id="line2d_33">
    <path d="M 125.602444 262.6 
L 125.602444 37.68 
" clip-path="url(#p4a4107a744)" style="fill: none; stroke: #808080; stroke-width: 0.5; stroke-linecap: square"/>
   </g>
   <g id="line2d_34">
    <path d="M 163.780663 262.6 
L 163.780663 37.68 
" clip-path="url(#p4a4107a744)" style="fill: none; stroke: #808080; stroke-width: 0.5; stroke-linecap: square"/>
   </g>
   <g id="line2d_35">
    <path d="M 206.020949 262.6 
L 206.020949 37.68 
" clip-path="url(#p4a4107a744)" style="fill: none; stroke: #808080; stroke-width: 0.5; stroke-linecap: square"/>
   </g>
   <g id="line2d_36">
    <path d="M 251.039854 262.6 
L 251.039854 37.68 
" clip-path="url(#p4a4107a744)" style="fill: none; stroke: #808080; stroke-width: 0.5; stroke-linecap: square"/>
   </g>
   <g id="line2d_37">
    <path d="M 297.4695 262.6 
L 297.4695 37.68 
" clip-path="url(#p4a4107a744)" style="fill: none; stroke: #808080; stroke-width: 0.5; stroke-linecap: square"/>
   </g>
   <g id="line2d_38">
    <path d="M 343.899146 262.6 
L 343.899146 37.68 
" clip-path="url(#p4a4107a744)" style="fill: none; stroke: #808080; stroke-width: 0.5; stroke-linecap: square"/>
   </g>
   <g id="line2d_39">
    <path d="M 388.918051 262.6 
L 388.918051 37.68 
" clip-path="url(#p4a4107a744)" style="fill: none; stroke: #808080; stroke-width: 0.5; stroke-linecap: square"/>
   </g>
   <g id="line2d_40">
    <path d="M 431.158337 262.6 
L 431.158337 37.68 
" clip-path="url(#p4a4107a744)" style="fill: none; stroke: #808080; stroke-width: 0.5; stroke-linecap: square"/>
   </g>
   <g id="line2d_41">
    <path d="M 469.336556 262.6 
L 469.336556 37.68 
" clip-path="url(#p4a4107a744)" style="fill: none; stroke: #808080; stroke-width: 0.5; stroke-linecap: square"/>
   </g>
   <g id="line2d_42">
    <path d="M 502.292682 262.6 
L 502.292682 37.68 
" clip-path="url(#p4a4107a744)" style="fill: none; stroke: #808080; stroke-width: 0.5; stroke-linecap: square"/>
   </g>
   <g id="patch_5">
    <path d="M 72.164 262.6 
L 72.164 37.68 
" style="fill: none; stroke: #000000; stroke-width: 0.8; stroke-linejoin: miter; stroke-linecap: square"/>
   </g>
   <g id="patch_6">
    <path d="M 522.775 262.6 
L 522.775 37.68 
" style="fill: none; stroke: #000000; stroke-width: 0.8; stroke-linejoin: miter; stroke-linecap: square"/>
   </g>
   <g id="patch_7">
    <path d="M 72.164 262.6 
L 522.775 262.6 
" style="fill: none; stroke: #000000; stroke-width: 0.8; stroke-linejoin: miter; stroke-linecap: square"/>
   </g>
   <g id="patch_8">
    <path d="M 72.164 37.68 
L 522.775 37.68 
" style="fill: none; stroke: #000000; stroke-width: 0.8; stroke-linejoin: miter; stroke-linecap: square"/>
   </g>
   <g id="text_21">
    <!-- UNSEED$-$CTRL -->
    <g transform="translate(224.9895 31.68) scale(0.192 -0.192)">
     <defs>
      <path id="DejaVuSans-55" d="M 556 4666 
L 1191 4666 
L 1191 1831 
Q 1191 1081 1462 751 
Q 1734 422 2344 422 
Q 2950 422 3222 751 
Q 3494 1081 3494 1831 
L 3494 4666 
L 4128 4666 
L 4128 1753 
Q 4128 841 3676 375 
Q 3225 -91 2344 -91 
Q 1459 -91 1007 375 
Q 556 841 556 1753 
L 556 4666 
z
" transform="scale(0.015625)"/>
      <path id="DejaVuSans-4e" d="M 628 4666 
L 1478 4666 
L 3547 763 
L 3547 4666 
L 4159 4666 
L 4159 0 
L 3309 0 
L 1241 3903 
L 1241 0 
L 628 0 
L 628 4666 
z
" transform="scale(0.015625)"/>
      <path id="DejaVuSans-53" d="M 3425 4513 
L 3425 3897 
Q 3066 4069 2747 4153 
Q 2428 4238 2131 4238 
Q 1616 4238 1336 4038 
Q 1056 3838 1056 3469 
Q 1056 3159 1242 3001 
Q 1428 2844 1947 2747 
L 2328 2669 
Q 3034 2534 3370 2195 
Q 3706 1856 3706 1288 
Q 3706 609 3251 259 
Q 2797 -91 1919 -91 
Q 1588 -91 1214 -16 
Q 841 59 441 206 
L 441 856 
Q 825 641 1194 531 
Q 1563 422 1919 422 
Q 2459 422 2753 634 
Q 3047 847 3047 1241 
Q 3047 1584 2836 1778 
Q 2625 1972 2144 2069 
L 1759 2144 
Q 1053 2284 737 2584 
Q 422 2884 422 3419 
Q 422 4038 858 4394 
Q 1294 4750 2059 4750 
Q 2388 4750 2728 4690 
Q 3069 4631 3425 4513 
z
" transform="scale(0.015625)"/>
      <path id="DejaVuSans-45" d="M 628 4666 
L 3578 4666 
L 3578 4134 
L 1259 4134 
L 1259 2753 
L 3481 2753 
L 3481 2222 
L 1259 2222 
L 1259 531 
L 3634 531 
L 3634 0 
L 628 0 
L 628 4666 
z
" transform="scale(0.015625)"/>
      <path id="DejaVuSans-44" d="M 1259 4147 
L 1259 519 
L 2022 519 
Q 2988 519 3436 956 
Q 3884 1394 3884 2338 
Q 3884 3275 3436 3711 
Q 2988 4147 2022 4147 
L 1259 4147 
z
M 628 4666 
L 1925 4666 
Q 3281 4666 3915 4102 
Q 4550 3538 4550 2338 
Q 4550 1131 3912 565 
Q 3275 0 1925 0 
L 628 0 
L 628 4666 
z
" transform="scale(0.015625)"/>
      <path id="DejaVuSans-43" d="M 4122 4306 
L 4122 3641 
Q 3803 3938 3442 4084 
Q 3081 4231 2675 4231 
Q 1875 4231 1450 3742 
Q 1025 3253 1025 2328 
Q 1025 1406 1450 917 
Q 1875 428 2675 428 
Q 3081 428 3442 575 
Q 3803 722 4122 1019 
L 4122 359 
Q 3791 134 3420 21 
Q 3050 -91 2638 -91 
Q 1578 -91 968 557 
Q 359 1206 359 2328 
Q 359 3453 968 4101 
Q 1578 4750 2638 4750 
Q 3056 4750 3426 4639 
Q 3797 4528 4122 4306 
z
" transform="scale(0.015625)"/>
      <path id="DejaVuSans-54" d="M -19 4666 
L 3928 4666 
L 3928 4134 
L 2272 4134 
L 2272 0 
L 1638 0 
L 1638 4134 
L -19 4134 
L -19 4666 
z
" transform="scale(0.015625)"/>
      <path id="DejaVuSans-52" d="M 2841 2188 
Q 3044 2119 3236 1894 
Q 3428 1669 3622 1275 
L 4263 0 
L 3584 0 
L 2988 1197 
Q 2756 1666 2539 1819 
Q 2322 1972 1947 1972 
L 1259 1972 
L 1259 0 
L 628 0 
L 628 4666 
L 2053 4666 
Q 2853 4666 3247 4331 
Q 3641 3997 3641 3322 
Q 3641 2881 3436 2590 
Q 3231 2300 2841 2188 
z
M 1259 4147 
L 1259 2491 
L 2053 2491 
Q 2509 2491 2742 2702 
Q 2975 2913 2975 3322 
Q 2975 3731 2742 3939 
Q 2509 4147 2053 4147 
L 1259 4147 
z
" transform="scale(0.015625)"/>
     </defs>
     <use xlink:href="#DejaVuSans-55" transform="translate(0 0.78125)"/>
     <use xlink:href="#DejaVuSans-4e" transform="translate(73.193359 0.78125)"/>
     <use xlink:href="#DejaVuSans-53" transform="translate(147.998047 0.78125)"/>
     <use xlink:href="#DejaVuSans-45" transform="translate(211.474609 0.78125)"/>
     <use xlink:href="#DejaVuSans-45" transform="translate(274.658203 0.78125)"/>
     <use xlink:href="#DejaVuSans-44" transform="translate(337.841797 0.78125)"/>
     <use xlink:href="#DejaVuSans-2212" transform="translate(414.84375 0.78125)"/>
     <use xlink:href="#DejaVuSans-43" transform="translate(498.632812 0.78125)"/>
     <use xlink:href="#DejaVuSans-54" transform="translate(568.457031 0.78125)"/>
     <use xlink:href="#DejaVuSans-52" transform="translate(629.541016 0.78125)"/>
     <use xlink:href="#DejaVuSans-4c" transform="translate(699.023438 0.78125)"/>
    </g>
   </g>
   <g id="text_22">
    <!-- (a) -->
    <g transform="translate(72.164 31.68) scale(0.192 -0.192)">
     <defs>
      <path id="DejaVuSans-28" d="M 1984 4856 
Q 1566 4138 1362 3434 
Q 1159 2731 1159 2009 
Q 1159 1288 1364 580 
Q 1569 -128 1984 -844 
L 1484 -844 
Q 1016 -109 783 600 
Q 550 1309 550 2009 
Q 550 2706 781 3412 
Q 1013 4119 1484 4856 
L 1984 4856 
z
" transform="scale(0.015625)"/>
      <path id="DejaVuSans-29" d="M 513 4856 
L 1013 4856 
Q 1481 4119 1714 3412 
Q 1947 2706 1947 2009 
Q 1947 1309 1714 600 
Q 1481 -109 1013 -844 
L 513 -844 
Q 928 -128 1133 580 
Q 1338 1288 1338 2009 
Q 1338 2731 1133 3434 
Q 928 4138 513 4856 
z
" transform="scale(0.015625)"/>
     </defs>
     <use xlink:href="#DejaVuSans-28"/>
     <use xlink:href="#DejaVuSans-61" transform="translate(39.013672 0)"/>
     <use xlink:href="#DejaVuSans-29" transform="translate(100.292969 0)"/>
    </g>
   </g>
   <g id="legend_1">
    <g id="patch_9">
     <path d="M 80.564 256.6 
L 209.524625 256.6 
Q 211.924625 256.6 211.924625 254.2 
L 211.924625 167.33125 
Q 211.924625 164.93125 209.524625 164.93125 
L 80.564 164.93125 
Q 78.164 164.93125 78.164 167.33125 
L 78.164 254.2 
Q 78.164 256.6 80.564 256.6 
z
" style="fill: #ffffff; opacity: 0.8; stroke: #cccccc; stroke-linejoin: miter"/>
    </g>
    <g id="line2d_43">
     <path d="M 82.964 174.649375 
L 94.964 174.649375 
L 106.964 174.649375 
" style="fill: none; stroke: #000000; stroke-width: 3; stroke-linecap: square"/>
    </g>
    <g id="text_23">
     <!-- truth -->
     <g transform="translate(116.564 178.849375) scale(0.12 -0.12)">
      <defs>
       <path id="DejaVuSans-72" d="M 2631 2963 
Q 2534 3019 2420 3045 
Q 2306 3072 2169 3072 
Q 1681 3072 1420 2755 
Q 1159 2438 1159 1844 
L 1159 0 
L 581 0 
L 581 3500 
L 1159 3500 
L 1159 2956 
Q 1341 3275 1631 3429 
Q 1922 3584 2338 3584 
Q 2397 3584 2469 3576 
Q 2541 3569 2628 3553 
L 2631 2963 
z
" transform="scale(0.015625)"/>
       <path id="DejaVuSans-68" d="M 3513 2113 
L 3513 0 
L 2938 0 
L 2938 2094 
Q 2938 2591 2744 2837 
Q 2550 3084 2163 3084 
Q 1697 3084 1428 2787 
Q 1159 2491 1159 1978 
L 1159 0 
L 581 0 
L 581 4863 
L 1159 4863 
L 1159 2956 
Q 1366 3272 1645 3428 
Q 1925 3584 2291 3584 
Q 2894 3584 3203 3211 
Q 3513 2838 3513 2113 
z
" transform="scale(0.015625)"/>
      </defs>
      <use xlink:href="#DejaVuSans-74"/>
      <use xlink:href="#DejaVuSans-72" transform="translate(39.208984 0)"/>
      <use xlink:href="#DejaVuSans-75" transform="translate(80.322266 0)"/>
      <use xlink:href="#DejaVuSans-74" transform="translate(143.701172 0)"/>
      <use xlink:href="#DejaVuSans-68" transform="translate(182.910156 0)"/>
     </g>
    </g>
    <g id="line2d_44">
     <path d="M 82.964 192.263125 
L 94.964 192.263125 
L 106.964 192.263125 
" style="fill: none; stroke: #808080; stroke-width: 3; stroke-linecap: square"/>
    </g>
    <g id="text_24">
     <!-- linear estimate -->
     <g transform="translate(116.564 196.463125) scale(0.12 -0.12)">
      <defs>
       <path id="DejaVuSans-6c" d="M 603 4863 
L 1178 4863 
L 1178 0 
L 603 0 
L 603 4863 
z
" transform="scale(0.015625)"/>
       <path id="DejaVuSans-6e" d="M 3513 2113 
L 3513 0 
L 2938 0 
L 2938 2094 
Q 2938 2591 2744 2837 
Q 2550 3084 2163 3084 
Q 1697 3084 1428 2787 
Q 1159 2491 1159 1978 
L 1159 0 
L 581 0 
L 581 3500 
L 1159 3500 
L 1159 2956 
Q 1366 3272 1645 3428 
Q 1925 3584 2291 3584 
Q 2894 3584 3203 3211 
Q 3513 2838 3513 2113 
z
" transform="scale(0.015625)"/>
       <path id="DejaVuSans-73" d="M 2834 3397 
L 2834 2853 
Q 2591 2978 2328 3040 
Q 2066 3103 1784 3103 
Q 1356 3103 1142 2972 
Q 928 2841 928 2578 
Q 928 2378 1081 2264 
Q 1234 2150 1697 2047 
L 1894 2003 
Q 2506 1872 2764 1633 
Q 3022 1394 3022 966 
Q 3022 478 2636 193 
Q 2250 -91 1575 -91 
Q 1294 -91 989 -36 
Q 684 19 347 128 
L 347 722 
Q 666 556 975 473 
Q 1284 391 1588 391 
Q 1994 391 2212 530 
Q 2431 669 2431 922 
Q 2431 1156 2273 1281 
Q 2116 1406 1581 1522 
L 1381 1569 
Q 847 1681 609 1914 
Q 372 2147 372 2553 
Q 372 3047 722 3315 
Q 1072 3584 1716 3584 
Q 2034 3584 2315 3537 
Q 2597 3491 2834 3397 
z
" transform="scale(0.015625)"/>
      </defs>
      <use xlink:href="#DejaVuSans-6c"/>
      <use xlink:href="#DejaVuSans-69" transform="translate(27.783203 0)"/>
      <use xlink:href="#DejaVuSans-6e" transform="translate(55.566406 0)"/>
      <use xlink:href="#DejaVuSans-65" transform="translate(118.945312 0)"/>
      <use xlink:href="#DejaVuSans-61" transform="translate(180.46875 0)"/>
      <use xlink:href="#DejaVuSans-72" transform="translate(241.748047 0)"/>
      <use xlink:href="#DejaVuSans-20" transform="translate(282.861328 0)"/>
      <use xlink:href="#DejaVuSans-65" transform="translate(314.648438 0)"/>
      <use xlink:href="#DejaVuSans-73" transform="translate(376.171875 0)"/>
      <use xlink:href="#DejaVuSans-74" transform="translate(428.271484 0)"/>
      <use xlink:href="#DejaVuSans-69" transform="translate(467.480469 0)"/>
      <use xlink:href="#DejaVuSans-6d" transform="translate(495.263672 0)"/>
      <use xlink:href="#DejaVuSans-61" transform="translate(592.675781 0)"/>
      <use xlink:href="#DejaVuSans-74" transform="translate(653.955078 0)"/>
      <use xlink:href="#DejaVuSans-65" transform="translate(693.164062 0)"/>
     </g>
    </g>
    <g id="line2d_45">
     <path d="M 82.964 209.876875 
L 94.964 209.876875 
L 106.964 209.876875 
" style="fill: none; stroke: #1f77b4; stroke-width: 1.5; stroke-linecap: square"/>
    </g>
    <g id="text_25">
     <!-- wind speed -->
     <g transform="translate(116.564 214.076875) scale(0.12 -0.12)">
      <defs>
       <path id="DejaVuSans-77" d="M 269 3500 
L 844 3500 
L 1563 769 
L 2278 3500 
L 2956 3500 
L 3675 769 
L 4391 3500 
L 4966 3500 
L 4050 0 
L 3372 0 
L 2619 2869 
L 1863 0 
L 1184 0 
L 269 3500 
z
" transform="scale(0.015625)"/>
       <path id="DejaVuSans-70" d="M 1159 525 
L 1159 -1331 
L 581 -1331 
L 581 3500 
L 1159 3500 
L 1159 2969 
Q 1341 3281 1617 3432 
Q 1894 3584 2278 3584 
Q 2916 3584 3314 3078 
Q 3713 2572 3713 1747 
Q 3713 922 3314 415 
Q 2916 -91 2278 -91 
Q 1894 -91 1617 61 
Q 1341 213 1159 525 
z
M 3116 1747 
Q 3116 2381 2855 2742 
Q 2594 3103 2138 3103 
Q 1681 3103 1420 2742 
Q 1159 2381 1159 1747 
Q 1159 1113 1420 752 
Q 1681 391 2138 391 
Q 2594 391 2855 752 
Q 3116 1113 3116 1747 
z
" transform="scale(0.015625)"/>
      </defs>
      <use xlink:href="#DejaVuSans-77"/>
      <use xlink:href="#DejaVuSans-69" transform="translate(81.787109 0)"/>
      <use xlink:href="#DejaVuSans-6e" transform="translate(109.570312 0)"/>
      <use xlink:href="#DejaVuSans-64" transform="translate(172.949219 0)"/>
      <use xlink:href="#DejaVuSans-20" transform="translate(236.425781 0)"/>
      <use xlink:href="#DejaVuSans-73" transform="translate(268.212891 0)"/>
      <use xlink:href="#DejaVuSans-70" transform="translate(320.3125 0)"/>
      <use xlink:href="#DejaVuSans-65" transform="translate(383.789062 0)"/>
      <use xlink:href="#DejaVuSans-65" transform="translate(445.3125 0)"/>
      <use xlink:href="#DejaVuSans-64" transform="translate(506.835938 0)"/>
     </g>
    </g>
    <g id="line2d_46">
     <path d="M 82.964 227.490625 
L 94.964 227.490625 
L 106.964 227.490625 
" style="fill: none; stroke: #ff7f0e; stroke-width: 1.5; stroke-linecap: square"/>
    </g>
    <g id="text_26">
     <!-- SST -->
     <g transform="translate(116.564 231.690625) scale(0.12 -0.12)">
      <use xlink:href="#DejaVuSans-53"/>
      <use xlink:href="#DejaVuSans-53" transform="translate(63.476562 0)"/>
      <use xlink:href="#DejaVuSans-54" transform="translate(126.953125 0)"/>
     </g>
    </g>
    <g id="line2d_47">
     <path d="M 82.964 245.104375 
L 94.964 245.104375 
L 106.964 245.104375 
" style="fill: none; stroke: #2ca02c; stroke-width: 1.5; stroke-linecap: square"/>
    </g>
    <g id="text_27">
     <!-- qa -->
     <g transform="translate(116.564 249.304375) scale(0.12 -0.12)">
      <defs>
       <path id="DejaVuSans-71" d="M 947 1747 
Q 947 1113 1208 752 
Q 1469 391 1925 391 
Q 2381 391 2643 752 
Q 2906 1113 2906 1747 
Q 2906 2381 2643 2742 
Q 2381 3103 1925 3103 
Q 1469 3103 1208 2742 
Q 947 2381 947 1747 
z
M 2906 525 
Q 2725 213 2448 61 
Q 2172 -91 1784 -91 
Q 1150 -91 751 415 
Q 353 922 353 1747 
Q 353 2572 751 3078 
Q 1150 3584 1784 3584 
Q 2172 3584 2448 3432 
Q 2725 3281 2906 2969 
L 2906 3500 
L 3481 3500 
L 3481 -1331 
L 2906 -1331 
L 2906 525 
z
" transform="scale(0.015625)"/>
      </defs>
      <use xlink:href="#DejaVuSans-71"/>
      <use xlink:href="#DejaVuSans-61" transform="translate(63.476562 0)"/>
     </g>
    </g>
   </g>
  </g>
  <g id="axes_2">
   <g id="patch_10">
    <path d="M 608.609 262.6 
L 1059.22 262.6 
L 1059.22 37.68 
L 608.609 37.68 
z
" style="fill: #ffffff"/>
   </g>
   <g id="patch_11">
    <path d="M 880.344146 262.6 
L 925.363051 262.6 
L 925.363051 37.68 
L 880.344146 37.68 
z
" clip-path="url(#p92d492fbb9)" style="fill: #800080; opacity: 0.08"/>
   </g>
   <g id="patch_12">
    <path d="M 925.363051 262.6 
L 967.603337 262.6 
L 967.603337 37.68 
L 925.363051 37.68 
z
" clip-path="url(#p92d492fbb9)" style="fill: #ffff00; opacity: 0.12"/>
   </g>
   <g id="matplotlib.axis_3">
    <g id="xtick_12">
     <g id="line2d_48">
      <g>
       <use xlink:href="#m5fd41761e5" x="629.091318" y="262.6" style="stroke: #000000; stroke-width: 0.8"/>
      </g>
     </g>
     <g id="text_28">
      <!-- -50 -->
      <g transform="translate(616.025068 281.7575) scale(0.16 -0.16)">
       <use xlink:href="#DejaVuSans-2d"/>
       <use xlink:href="#DejaVuSans-35" transform="translate(36.083984 0)"/>
       <use xlink:href="#DejaVuSans-30" transform="translate(99.707031 0)"/>
      </g>
     </g>
    </g>
    <g id="xtick_13">
     <g id="line2d_49">
      <g>
       <use xlink:href="#m5fd41761e5" x="662.047444" y="262.6" style="stroke: #000000; stroke-width: 0.8"/>
      </g>
     </g>
     <g id="text_29">
      <!-- -40 -->
      <g transform="translate(648.981194 281.7575) scale(0.16 -0.16)">
       <use xlink:href="#DejaVuSans-2d"/>
       <use xlink:href="#DejaVuSans-34" transform="translate(36.083984 0)"/>
       <use xlink:href="#DejaVuSans-30" transform="translate(99.707031 0)"/>
      </g>
     </g>
    </g>
    <g id="xtick_14">
     <g id="line2d_50">
      <g>
       <use xlink:href="#m5fd41761e5" x="700.225663" y="262.6" style="stroke: #000000; stroke-width: 0.8"/>
      </g>
     </g>
     <g id="text_30">
      <!-- -30 -->
      <g transform="translate(687.159413 281.7575) scale(0.16 -0.16)">
       <use xlink:href="#DejaVuSans-2d"/>
       <use xlink:href="#DejaVuSans-33" transform="translate(36.083984 0)"/>
       <use xlink:href="#DejaVuSans-30" transform="translate(99.707031 0)"/>
      </g>
     </g>
    </g>
    <g id="xtick_15">
     <g id="line2d_51">
      <g>
       <use xlink:href="#m5fd41761e5" x="742.465949" y="262.6" style="stroke: #000000; stroke-width: 0.8"/>
      </g>
     </g>
     <g id="text_31">
      <!-- -20 -->
      <g transform="translate(729.399699 281.7575) scale(0.16 -0.16)">
       <use xlink:href="#DejaVuSans-2d"/>
       <use xlink:href="#DejaVuSans-32" transform="translate(36.083984 0)"/>
       <use xlink:href="#DejaVuSans-30" transform="translate(99.707031 0)"/>
      </g>
     </g>
    </g>
    <g id="xtick_16">
     <g id="line2d_52">
      <g>
       <use xlink:href="#m5fd41761e5" x="787.484854" y="262.6" style="stroke: #000000; stroke-width: 0.8"/>
      </g>
     </g>
     <g id="text_32">
      <!-- -10 -->
      <g transform="translate(774.418604 281.7575) scale(0.16 -0.16)">
       <use xlink:href="#DejaVuSans-2d"/>
       <use xlink:href="#DejaVuSans-31" transform="translate(36.083984 0)"/>
       <use xlink:href="#DejaVuSans-30" transform="translate(99.707031 0)"/>
      </g>
     </g>
    </g>
    <g id="xtick_17">
     <g id="line2d_53">
      <g>
       <use xlink:href="#m5fd41761e5" x="833.9145" y="262.6" style="stroke: #000000; stroke-width: 0.8"/>
      </g>
     </g>
     <g id="text_33">
      <!-- 0 -->
      <g transform="translate(828.8245 281.7575) scale(0.16 -0.16)">
       <use xlink:href="#DejaVuSans-30"/>
      </g>
     </g>
    </g>
    <g id="xtick_18">
     <g id="line2d_54">
      <g>
       <use xlink:href="#m5fd41761e5" x="880.344146" y="262.6" style="stroke: #000000; stroke-width: 0.8"/>
      </g>
     </g>
     <g id="text_34">
      <!-- 10 -->
      <g transform="translate(870.164146 281.7575) scale(0.16 -0.16)">
       <use xlink:href="#DejaVuSans-31"/>
       <use xlink:href="#DejaVuSans-30" transform="translate(63.623047 0)"/>
      </g>
     </g>
    </g>
    <g id="xtick_19">
     <g id="line2d_55">
      <g>
       <use xlink:href="#m5fd41761e5" x="925.363051" y="262.6" style="stroke: #000000; stroke-width: 0.8"/>
      </g>
     </g>
     <g id="text_35">
      <!-- 20 -->
      <g transform="translate(915.183051 281.7575) scale(0.16 -0.16)">
       <use xlink:href="#DejaVuSans-32"/>
       <use xlink:href="#DejaVuSans-30" transform="translate(63.623047 0)"/>
      </g>
     </g>
    </g>
    <g id="xtick_20">
     <g id="line2d_56">
      <g>
       <use xlink:href="#m5fd41761e5" x="967.603337" y="262.6" style="stroke: #000000; stroke-width: 0.8"/>
      </g>
     </g>
     <g id="text_36">
      <!-- 30 -->
      <g transform="translate(957.423337 281.7575) scale(0.16 -0.16)">
       <use xlink:href="#DejaVuSans-33"/>
       <use xlink:href="#DejaVuSans-30" transform="translate(63.623047 0)"/>
      </g>
     </g>
    </g>
    <g id="xtick_21">
     <g id="line2d_57">
      <g>
       <use xlink:href="#m5fd41761e5" x="1005.781556" y="262.6" style="stroke: #000000; stroke-width: 0.8"/>
      </g>
     </g>
     <g id="text_37">
      <!-- 40 -->
      <g transform="translate(995.601556 281.7575) scale(0.16 -0.16)">
       <use xlink:href="#DejaVuSans-34"/>
       <use xlink:href="#DejaVuSans-30" transform="translate(63.623047 0)"/>
      </g>
     </g>
    </g>
    <g id="xtick_22">
     <g id="line2d_58">
      <g>
       <use xlink:href="#m5fd41761e5" x="1038.737682" y="262.6" style="stroke: #000000; stroke-width: 0.8"/>
      </g>
     </g>
     <g id="text_38">
      <!-- 50 -->
      <g transform="translate(1028.557682 281.7575) scale(0.16 -0.16)">
       <use xlink:href="#DejaVuSans-35"/>
       <use xlink:href="#DejaVuSans-30" transform="translate(63.623047 0)"/>
      </g>
     </g>
    </g>
    <g id="text_39">
     <!-- Latitude -->
     <g transform="translate(800.98825 301.2425) scale(0.16 -0.16)">
      <use xlink:href="#DejaVuSans-4c"/>
      <use xlink:href="#DejaVuSans-61" transform="translate(55.712891 0)"/>
      <use xlink:href="#DejaVuSans-74" transform="translate(116.992188 0)"/>
      <use xlink:href="#DejaVuSans-69" transform="translate(156.201172 0)"/>
      <use xlink:href="#DejaVuSans-74" transform="translate(183.984375 0)"/>
      <use xlink:href="#DejaVuSans-75" transform="translate(223.193359 0)"/>
      <use xlink:href="#DejaVuSans-64" transform="translate(286.572266 0)"/>
      <use xlink:href="#DejaVuSans-65" transform="translate(350.048828 0)"/>
     </g>
    </g>
   </g>
   <g id="matplotlib.axis_4">
    <g id="ytick_8">
     <g id="line2d_59">
      <g>
       <use xlink:href="#m8320a7470f" x="608.609" y="262.6" style="stroke: #000000; stroke-width: 0.8"/>
      </g>
     </g>
     <g id="line2d_60">
      <g>
       <use xlink:href="#m3288a1beeb" x="1059.22" y="262.6" style="stroke: #000000; stroke-width: 0.8"/>
      </g>
     </g>
     <g id="text_40">
      <!-- −30 -->
      <g transform="translate(567.8415 268.67875) scale(0.16 -0.16)">
       <use xlink:href="#DejaVuSans-2212"/>
       <use xlink:href="#DejaVuSans-33" transform="translate(83.789062 0)"/>
       <use xlink:href="#DejaVuSans-30" transform="translate(147.412109 0)"/>
      </g>
     </g>
    </g>
    <g id="ytick_9">
     <g id="line2d_61">
      <g>
       <use xlink:href="#m8320a7470f" x="608.609" y="225.113333" style="stroke: #000000; stroke-width: 0.8"/>
      </g>
     </g>
     <g id="line2d_62">
      <g>
       <use xlink:href="#m3288a1beeb" x="1059.22" y="225.113333" style="stroke: #000000; stroke-width: 0.8"/>
      </g>
     </g>
     <g id="text_41">
      <!-- −20 -->
      <g transform="translate(567.8415 231.192083) scale(0.16 -0.16)">
       <use xlink:href="#DejaVuSans-2212"/>
       <use xlink:href="#DejaVuSans-32" transform="translate(83.789062 0)"/>
       <use xlink:href="#DejaVuSans-30" transform="translate(147.412109 0)"/>
      </g>
     </g>
    </g>
    <g id="ytick_10">
     <g id="line2d_63">
      <g>
       <use xlink:href="#m8320a7470f" x="608.609" y="187.626667" style="stroke: #000000; stroke-width: 0.8"/>
      </g>
     </g>
     <g id="line2d_64">
      <g>
       <use xlink:href="#m3288a1beeb" x="1059.22" y="187.626667" style="stroke: #000000; stroke-width: 0.8"/>
      </g>
     </g>
     <g id="text_42">
      <!-- −10 -->
      <g transform="translate(567.8415 193.705417) scale(0.16 -0.16)">
       <use xlink:href="#DejaVuSans-2212"/>
       <use xlink:href="#DejaVuSans-31" transform="translate(83.789062 0)"/>
       <use xlink:href="#DejaVuSans-30" transform="translate(147.412109 0)"/>
      </g>
     </g>
    </g>
    <g id="ytick_11">
     <g id="line2d_65">
      <g>
       <use xlink:href="#m8320a7470f" x="608.609" y="150.14" style="stroke: #000000; stroke-width: 0.8"/>
      </g>
     </g>
     <g id="line2d_66">
      <g>
       <use xlink:href="#m3288a1beeb" x="1059.22" y="150.14" style="stroke: #000000; stroke-width: 0.8"/>
      </g>
     </g>
     <g id="text_43">
      <!-- 0 -->
      <g transform="translate(591.429 156.21875) scale(0.16 -0.16)">
       <use xlink:href="#DejaVuSans-30"/>
      </g>
     </g>
    </g>
    <g id="ytick_12">
     <g id="line2d_67">
      <g>
       <use xlink:href="#m8320a7470f" x="608.609" y="112.653333" style="stroke: #000000; stroke-width: 0.8"/>
      </g>
     </g>
     <g id="line2d_68">
      <g>
       <use xlink:href="#m3288a1beeb" x="1059.22" y="112.653333" style="stroke: #000000; stroke-width: 0.8"/>
      </g>
     </g>
     <g id="text_44">
      <!-- 10 -->
      <g transform="translate(581.249 118.732083) scale(0.16 -0.16)">
       <use xlink:href="#DejaVuSans-31"/>
       <use xlink:href="#DejaVuSans-30" transform="translate(63.623047 0)"/>
      </g>
     </g>
    </g>
    <g id="ytick_13">
     <g id="line2d_69">
      <g>
       <use xlink:href="#m8320a7470f" x="608.609" y="75.166667" style="stroke: #000000; stroke-width: 0.8"/>
      </g>
     </g>
     <g id="line2d_70">
      <g>
       <use xlink:href="#m3288a1beeb" x="1059.22" y="75.166667" style="stroke: #000000; stroke-width: 0.8"/>
      </g>
     </g>
     <g id="text_45">
      <!-- 20 -->
      <g transform="translate(581.249 81.245417) scale(0.16 -0.16)">
       <use xlink:href="#DejaVuSans-32"/>
       <use xlink:href="#DejaVuSans-30" transform="translate(63.623047 0)"/>
      </g>
     </g>
    </g>
    <g id="ytick_14">
     <g id="line2d_71">
      <g>
       <use xlink:href="#m8320a7470f" x="608.609" y="37.68" style="stroke: #000000; stroke-width: 0.8"/>
      </g>
     </g>
     <g id="line2d_72">
      <g>
       <use xlink:href="#m3288a1beeb" x="1059.22" y="37.68" style="stroke: #000000; stroke-width: 0.8"/>
      </g>
     </g>
     <g id="text_46">
      <!-- 30 -->
      <g transform="translate(581.249 43.75875) scale(0.16 -0.16)">
       <use xlink:href="#DejaVuSans-33"/>
       <use xlink:href="#DejaVuSans-30" transform="translate(63.623047 0)"/>
      </g>
     </g>
    </g>
    <g id="text_47">
     <!-- LHFLX [W m$^{-2}$] -->
     <g transform="translate(560.514 210.78) rotate(-90) scale(0.16 -0.16)">
      <use xlink:href="#DejaVuSans-4c" transform="translate(0 0.765625)"/>
      <use xlink:href="#DejaVuSans-48" transform="translate(55.712891 0.765625)"/>
      <use xlink:href="#DejaVuSans-46" transform="translate(130.908203 0.765625)"/>
      <use xlink:href="#DejaVuSans-4c" transform="translate(188.427734 0.765625)"/>
      <use xlink:href="#DejaVuSans-58" transform="translate(244.140625 0.765625)"/>
      <use xlink:href="#DejaVuSans-20" transform="translate(312.646484 0.765625)"/>
      <use xlink:href="#DejaVuSans-5b" transform="translate(344.433594 0.765625)"/>
      <use xlink:href="#DejaVuSans-57" transform="translate(383.447266 0.765625)"/>
      <use xlink:href="#DejaVuSans-20" transform="translate(482.324219 0.765625)"/>
      <use xlink:href="#DejaVuSans-6d" transform="translate(514.111328 0.765625)"/>
      <use xlink:href="#DejaVuSans-2212" transform="translate(612.480469 39.046875) scale(0.7)"/>
      <use xlink:href="#DejaVuSans-32" transform="translate(671.132812 39.046875) scale(0.7)"/>
      <use xlink:href="#DejaVuSans-5d" transform="translate(718.40332 0.765625)"/>
     </g>
    </g>
   </g>
   <g id="line2d_73">
    <path d="M 629.091318 145.869227 
L 632.122007 145.142301 
L 633.660461 144.837168 
L 635.214165 144.914022 
L 636.783 145.90746 
L 638.366848 146.201343 
L 639.965587 145.354648 
L 641.579097 144.669542 
L 643.207254 144.441557 
L 644.849933 144.323774 
L 646.507011 144.026784 
L 649.863854 142.981063 
L 651.563364 142.611432 
L 653.276761 143.074108 
L 656.744692 145.119322 
L 658.498962 145.6287 
L 660.266591 145.712212 
L 662.047444 146.262192 
L 663.841385 147.217709 
L 665.648277 147.927714 
L 667.467984 148.137339 
L 673.002599 147.973086 
L 676.753846 147.540325 
L 682.470118 147.137954 
L 684.398802 146.843874 
L 686.338872 146.180298 
L 688.290181 145.205366 
L 692.225919 142.807033 
L 694.210049 141.890028 
L 696.204817 141.412522 
L 698.210073 141.227661 
L 702.251434 141.335516 
L 704.287231 141.906121 
L 706.3329 142.669803 
L 708.388285 143.581743 
L 712.527576 144.994296 
L 716.703842 146.293241 
L 718.805444 147.161417 
L 720.915812 148.579844 
L 723.034785 150.3359 
L 725.162202 151.462859 
L 727.297901 152.19664 
L 729.441719 152.759423 
L 731.593494 152.922498 
L 733.75306 152.931263 
L 735.920254 153.602782 
L 738.094911 154.510228 
L 740.276865 156.508214 
L 742.465949 158.71851 
L 744.661998 159.683829 
L 746.864844 159.335689 
L 749.074319 158.562401 
L 751.290255 157.157031 
L 764.712066 143.754443 
L 766.968477 140.731727 
L 769.229986 137.381408 
L 773.76761 129.899119 
L 776.043379 127.237307 
L 778.323556 126.237626 
L 780.607965 126.927636 
L 782.896435 129.472564 
L 785.188789 133.114422 
L 787.484854 138.582287 
L 789.784455 143.28786 
L 792.087417 146.451067 
L 794.393563 148.154238 
L 796.70272 149.222261 
L 799.01471 151.677926 
L 801.329358 158.479734 
L 803.646488 170.051461 
L 808.287486 199.388238 
L 810.611 209.431201 
L 812.936289 210.754554 
L 815.263176 199.43753 
L 817.591483 179.169237 
L 822.25165 134.171827 
L 824.583154 113.328641 
L 826.915368 95.886964 
L 829.248116 84.33634 
L 831.581219 80.502114 
L 833.9145 80.79987 
L 836.247781 82.656408 
L 838.580884 85.165316 
L 840.913632 86.597838 
L 843.245846 87.359406 
L 845.57735 88.689629 
L 847.907966 92.753035 
L 850.237517 102.546066 
L 852.565824 119.692804 
L 857.218 166.24741 
L 859.541514 182.709856 
L 861.863077 189.198231 
L 864.182512 186.646755 
L 866.499642 179.112323 
L 868.81429 170.090176 
L 873.435437 153.68106 
L 875.741583 143.783561 
L 878.044545 132.922162 
L 882.640211 109.352722 
L 884.932565 100.38317 
L 887.221035 91.966819 
L 889.505444 86.0578 
L 891.785621 81.963602 
L 894.06139 79.354859 
L 896.332579 78.926108 
L 898.599014 80.872571 
L 900.860523 84.862883 
L 903.116934 91.263512 
L 907.613775 105.527927 
L 909.853862 113.68943 
L 912.088167 123.221368 
L 914.316517 133.842155 
L 916.538745 143.781155 
L 918.754681 151.027045 
L 920.964156 156.082233 
L 925.363051 169.26281 
L 927.552135 173.788723 
L 929.734089 176.745007 
L 931.908746 178.736393 
L 934.07594 181.473735 
L 936.235506 184.754828 
L 938.387281 187.490285 
L 940.531099 188.740814 
L 942.666798 189.317972 
L 944.794215 189.394779 
L 946.913188 189.28281 
L 949.023556 188.832048 
L 951.125158 187.89652 
L 953.217834 186.757442 
L 955.301424 185.768214 
L 957.37577 184.632405 
L 959.440715 183.359346 
L 963.541769 180.413713 
L 965.577566 179.485735 
L 967.603337 178.866544 
L 969.618927 178.478688 
L 971.624183 177.679943 
L 973.618951 176.358784 
L 975.603081 174.203096 
L 979.538819 168.555034 
L 981.490128 166.372475 
L 983.430198 165.031258 
L 985.358882 163.984301 
L 987.276034 163.366715 
L 991.075154 162.550562 
L 992.956834 162.367507 
L 994.826401 162.551769 
L 996.683715 162.976062 
L 1000.361016 164.125391 
L 1002.180723 164.299489 
L 1003.987615 164.000629 
L 1005.781556 163.902492 
L 1011.084308 164.707932 
L 1012.825086 164.456505 
L 1016.265636 163.521687 
L 1017.965146 163.272563 
L 1019.65064 163.201283 
L 1021.321989 163.242261 
L 1022.979067 163.119256 
L 1026.249903 162.362074 
L 1029.462152 161.486617 
L 1032.614835 160.308686 
L 1034.168539 159.851011 
L 1035.706993 159.54256 
L 1037.230079 159.090864 
L 1038.737682 158.489903 
L 1038.737682 158.489903 
" clip-path="url(#p92d492fbb9)" style="fill: none; stroke: #000000; stroke-width: 3; stroke-linecap: square"/>
   </g>
   <g id="line2d_74">
    <path d="M 629.091318 147.853304 
L 633.660461 147.274406 
L 635.214165 147.198779 
L 636.783 147.482042 
L 638.366848 147.494129 
L 641.579097 146.710679 
L 648.17836 145.99916 
L 651.563364 145.492889 
L 653.276761 145.689447 
L 656.744692 146.696653 
L 658.498962 146.926328 
L 660.266591 146.949927 
L 662.047444 147.275093 
L 663.841385 147.828374 
L 665.648277 148.211521 
L 667.467984 148.288577 
L 673.002599 147.959444 
L 676.753846 147.328604 
L 680.552966 146.32821 
L 684.398802 145.033115 
L 686.338872 144.065676 
L 688.290181 142.825399 
L 692.225919 140.023739 
L 694.210049 138.836101 
L 696.204817 137.956414 
L 698.210073 137.396256 
L 702.251434 136.860585 
L 704.287231 136.995695 
L 706.3329 137.431965 
L 710.45323 138.799543 
L 714.611166 140.57633 
L 716.703842 141.747223 
L 718.805444 143.321395 
L 720.915812 145.265445 
L 723.034785 147.40451 
L 725.162202 149.021886 
L 727.297901 150.37481 
L 735.920254 156.560513 
L 738.094911 157.849577 
L 740.276865 160.025459 
L 742.465949 162.482959 
L 744.661998 164.326642 
L 746.864844 165.356393 
L 751.290255 166.204192 
L 753.512483 166.448075 
L 755.740833 166.484501 
L 757.975138 166.303449 
L 760.215225 165.858435 
L 762.460924 165.224571 
L 764.712066 164.375018 
L 766.968477 163.094506 
L 769.229986 161.376719 
L 771.496421 159.252884 
L 773.76761 156.752061 
L 776.043379 154.484446 
L 778.323556 152.672465 
L 780.607965 151.199651 
L 785.188789 148.663021 
L 787.484854 146.778613 
L 789.784455 143.843154 
L 792.087417 139.155091 
L 794.393563 132.500912 
L 796.70272 125.474367 
L 799.01471 120.203516 
L 801.329358 119.37451 
L 803.646488 125.515986 
L 805.965923 138.067465 
L 808.287486 154.30301 
L 810.611 168.508904 
L 812.936289 175.59267 
L 815.263176 171.970324 
L 817.591483 160.35185 
L 822.25165 133.728962 
L 824.583154 122.679582 
L 826.915368 114.462989 
L 829.248116 110.451224 
L 831.581219 110.995493 
L 833.9145 113.666252 
L 836.247781 116.542258 
L 838.580884 118.858718 
L 840.913632 119.605631 
L 843.245846 118.937501 
L 845.57735 117.793663 
L 847.907966 117.991136 
L 850.237517 121.872861 
L 852.565824 130.766889 
L 854.892711 143.805981 
L 857.218 155.49068 
L 859.541514 161.437737 
L 861.863077 158.223966 
L 864.182512 147.457664 
L 866.499642 131.593214 
L 871.12628 95.020279 
L 878.044545 42.558562 
L 880.344146 27.385607 
L 882.640211 14.495909 
L 884.932565 6.695187 
L 887.221035 2.139697 
L 889.505444 2.271209 
L 891.785621 6.440625 
L 894.06139 14.829049 
L 896.332579 27.049352 
L 898.599014 40.720174 
L 900.860523 56.191879 
L 903.116934 73.844746 
L 905.368076 89.558446 
L 909.853862 119.341187 
L 914.316517 151.780602 
L 916.538745 166.186299 
L 918.754681 175.959613 
L 920.964156 182.457202 
L 923.167002 190.572961 
L 925.363051 198.069239 
L 927.552135 202.917917 
L 929.734089 205.38892 
L 931.908746 206.687461 
L 934.07594 207.835753 
L 936.235506 208.348472 
L 938.387281 207.625223 
L 940.531099 205.922587 
L 942.666798 204.078218 
L 944.794215 201.423675 
L 946.913188 197.664938 
L 953.217834 184.076348 
L 955.301424 180.380076 
L 957.37577 176.34943 
L 963.541769 162.941649 
L 965.577566 159.719274 
L 967.603337 157.031069 
L 969.618927 154.968415 
L 971.624183 152.618526 
L 973.618951 149.951415 
L 975.603081 146.97063 
L 979.538819 140.755452 
L 981.490128 138.321896 
L 983.430198 136.580278 
L 985.358882 135.178883 
L 987.276034 134.31364 
L 989.181506 133.758022 
L 991.075154 133.564191 
L 992.956834 133.842343 
L 994.826401 134.775135 
L 996.683715 136.236296 
L 998.528634 138.111797 
L 1002.180723 142.283206 
L 1005.781556 146.019698 
L 1007.562409 148.018959 
L 1009.330038 149.828486 
L 1011.084308 151.453773 
L 1012.825086 152.816267 
L 1019.65064 156.765822 
L 1021.321989 157.681954 
L 1022.979067 158.362061 
L 1026.249903 159.33644 
L 1029.462152 159.896434 
L 1032.614835 159.957018 
L 1037.230079 159.587682 
L 1038.737682 159.241966 
L 1038.737682 159.241966 
" clip-path="url(#p92d492fbb9)" style="fill: none; stroke: #808080; stroke-width: 3; stroke-linecap: square"/>
   </g>
   <g id="line2d_75">
    <path d="M 629.091318 150.051442 
L 638.366848 149.8316 
L 641.579097 149.566256 
L 646.507011 149.49472 
L 653.276761 149.533667 
L 656.744692 149.829603 
L 662.047444 149.763377 
L 665.648277 149.951232 
L 669.300366 149.578405 
L 673.002599 148.964279 
L 676.753846 148.001811 
L 680.552966 146.465107 
L 684.398802 144.664027 
L 686.338872 143.603628 
L 694.210049 138.852439 
L 696.204817 138.063548 
L 698.210073 137.50126 
L 702.251434 136.859511 
L 704.287231 136.896802 
L 706.3329 137.271544 
L 710.45323 138.354961 
L 714.611166 140.002082 
L 716.703842 141.111788 
L 718.805444 142.601472 
L 725.162202 147.640696 
L 727.297901 148.965249 
L 729.441719 150.561176 
L 733.75306 154.187029 
L 735.920254 155.72437 
L 738.094911 156.847188 
L 740.276865 158.56793 
L 744.661998 162.527399 
L 746.864844 164.20416 
L 749.074319 165.298596 
L 751.290255 166.745795 
L 753.512483 168.531735 
L 755.740833 170.14454 
L 757.975138 171.316893 
L 760.215225 172.087399 
L 762.460924 172.521414 
L 764.712066 172.754362 
L 766.968477 172.703843 
L 769.229986 172.159068 
L 771.496421 171.134545 
L 773.76761 169.571412 
L 776.043379 167.671629 
L 778.323556 165.497655 
L 780.607965 162.940618 
L 782.896435 159.657794 
L 785.188789 155.923202 
L 787.484854 150.37814 
L 789.784455 143.75734 
L 792.087417 135.570585 
L 796.70272 116.093134 
L 799.01471 108.821492 
L 801.329358 106.223408 
L 803.646488 111.034667 
L 805.965923 122.892839 
L 808.287486 139.397067 
L 810.611 155.113399 
L 812.936289 165.657524 
L 815.263176 168.415392 
L 817.591483 164.422144 
L 819.921034 158.256218 
L 822.25165 152.493679 
L 824.583154 148.552325 
L 826.915368 147.042188 
L 829.248116 148.983082 
L 831.581219 153.579024 
L 833.9145 158.864103 
L 836.247781 163.009807 
L 838.580884 165.305528 
L 840.913632 165.235053 
L 843.245846 163.374751 
L 845.57735 161.091562 
L 847.907966 160.184711 
L 850.237517 162.26731 
L 852.565824 167.344632 
L 854.892711 173.158018 
L 857.218 175.267966 
L 859.541514 171.017336 
L 861.863077 158.556175 
L 864.182512 140.792516 
L 866.499642 118.849162 
L 871.12628 69.429437 
L 875.741583 21.912127 
L 878.321398 -1 
M 899.959428 -1 
L 900.860523 5.760584 
L 903.116934 25.307895 
L 905.368076 42.922155 
L 907.613775 59.506437 
L 909.853862 77.150687 
L 916.538745 132.706298 
L 918.754681 144.659404 
L 920.964156 152.721852 
L 925.363051 172.817964 
L 927.552135 179.836619 
L 929.734089 183.869954 
L 934.07594 188.282233 
L 936.235506 189.569578 
L 938.387281 189.352943 
L 940.531099 188.138956 
L 942.666798 186.757557 
L 944.794215 184.690771 
L 946.913188 181.578379 
L 953.217834 169.662542 
L 955.301424 166.316783 
L 957.37577 162.649331 
L 963.541769 150.354503 
L 965.577566 147.179944 
L 967.603337 144.357836 
L 969.618927 142.036491 
L 971.624183 139.492529 
L 979.538819 128.510282 
L 981.490128 126.216035 
L 983.430198 124.377184 
L 985.358882 122.843262 
L 987.276034 121.861268 
L 989.181506 121.248953 
L 991.075154 121.1241 
L 992.956834 121.613676 
L 994.826401 122.892588 
L 996.683715 124.863558 
L 998.528634 127.380864 
L 1000.361016 130.278721 
L 1009.330038 145.776369 
L 1012.825086 151.055308 
L 1016.265636 155.310074 
L 1017.965146 157.358106 
L 1019.65064 159.160201 
L 1021.321989 160.69516 
L 1022.979067 161.926573 
L 1024.621746 162.967917 
L 1026.249903 163.86209 
L 1027.863413 164.528932 
L 1029.462152 165.01122 
L 1031.046 165.268173 
L 1032.614835 165.350056 
L 1035.706993 164.982722 
L 1038.737682 164.193995 
L 1038.737682 164.193995 
" clip-path="url(#p92d492fbb9)" style="fill: none; stroke: #1f77b4; stroke-width: 1.5; stroke-linecap: square"/>
   </g>
   <g id="line2d_76">
    <path d="M 629.091318 147.534202 
L 633.660461 146.89383 
L 635.214165 146.84008 
L 636.783 147.119012 
L 638.366848 147.17292 
L 641.579097 146.605512 
L 646.507011 146.263778 
L 651.563364 145.473198 
L 653.276761 145.557503 
L 658.498962 146.331476 
L 660.266591 146.350594 
L 662.047444 146.565951 
L 665.648277 147.133843 
L 671.145285 147.469385 
L 676.753846 147.644976 
L 684.398802 148.331455 
L 688.290181 148.245302 
L 694.210049 147.863513 
L 698.210073 147.9545 
L 702.251434 148.354153 
L 706.3329 149.074306 
L 714.611166 151.231956 
L 716.703842 151.841247 
L 718.805444 152.605516 
L 723.034785 154.391207 
L 725.162202 154.994217 
L 731.593494 156.305612 
L 733.75306 156.643854 
L 738.094911 157.678607 
L 742.465949 159.558545 
L 744.661998 160.01608 
L 746.864844 159.829186 
L 749.074319 159.488161 
L 751.290255 158.844036 
L 753.512483 157.715938 
L 757.975138 155.251253 
L 764.712066 151.916619 
L 773.76761 146.322073 
L 776.043379 145.418679 
L 778.323556 145.198209 
L 780.607965 145.627848 
L 782.896435 146.80245 
L 785.188789 148.517649 
L 789.784455 153.659411 
L 792.087417 155.899095 
L 794.393563 157.646476 
L 796.70272 158.584699 
L 799.01471 158.811586 
L 801.329358 158.475856 
L 803.646488 157.682446 
L 805.965923 156.330551 
L 808.287486 154.121444 
L 810.611 151.019804 
L 812.936289 146.327501 
L 815.263176 139.063899 
L 824.583154 106.473529 
L 826.915368 98.567867 
L 829.248116 91.126599 
L 831.581219 85.645535 
L 833.9145 81.757941 
L 836.247781 79.549045 
L 838.580884 78.953295 
L 840.913632 79.540219 
L 843.245846 80.690161 
L 845.57735 81.66577 
L 847.907966 82.251278 
L 850.237517 83.100844 
L 852.565824 85.795539 
L 854.892711 92.144072 
L 857.218 101.739198 
L 861.863077 125.000718 
L 864.182512 135.238627 
L 873.435437 173.816497 
L 875.741583 182.368167 
L 878.044545 189.357894 
L 882.640211 201.570322 
L 887.221035 211.739767 
L 889.505444 216.032225 
L 894.06139 223.386149 
L 896.332579 226.468639 
L 898.599014 228.821862 
L 900.860523 230.772615 
L 903.116934 232.423392 
L 905.368076 233.458772 
L 907.613775 234.089206 
L 909.853862 234.345241 
L 912.088167 234.232286 
L 914.316517 233.790921 
L 916.538745 232.939897 
L 918.754681 231.934518 
L 920.964156 231.085839 
L 923.167002 229.62984 
L 925.363051 227.55 
L 927.552135 225.049621 
L 929.734089 222.835292 
L 931.908746 221.362689 
L 934.07594 219.235283 
L 944.794215 207.254596 
L 946.913188 204.069018 
L 951.125158 197.254036 
L 953.217834 194.397257 
L 955.301424 192.019453 
L 957.37577 189.445592 
L 963.541769 180.518744 
L 965.577566 178.21096 
L 967.603337 176.257349 
L 969.618927 174.777537 
L 971.624183 173.072678 
L 973.618951 171.114103 
L 975.603081 168.987289 
L 977.57642 166.669681 
L 979.538819 164.589092 
L 981.490128 162.991476 
L 985.358882 160.823883 
L 991.075154 158.23669 
L 996.683715 155.422555 
L 1000.361016 153.43043 
L 1002.180723 152.186449 
L 1005.781556 149.531104 
L 1016.265636 142.87675 
L 1017.965146 141.980426 
L 1019.65064 141.310655 
L 1022.979067 140.536205 
L 1026.249903 140.01278 
L 1029.462152 139.883221 
L 1031.046 139.954931 
L 1034.168539 140.469203 
L 1038.737682 141.500182 
L 1038.737682 141.500182 
" clip-path="url(#p92d492fbb9)" style="fill: none; stroke: #ff7f0e; stroke-width: 1.5; stroke-linecap: square"/>
   </g>
   <g id="line2d_77">
    <path d="M 629.091318 150.547661 
L 635.214165 150.751649 
L 653.276761 150.878276 
L 658.498962 151.062968 
L 686.338872 152.400585 
L 690.25258 152.481592 
L 696.204817 152.3119 
L 702.251434 151.92692 
L 706.3329 151.366115 
L 710.45323 150.541647 
L 716.703842 149.074188 
L 720.915812 147.737267 
L 725.162202 146.666973 
L 729.441719 145.700622 
L 733.75306 144.446846 
L 735.920254 143.941953 
L 740.276865 143.167781 
L 746.864844 141.603046 
L 751.290255 140.894362 
L 753.512483 140.480403 
L 755.740833 140.186832 
L 760.215225 139.915293 
L 764.712066 139.984038 
L 769.229986 140.38446 
L 771.496421 140.689803 
L 776.043379 141.674138 
L 780.607965 142.911185 
L 785.188789 144.50217 
L 789.784455 146.706403 
L 792.087417 147.965412 
L 794.393563 149.45062 
L 796.70272 151.076535 
L 799.01471 152.850439 
L 805.965923 159.124075 
L 808.287486 161.064499 
L 810.611 162.655702 
L 812.936289 163.887645 
L 815.263176 164.771032 
L 819.921034 166.034583 
L 822.25165 166.921764 
L 824.583154 167.933728 
L 826.915368 169.132934 
L 831.581219 172.050934 
L 833.9145 173.324207 
L 836.247781 174.263406 
L 838.580884 174.879894 
L 840.913632 175.110358 
L 843.245846 175.152589 
L 845.57735 175.316332 
L 847.907966 175.835147 
L 850.237517 176.784707 
L 852.565824 177.906718 
L 854.892711 178.783891 
L 857.218 178.763516 
L 859.541514 177.530136 
L 861.863077 174.947073 
L 864.182512 171.706521 
L 868.81429 164.608385 
L 875.741583 155.178331 
L 880.344146 149.325687 
L 882.640211 146.12059 
L 884.932565 143.341636 
L 889.505444 137.139655 
L 891.785621 134.04669 
L 894.06139 130.533927 
L 896.332579 126.814373 
L 903.116934 116.39346 
L 905.368076 113.457519 
L 914.316517 102.908336 
L 916.538745 100.820104 
L 918.754681 99.645692 
L 923.167002 98.231414 
L 925.363051 97.981275 
L 927.552135 98.311677 
L 931.908746 99.5262 
L 934.07594 100.598238 
L 936.235506 102.236763 
L 940.531099 106.174985 
L 942.666798 107.816893 
L 944.794215 109.758309 
L 946.913188 112.297541 
L 951.125158 117.936022 
L 953.217834 120.296548 
L 955.301424 122.32384 
L 957.37577 124.534506 
L 961.4961 129.772789 
L 963.541769 132.348402 
L 967.603337 136.695884 
L 969.618927 138.434388 
L 971.624183 140.33332 
L 975.603081 144.340505 
L 977.57642 146.225753 
L 979.538819 147.936078 
L 981.490128 149.394385 
L 985.358882 151.791738 
L 989.181506 153.656293 
L 992.956834 155.187255 
L 994.826401 155.78695 
L 996.683715 156.230183 
L 1000.361016 156.777214 
L 1003.987615 156.966258 
L 1016.265636 156.869106 
L 1021.321989 156.383618 
L 1029.462152 155.281993 
L 1037.230079 154.023696 
L 1038.737682 153.827789 
L 1038.737682 153.827789 
" clip-path="url(#p92d492fbb9)" style="fill: none; stroke: #2ca02c; stroke-width: 1.5; stroke-linecap: square"/>
   </g>
   <g id="line2d_78">
    <path d="M 608.609 150.14 
L 1059.22 150.14 
" clip-path="url(#p92d492fbb9)" style="fill: none; stroke: #808080; stroke-width: 0.5; stroke-linecap: square"/>
   </g>
   <g id="line2d_79">
    <path d="M 629.091318 262.6 
L 629.091318 37.68 
" clip-path="url(#p92d492fbb9)" style="fill: none; stroke: #808080; stroke-width: 0.5; stroke-linecap: square"/>
   </g>
   <g id="line2d_80">
    <path d="M 662.047444 262.6 
L 662.047444 37.68 
" clip-path="url(#p92d492fbb9)" style="fill: none; stroke: #808080; stroke-width: 0.5; stroke-linecap: square"/>
   </g>
   <g id="line2d_81">
    <path d="M 700.225663 262.6 
L 700.225663 37.68 
" clip-path="url(#p92d492fbb9)" style="fill: none; stroke: #808080; stroke-width: 0.5; stroke-linecap: square"/>
   </g>
   <g id="line2d_82">
    <path d="M 742.465949 262.6 
L 742.465949 37.68 
" clip-path="url(#p92d492fbb9)" style="fill: none; stroke: #808080; stroke-width: 0.5; stroke-linecap: square"/>
   </g>
   <g id="line2d_83">
    <path d="M 787.484854 262.6 
L 787.484854 37.68 
" clip-path="url(#p92d492fbb9)" style="fill: none; stroke: #808080; stroke-width: 0.5; stroke-linecap: square"/>
   </g>
   <g id="line2d_84">
    <path d="M 833.9145 262.6 
L 833.9145 37.68 
" clip-path="url(#p92d492fbb9)" style="fill: none; stroke: #808080; stroke-width: 0.5; stroke-linecap: square"/>
   </g>
   <g id="line2d_85">
    <path d="M 880.344146 262.6 
L 880.344146 37.68 
" clip-path="url(#p92d492fbb9)" style="fill: none; stroke: #808080; stroke-width: 0.5; stroke-linecap: square"/>
   </g>
   <g id="line2d_86">
    <path d="M 925.363051 262.6 
L 925.363051 37.68 
" clip-path="url(#p92d492fbb9)" style="fill: none; stroke: #808080; stroke-width: 0.5; stroke-linecap: square"/>
   </g>
   <g id="line2d_87">
    <path d="M 967.603337 262.6 
L 967.603337 37.68 
" clip-path="url(#p92d492fbb9)" style="fill: none; stroke: #808080; stroke-width: 0.5; stroke-linecap: square"/>
   </g>
   <g id="line2d_88">
    <path d="M 1005.781556 262.6 
L 1005.781556 37.68 
" clip-path="url(#p92d492fbb9)" style="fill: none; stroke: #808080; stroke-width: 0.5; stroke-linecap: square"/>
   </g>
   <g id="line2d_89">
    <path d="M 1038.737682 262.6 
L 1038.737682 37.68 
" clip-path="url(#p92d492fbb9)" style="fill: none; stroke: #808080; stroke-width: 0.5; stroke-linecap: square"/>
   </g>
   <g id="patch_13">
    <path d="M 608.609 262.6 
L 608.609 37.68 
" style="fill: none; stroke: #000000; stroke-width: 0.8; stroke-linejoin: miter; stroke-linecap: square"/>
   </g>
   <g id="patch_14">
    <path d="M 1059.22 262.6 
L 1059.22 37.68 
" style="fill: none; stroke: #000000; stroke-width: 0.8; stroke-linejoin: miter; stroke-linecap: square"/>
   </g>
   <g id="patch_15">
    <path d="M 608.609 262.6 
L 1059.22 262.6 
" style="fill: none; stroke: #000000; stroke-width: 0.8; stroke-linejoin: miter; stroke-linecap: square"/>
   </g>
   <g id="patch_16">
    <path d="M 608.609 37.68 
L 1059.22 37.68 
" style="fill: none; stroke: #000000; stroke-width: 0.8; stroke-linejoin: miter; stroke-linecap: square"/>
   </g>
   <g id="text_48">
    <!-- SEED$-$CTRL -->
    <g transform="translate(775.6425 31.68) scale(0.192 -0.192)">
     <use xlink:href="#DejaVuSans-53" transform="translate(0 0.78125)"/>
     <use xlink:href="#DejaVuSans-45" transform="translate(63.476562 0.78125)"/>
     <use xlink:href="#DejaVuSans-45" transform="translate(126.660156 0.78125)"/>
     <use xlink:href="#DejaVuSans-44" transform="translate(189.84375 0.78125)"/>
     <use xlink:href="#DejaVuSans-2212" transform="translate(266.845703 0.78125)"/>
     <use xlink:href="#DejaVuSans-43" transform="translate(350.634766 0.78125)"/>
     <use xlink:href="#DejaVuSans-54" transform="translate(420.458984 0.78125)"/>
     <use xlink:href="#DejaVuSans-52" transform="translate(481.542969 0.78125)"/>
     <use xlink:href="#DejaVuSans-4c" transform="translate(551.025391 0.78125)"/>
    </g>
   </g>
   <g id="text_49">
    <!-- (b) -->
    <g transform="translate(608.609 31.68) scale(0.192 -0.192)">
     <defs>
      <path id="DejaVuSans-62" d="M 3116 1747 
Q 3116 2381 2855 2742 
Q 2594 3103 2138 3103 
Q 1681 3103 1420 2742 
Q 1159 2381 1159 1747 
Q 1159 1113 1420 752 
Q 1681 391 2138 391 
Q 2594 391 2855 752 
Q 3116 1113 3116 1747 
z
M 1159 2969 
Q 1341 3281 1617 3432 
Q 1894 3584 2278 3584 
Q 2916 3584 3314 3078 
Q 3713 2572 3713 1747 
Q 3713 922 3314 415 
Q 2916 -91 2278 -91 
Q 1894 -91 1617 61 
Q 1341 213 1159 525 
L 1159 0 
L 581 0 
L 581 4863 
L 1159 4863 
L 1159 2969 
z
" transform="scale(0.015625)"/>
     </defs>
     <use xlink:href="#DejaVuSans-28"/>
     <use xlink:href="#DejaVuSans-62" transform="translate(39.013672 0)"/>
     <use xlink:href="#DejaVuSans-29" transform="translate(102.490234 0)"/>
    </g>
   </g>
   <g id="legend_2">
    <g id="patch_17">
     <path d="M 617.009 135.34875 
L 745.969625 135.34875 
Q 748.369625 135.34875 748.369625 132.94875 
L 748.369625 46.08 
Q 748.369625 43.68 745.969625 43.68 
L 617.009 43.68 
Q 614.609 43.68 614.609 46.08 
L 614.609 132.94875 
Q 614.609 135.34875 617.009 135.34875 
z
" style="fill: #ffffff; opacity: 0.8; stroke: #cccccc; stroke-linejoin: miter"/>
    </g>
    <g id="line2d_90">
     <path d="M 619.409 53.398125 
L 631.409 53.398125 
L 643.409 53.398125 
" style="fill: none; stroke: #000000; stroke-width: 3; stroke-linecap: square"/>
    </g>
    <g id="text_50">
     <!-- truth -->
     <g transform="translate(653.009 57.598125) scale(0.12 -0.12)">
      <use xlink:href="#DejaVuSans-74"/>
      <use xlink:href="#DejaVuSans-72" transform="translate(39.208984 0)"/>
      <use xlink:href="#DejaVuSans-75" transform="translate(80.322266 0)"/>
      <use xlink:href="#DejaVuSans-74" transform="translate(143.701172 0)"/>
      <use xlink:href="#DejaVuSans-68" transform="translate(182.910156 0)"/>
     </g>
    </g>
    <g id="line2d_91">
     <path d="M 619.409 71.011875 
L 631.409 71.011875 
L 643.409 71.011875 
" style="fill: none; stroke: #808080; stroke-width: 3; stroke-linecap: square"/>
    </g>
    <g id="text_51">
     <!-- linear estimate -->
     <g transform="translate(653.009 75.211875) scale(0.12 -0.12)">
      <use xlink:href="#DejaVuSans-6c"/>
      <use xlink:href="#DejaVuSans-69" transform="translate(27.783203 0)"/>
      <use xlink:href="#DejaVuSans-6e" transform="translate(55.566406 0)"/>
      <use xlink:href="#DejaVuSans-65" transform="translate(118.945312 0)"/>
      <use xlink:href="#DejaVuSans-61" transform="translate(180.46875 0)"/>
      <use xlink:href="#DejaVuSans-72" transform="translate(241.748047 0)"/>
      <use xlink:href="#DejaVuSans-20" transform="translate(282.861328 0)"/>
      <use xlink:href="#DejaVuSans-65" transform="translate(314.648438 0)"/>
      <use xlink:href="#DejaVuSans-73" transform="translate(376.171875 0)"/>
      <use xlink:href="#DejaVuSans-74" transform="translate(428.271484 0)"/>
      <use xlink:href="#DejaVuSans-69" transform="translate(467.480469 0)"/>
      <use xlink:href="#DejaVuSans-6d" transform="translate(495.263672 0)"/>
      <use xlink:href="#DejaVuSans-61" transform="translate(592.675781 0)"/>
      <use xlink:href="#DejaVuSans-74" transform="translate(653.955078 0)"/>
      <use xlink:href="#DejaVuSans-65" transform="translate(693.164062 0)"/>
     </g>
    </g>
    <g id="line2d_92">
     <path d="M 619.409 88.625625 
L 631.409 88.625625 
L 643.409 88.625625 
" style="fill: none; stroke: #1f77b4; stroke-width: 1.5; stroke-linecap: square"/>
    </g>
    <g id="text_52">
     <!-- wind speed -->
     <g transform="translate(653.009 92.825625) scale(0.12 -0.12)">
      <use xlink:href="#DejaVuSans-77"/>
      <use xlink:href="#DejaVuSans-69" transform="translate(81.787109 0)"/>
      <use xlink:href="#DejaVuSans-6e" transform="translate(109.570312 0)"/>
      <use xlink:href="#DejaVuSans-64" transform="translate(172.949219 0)"/>
      <use xlink:href="#DejaVuSans-20" transform="translate(236.425781 0)"/>
      <use xlink:href="#DejaVuSans-73" transform="translate(268.212891 0)"/>
      <use xlink:href="#DejaVuSans-70" transform="translate(320.3125 0)"/>
      <use xlink:href="#DejaVuSans-65" transform="translate(383.789062 0)"/>
      <use xlink:href="#DejaVuSans-65" transform="translate(445.3125 0)"/>
      <use xlink:href="#DejaVuSans-64" transform="translate(506.835938 0)"/>
     </g>
    </g>
    <g id="line2d_93">
     <path d="M 619.409 106.239375 
L 631.409 106.239375 
L 643.409 106.239375 
" style="fill: none; stroke: #ff7f0e; stroke-width: 1.5; stroke-linecap: square"/>
    </g>
    <g id="text_53">
     <!-- SST -->
     <g transform="translate(653.009 110.439375) scale(0.12 -0.12)">
      <use xlink:href="#DejaVuSans-53"/>
      <use xlink:href="#DejaVuSans-53" transform="translate(63.476562 0)"/>
      <use xlink:href="#DejaVuSans-54" transform="translate(126.953125 0)"/>
     </g>
    </g>
    <g id="line2d_94">
     <path d="M 619.409 123.853125 
L 631.409 123.853125 
L 643.409 123.853125 
" style="fill: none; stroke: #2ca02c; stroke-width: 1.5; stroke-linecap: square"/>
    </g>
    <g id="text_54">
     <!-- qa -->
     <g transform="translate(653.009 128.053125) scale(0.12 -0.12)">
      <use xlink:href="#DejaVuSans-71"/>
      <use xlink:href="#DejaVuSans-61" transform="translate(63.476562 0)"/>
     </g>
    </g>
   </g>
  </g>
 </g>
 <defs>
  <clipPath id="p4a4107a744">
   <rect x="72.164" y="37.68" width="450.611" height="224.92"/>
  </clipPath>
  <clipPath id="p92d492fbb9">
   <rect x="608.609" y="37.68" width="450.611" height="224.92"/>
  </clipPath>
 </defs>
</svg>
