<?xml version="1.0" encoding="utf-8" standalone="no"?>
<!DOCTYPE svg PUBLIC "-//W3C//DTD SVG 1.1//EN"
  "http://www.w3.org/Graphics/SVG/1.1/DTD/svg11.dtd">
<svg xmlns:xlink="http://www.w3.org/1999/xlink" width="1080pt" height="324pt" viewBox="0 0 1080 324" xmlns="http://www.w3.org/2000/svg" version="1.1">
 <metadata>
  <rdf:RDF xmlns:dc="http://purl.org/dc/elements/1.1/" xmlns:cc="http://creativecommons.org/ns#" xmlns:rdf="http://www.w3.org/1999/02/22-rdf-syntax-ns#">
   <cc:Work>
    <dc:type rdf:resource="http://purl.org/dc/dcmitype/StillImage"/>
    <dc:date>2025-10-29T09:10:30.728593</dc:date>
    <dc:format>image/svg+xml</dc:format>
    <dc:creator>
     <cc:Agent>
      <dc:title>Matplotlib v3.10.0, https://matplotlib.org/</dc:title>
     </cc:Agent>
    </dc:creator>
   </cc:Work>
  </rdf:RDF>
 </metadata>
 <defs>
  <style type="text/css">*{stroke-linejoin: round; stroke-linecap: butt}</style>
 </defs>
 <g id="figure_1">
  <g id="patch_1">
   <path d="M 0 324 
L 1080 324 
L 1080 0 
L 0 0 
z
" style="fill: #ffffff"/>
  </g>
  <g id="axes_1">
   <g id="patch_2">
    <path d="M 72.164 262.6 
L 522.775 262.6 
L 522.775 37.68 
L 72.164 37.68 
z
" style="fill: #ffffff"/>
   </g>
   <g id="patch_3">
    <path d="M 343.899146 262.6 
L 388.918051 262.6 
L 388.918051 37.68 
L 343.899146 37.68 
z
" clip-path="url(#p45685012a2)" style="fill: #800080; opacity: 0.08"/>
   </g>
   <g id="patch_4">
    <path d="M 388.918051 262.6 
L 431.158337 262.6 
L 431.158337 37.68 
L 388.918051 37.68 
z
" clip-path="url(#p45685012a2)" style="fill: #ffff00; opacity: 0.12"/>
   </g>
   <g id="matplotlib.axis_1">
    <g id="xtick_1">
     <g id="line2d_1">
      <defs>
       <path id="ma87ab05332" d="M 0 0 
L 0 3.5 
" style="stroke: #000000; stroke-width: 0.8"/>
      </defs>
      <g>
       <use xlink:href="#ma87ab05332" x="92.646318" y="262.6" style="stroke: #000000; stroke-width: 0.8"/>
      </g>
     </g>
     <g id="text_1">
      <!-- -50 -->
      <g transform="translate(79.580068 281.7575) scale(0.16 -0.16)">
       <defs>
        <path id="DejaVuSans-2d" d="M 313 2009 
L 1997 2009 
L 1997 1497 
L 313 1497 
L 313 2009 
z
" transform="scale(0.015625)"/>
        <path id="DejaVuSans-35" d="M 691 4666 
L 3169 4666 
L 3169 4134 
L 1269 4134 
L 1269 2991 
Q 1406 3038 1543 3061 
Q 1681 3084 1819 3084 
Q 2600 3084 3056 2656 
Q 3513 2228 3513 1497 
Q 3513 744 3044 326 
Q 2575 -91 1722 -91 
Q 1428 -91 1123 -41 
Q 819 9 494 109 
L 494 744 
Q 775 591 1075 516 
Q 1375 441 1709 441 
Q 2250 441 2565 725 
Q 2881 1009 2881 1497 
Q 2881 1984 2565 2268 
Q 2250 2553 1709 2553 
Q 1456 2553 1204 2497 
Q 953 2441 691 2322 
L 691 4666 
z
" transform="scale(0.015625)"/>
        <path id="DejaVuSans-30" d="M 2034 4250 
Q 1547 4250 1301 3770 
Q 1056 3291 1056 2328 
Q 1056 1369 1301 889 
Q 1547 409 2034 409 
Q 2525 409 2770 889 
Q 3016 1369 3016 2328 
Q 3016 3291 2770 3770 
Q 2525 4250 2034 4250 
z
M 2034 4750 
Q 2819 4750 3233 4129 
Q 3647 3509 3647 2328 
Q 3647 1150 3233 529 
Q 2819 -91 2034 -91 
Q 1250 -91 836 529 
Q 422 1150 422 2328 
Q 422 3509 836 4129 
Q 1250 4750 2034 4750 
z
" transform="scale(0.015625)"/>
       </defs>
       <use xlink:href="#DejaVuSans-2d"/>
       <use xlink:href="#DejaVuSans-35" transform="translate(36.083984 0)"/>
       <use xlink:href="#DejaVuSans-30" transform="translate(99.707031 0)"/>
      </g>
     </g>
    </g>
    <g id="xtick_2">
     <g id="line2d_2">
      <g>
       <use xlink:href="#ma87ab05332" x="125.602444" y="262.6" style="stroke: #000000; stroke-width: 0.8"/>
      </g>
     </g>
     <g id="text_2">
      <!-- -40 -->
      <g transform="translate(112.536194 281.7575) scale(0.16 -0.16)">
       <defs>
        <path id="DejaVuSans-34" d="M 2419 4116 
L 825 1625 
L 2419 1625 
L 2419 4116 
z
M 2253 4666 
L 3047 4666 
L 3047 1625 
L 3713 1625 
L 3713 1100 
L 3047 1100 
L 3047 0 
L 2419 0 
L 2419 1100 
L 313 1100 
L 313 1709 
L 2253 4666 
z
" transform="scale(0.015625)"/>
       </defs>
       <use xlink:href="#DejaVuSans-2d"/>
       <use xlink:href="#DejaVuSans-34" transform="translate(36.083984 0)"/>
       <use xlink:href="#DejaVuSans-30" transform="translate(99.707031 0)"/>
      </g>
     </g>
    </g>
    <g id="xtick_3">
     <g id="line2d_3">
      <g>
       <use xlink:href="#ma87ab05332" x="163.780663" y="262.6" style="stroke: #000000; stroke-width: 0.8"/>
      </g>
     </g>
     <g id="text_3">
      <!-- -30 -->
      <g transform="translate(150.714413 281.7575) scale(0.16 -0.16)">
       <defs>
        <path id="DejaVuSans-33" d="M 2597 2516 
Q 3050 2419 3304 2112 
Q 3559 1806 3559 1356 
Q 3559 666 3084 287 
Q 2609 -91 1734 -91 
Q 1441 -91 1130 -33 
Q 819 25 488 141 
L 488 750 
Q 750 597 1062 519 
Q 1375 441 1716 441 
Q 2309 441 2620 675 
Q 2931 909 2931 1356 
Q 2931 1769 2642 2001 
Q 2353 2234 1838 2234 
L 1294 2234 
L 1294 2753 
L 1863 2753 
Q 2328 2753 2575 2939 
Q 2822 3125 2822 3475 
Q 2822 3834 2567 4026 
Q 2313 4219 1838 4219 
Q 1578 4219 1281 4162 
Q 984 4106 628 3988 
L 628 4550 
Q 988 4650 1302 4700 
Q 1616 4750 1894 4750 
Q 2613 4750 3031 4423 
Q 3450 4097 3450 3541 
Q 3450 3153 3228 2886 
Q 3006 2619 2597 2516 
z
" transform="scale(0.015625)"/>
       </defs>
       <use xlink:href="#DejaVuSans-2d"/>
       <use xlink:href="#DejaVuSans-33" transform="translate(36.083984 0)"/>
       <use xlink:href="#DejaVuSans-30" transform="translate(99.707031 0)"/>
      </g>
     </g>
    </g>
    <g id="xtick_4">
     <g id="line2d_4">
      <g>
       <use xlink:href="#ma87ab05332" x="206.020949" y="262.6" style="stroke: #000000; stroke-width: 0.8"/>
      </g>
     </g>
     <g id="text_4">
      <!-- -20 -->
      <g transform="translate(192.954699 281.7575) scale(0.16 -0.16)">
       <defs>
        <path id="DejaVuSans-32" d="M 1228 531 
L 3431 531 
L 3431 0 
L 469 0 
L 469 531 
Q 828 903 1448 1529 
Q 2069 2156 2228 2338 
Q 2531 2678 2651 2914 
Q 2772 3150 2772 3378 
Q 2772 3750 2511 3984 
Q 2250 4219 1831 4219 
Q 1534 4219 1204 4116 
Q 875 4013 500 3803 
L 500 4441 
Q 881 4594 1212 4672 
Q 1544 4750 1819 4750 
Q 2544 4750 2975 4387 
Q 3406 4025 3406 3419 
Q 3406 3131 3298 2873 
Q 3191 2616 2906 2266 
Q 2828 2175 2409 1742 
Q 1991 1309 1228 531 
z
" transform="scale(0.015625)"/>
       </defs>
       <use xlink:href="#DejaVuSans-2d"/>
       <use xlink:href="#DejaVuSans-32" transform="translate(36.083984 0)"/>
       <use xlink:href="#DejaVuSans-30" transform="translate(99.707031 0)"/>
      </g>
     </g>
    </g>
    <g id="xtick_5">
     <g id="line2d_5">
      <g>
       <use xlink:href="#ma87ab05332" x="251.039854" y="262.6" style="stroke: #000000; stroke-width: 0.8"/>
      </g>
     </g>
     <g id="text_5">
      <!-- -10 -->
      <g transform="translate(237.973604 281.7575) scale(0.16 -0.16)">
       <defs>
        <path id="DejaVuSans-31" d="M 794 531 
L 1825 531 
L 1825 4091 
L 703 3866 
L 703 4441 
L 1819 4666 
L 2450 4666 
L 2450 531 
L 3481 531 
L 3481 0 
L 794 0 
L 794 531 
z
" transform="scale(0.015625)"/>
       </defs>
       <use xlink:href="#DejaVuSans-2d"/>
       <use xlink:href="#DejaVuSans-31" transform="translate(36.083984 0)"/>
       <use xlink:href="#DejaVuSans-30" transform="translate(99.707031 0)"/>
      </g>
     </g>
    </g>
    <g id="xtick_6">
     <g id="line2d_6">
      <g>
       <use xlink:href="#ma87ab05332" x="297.4695" y="262.6" style="stroke: #000000; stroke-width: 0.8"/>
      </g>
     </g>
     <g id="text_6">
      <!-- 0 -->
      <g transform="translate(292.3795 281.7575) scale(0.16 -0.16)">
       <use xlink:href="#DejaVuSans-30"/>
      </g>
     </g>
    </g>
    <g id="xtick_7">
     <g id="line2d_7">
      <g>
       <use xlink:href="#ma87ab05332" x="343.899146" y="262.6" style="stroke: #000000; stroke-width: 0.8"/>
      </g>
     </g>
     <g id="text_7">
      <!-- 10 -->
      <g transform="translate(333.719146 281.7575) scale(0.16 -0.16)">
       <use xlink:href="#DejaVuSans-31"/>
       <use xlink:href="#DejaVuSans-30" transform="translate(63.623047 0)"/>
      </g>
     </g>
    </g>
    <g id="xtick_8">
     <g id="line2d_8">
      <g>
       <use xlink:href="#ma87ab05332" x="388.918051" y="262.6" style="stroke: #000000; stroke-width: 0.8"/>
      </g>
     </g>
     <g id="text_8">
      <!-- 20 -->
      <g transform="translate(378.738051 281.7575) scale(0.16 -0.16)">
       <use xlink:href="#DejaVuSans-32"/>
       <use xlink:href="#DejaVuSans-30" transform="translate(63.623047 0)"/>
      </g>
     </g>
    </g>
    <g id="xtick_9">
     <g id="line2d_9">
      <g>
       <use xlink:href="#ma87ab05332" x="431.158337" y="262.6" style="stroke: #000000; stroke-width: 0.8"/>
      </g>
     </g>
     <g id="text_9">
      <!-- 30 -->
      <g transform="translate(420.978337 281.7575) scale(0.16 -0.16)">
       <use xlink:href="#DejaVuSans-33"/>
       <use xlink:href="#DejaVuSans-30" transform="translate(63.623047 0)"/>
      </g>
     </g>
    </g>
    <g id="xtick_10">
     <g id="line2d_10">
      <g>
       <use xlink:href="#ma87ab05332" x="469.336556" y="262.6" style="stroke: #000000; stroke-width: 0.8"/>
      </g>
     </g>
     <g id="text_10">
      <!-- 40 -->
      <g transform="translate(459.156556 281.7575) scale(0.16 -0.16)">
       <use xlink:href="#DejaVuSans-34"/>
       <use xlink:href="#DejaVuSans-30" transform="translate(63.623047 0)"/>
      </g>
     </g>
    </g>
    <g id="xtick_11">
     <g id="line2d_11">
      <g>
       <use xlink:href="#ma87ab05332" x="502.292682" y="262.6" style="stroke: #000000; stroke-width: 0.8"/>
      </g>
     </g>
     <g id="text_11">
      <!-- 50 -->
      <g transform="translate(492.112682 281.7575) scale(0.16 -0.16)">
       <use xlink:href="#DejaVuSans-35"/>
       <use xlink:href="#DejaVuSans-30" transform="translate(63.623047 0)"/>
      </g>
     </g>
    </g>
    <g id="text_12">
     <!-- Latitude -->
     <g transform="translate(264.54325 301.2425) scale(0.16 -0.16)">
      <defs>
       <path id="DejaVuSans-4c" d="M 628 4666 
L 1259 4666 
L 1259 531 
L 3531 531 
L 3531 0 
L 628 0 
L 628 4666 
z
" transform="scale(0.015625)"/>
       <path id="DejaVuSans-61" d="M 2194 1759 
Q 1497 1759 1228 1600 
Q 959 1441 959 1056 
Q 959 750 1161 570 
Q 1363 391 1709 391 
Q 2188 391 2477 730 
Q 2766 1069 2766 1631 
L 2766 1759 
L 2194 1759 
z
M 3341 1997 
L 3341 0 
L 2766 0 
L 2766 531 
Q 2569 213 2275 61 
Q 1981 -91 1556 -91 
Q 1019 -91 701 211 
Q 384 513 384 1019 
Q 384 1609 779 1909 
Q 1175 2209 1959 2209 
L 2766 2209 
L 2766 2266 
Q 2766 2663 2505 2880 
Q 2244 3097 1772 3097 
Q 1472 3097 1187 3025 
Q 903 2953 641 2809 
L 641 3341 
Q 956 3463 1253 3523 
Q 1550 3584 1831 3584 
Q 2591 3584 2966 3190 
Q 3341 2797 3341 1997 
z
" transform="scale(0.015625)"/>
       <path id="DejaVuSans-74" d="M 1172 4494 
L 1172 3500 
L 2356 3500 
L 2356 3053 
L 1172 3053 
L 1172 1153 
Q 1172 725 1289 603 
Q 1406 481 1766 481 
L 2356 481 
L 2356 0 
L 1766 0 
Q 1100 0 847 248 
Q 594 497 594 1153 
L 594 3053 
L 172 3053 
L 172 3500 
L 594 3500 
L 594 4494 
L 1172 4494 
z
" transform="scale(0.015625)"/>
       <path id="DejaVuSans-69" d="M 603 3500 
L 1178 3500 
L 1178 0 
L 603 0 
L 603 3500 
z
M 603 4863 
L 1178 4863 
L 1178 4134 
L 603 4134 
L 603 4863 
z
" transform="scale(0.015625)"/>
       <path id="DejaVuSans-75" d="M 544 1381 
L 544 3500 
L 1119 3500 
L 1119 1403 
Q 1119 906 1312 657 
Q 1506 409 1894 409 
Q 2359 409 2629 706 
Q 2900 1003 2900 1516 
L 2900 3500 
L 3475 3500 
L 3475 0 
L 2900 0 
L 2900 538 
Q 2691 219 2414 64 
Q 2138 -91 1772 -91 
Q 1169 -91 856 284 
Q 544 659 544 1381 
z
M 1991 3584 
L 1991 3584 
z
" transform="scale(0.015625)"/>
       <path id="DejaVuSans-64" d="M 2906 2969 
L 2906 4863 
L 3481 4863 
L 3481 0 
L 2906 0 
L 2906 525 
Q 2725 213 2448 61 
Q 2172 -91 1784 -91 
Q 1150 -91 751 415 
Q 353 922 353 1747 
Q 353 2572 751 3078 
Q 1150 3584 1784 3584 
Q 2172 3584 2448 3432 
Q 2725 3281 2906 2969 
z
M 947 1747 
Q 947 1113 1208 752 
Q 1469 391 1925 391 
Q 2381 391 2643 752 
Q 2906 1113 2906 1747 
Q 2906 2381 2643 2742 
Q 2381 3103 1925 3103 
Q 1469 3103 1208 2742 
Q 947 2381 947 1747 
z
" transform="scale(0.015625)"/>
       <path id="DejaVuSans-65" d="M 3597 1894 
L 3597 1613 
L 953 1613 
Q 991 1019 1311 708 
Q 1631 397 2203 397 
Q 2534 397 2845 478 
Q 3156 559 3463 722 
L 3463 178 
Q 3153 47 2828 -22 
Q 2503 -91 2169 -91 
Q 1331 -91 842 396 
Q 353 884 353 1716 
Q 353 2575 817 3079 
Q 1281 3584 2069 3584 
Q 2775 3584 3186 3129 
Q 3597 2675 3597 1894 
z
M 3022 2063 
Q 3016 2534 2758 2815 
Q 2500 3097 2075 3097 
Q 1594 3097 1305 2825 
Q 1016 2553 972 2059 
L 3022 2063 
z
" transform="scale(0.015625)"/>
      </defs>
      <use xlink:href="#DejaVuSans-4c"/>
      <use xlink:href="#DejaVuSans-61" transform="translate(55.712891 0)"/>
      <use xlink:href="#DejaVuSans-74" transform="translate(116.992188 0)"/>
      <use xlink:href="#DejaVuSans-69" transform="translate(156.201172 0)"/>
      <use xlink:href="#DejaVuSans-74" transform="translate(183.984375 0)"/>
      <use xlink:href="#DejaVuSans-75" transform="translate(223.193359 0)"/>
      <use xlink:href="#DejaVuSans-64" transform="translate(286.572266 0)"/>
      <use xlink:href="#DejaVuSans-65" transform="translate(350.048828 0)"/>
     </g>
    </g>
   </g>
   <g id="matplotlib.axis_2">
    <g id="ytick_1">
     <g id="line2d_12">
      <defs>
       <path id="m51fe746b3d" d="M 0 0 
L -3.5 0 
" style="stroke: #000000; stroke-width: 0.8"/>
      </defs>
      <g>
       <use xlink:href="#m51fe746b3d" x="72.164" y="262.6" style="stroke: #000000; stroke-width: 0.8"/>
      </g>
     </g>
     <g id="line2d_13">
      <defs>
       <path id="m4a2f831ddd" d="M 0 0 
L 3.5 0 
" style="stroke: #000000; stroke-width: 0.8"/>
      </defs>
      <g>
       <use xlink:href="#m4a2f831ddd" x="522.775" y="262.6" style="stroke: #000000; stroke-width: 0.8"/>
      </g>
     </g>
     <g id="text_13">
      <!-- −6 -->
      <g transform="translate(41.5765 268.67875) scale(0.16 -0.16)">
       <defs>
        <path id="DejaVuSans-2212" d="M 678 2272 
L 4684 2272 
L 4684 1741 
L 678 1741 
L 678 2272 
z
" transform="scale(0.015625)"/>
        <path id="DejaVuSans-36" d="M 2113 2584 
Q 1688 2584 1439 2293 
Q 1191 2003 1191 1497 
Q 1191 994 1439 701 
Q 1688 409 2113 409 
Q 2538 409 2786 701 
Q 3034 994 3034 1497 
Q 3034 2003 2786 2293 
Q 2538 2584 2113 2584 
z
M 3366 4563 
L 3366 3988 
Q 3128 4100 2886 4159 
Q 2644 4219 2406 4219 
Q 1781 4219 1451 3797 
Q 1122 3375 1075 2522 
Q 1259 2794 1537 2939 
Q 1816 3084 2150 3084 
Q 2853 3084 3261 2657 
Q 3669 2231 3669 1497 
Q 3669 778 3244 343 
Q 2819 -91 2113 -91 
Q 1303 -91 875 529 
Q 447 1150 447 2328 
Q 447 3434 972 4092 
Q 1497 4750 2381 4750 
Q 2619 4750 2861 4703 
Q 3103 4656 3366 4563 
z
" transform="scale(0.015625)"/>
       </defs>
       <use xlink:href="#DejaVuSans-2212"/>
       <use xlink:href="#DejaVuSans-36" transform="translate(83.789062 0)"/>
      </g>
     </g>
    </g>
    <g id="ytick_2">
     <g id="line2d_14">
      <g>
       <use xlink:href="#m51fe746b3d" x="72.164" y="225.113333" style="stroke: #000000; stroke-width: 0.8"/>
      </g>
     </g>
     <g id="line2d_15">
      <g>
       <use xlink:href="#m4a2f831ddd" x="522.775" y="225.113333" style="stroke: #000000; stroke-width: 0.8"/>
      </g>
     </g>
     <g id="text_14">
      <!-- −4 -->
      <g transform="translate(41.5765 231.192083) scale(0.16 -0.16)">
       <use xlink:href="#DejaVuSans-2212"/>
       <use xlink:href="#DejaVuSans-34" transform="translate(83.789062 0)"/>
      </g>
     </g>
    </g>
    <g id="ytick_3">
     <g id="line2d_16">
      <g>
       <use xlink:href="#m51fe746b3d" x="72.164" y="187.626667" style="stroke: #000000; stroke-width: 0.8"/>
      </g>
     </g>
     <g id="line2d_17">
      <g>
       <use xlink:href="#m4a2f831ddd" x="522.775" y="187.626667" style="stroke: #000000; stroke-width: 0.8"/>
      </g>
     </g>
     <g id="text_15">
      <!-- −2 -->
      <g transform="translate(41.5765 193.705417) scale(0.16 -0.16)">
       <use xlink:href="#DejaVuSans-2212"/>
       <use xlink:href="#DejaVuSans-32" transform="translate(83.789062 0)"/>
      </g>
     </g>
    </g>
    <g id="ytick_4">
     <g id="line2d_18">
      <g>
       <use xlink:href="#m51fe746b3d" x="72.164" y="150.14" style="stroke: #000000; stroke-width: 0.8"/>
      </g>
     </g>
     <g id="line2d_19">
      <g>
       <use xlink:href="#m4a2f831ddd" x="522.775" y="150.14" style="stroke: #000000; stroke-width: 0.8"/>
      </g>
     </g>
     <g id="text_16">
      <!-- 0 -->
      <g transform="translate(54.984 156.21875) scale(0.16 -0.16)">
       <use xlink:href="#DejaVuSans-30"/>
      </g>
     </g>
    </g>
    <g id="ytick_5">
     <g id="line2d_20">
      <g>
       <use xlink:href="#m51fe746b3d" x="72.164" y="112.653333" style="stroke: #000000; stroke-width: 0.8"/>
      </g>
     </g>
     <g id="line2d_21">
      <g>
       <use xlink:href="#m4a2f831ddd" x="522.775" y="112.653333" style="stroke: #000000; stroke-width: 0.8"/>
      </g>
     </g>
     <g id="text_17">
      <!-- 2 -->
      <g transform="translate(54.984 118.732083) scale(0.16 -0.16)">
       <use xlink:href="#DejaVuSans-32"/>
      </g>
     </g>
    </g>
    <g id="ytick_6">
     <g id="line2d_22">
      <g>
       <use xlink:href="#m51fe746b3d" x="72.164" y="75.166667" style="stroke: #000000; stroke-width: 0.8"/>
      </g>
     </g>
     <g id="line2d_23">
      <g>
       <use xlink:href="#m4a2f831ddd" x="522.775" y="75.166667" style="stroke: #000000; stroke-width: 0.8"/>
      </g>
     </g>
     <g id="text_18">
      <!-- 4 -->
      <g transform="translate(54.984 81.245417) scale(0.16 -0.16)">
       <use xlink:href="#DejaVuSans-34"/>
      </g>
     </g>
    </g>
    <g id="ytick_7">
     <g id="line2d_24">
      <g>
       <use xlink:href="#m51fe746b3d" x="72.164" y="37.68" style="stroke: #000000; stroke-width: 0.8"/>
      </g>
     </g>
     <g id="line2d_25">
      <g>
       <use xlink:href="#m4a2f831ddd" x="522.775" y="37.68" style="stroke: #000000; stroke-width: 0.8"/>
      </g>
     </g>
     <g id="text_19">
      <!-- 6 -->
      <g transform="translate(54.984 43.75875) scale(0.16 -0.16)">
       <use xlink:href="#DejaVuSans-36"/>
      </g>
     </g>
    </g>
    <g id="text_20">
     <!-- LHFLX [W m$^{-2}$] -->
     <g transform="translate(34.249 210.78) rotate(-90) scale(0.16 -0.16)">
      <defs>
       <path id="DejaVuSans-48" d="M 628 4666 
L 1259 4666 
L 1259 2753 
L 3553 2753 
L 3553 4666 
L 4184 4666 
L 4184 0 
L 3553 0 
L 3553 2222 
L 1259 2222 
L 1259 0 
L 628 0 
L 628 4666 
z
" transform="scale(0.015625)"/>
       <path id="DejaVuSans-46" d="M 628 4666 
L 3309 4666 
L 3309 4134 
L 1259 4134 
L 1259 2759 
L 3109 2759 
L 3109 2228 
L 1259 2228 
L 1259 0 
L 628 0 
L 628 4666 
z
" transform="scale(0.015625)"/>
       <path id="DejaVuSans-58" d="M 403 4666 
L 1081 4666 
L 2241 2931 
L 3406 4666 
L 4084 4666 
L 2584 2425 
L 4184 0 
L 3506 0 
L 2194 1984 
L 872 0 
L 191 0 
L 1856 2491 
L 403 4666 
z
" transform="scale(0.015625)"/>
       <path id="DejaVuSans-20" transform="scale(0.015625)"/>
       <path id="DejaVuSans-5b" d="M 550 4863 
L 1875 4863 
L 1875 4416 
L 1125 4416 
L 1125 -397 
L 1875 -397 
L 1875 -844 
L 550 -844 
L 550 4863 
z
" transform="scale(0.015625)"/>
       <path id="DejaVuSans-57" d="M 213 4666 
L 850 4666 
L 1831 722 
L 2809 4666 
L 3519 4666 
L 4500 722 
L 5478 4666 
L 6119 4666 
L 4947 0 
L 4153 0 
L 3169 4050 
L 2175 0 
L 1381 0 
L 213 4666 
z
" transform="scale(0.015625)"/>
       <path id="DejaVuSans-6d" d="M 3328 2828 
Q 3544 3216 3844 3400 
Q 4144 3584 4550 3584 
Q 5097 3584 5394 3201 
Q 5691 2819 5691 2113 
L 5691 0 
L 5113 0 
L 5113 2094 
Q 5113 2597 4934 2840 
Q 4756 3084 4391 3084 
Q 3944 3084 3684 2787 
Q 3425 2491 3425 1978 
L 3425 0 
L 2847 0 
L 2847 2094 
Q 2847 2600 2669 2842 
Q 2491 3084 2119 3084 
Q 1678 3084 1418 2786 
Q 1159 2488 1159 1978 
L 1159 0 
L 581 0 
L 581 3500 
L 1159 3500 
L 1159 2956 
Q 1356 3278 1631 3431 
Q 1906 3584 2284 3584 
Q 2666 3584 2933 3390 
Q 3200 3197 3328 2828 
z
" transform="scale(0.015625)"/>
       <path id="DejaVuSans-5d" d="M 1947 4863 
L 1947 -844 
L 622 -844 
L 622 -397 
L 1369 -397 
L 1369 4416 
L 622 4416 
L 622 4863 
L 1947 4863 
z
" transform="scale(0.015625)"/>
      </defs>
      <use xlink:href="#DejaVuSans-4c" transform="translate(0 0.765625)"/>
      <use xlink:href="#DejaVuSans-48" transform="translate(55.712891 0.765625)"/>
      <use xlink:href="#DejaVuSans-46" transform="translate(130.908203 0.765625)"/>
      <use xlink:href="#DejaVuSans-4c" transform="translate(188.427734 0.765625)"/>
      <use xlink:href="#DejaVuSans-58" transform="translate(244.140625 0.765625)"/>
      <use xlink:href="#DejaVuSans-20" transform="translate(312.646484 0.765625)"/>
      <use xlink:href="#DejaVuSans-5b" transform="translate(344.433594 0.765625)"/>
      <use xlink:href="#DejaVuSans-57" transform="translate(383.447266 0.765625)"/>
      <use xlink:href="#DejaVuSans-20" transform="translate(482.324219 0.765625)"/>
      <use xlink:href="#DejaVuSans-6d" transform="translate(514.111328 0.765625)"/>
      <use xlink:href="#DejaVuSans-2212" transform="translate(612.480469 39.046875) scale(0.7)"/>
      <use xlink:href="#DejaVuSans-32" transform="translate(671.132812 39.046875) scale(0.7)"/>
      <use xlink:href="#DejaVuSans-5d" transform="translate(718.40332 0.765625)"/>
     </g>
    </g>
   </g>
   <g id="line2d_26">
    <path d="M 92.646318 134.845933 
L 95.677007 133.118593 
L 97.215461 132.523214 
L 100.338 131.448678 
L 101.921848 130.843763 
L 103.520587 129.73234 
L 106.762254 127.110056 
L 110.062011 123.80482 
L 111.73336 121.652309 
L 115.118364 116.627376 
L 116.831761 114.404125 
L 118.558914 113.190612 
L 120.299692 112.753455 
L 122.053962 112.803376 
L 123.821591 113.291999 
L 125.602444 114.190713 
L 127.396385 116.483058 
L 129.203277 119.782433 
L 134.700285 130.817198 
L 136.557599 134.634335 
L 138.427166 137.195762 
L 140.308846 138.996367 
L 142.202494 141.171947 
L 147.953802 148.260515 
L 149.893872 151.114018 
L 153.80758 157.437751 
L 155.780919 161.115473 
L 157.765049 164.23479 
L 159.759817 167.058968 
L 161.765073 169.336064 
L 163.780663 170.845108 
L 165.806434 171.585182 
L 169.8879 171.704102 
L 171.943285 170.510643 
L 174.00823 168.456907 
L 178.166166 165.438005 
L 180.258842 163.567475 
L 182.360444 161.370218 
L 184.470812 157.757243 
L 186.589785 154.680251 
L 188.717202 152.281667 
L 190.852901 150.360123 
L 192.996719 148.217873 
L 195.148494 146.684208 
L 197.30806 144.520579 
L 199.475254 142.883257 
L 203.831865 141.367154 
L 206.020949 141.228688 
L 208.216998 140.950633 
L 210.419844 139.992267 
L 212.629319 139.424635 
L 214.845255 138.507849 
L 217.067483 136.87935 
L 219.295833 136.123749 
L 221.530138 135.72455 
L 223.770225 136.068766 
L 226.015924 136.838845 
L 228.267066 138.226572 
L 230.523477 139.867753 
L 235.051421 144.745602 
L 237.32261 146.488773 
L 239.598379 146.730927 
L 244.162965 148.605401 
L 246.451435 149.252869 
L 248.743789 150.166735 
L 251.039854 150.491535 
L 253.339455 150.092112 
L 255.642417 148.309929 
L 257.948563 147.074109 
L 260.25772 148.181809 
L 264.884358 154.538589 
L 267.201488 156.604512 
L 269.520923 155.119962 
L 271.842486 154.013249 
L 274.166 154.405785 
L 276.491289 154.381144 
L 278.818176 153.569442 
L 281.146483 153.105759 
L 283.476034 152.498294 
L 285.80665 151.441585 
L 288.138154 150.972274 
L 290.470368 151.140813 
L 292.803116 151.481896 
L 295.136219 152.879025 
L 297.4695 154.948885 
L 299.802781 156.126204 
L 302.135884 156.638702 
L 304.468632 157.023409 
L 306.800846 156.933804 
L 309.13235 155.828833 
L 311.462966 153.78072 
L 313.792517 153.055948 
L 318.447711 155.689101 
L 320.773 155.557279 
L 323.096514 153.499653 
L 330.054642 142.169374 
L 332.36929 137.197129 
L 334.68128 131.648513 
L 336.990437 124.634023 
L 339.296583 116.652968 
L 341.599545 111.242116 
L 343.899146 108.413891 
L 346.195211 109.100271 
L 348.487565 113.367485 
L 350.776035 121.063054 
L 353.060444 132.265865 
L 355.340621 144.086837 
L 359.887579 171.413856 
L 362.154014 181.758525 
L 364.415523 188.113052 
L 366.671934 193.491498 
L 368.923076 198.131703 
L 371.168775 202.157505 
L 373.408862 204.750007 
L 375.643167 206.582708 
L 377.871517 206.713604 
L 380.093745 204.888114 
L 384.519156 200.840004 
L 386.722002 198.366521 
L 388.918051 195.181016 
L 391.107135 192.279856 
L 393.289089 190.02804 
L 395.463746 188.347237 
L 397.63094 186.972374 
L 399.790506 185.75016 
L 401.942281 183.269506 
L 404.086099 180.402527 
L 406.221798 177.733573 
L 410.468188 171.629206 
L 412.578556 169.348896 
L 414.680158 169.113617 
L 416.772834 170.421754 
L 418.856424 172.104156 
L 422.995715 176.028825 
L 425.0511 177.536888 
L 427.096769 180.332331 
L 431.158337 189.2913 
L 433.173927 192.256809 
L 435.179183 194.198276 
L 437.173951 195.341671 
L 439.158081 195.501626 
L 441.13142 194.597592 
L 443.093819 191.700546 
L 445.045128 187.844266 
L 448.913882 179.641089 
L 450.831034 176.053678 
L 452.736506 173.291851 
L 454.630154 171.184683 
L 458.381401 167.448576 
L 462.083634 162.856415 
L 467.542615 154.121414 
L 474.639308 143.892892 
L 476.380086 141.751269 
L 478.107239 140.472598 
L 479.820636 139.965685 
L 481.520146 139.778396 
L 483.20564 139.844742 
L 484.876989 140.474986 
L 489.804903 144.771512 
L 493.017152 148.523525 
L 494.601 150.279929 
L 497.723539 154.255269 
L 499.261993 155.696374 
L 502.292682 158.061857 
L 502.292682 158.061857 
" clip-path="url(#p45685012a2)" style="fill: none; stroke: #1f77b4; stroke-width: 1.5; stroke-linecap: square"/>
   </g>
   <g id="line2d_27">
    <path d="M 92.646318 108.663483 
L 94.153921 107.641182 
L 95.677007 106.979885 
L 97.215461 107.180949 
L 100.338 108.856578 
L 101.921848 110.89529 
L 103.520587 112.371267 
L 105.134097 113.461168 
L 106.762254 115.016667 
L 108.404933 115.594442 
L 110.062011 115.48666 
L 111.73336 115.125344 
L 113.418854 114.909514 
L 115.118364 115.663431 
L 116.831761 116.841657 
L 118.558914 119.966581 
L 120.299692 124.410844 
L 122.053962 130.098579 
L 123.821591 136.719495 
L 127.396385 151.611621 
L 129.203277 159.139674 
L 131.022984 167.245369 
L 134.700285 180.323308 
L 136.557599 185.388825 
L 138.427166 185.773476 
L 140.308846 182.615328 
L 144.107966 173.303432 
L 146.025118 167.20053 
L 147.953802 161.712299 
L 149.893872 158.91658 
L 151.845181 155.618295 
L 153.80758 152.817891 
L 155.780919 151.547798 
L 157.765049 148.062273 
L 159.759817 142.920944 
L 161.765073 140.283066 
L 163.780663 138.21056 
L 165.806434 134.615892 
L 167.842231 132.009139 
L 169.8879 130.946159 
L 171.943285 128.844081 
L 174.00823 127.876474 
L 176.082576 128.04971 
L 178.166166 129.317037 
L 180.258842 130.237462 
L 182.360444 129.176619 
L 184.470812 126.506662 
L 186.589785 124.722339 
L 188.717202 122.694047 
L 190.852901 119.350592 
L 192.996719 117.437933 
L 197.30806 114.980703 
L 199.475254 114.568417 
L 201.649911 113.725438 
L 203.831865 114.149122 
L 206.020949 116.871584 
L 208.216998 120.271245 
L 212.629319 128.246182 
L 214.845255 132.383452 
L 217.067483 135.793611 
L 219.295833 140.215347 
L 221.530138 144.28382 
L 226.015924 150.336817 
L 228.267066 152.533092 
L 232.784986 153.254193 
L 235.051421 152.070959 
L 237.32261 150.476711 
L 239.598379 146.848673 
L 241.878556 142.712008 
L 244.162965 138.263521 
L 246.451435 132.754602 
L 248.743789 125.528423 
L 251.039854 114.725877 
L 253.339455 107.826852 
L 255.642417 104.635553 
L 257.948563 108.511053 
L 260.25772 117.56366 
L 262.56971 135.934534 
L 264.884358 156.277692 
L 267.201488 169.44911 
L 269.520923 173.207164 
L 274.166 174.759363 
L 276.491289 172.781778 
L 278.818176 168.821533 
L 281.146483 165.59909 
L 283.476034 163.462717 
L 285.80665 162.350073 
L 288.138154 162.742995 
L 292.803116 164.207393 
L 297.4695 169.941787 
L 299.802781 170.712267 
L 302.135884 169.982395 
L 304.468632 169.939881 
L 306.800846 170.532527 
L 309.13235 170.846327 
L 311.462966 168.893232 
L 313.792517 168.176949 
L 316.120824 170.952304 
L 318.447711 175.405363 
L 320.773 180.680282 
L 323.096514 184.684665 
L 325.418077 183.711303 
L 327.737512 181.89082 
L 330.054642 178.19976 
L 332.36929 167.399473 
L 334.68128 154.018985 
L 336.990437 139.486689 
L 339.296583 126.668466 
L 341.599545 120.255902 
L 343.899146 115.730907 
L 346.195211 115.396066 
L 348.487565 115.938837 
L 350.776035 112.352785 
L 353.060444 116.812387 
L 355.340621 128.111699 
L 357.61639 143.559606 
L 359.887579 162.628272 
L 362.154014 182.841292 
L 364.415523 199.319328 
L 366.671934 214.471551 
L 371.168775 246.343694 
L 373.408862 259.985834 
L 375.643167 271.601865 
L 377.871517 276.95255 
L 380.093745 276.112372 
L 382.309681 274.672173 
L 384.519156 271.28217 
L 386.722002 266.462484 
L 388.918051 260.014025 
L 393.289089 248.560504 
L 395.463746 244.437348 
L 397.63094 241.451231 
L 401.942281 233.669713 
L 404.086099 232.122367 
L 406.221798 230.145183 
L 408.349215 226.584682 
L 410.468188 222.494431 
L 412.578556 218.70865 
L 414.680158 214.686088 
L 416.772834 214.021062 
L 418.856424 214.723779 
L 420.93077 214.468251 
L 422.995715 211.982613 
L 425.0511 210.946779 
L 427.096769 211.960119 
L 429.132566 212.473821 
L 431.158337 212.64043 
L 433.173927 208.780059 
L 437.173951 193.647652 
L 441.13142 181.028281 
L 443.093819 173.706892 
L 446.985198 156.74713 
L 448.913882 148.970027 
L 450.831034 142.937835 
L 452.736506 142.3797 
L 454.630154 144.786831 
L 456.511834 146.680977 
L 458.381401 149.228048 
L 460.238715 149.694014 
L 462.083634 148.726849 
L 465.735723 146.297159 
L 467.542615 145.891525 
L 469.336556 146.275505 
L 471.117409 146.991482 
L 472.885038 146.688877 
L 474.639308 146.086404 
L 476.380086 146.171692 
L 478.107239 147.853932 
L 479.820636 150.025105 
L 481.520146 153.067023 
L 483.20564 156.428385 
L 484.876989 160.420111 
L 486.534067 166.2859 
L 488.176746 171.573949 
L 489.804903 176.127521 
L 491.418413 180.247831 
L 493.017152 182.9548 
L 494.601 185.877285 
L 497.723539 190.569594 
L 499.261993 191.700696 
L 500.785079 192.087823 
L 502.292682 193.200683 
L 502.292682 193.200683 
" clip-path="url(#p45685012a2)" style="fill: none; stroke-dasharray: 1.5,2.475; stroke-dashoffset: 0; stroke: #1f77b4; stroke-width: 1.5"/>
   </g>
   <g id="line2d_28">
    <path d="M 92.646318 107.971271 
L 94.153921 106.871849 
L 95.677007 106.139433 
L 97.215461 106.250021 
L 100.338 107.777553 
L 101.921848 109.803583 
L 103.520587 111.312112 
L 105.134097 112.442476 
L 106.762254 114.02129 
L 108.404933 114.527013 
L 110.062011 114.376843 
L 111.73336 113.885771 
L 113.418854 113.562084 
L 115.118364 114.12387 
L 116.831761 115.105291 
L 118.558914 117.960987 
L 120.299692 122.090191 
L 122.053962 127.525812 
L 123.821591 133.908975 
L 127.396385 148.575911 
L 131.022984 163.564194 
L 134.700285 175.785313 
L 136.557599 180.361989 
L 138.427166 180.335387 
L 140.308846 176.876648 
L 142.202494 172.127491 
L 144.107966 167.762175 
L 146.025118 161.988157 
L 147.953802 156.912389 
L 149.893872 154.654693 
L 151.845181 151.925738 
L 153.80758 149.773929 
L 155.780919 149.16611 
L 157.765049 146.322397 
L 159.759817 141.726749 
L 161.765073 139.446023 
L 163.780663 137.665913 
L 165.806434 134.310025 
L 167.842231 131.84894 
L 169.8879 130.79441 
L 171.943285 128.697633 
L 174.00823 127.741485 
L 176.082576 127.92553 
L 178.166166 129.102604 
L 180.258842 129.892934 
L 182.360444 128.765795 
L 184.470812 126.11115 
L 186.589785 124.381995 
L 188.717202 122.418896 
L 190.852901 119.308896 
L 192.996719 117.704641 
L 197.30806 115.22986 
L 199.475254 114.73435 
L 201.649911 113.735941 
L 203.831865 113.84912 
L 206.020949 115.943269 
L 208.216998 118.784932 
L 210.419844 122.284927 
L 214.845255 129.856347 
L 217.067483 132.984189 
L 219.295833 137.548271 
L 221.530138 141.553466 
L 226.015924 147.341704 
L 228.267066 149.705129 
L 230.523477 150.57432 
L 232.784986 151.765302 
L 235.051421 151.181449 
L 237.32261 151.256347 
L 239.598379 148.505245 
L 241.878556 144.453629 
L 244.162965 139.408001 
L 246.451435 132.887711 
L 248.743789 124.875407 
L 251.039854 112.879573 
L 253.339455 104.690384 
L 255.642417 100.787551 
L 257.948563 104.013891 
L 260.25772 113.501769 
L 262.56971 133.092596 
L 264.884358 154.669738 
L 267.201488 169.50775 
L 269.520923 173.918815 
L 274.166 175.120772 
L 276.491289 172.806989 
L 278.818176 168.737776 
L 281.146483 165.59735 
L 283.476034 163.567018 
L 285.80665 162.481619 
L 288.138154 162.738235 
L 292.803116 164.22593 
L 297.4695 169.873263 
L 299.802781 170.648978 
L 302.135884 169.952103 
L 304.468632 169.958432 
L 306.800846 170.579068 
L 309.13235 170.920531 
L 311.462966 168.989911 
L 313.792517 168.257515 
L 316.120824 170.981591 
L 318.447711 175.280825 
L 320.773 180.253192 
L 323.096514 183.827931 
L 325.418077 182.207288 
L 327.737512 179.476871 
L 330.054642 174.4381 
L 332.36929 162.225784 
L 334.68128 147.377198 
L 336.990437 130.798164 
L 339.296583 115.885947 
L 341.599545 106.811985 
L 343.899146 99.824458 
L 346.195211 96.578047 
L 348.487565 94.587699 
L 350.776035 88.439148 
L 353.060444 90.615913 
L 355.340621 100.135665 
L 357.61639 114.260161 
L 359.887579 133.534269 
L 362.154014 153.723803 
L 364.415523 170.570628 
L 368.923076 201.84147 
L 371.168775 217.379263 
L 373.408862 229.544204 
L 375.643167 238.492764 
L 377.871517 241.056334 
L 382.309681 233.26255 
L 384.519156 227.088662 
L 386.722002 218.587339 
L 388.918051 209.475938 
L 391.107135 201.614471 
L 393.289089 193.23155 
L 395.463746 187.078242 
L 399.790506 178.33517 
L 401.942281 173.351295 
L 404.086099 170.389052 
L 406.221798 166.881236 
L 408.349215 162.476561 
L 410.468188 158.644386 
L 414.680158 152.634623 
L 416.772834 152.970476 
L 418.856424 155.271024 
L 420.93077 156.852593 
L 422.995715 156.492089 
L 425.0511 157.551538 
L 427.096769 160.808318 
L 431.158337 166.429443 
L 433.173927 164.799175 
L 437.173951 154.729918 
L 441.13142 147.248501 
L 443.093819 142.515769 
L 446.985198 129.68755 
L 448.913882 123.709859 
L 450.831034 119.3546 
L 452.736506 120.730818 
L 454.630154 124.9985 
L 456.511834 128.494258 
L 458.381401 132.476495 
L 460.238715 134.4131 
L 462.083634 134.943818 
L 465.735723 134.86514 
L 467.542615 135.346556 
L 469.336556 136.626389 
L 471.117409 138.29125 
L 472.885038 138.863375 
L 474.639308 138.948982 
L 476.380086 139.446275 
L 478.107239 141.761214 
L 479.820636 144.55789 
L 483.20564 152.067496 
L 484.876989 156.504951 
L 486.534067 162.81984 
L 488.176746 168.524657 
L 491.418413 178.070327 
L 496.169835 187.253069 
L 497.723539 189.809917 
L 499.261993 191.11211 
L 500.785079 191.552983 
L 502.292682 192.670445 
L 502.292682 192.670445 
" clip-path="url(#p45685012a2)" style="fill: none; stroke: #bcbd22; stroke-width: 1.5; stroke-linecap: square"/>
   </g>
   <g id="line2d_29">
    <path d="M 72.164 150.14 
L 522.775 150.14 
" clip-path="url(#p45685012a2)" style="fill: none; stroke: #808080; stroke-width: 0.5; stroke-linecap: square"/>
   </g>
   <g id="line2d_30">
    <path d="M 92.646318 262.6 
L 92.646318 37.68 
" clip-path="url(#p45685012a2)" style="fill: none; stroke: #808080; stroke-width: 0.5; stroke-linecap: square"/>
   </g>
   <g id="line2d_31">
    <path d="M 125.602444 262.6 
L 125.602444 37.68 
" clip-path="url(#p45685012a2)" style="fill: none; stroke: #808080; stroke-width: 0.5; stroke-linecap: square"/>
   </g>
   <g id="line2d_32">
    <path d="M 163.780663 262.6 
L 163.780663 37.68 
" clip-path="url(#p45685012a2)" style="fill: none; stroke: #808080; stroke-width: 0.5; stroke-linecap: square"/>
   </g>
   <g id="line2d_33">
    <path d="M 206.020949 262.6 
L 206.020949 37.68 
" clip-path="url(#p45685012a2)" style="fill: none; stroke: #808080; stroke-width: 0.5; stroke-linecap: square"/>
   </g>
   <g id="line2d_34">
    <path d="M 251.039854 262.6 
L 251.039854 37.68 
" clip-path="url(#p45685012a2)" style="fill: none; stroke: #808080; stroke-width: 0.5; stroke-linecap: square"/>
   </g>
   <g id="line2d_35">
    <path d="M 297.4695 262.6 
L 297.4695 37.68 
" clip-path="url(#p45685012a2)" style="fill: none; stroke: #808080; stroke-width: 0.5; stroke-linecap: square"/>
   </g>
   <g id="line2d_36">
    <path d="M 343.899146 262.6 
L 343.899146 37.68 
" clip-path="url(#p45685012a2)" style="fill: none; stroke: #808080; stroke-width: 0.5; stroke-linecap: square"/>
   </g>
   <g id="line2d_37">
    <path d="M 388.918051 262.6 
L 388.918051 37.68 
" clip-path="url(#p45685012a2)" style="fill: none; stroke: #808080; stroke-width: 0.5; stroke-linecap: square"/>
   </g>
   <g id="line2d_38">
    <path d="M 431.158337 262.6 
L 431.158337 37.68 
" clip-path="url(#p45685012a2)" style="fill: none; stroke: #808080; stroke-width: 0.5; stroke-linecap: square"/>
   </g>
   <g id="line2d_39">
    <path d="M 469.336556 262.6 
L 469.336556 37.68 
" clip-path="url(#p45685012a2)" style="fill: none; stroke: #808080; stroke-width: 0.5; stroke-linecap: square"/>
   </g>
   <g id="line2d_40">
    <path d="M 502.292682 262.6 
L 502.292682 37.68 
" clip-path="url(#p45685012a2)" style="fill: none; stroke: #808080; stroke-width: 0.5; stroke-linecap: square"/>
   </g>
   <g id="patch_5">
    <path d="M 72.164 262.6 
L 72.164 37.68 
" style="fill: none; stroke: #000000; stroke-width: 0.8; stroke-linejoin: miter; stroke-linecap: square"/>
   </g>
   <g id="patch_6">
    <path d="M 522.775 262.6 
L 522.775 37.68 
" style="fill: none; stroke: #000000; stroke-width: 0.8; stroke-linejoin: miter; stroke-linecap: square"/>
   </g>
   <g id="patch_7">
    <path d="M 72.164 262.6 
L 522.775 262.6 
" style="fill: none; stroke: #000000; stroke-width: 0.8; stroke-linejoin: miter; stroke-linecap: square"/>
   </g>
   <g id="patch_8">
    <path d="M 72.164 37.68 
L 522.775 37.68 
" style="fill: none; stroke: #000000; stroke-width: 0.8; stroke-linejoin: miter; stroke-linecap: square"/>
   </g>
   <g id="text_21">
    <!-- UNSEED$-$CTRL -->
    <g transform="translate(224.9895 31.68) scale(0.192 -0.192)">
     <defs>
      <path id="DejaVuSans-55" d="M 556 4666 
L 1191 4666 
L 1191 1831 
Q 1191 1081 1462 751 
Q 1734 422 2344 422 
Q 2950 422 3222 751 
Q 3494 1081 3494 1831 
L 3494 4666 
L 4128 4666 
L 4128 1753 
Q 4128 841 3676 375 
Q 3225 -91 2344 -91 
Q 1459 -91 1007 375 
Q 556 841 556 1753 
L 556 4666 
z
" transform="scale(0.015625)"/>
      <path id="DejaVuSans-4e" d="M 628 4666 
L 1478 4666 
L 3547 763 
L 3547 4666 
L 4159 4666 
L 4159 0 
L 3309 0 
L 1241 3903 
L 1241 0 
L 628 0 
L 628 4666 
z
" transform="scale(0.015625)"/>
      <path id="DejaVuSans-53" d="M 3425 4513 
L 3425 3897 
Q 3066 4069 2747 4153 
Q 2428 4238 2131 4238 
Q 1616 4238 1336 4038 
Q 1056 3838 1056 3469 
Q 1056 3159 1242 3001 
Q 1428 2844 1947 2747 
L 2328 2669 
Q 3034 2534 3370 2195 
Q 3706 1856 3706 1288 
Q 3706 609 3251 259 
Q 2797 -91 1919 -91 
Q 1588 -91 1214 -16 
Q 841 59 441 206 
L 441 856 
Q 825 641 1194 531 
Q 1563 422 1919 422 
Q 2459 422 2753 634 
Q 3047 847 3047 1241 
Q 3047 1584 2836 1778 
Q 2625 1972 2144 2069 
L 1759 2144 
Q 1053 2284 737 2584 
Q 422 2884 422 3419 
Q 422 4038 858 4394 
Q 1294 4750 2059 4750 
Q 2388 4750 2728 4690 
Q 3069 4631 3425 4513 
z
" transform="scale(0.015625)"/>
      <path id="DejaVuSans-45" d="M 628 4666 
L 3578 4666 
L 3578 4134 
L 1259 4134 
L 1259 2753 
L 3481 2753 
L 3481 2222 
L 1259 2222 
L 1259 531 
L 3634 531 
L 3634 0 
L 628 0 
L 628 4666 
z
" transform="scale(0.015625)"/>
      <path id="DejaVuSans-44" d="M 1259 4147 
L 1259 519 
L 2022 519 
Q 2988 519 3436 956 
Q 3884 1394 3884 2338 
Q 3884 3275 3436 3711 
Q 2988 4147 2022 4147 
L 1259 4147 
z
M 628 4666 
L 1925 4666 
Q 3281 4666 3915 4102 
Q 4550 3538 4550 2338 
Q 4550 1131 3912 565 
Q 3275 0 1925 0 
L 628 0 
L 628 4666 
z
" transform="scale(0.015625)"/>
      <path id="DejaVuSans-43" d="M 4122 4306 
L 4122 3641 
Q 3803 3938 3442 4084 
Q 3081 4231 2675 4231 
Q 1875 4231 1450 3742 
Q 1025 3253 1025 2328 
Q 1025 1406 1450 917 
Q 1875 428 2675 428 
Q 3081 428 3442 575 
Q 3803 722 4122 1019 
L 4122 359 
Q 3791 134 3420 21 
Q 3050 -91 2638 -91 
Q 1578 -91 968 557 
Q 359 1206 359 2328 
Q 359 3453 968 4101 
Q 1578 4750 2638 4750 
Q 3056 4750 3426 4639 
Q 3797 4528 4122 4306 
z
" transform="scale(0.015625)"/>
      <path id="DejaVuSans-54" d="M -19 4666 
L 3928 4666 
L 3928 4134 
L 2272 4134 
L 2272 0 
L 1638 0 
L 1638 4134 
L -19 4134 
L -19 4666 
z
" transform="scale(0.015625)"/>
      <path id="DejaVuSans-52" d="M 2841 2188 
Q 3044 2119 3236 1894 
Q 3428 1669 3622 1275 
L 4263 0 
L 3584 0 
L 2988 1197 
Q 2756 1666 2539 1819 
Q 2322 1972 1947 1972 
L 1259 1972 
L 1259 0 
L 628 0 
L 628 4666 
L 2053 4666 
Q 2853 4666 3247 4331 
Q 3641 3997 3641 3322 
Q 3641 2881 3436 2590 
Q 3231 2300 2841 2188 
z
M 1259 4147 
L 1259 2491 
L 2053 2491 
Q 2509 2491 2742 2702 
Q 2975 2913 2975 3322 
Q 2975 3731 2742 3939 
Q 2509 4147 2053 4147 
L 1259 4147 
z
" transform="scale(0.015625)"/>
     </defs>
     <use xlink:href="#DejaVuSans-55" transform="translate(0 0.78125)"/>
     <use xlink:href="#DejaVuSans-4e" transform="translate(73.193359 0.78125)"/>
     <use xlink:href="#DejaVuSans-53" transform="translate(147.998047 0.78125)"/>
     <use xlink:href="#DejaVuSans-45" transform="translate(211.474609 0.78125)"/>
     <use xlink:href="#DejaVuSans-45" transform="translate(274.658203 0.78125)"/>
     <use xlink:href="#DejaVuSans-44" transform="translate(337.841797 0.78125)"/>
     <use xlink:href="#DejaVuSans-2212" transform="translate(414.84375 0.78125)"/>
     <use xlink:href="#DejaVuSans-43" transform="translate(498.632812 0.78125)"/>
     <use xlink:href="#DejaVuSans-54" transform="translate(568.457031 0.78125)"/>
     <use xlink:href="#DejaVuSans-52" transform="translate(629.541016 0.78125)"/>
     <use xlink:href="#DejaVuSans-4c" transform="translate(699.023438 0.78125)"/>
    </g>
   </g>
   <g id="text_22">
    <!-- (c) -->
    <g transform="translate(72.164 31.68) scale(0.192 -0.192)">
     <defs>
      <path id="DejaVuSans-28" d="M 1984 4856 
Q 1566 4138 1362 3434 
Q 1159 2731 1159 2009 
Q 1159 1288 1364 580 
Q 1569 -128 1984 -844 
L 1484 -844 
Q 1016 -109 783 600 
Q 550 1309 550 2009 
Q 550 2706 781 3412 
Q 1013 4119 1484 4856 
L 1984 4856 
z
" transform="scale(0.015625)"/>
      <path id="DejaVuSans-63" d="M 3122 3366 
L 3122 2828 
Q 2878 2963 2633 3030 
Q 2388 3097 2138 3097 
Q 1578 3097 1268 2742 
Q 959 2388 959 1747 
Q 959 1106 1268 751 
Q 1578 397 2138 397 
Q 2388 397 2633 464 
Q 2878 531 3122 666 
L 3122 134 
Q 2881 22 2623 -34 
Q 2366 -91 2075 -91 
Q 1284 -91 818 406 
Q 353 903 353 1747 
Q 353 2603 823 3093 
Q 1294 3584 2113 3584 
Q 2378 3584 2631 3529 
Q 2884 3475 3122 3366 
z
" transform="scale(0.015625)"/>
      <path id="DejaVuSans-29" d="M 513 4856 
L 1013 4856 
Q 1481 4119 1714 3412 
Q 1947 2706 1947 2009 
Q 1947 1309 1714 600 
Q 1481 -109 1013 -844 
L 513 -844 
Q 928 -128 1133 580 
Q 1338 1288 1338 2009 
Q 1338 2731 1133 3434 
Q 928 4138 513 4856 
z
" transform="scale(0.015625)"/>
     </defs>
     <use xlink:href="#DejaVuSans-28"/>
     <use xlink:href="#DejaVuSans-63" transform="translate(39.013672 0)"/>
     <use xlink:href="#DejaVuSans-29" transform="translate(93.994141 0)"/>
    </g>
   </g>
   <g id="legend_1">
    <g id="patch_9">
     <path d="M 80.564 101.13375 
L 234.057125 101.13375 
Q 236.457125 101.13375 236.457125 98.73375 
L 236.457125 46.08 
Q 236.457125 43.68 234.057125 43.68 
L 80.564 43.68 
Q 78.164 43.68 78.164 46.08 
L 78.164 98.73375 
Q 78.164 101.13375 80.564 101.13375 
z
" style="fill: #ffffff; opacity: 0.8; stroke: #cccccc; stroke-linejoin: miter"/>
    </g>
    <g id="line2d_41">
     <path d="M 82.964 53.398125 
L 94.964 53.398125 
L 106.964 53.398125 
" style="fill: none; stroke: #1f77b4; stroke-width: 1.5; stroke-linecap: square"/>
    </g>
    <g id="text_23">
     <!-- U10 monthly mean -->
     <g transform="translate(116.564 57.598125) scale(0.12 -0.12)">
      <defs>
       <path id="DejaVuSans-6f" d="M 1959 3097 
Q 1497 3097 1228 2736 
Q 959 2375 959 1747 
Q 959 1119 1226 758 
Q 1494 397 1959 397 
Q 2419 397 2687 759 
Q 2956 1122 2956 1747 
Q 2956 2369 2687 2733 
Q 2419 3097 1959 3097 
z
M 1959 3584 
Q 2709 3584 3137 3096 
Q 3566 2609 3566 1747 
Q 3566 888 3137 398 
Q 2709 -91 1959 -91 
Q 1206 -91 779 398 
Q 353 888 353 1747 
Q 353 2609 779 3096 
Q 1206 3584 1959 3584 
z
" transform="scale(0.015625)"/>
       <path id="DejaVuSans-6e" d="M 3513 2113 
L 3513 0 
L 2938 0 
L 2938 2094 
Q 2938 2591 2744 2837 
Q 2550 3084 2163 3084 
Q 1697 3084 1428 2787 
Q 1159 2491 1159 1978 
L 1159 0 
L 581 0 
L 581 3500 
L 1159 3500 
L 1159 2956 
Q 1366 3272 1645 3428 
Q 1925 3584 2291 3584 
Q 2894 3584 3203 3211 
Q 3513 2838 3513 2113 
z
" transform="scale(0.015625)"/>
       <path id="DejaVuSans-68" d="M 3513 2113 
L 3513 0 
L 2938 0 
L 2938 2094 
Q 2938 2591 2744 2837 
Q 2550 3084 2163 3084 
Q 1697 3084 1428 2787 
Q 1159 2491 1159 1978 
L 1159 0 
L 581 0 
L 581 4863 
L 1159 4863 
L 1159 2956 
Q 1366 3272 1645 3428 
Q 1925 3584 2291 3584 
Q 2894 3584 3203 3211 
Q 3513 2838 3513 2113 
z
" transform="scale(0.015625)"/>
       <path id="DejaVuSans-6c" d="M 603 4863 
L 1178 4863 
L 1178 0 
L 603 0 
L 603 4863 
z
" transform="scale(0.015625)"/>
       <path id="DejaVuSans-79" d="M 2059 -325 
Q 1816 -950 1584 -1140 
Q 1353 -1331 966 -1331 
L 506 -1331 
L 506 -850 
L 844 -850 
Q 1081 -850 1212 -737 
Q 1344 -625 1503 -206 
L 1606 56 
L 191 3500 
L 800 3500 
L 1894 763 
L 2988 3500 
L 3597 3500 
L 2059 -325 
z
" transform="scale(0.015625)"/>
      </defs>
      <use xlink:href="#DejaVuSans-55"/>
      <use xlink:href="#DejaVuSans-31" transform="translate(73.193359 0)"/>
      <use xlink:href="#DejaVuSans-30" transform="translate(136.816406 0)"/>
      <use xlink:href="#DejaVuSans-20" transform="translate(200.439453 0)"/>
      <use xlink:href="#DejaVuSans-6d" transform="translate(232.226562 0)"/>
      <use xlink:href="#DejaVuSans-6f" transform="translate(329.638672 0)"/>
      <use xlink:href="#DejaVuSans-6e" transform="translate(390.820312 0)"/>
      <use xlink:href="#DejaVuSans-74" transform="translate(454.199219 0)"/>
      <use xlink:href="#DejaVuSans-68" transform="translate(493.408203 0)"/>
      <use xlink:href="#DejaVuSans-6c" transform="translate(556.787109 0)"/>
      <use xlink:href="#DejaVuSans-79" transform="translate(584.570312 0)"/>
      <use xlink:href="#DejaVuSans-20" transform="translate(643.75 0)"/>
      <use xlink:href="#DejaVuSans-6d" transform="translate(675.537109 0)"/>
      <use xlink:href="#DejaVuSans-65" transform="translate(772.949219 0)"/>
      <use xlink:href="#DejaVuSans-61" transform="translate(834.472656 0)"/>
      <use xlink:href="#DejaVuSans-6e" transform="translate(895.751953 0)"/>
     </g>
    </g>
    <g id="line2d_42">
     <path d="M 82.964 71.13375 
L 94.964 71.13375 
L 106.964 71.13375 
" style="fill: none; stroke-dasharray: 1.5,2.475; stroke-dashoffset: 0; stroke: #1f77b4; stroke-width: 1.5"/>
    </g>
    <g id="text_24">
     <!-- $|U|_{bot}$ -->
     <g transform="translate(116.564 75.33375) scale(0.12 -0.12)">
      <defs>
       <path id="DejaVuSans-7c" d="M 1344 4891 
L 1344 -1509 
L 813 -1509 
L 813 4891 
L 1344 4891 
z
" transform="scale(0.015625)"/>
       <path id="DejaVuSans-Oblique-55" d="M 991 4666 
L 1625 4666 
L 1075 1831 
Q 1041 1641 1027 1517 
Q 1013 1394 1013 1300 
Q 1013 869 1253 645 
Q 1494 422 1959 422 
Q 2563 422 2898 753 
Q 3234 1084 3378 1831 
L 3928 4666 
L 4563 4666 
L 4000 1753 
Q 3816 809 3300 359 
Q 2784 -91 1888 -91 
Q 1188 -91 780 261 
Q 372 613 372 1216 
Q 372 1325 387 1461 
Q 403 1597 434 1753 
L 991 4666 
z
" transform="scale(0.015625)"/>
       <path id="DejaVuSans-Oblique-62" d="M 3169 2138 
Q 3169 2591 2961 2847 
Q 2753 3103 2388 3103 
Q 2122 3103 1889 2973 
Q 1656 2844 1484 2597 
Q 1303 2338 1198 1995 
Q 1094 1653 1094 1313 
Q 1094 881 1298 636 
Q 1503 391 1863 391 
Q 2134 391 2365 517 
Q 2597 644 2772 891 
Q 2950 1147 3059 1487 
Q 3169 1828 3169 2138 
z
M 1381 2969 
Q 1594 3256 1914 3420 
Q 2234 3584 2584 3584 
Q 3122 3584 3439 3221 
Q 3756 2859 3756 2241 
Q 3756 1734 3570 1259 
Q 3384 784 3041 416 
Q 2816 172 2522 40 
Q 2228 -91 1906 -91 
Q 1566 -91 1316 65 
Q 1066 222 909 531 
L 806 0 
L 231 0 
L 1178 4863 
L 1753 4863 
L 1381 2969 
z
" transform="scale(0.015625)"/>
       <path id="DejaVuSans-Oblique-6f" d="M 1625 -91 
Q 1009 -91 651 289 
Q 294 669 294 1325 
Q 294 1706 417 2101 
Q 541 2497 738 2766 
Q 1047 3184 1428 3384 
Q 1809 3584 2291 3584 
Q 2888 3584 3255 3212 
Q 3622 2841 3622 2241 
Q 3622 1825 3500 1412 
Q 3378 1000 3181 728 
Q 2875 309 2494 109 
Q 2113 -91 1625 -91 
z
M 891 1344 
Q 891 869 1089 633 
Q 1288 397 1691 397 
Q 2269 397 2648 901 
Q 3028 1406 3028 2181 
Q 3028 2634 2825 2865 
Q 2622 3097 2228 3097 
Q 1903 3097 1650 2945 
Q 1397 2794 1197 2484 
Q 1050 2253 970 1956 
Q 891 1659 891 1344 
z
" transform="scale(0.015625)"/>
       <path id="DejaVuSans-Oblique-74" d="M 2706 3500 
L 2619 3053 
L 1472 3053 
L 1100 1153 
Q 1081 1047 1072 975 
Q 1063 903 1063 863 
Q 1063 663 1183 572 
Q 1303 481 1569 481 
L 2150 481 
L 2053 0 
L 1503 0 
Q 991 0 739 200 
Q 488 400 488 806 
Q 488 878 497 964 
Q 506 1050 525 1153 
L 897 3053 
L 409 3053 
L 500 3500 
L 978 3500 
L 1172 4494 
L 1747 4494 
L 1556 3500 
L 2706 3500 
z
" transform="scale(0.015625)"/>
      </defs>
      <use xlink:href="#DejaVuSans-7c" transform="translate(0 0.578125)"/>
      <use xlink:href="#DejaVuSans-Oblique-55" transform="translate(33.691406 0.578125)"/>
      <use xlink:href="#DejaVuSans-7c" transform="translate(106.884766 0.578125)"/>
      <use xlink:href="#DejaVuSans-Oblique-62" transform="translate(141.533203 -15.828125) scale(0.7)"/>
      <use xlink:href="#DejaVuSans-Oblique-6f" transform="translate(185.966797 -15.828125) scale(0.7)"/>
      <use xlink:href="#DejaVuSans-Oblique-74" transform="translate(228.793945 -15.828125) scale(0.7)"/>
     </g>
    </g>
    <g id="line2d_43">
     <path d="M 82.964 89.25375 
L 94.964 89.25375 
L 106.964 89.25375 
" style="fill: none; stroke: #bcbd22; stroke-width: 1.5; stroke-linecap: square"/>
    </g>
    <g id="text_25">
     <!-- $|U|_{bot}$ non-TC -->
     <g transform="translate(116.564 93.45375) scale(0.12 -0.12)">
      <use xlink:href="#DejaVuSans-7c" transform="translate(0 0.578125)"/>
      <use xlink:href="#DejaVuSans-Oblique-55" transform="translate(33.691406 0.578125)"/>
      <use xlink:href="#DejaVuSans-7c" transform="translate(106.884766 0.578125)"/>
      <use xlink:href="#DejaVuSans-Oblique-62" transform="translate(141.533203 -15.828125) scale(0.7)"/>
      <use xlink:href="#DejaVuSans-Oblique-6f" transform="translate(185.966797 -15.828125) scale(0.7)"/>
      <use xlink:href="#DejaVuSans-Oblique-74" transform="translate(228.793945 -15.828125) scale(0.7)"/>
      <use xlink:href="#DejaVuSans-20" transform="translate(258.974609 0.578125)"/>
      <use xlink:href="#DejaVuSans-6e" transform="translate(290.761719 0.578125)"/>
      <use xlink:href="#DejaVuSans-6f" transform="translate(354.140625 0.578125)"/>
      <use xlink:href="#DejaVuSans-6e" transform="translate(415.322266 0.578125)"/>
      <use xlink:href="#DejaVuSans-2d" transform="translate(478.701172 0.578125)"/>
      <use xlink:href="#DejaVuSans-54" transform="translate(514.785156 0.578125)"/>
      <use xlink:href="#DejaVuSans-43" transform="translate(575.869141 0.578125)"/>
     </g>
    </g>
   </g>
  </g>
  <g id="axes_2">
   <g id="patch_10">
    <path d="M 608.609 262.6 
L 1059.22 262.6 
L 1059.22 37.68 
L 608.609 37.68 
z
" style="fill: #ffffff"/>
   </g>
   <g id="patch_11">
    <path d="M 880.344146 262.6 
L 925.363051 262.6 
L 925.363051 37.68 
L 880.344146 37.68 
z
" clip-path="url(#p032a7679c3)" style="fill: #800080; opacity: 0.08"/>
   </g>
   <g id="patch_12">
    <path d="M 925.363051 262.6 
L 967.603337 262.6 
L 967.603337 37.68 
L 925.363051 37.68 
z
" clip-path="url(#p032a7679c3)" style="fill: #ffff00; opacity: 0.12"/>
   </g>
   <g id="matplotlib.axis_3">
    <g id="xtick_12">
     <g id="line2d_44">
      <g>
       <use xlink:href="#ma87ab05332" x="629.091318" y="262.6" style="stroke: #000000; stroke-width: 0.8"/>
      </g>
     </g>
     <g id="text_26">
      <!-- -50 -->
      <g transform="translate(616.025068 281.7575) scale(0.16 -0.16)">
       <use xlink:href="#DejaVuSans-2d"/>
       <use xlink:href="#DejaVuSans-35" transform="translate(36.083984 0)"/>
       <use xlink:href="#DejaVuSans-30" transform="translate(99.707031 0)"/>
      </g>
     </g>
    </g>
    <g id="xtick_13">
     <g id="line2d_45">
      <g>
       <use xlink:href="#ma87ab05332" x="662.047444" y="262.6" style="stroke: #000000; stroke-width: 0.8"/>
      </g>
     </g>
     <g id="text_27">
      <!-- -40 -->
      <g transform="translate(648.981194 281.7575) scale(0.16 -0.16)">
       <use xlink:href="#DejaVuSans-2d"/>
       <use xlink:href="#DejaVuSans-34" transform="translate(36.083984 0)"/>
       <use xlink:href="#DejaVuSans-30" transform="translate(99.707031 0)"/>
      </g>
     </g>
    </g>
    <g id="xtick_14">
     <g id="line2d_46">
      <g>
       <use xlink:href="#ma87ab05332" x="700.225663" y="262.6" style="stroke: #000000; stroke-width: 0.8"/>
      </g>
     </g>
     <g id="text_28">
      <!-- -30 -->
      <g transform="translate(687.159413 281.7575) scale(0.16 -0.16)">
       <use xlink:href="#DejaVuSans-2d"/>
       <use xlink:href="#DejaVuSans-33" transform="translate(36.083984 0)"/>
       <use xlink:href="#DejaVuSans-30" transform="translate(99.707031 0)"/>
      </g>
     </g>
    </g>
    <g id="xtick_15">
     <g id="line2d_47">
      <g>
       <use xlink:href="#ma87ab05332" x="742.465949" y="262.6" style="stroke: #000000; stroke-width: 0.8"/>
      </g>
     </g>
     <g id="text_29">
      <!-- -20 -->
      <g transform="translate(729.399699 281.7575) scale(0.16 -0.16)">
       <use xlink:href="#DejaVuSans-2d"/>
       <use xlink:href="#DejaVuSans-32" transform="translate(36.083984 0)"/>
       <use xlink:href="#DejaVuSans-30" transform="translate(99.707031 0)"/>
      </g>
     </g>
    </g>
    <g id="xtick_16">
     <g id="line2d_48">
      <g>
       <use xlink:href="#ma87ab05332" x="787.484854" y="262.6" style="stroke: #000000; stroke-width: 0.8"/>
      </g>
     </g>
     <g id="text_30">
      <!-- -10 -->
      <g transform="translate(774.418604 281.7575) scale(0.16 -0.16)">
       <use xlink:href="#DejaVuSans-2d"/>
       <use xlink:href="#DejaVuSans-31" transform="translate(36.083984 0)"/>
       <use xlink:href="#DejaVuSans-30" transform="translate(99.707031 0)"/>
      </g>
     </g>
    </g>
    <g id="xtick_17">
     <g id="line2d_49">
      <g>
       <use xlink:href="#ma87ab05332" x="833.9145" y="262.6" style="stroke: #000000; stroke-width: 0.8"/>
      </g>
     </g>
     <g id="text_31">
      <!-- 0 -->
      <g transform="translate(828.8245 281.7575) scale(0.16 -0.16)">
       <use xlink:href="#DejaVuSans-30"/>
      </g>
     </g>
    </g>
    <g id="xtick_18">
     <g id="line2d_50">
      <g>
       <use xlink:href="#ma87ab05332" x="880.344146" y="262.6" style="stroke: #000000; stroke-width: 0.8"/>
      </g>
     </g>
     <g id="text_32">
      <!-- 10 -->
      <g transform="translate(870.164146 281.7575) scale(0.16 -0.16)">
       <use xlink:href="#DejaVuSans-31"/>
       <use xlink:href="#DejaVuSans-30" transform="translate(63.623047 0)"/>
      </g>
     </g>
    </g>
    <g id="xtick_19">
     <g id="line2d_51">
      <g>
       <use xlink:href="#ma87ab05332" x="925.363051" y="262.6" style="stroke: #000000; stroke-width: 0.8"/>
      </g>
     </g>
     <g id="text_33">
      <!-- 20 -->
      <g transform="translate(915.183051 281.7575) scale(0.16 -0.16)">
       <use xlink:href="#DejaVuSans-32"/>
       <use xlink:href="#DejaVuSans-30" transform="translate(63.623047 0)"/>
      </g>
     </g>
    </g>
    <g id="xtick_20">
     <g id="line2d_52">
      <g>
       <use xlink:href="#ma87ab05332" x="967.603337" y="262.6" style="stroke: #000000; stroke-width: 0.8"/>
      </g>
     </g>
     <g id="text_34">
      <!-- 30 -->
      <g transform="translate(957.423337 281.7575) scale(0.16 -0.16)">
       <use xlink:href="#DejaVuSans-33"/>
       <use xlink:href="#DejaVuSans-30" transform="translate(63.623047 0)"/>
      </g>
     </g>
    </g>
    <g id="xtick_21">
     <g id="line2d_53">
      <g>
       <use xlink:href="#ma87ab05332" x="1005.781556" y="262.6" style="stroke: #000000; stroke-width: 0.8"/>
      </g>
     </g>
     <g id="text_35">
      <!-- 40 -->
      <g transform="translate(995.601556 281.7575) scale(0.16 -0.16)">
       <use xlink:href="#DejaVuSans-34"/>
       <use xlink:href="#DejaVuSans-30" transform="translate(63.623047 0)"/>
      </g>
     </g>
    </g>
    <g id="xtick_22">
     <g id="line2d_54">
      <g>
       <use xlink:href="#ma87ab05332" x="1038.737682" y="262.6" style="stroke: #000000; stroke-width: 0.8"/>
      </g>
     </g>
     <g id="text_36">
      <!-- 50 -->
      <g transform="translate(1028.557682 281.7575) scale(0.16 -0.16)">
       <use xlink:href="#DejaVuSans-35"/>
       <use xlink:href="#DejaVuSans-30" transform="translate(63.623047 0)"/>
      </g>
     </g>
    </g>
    <g id="text_37">
     <!-- Latitude -->
     <g transform="translate(800.98825 301.2425) scale(0.16 -0.16)">
      <use xlink:href="#DejaVuSans-4c"/>
      <use xlink:href="#DejaVuSans-61" transform="translate(55.712891 0)"/>
      <use xlink:href="#DejaVuSans-74" transform="translate(116.992188 0)"/>
      <use xlink:href="#DejaVuSans-69" transform="translate(156.201172 0)"/>
      <use xlink:href="#DejaVuSans-74" transform="translate(183.984375 0)"/>
      <use xlink:href="#DejaVuSans-75" transform="translate(223.193359 0)"/>
      <use xlink:href="#DejaVuSans-64" transform="translate(286.572266 0)"/>
      <use xlink:href="#DejaVuSans-65" transform="translate(350.048828 0)"/>
     </g>
    </g>
   </g>
   <g id="matplotlib.axis_4">
    <g id="ytick_8">
     <g id="line2d_55">
      <g>
       <use xlink:href="#m51fe746b3d" x="608.609" y="262.6" style="stroke: #000000; stroke-width: 0.8"/>
      </g>
     </g>
     <g id="line2d_56">
      <g>
       <use xlink:href="#m4a2f831ddd" x="1059.22" y="262.6" style="stroke: #000000; stroke-width: 0.8"/>
      </g>
     </g>
     <g id="text_38">
      <!-- −30 -->
      <g transform="translate(567.8415 268.67875) scale(0.16 -0.16)">
       <use xlink:href="#DejaVuSans-2212"/>
       <use xlink:href="#DejaVuSans-33" transform="translate(83.789062 0)"/>
       <use xlink:href="#DejaVuSans-30" transform="translate(147.412109 0)"/>
      </g>
     </g>
    </g>
    <g id="ytick_9">
     <g id="line2d_57">
      <g>
       <use xlink:href="#m51fe746b3d" x="608.609" y="225.113333" style="stroke: #000000; stroke-width: 0.8"/>
      </g>
     </g>
     <g id="line2d_58">
      <g>
       <use xlink:href="#m4a2f831ddd" x="1059.22" y="225.113333" style="stroke: #000000; stroke-width: 0.8"/>
      </g>
     </g>
     <g id="text_39">
      <!-- −20 -->
      <g transform="translate(567.8415 231.192083) scale(0.16 -0.16)">
       <use xlink:href="#DejaVuSans-2212"/>
       <use xlink:href="#DejaVuSans-32" transform="translate(83.789062 0)"/>
       <use xlink:href="#DejaVuSans-30" transform="translate(147.412109 0)"/>
      </g>
     </g>
    </g>
    <g id="ytick_10">
     <g id="line2d_59">
      <g>
       <use xlink:href="#m51fe746b3d" x="608.609" y="187.626667" style="stroke: #000000; stroke-width: 0.8"/>
      </g>
     </g>
     <g id="line2d_60">
      <g>
       <use xlink:href="#m4a2f831ddd" x="1059.22" y="187.626667" style="stroke: #000000; stroke-width: 0.8"/>
      </g>
     </g>
     <g id="text_40">
      <!-- −10 -->
      <g transform="translate(567.8415 193.705417) scale(0.16 -0.16)">
       <use xlink:href="#DejaVuSans-2212"/>
       <use xlink:href="#DejaVuSans-31" transform="translate(83.789062 0)"/>
       <use xlink:href="#DejaVuSans-30" transform="translate(147.412109 0)"/>
      </g>
     </g>
    </g>
    <g id="ytick_11">
     <g id="line2d_61">
      <g>
       <use xlink:href="#m51fe746b3d" x="608.609" y="150.14" style="stroke: #000000; stroke-width: 0.8"/>
      </g>
     </g>
     <g id="line2d_62">
      <g>
       <use xlink:href="#m4a2f831ddd" x="1059.22" y="150.14" style="stroke: #000000; stroke-width: 0.8"/>
      </g>
     </g>
     <g id="text_41">
      <!-- 0 -->
      <g transform="translate(591.429 156.21875) scale(0.16 -0.16)">
       <use xlink:href="#DejaVuSans-30"/>
      </g>
     </g>
    </g>
    <g id="ytick_12">
     <g id="line2d_63">
      <g>
       <use xlink:href="#m51fe746b3d" x="608.609" y="112.653333" style="stroke: #000000; stroke-width: 0.8"/>
      </g>
     </g>
     <g id="line2d_64">
      <g>
       <use xlink:href="#m4a2f831ddd" x="1059.22" y="112.653333" style="stroke: #000000; stroke-width: 0.8"/>
      </g>
     </g>
     <g id="text_42">
      <!-- 10 -->
      <g transform="translate(581.249 118.732083) scale(0.16 -0.16)">
       <use xlink:href="#DejaVuSans-31"/>
       <use xlink:href="#DejaVuSans-30" transform="translate(63.623047 0)"/>
      </g>
     </g>
    </g>
    <g id="ytick_13">
     <g id="line2d_65">
      <g>
       <use xlink:href="#m51fe746b3d" x="608.609" y="75.166667" style="stroke: #000000; stroke-width: 0.8"/>
      </g>
     </g>
     <g id="line2d_66">
      <g>
       <use xlink:href="#m4a2f831ddd" x="1059.22" y="75.166667" style="stroke: #000000; stroke-width: 0.8"/>
      </g>
     </g>
     <g id="text_43">
      <!-- 20 -->
      <g transform="translate(581.249 81.245417) scale(0.16 -0.16)">
       <use xlink:href="#DejaVuSans-32"/>
       <use xlink:href="#DejaVuSans-30" transform="translate(63.623047 0)"/>
      </g>
     </g>
    </g>
    <g id="ytick_14">
     <g id="line2d_67">
      <g>
       <use xlink:href="#m51fe746b3d" x="608.609" y="37.68" style="stroke: #000000; stroke-width: 0.8"/>
      </g>
     </g>
     <g id="line2d_68">
      <g>
       <use xlink:href="#m4a2f831ddd" x="1059.22" y="37.68" style="stroke: #000000; stroke-width: 0.8"/>
      </g>
     </g>
     <g id="text_44">
      <!-- 30 -->
      <g transform="translate(581.249 43.75875) scale(0.16 -0.16)">
       <use xlink:href="#DejaVuSans-33"/>
       <use xlink:href="#DejaVuSans-30" transform="translate(63.623047 0)"/>
      </g>
     </g>
    </g>
    <g id="text_45">
     <!-- LHFLX [W m$^{-2}$] -->
     <g transform="translate(560.514 210.78) rotate(-90) scale(0.16 -0.16)">
      <use xlink:href="#DejaVuSans-4c" transform="translate(0 0.765625)"/>
      <use xlink:href="#DejaVuSans-48" transform="translate(55.712891 0.765625)"/>
      <use xlink:href="#DejaVuSans-46" transform="translate(130.908203 0.765625)"/>
      <use xlink:href="#DejaVuSans-4c" transform="translate(188.427734 0.765625)"/>
      <use xlink:href="#DejaVuSans-58" transform="translate(244.140625 0.765625)"/>
      <use xlink:href="#DejaVuSans-20" transform="translate(312.646484 0.765625)"/>
      <use xlink:href="#DejaVuSans-5b" transform="translate(344.433594 0.765625)"/>
      <use xlink:href="#DejaVuSans-57" transform="translate(383.447266 0.765625)"/>
      <use xlink:href="#DejaVuSans-20" transform="translate(482.324219 0.765625)"/>
      <use xlink:href="#DejaVuSans-6d" transform="translate(514.111328 0.765625)"/>
      <use xlink:href="#DejaVuSans-2212" transform="translate(612.480469 39.046875) scale(0.7)"/>
      <use xlink:href="#DejaVuSans-32" transform="translate(671.132812 39.046875) scale(0.7)"/>
      <use xlink:href="#DejaVuSans-5d" transform="translate(718.40332 0.765625)"/>
     </g>
    </g>
   </g>
   <g id="line2d_69">
    <path d="M 629.091318 153.3872 
L 638.366848 151.621532 
L 641.579097 150.494454 
L 646.507011 148.407457 
L 649.863854 146.804859 
L 653.276761 145.549456 
L 656.744692 144.648749 
L 662.047444 142.824901 
L 663.841385 142.506374 
L 665.648277 142.454175 
L 671.145285 142.77441 
L 673.002599 143.072459 
L 676.753846 143.93626 
L 678.647494 144.535353 
L 682.470118 146.041784 
L 684.398802 146.986727 
L 686.338872 148.218524 
L 688.290181 149.87853 
L 694.210049 155.765694 
L 698.210073 159.186979 
L 706.3329 164.668149 
L 708.388285 165.945753 
L 710.45323 167.095114 
L 712.527576 168.082988 
L 718.805444 170.571601 
L 723.034785 171.233864 
L 727.297901 171.248248 
L 733.75306 170.810481 
L 740.276865 170.464526 
L 742.465949 170.13718 
L 744.661998 169.343054 
L 746.864844 168.26604 
L 749.074319 167.510292 
L 751.290255 166.490927 
L 753.512483 165.145889 
L 755.740833 163.630576 
L 757.975138 162.298017 
L 760.215225 161.149695 
L 764.712066 159.096154 
L 766.968477 157.804291 
L 769.229986 156.37886 
L 771.496421 154.451212 
L 773.76761 151.422445 
L 776.043379 147.429241 
L 778.323556 143.151842 
L 780.607965 138.136907 
L 785.188789 124.734192 
L 787.484854 115.489095 
L 789.784455 105.598545 
L 792.087417 94.9957 
L 794.393563 85.118005 
L 796.70272 79.832722 
L 799.01471 81.907771 
L 801.329358 93.907861 
L 803.646488 114.095866 
L 805.965923 137.667895 
L 808.287486 159.597659 
L 810.611 172.570039 
L 812.936289 176.498697 
L 815.263176 173.625792 
L 819.921034 161.126032 
L 822.25165 156.883504 
L 824.583154 155.697114 
L 826.915368 156.521462 
L 829.248116 158.589973 
L 831.581219 161.124892 
L 833.9145 163.456455 
L 836.247781 164.680417 
L 838.580884 164.993855 
L 840.913632 164.625304 
L 845.57735 162.742228 
L 847.907966 162.538378 
L 850.237517 164.509121 
L 852.565824 168.754979 
L 854.892711 174.124534 
L 857.218 177.471445 
L 859.541514 176.632463 
L 861.863077 170.297521 
L 864.182512 160.39853 
L 866.499642 148.227139 
L 871.12628 119.485832 
L 878.044545 73.233412 
L 882.640211 45.865044 
L 884.932565 36.465666 
L 887.221035 28.692568 
L 889.505444 24.124822 
L 891.785621 21.999447 
L 894.06139 22.620524 
L 896.332579 25.859735 
L 898.599014 30.589271 
L 900.860523 36.643135 
L 907.613775 59.893203 
L 909.853862 68.272692 
L 912.088167 77.242655 
L 914.316517 86.895608 
L 916.538745 95.566456 
L 918.754681 101.82991 
L 920.964156 106.007736 
L 923.167002 111.561138 
L 925.363051 116.330811 
L 927.552135 119.242972 
L 929.734089 120.696267 
L 931.908746 121.244463 
L 934.07594 121.476217 
L 936.235506 121.024324 
L 938.387281 119.386694 
L 940.531099 117.197028 
L 942.666798 115.199238 
L 944.794215 112.730913 
L 946.913188 109.531843 
L 949.023556 105.618184 
L 951.125158 102.032792 
L 953.217834 99.210279 
L 957.37577 94.437434 
L 959.440715 91.898665 
L 961.4961 89.76382 
L 963.541769 88.284969 
L 965.577566 87.647299 
L 967.603337 87.533294 
L 969.618927 87.845285 
L 971.624183 88.392692 
L 973.618951 89.354755 
L 975.603081 90.827919 
L 977.57642 92.805324 
L 985.358882 101.777462 
L 987.276034 104.064033 
L 989.181506 106.794771 
L 992.956834 113.202907 
L 996.683715 120.524492 
L 1000.361016 127.736066 
L 1003.987615 134.359868 
L 1007.562409 140.291392 
L 1009.330038 142.902905 
L 1011.084308 145.205637 
L 1012.825086 147.124882 
L 1014.552239 148.760502 
L 1016.265636 150.090116 
L 1017.965146 151.081719 
L 1019.65064 151.732322 
L 1022.979067 152.59136 
L 1026.249903 152.810669 
L 1029.462152 152.707281 
L 1038.737682 151.842396 
L 1038.737682 151.842396 
" clip-path="url(#p032a7679c3)" style="fill: none; stroke: #1f77b4; stroke-width: 1.5; stroke-linecap: square"/>
   </g>
   <g id="line2d_70">
    <path d="M 629.091318 150.155063 
L 632.122007 149.176837 
L 638.366848 148.384982 
L 639.965587 147.848774 
L 646.507011 144.760002 
L 648.17836 144.029445 
L 649.863854 143.541204 
L 653.276761 143.516696 
L 655.003914 143.820645 
L 656.744692 144.284572 
L 658.498962 144.878312 
L 662.047444 145.795461 
L 665.648277 147.379765 
L 669.300366 148.92427 
L 673.002599 150.759399 
L 674.872166 151.193163 
L 676.753846 151.194308 
L 678.647494 151.717624 
L 680.552966 152.497891 
L 682.470118 153.094069 
L 684.398802 153.847789 
L 688.290181 156.488055 
L 690.25258 157.86221 
L 692.225919 159.397971 
L 694.210049 160.492085 
L 696.204817 161.05736 
L 700.225663 163.185426 
L 702.251434 163.84932 
L 704.287231 165.035109 
L 706.3329 166.421965 
L 712.527576 170.122942 
L 714.611166 170.9151 
L 716.703842 171.482749 
L 718.805444 171.792879 
L 725.162202 171.871339 
L 727.297901 171.291357 
L 731.593494 169.656296 
L 733.75306 168.972523 
L 735.920254 168.411626 
L 738.094911 168.141057 
L 744.661998 168.216798 
L 746.864844 167.690103 
L 749.074319 166.614081 
L 751.290255 165.748811 
L 755.740833 163.489369 
L 757.975138 161.969021 
L 764.712066 156.753756 
L 769.229986 153.175665 
L 771.496421 150.972793 
L 773.76761 148.220582 
L 776.043379 144.866395 
L 778.323556 140.657573 
L 780.607965 135.267167 
L 782.896435 128.268573 
L 785.188789 119.130385 
L 787.484854 107.619295 
L 792.087417 82.261398 
L 794.393563 71.444511 
L 796.70272 66.989813 
L 799.01471 71.053182 
L 801.329358 85.740304 
L 803.646488 108.339424 
L 805.965923 135.121904 
L 808.287486 160.266231 
L 810.611 176.144503 
L 812.936289 183.946482 
L 815.263176 185.068354 
L 819.921034 180.470397 
L 822.25165 179.664581 
L 824.583154 180.719134 
L 826.915368 182.585955 
L 829.248116 184.923573 
L 836.247781 191.147081 
L 838.580884 192.687613 
L 840.913632 194.41285 
L 843.245846 195.965513 
L 845.57735 197.991918 
L 847.907966 200.784443 
L 850.237517 204.963228 
L 852.565824 210.280221 
L 854.892711 215.018041 
L 857.218 215.766835 
L 859.541514 210.012651 
L 861.863077 196.135602 
L 864.182512 178.723189 
L 866.499642 159.248444 
L 873.435437 92.518137 
L 875.741583 70.767338 
L 878.044545 52.224199 
L 880.344146 35.574226 
L 882.640211 21.215348 
L 884.932565 10.491504 
L 887.221035 3.098247 
L 889.505444 -0.950708 
L 891.785621 -0.877064 
L 894.06139 2.631104 
L 896.332579 9.141845 
L 898.599014 17.815727 
L 900.860523 27.332149 
L 903.116934 38.068129 
L 907.613775 61.482448 
L 909.853862 73.190471 
L 912.088167 83.757818 
L 914.316517 92.683201 
L 916.538745 100.722587 
L 918.754681 107.654646 
L 920.964156 114.018425 
L 923.167002 119.080982 
L 925.363051 122.440365 
L 927.552135 124.53014 
L 929.734089 125.728942 
L 931.908746 125.643361 
L 934.07594 124.719565 
L 936.235506 123.094224 
L 938.387281 120.691955 
L 940.531099 117.752609 
L 944.794215 110.597638 
L 946.913188 106.693393 
L 951.125158 98.143071 
L 955.301424 91.421147 
L 957.37577 88.426202 
L 959.440715 85.843805 
L 961.4961 83.568868 
L 965.577566 80.491631 
L 967.603337 79.693028 
L 969.618927 79.66372 
L 971.624183 80.016035 
L 973.618951 80.88875 
L 975.603081 82.444903 
L 977.57642 84.625555 
L 985.358882 94.577462 
L 987.276034 97.846376 
L 989.181506 101.746522 
L 991.075154 106.171915 
L 998.528634 124.774148 
L 1002.180723 132.184874 
L 1005.781556 138.831322 
L 1007.562409 141.930213 
L 1009.330038 144.563534 
L 1011.084308 146.581565 
L 1012.825086 148.128277 
L 1016.265636 150.549602 
L 1017.965146 151.609095 
L 1019.65064 152.383548 
L 1022.979067 153.249227 
L 1024.621746 153.417509 
L 1027.863413 152.993376 
L 1029.462152 152.482313 
L 1032.614835 151.311896 
L 1038.737682 149.435989 
L 1038.737682 149.435989 
" clip-path="url(#p032a7679c3)" style="fill: none; stroke-dasharray: 1.5,2.475; stroke-dashoffset: 0; stroke: #1f77b4; stroke-width: 1.5"/>
   </g>
   <g id="line2d_71">
    <path d="M 629.091318 150.143675 
L 632.122007 149.182409 
L 638.366848 148.435426 
L 639.965587 147.939977 
L 648.17836 144.157744 
L 649.863854 143.637083 
L 653.276761 143.591866 
L 655.003914 143.884802 
L 656.744692 144.352571 
L 658.498962 144.962095 
L 662.047444 145.958411 
L 673.002599 151.015499 
L 674.872166 151.419717 
L 676.753846 151.376074 
L 678.647494 151.861718 
L 680.552966 152.652177 
L 682.470118 153.254717 
L 684.398802 154.011654 
L 688.290181 156.619891 
L 690.25258 157.968917 
L 692.225919 159.512913 
L 694.210049 160.595845 
L 696.204817 161.154099 
L 700.225663 163.249806 
L 702.251434 163.920723 
L 704.287231 165.111487 
L 706.3329 166.505993 
L 712.527576 170.100505 
L 714.611166 170.820918 
L 716.703842 171.327699 
L 718.805444 171.5959 
L 723.034785 171.710315 
L 725.162202 171.532397 
L 727.297901 170.883736 
L 731.593494 169.113523 
L 733.75306 168.318201 
L 735.920254 167.644916 
L 738.094911 167.282832 
L 744.661998 167.039045 
L 746.864844 166.408913 
L 749.074319 165.29684 
L 751.290255 164.387422 
L 755.740833 162.008025 
L 769.229986 152.644043 
L 771.496421 150.65668 
L 773.76761 148.196115 
L 776.043379 145.071161 
L 778.323556 141.007412 
L 780.607965 135.607393 
L 782.896435 128.418075 
L 785.188789 119.043078 
L 787.484854 107.103463 
L 792.087417 80.600515 
L 794.393563 69.26197 
L 796.70272 64.615828 
L 799.01471 68.889411 
L 801.329358 84.097718 
L 803.646488 107.442458 
L 805.965923 134.948723 
L 808.287486 160.623509 
L 810.611 176.736519 
L 812.936289 184.577209 
L 815.263176 185.605907 
L 819.921034 180.797743 
L 822.25165 179.89346 
L 824.583154 180.884723 
L 826.915368 182.753603 
L 829.248116 185.165849 
L 831.581219 187.414344 
L 833.9145 189.863413 
L 836.247781 192.077472 
L 838.580884 194.020692 
L 843.245846 198.559055 
L 845.57735 201.531981 
L 847.907966 205.858375 
L 850.237517 212.115402 
L 852.565824 220.313313 
L 854.892711 229.14364 
L 857.218 234.750244 
L 859.541514 234.709457 
L 861.863077 227.552418 
L 864.182512 216.992987 
L 866.499642 204.485094 
L 875.741583 145.326437 
L 878.044545 133.294185 
L 880.344146 122.621006 
L 882.640211 113.741958 
L 884.932565 107.469733 
L 887.221035 103.179651 
L 889.505444 101.310389 
L 891.785621 102.506627 
L 894.06139 106.682557 
L 896.332579 113.587023 
L 898.599014 122.438512 
L 900.860523 132.044088 
L 905.368076 153.435006 
L 909.853862 175.362036 
L 912.088167 185.21544 
L 914.316517 193.720641 
L 916.538745 201.324091 
L 918.754681 207.76762 
L 920.964156 213.070518 
L 923.167002 216.93594 
L 925.363051 219.225415 
L 927.552135 220.43261 
L 929.734089 220.398027 
L 931.908746 219.395018 
L 934.07594 217.621751 
L 936.235506 215.142782 
L 938.387281 211.747563 
L 940.531099 207.776456 
L 942.666798 203.47141 
L 944.794215 198.765201 
L 946.913188 193.66951 
L 951.125158 182.713017 
L 953.217834 178.29867 
L 955.301424 174.180065 
L 957.37577 170.464166 
L 961.4961 163.76482 
L 965.577566 158.723819 
L 967.603337 156.815565 
L 969.618927 155.486321 
L 973.618951 153.366372 
L 975.603081 152.795695 
L 977.57642 152.691825 
L 979.538819 152.719212 
L 985.358882 152.118836 
L 987.276034 152.478969 
L 989.181506 153.406525 
L 991.075154 154.631997 
L 994.826401 157.927915 
L 996.683715 159.644255 
L 998.528634 161.007951 
L 1002.180723 162.97262 
L 1007.562409 165.37091 
L 1009.330038 165.948593 
L 1011.084308 166.097535 
L 1016.265636 165.139166 
L 1017.965146 164.766831 
L 1019.65064 164.269158 
L 1024.621746 162.218816 
L 1027.863413 160.22942 
L 1034.168539 155.745904 
L 1038.737682 153.120551 
L 1038.737682 153.120551 
" clip-path="url(#p032a7679c3)" style="fill: none; stroke: #bcbd22; stroke-width: 1.5; stroke-linecap: square"/>
   </g>
   <g id="line2d_72">
    <path d="M 608.609 150.14 
L 1059.22 150.14 
" clip-path="url(#p032a7679c3)" style="fill: none; stroke: #808080; stroke-width: 0.5; stroke-linecap: square"/>
   </g>
   <g id="line2d_73">
    <path d="M 629.091318 262.6 
L 629.091318 37.68 
" clip-path="url(#p032a7679c3)" style="fill: none; stroke: #808080; stroke-width: 0.5; stroke-linecap: square"/>
   </g>
   <g id="line2d_74">
    <path d="M 662.047444 262.6 
L 662.047444 37.68 
" clip-path="url(#p032a7679c3)" style="fill: none; stroke: #808080; stroke-width: 0.5; stroke-linecap: square"/>
   </g>
   <g id="line2d_75">
    <path d="M 700.225663 262.6 
L 700.225663 37.68 
" clip-path="url(#p032a7679c3)" style="fill: none; stroke: #808080; stroke-width: 0.5; stroke-linecap: square"/>
   </g>
   <g id="line2d_76">
    <path d="M 742.465949 262.6 
L 742.465949 37.68 
" clip-path="url(#p032a7679c3)" style="fill: none; stroke: #808080; stroke-width: 0.5; stroke-linecap: square"/>
   </g>
   <g id="line2d_77">
    <path d="M 787.484854 262.6 
L 787.484854 37.68 
" clip-path="url(#p032a7679c3)" style="fill: none; stroke: #808080; stroke-width: 0.5; stroke-linecap: square"/>
   </g>
   <g id="line2d_78">
    <path d="M 833.9145 262.6 
L 833.9145 37.68 
" clip-path="url(#p032a7679c3)" style="fill: none; stroke: #808080; stroke-width: 0.5; stroke-linecap: square"/>
   </g>
   <g id="line2d_79">
    <path d="M 880.344146 262.6 
L 880.344146 37.68 
" clip-path="url(#p032a7679c3)" style="fill: none; stroke: #808080; stroke-width: 0.5; stroke-linecap: square"/>
   </g>
   <g id="line2d_80">
    <path d="M 925.363051 262.6 
L 925.363051 37.68 
" clip-path="url(#p032a7679c3)" style="fill: none; stroke: #808080; stroke-width: 0.5; stroke-linecap: square"/>
   </g>
   <g id="line2d_81">
    <path d="M 967.603337 262.6 
L 967.603337 37.68 
" clip-path="url(#p032a7679c3)" style="fill: none; stroke: #808080; stroke-width: 0.5; stroke-linecap: square"/>
   </g>
   <g id="line2d_82">
    <path d="M 1005.781556 262.6 
L 1005.781556 37.68 
" clip-path="url(#p032a7679c3)" style="fill: none; stroke: #808080; stroke-width: 0.5; stroke-linecap: square"/>
   </g>
   <g id="line2d_83">
    <path d="M 1038.737682 262.6 
L 1038.737682 37.68 
" clip-path="url(#p032a7679c3)" style="fill: none; stroke: #808080; stroke-width: 0.5; stroke-linecap: square"/>
   </g>
   <g id="patch_13">
    <path d="M 608.609 262.6 
L 608.609 37.68 
" style="fill: none; stroke: #000000; stroke-width: 0.8; stroke-linejoin: miter; stroke-linecap: square"/>
   </g>
   <g id="patch_14">
    <path d="M 1059.22 262.6 
L 1059.22 37.68 
" style="fill: none; stroke: #000000; stroke-width: 0.8; stroke-linejoin: miter; stroke-linecap: square"/>
   </g>
   <g id="patch_15">
    <path d="M 608.609 262.6 
L 1059.22 262.6 
" style="fill: none; stroke: #000000; stroke-width: 0.8; stroke-linejoin: miter; stroke-linecap: square"/>
   </g>
   <g id="patch_16">
    <path d="M 608.609 37.68 
L 1059.22 37.68 
" style="fill: none; stroke: #000000; stroke-width: 0.8; stroke-linejoin: miter; stroke-linecap: square"/>
   </g>
   <g id="text_46">
    <!-- SEED$-$CTRL -->
    <g transform="translate(775.6425 31.68) scale(0.192 -0.192)">
     <use xlink:href="#DejaVuSans-53" transform="translate(0 0.78125)"/>
     <use xlink:href="#DejaVuSans-45" transform="translate(63.476562 0.78125)"/>
     <use xlink:href="#DejaVuSans-45" transform="translate(126.660156 0.78125)"/>
     <use xlink:href="#DejaVuSans-44" transform="translate(189.84375 0.78125)"/>
     <use xlink:href="#DejaVuSans-2212" transform="translate(266.845703 0.78125)"/>
     <use xlink:href="#DejaVuSans-43" transform="translate(350.634766 0.78125)"/>
     <use xlink:href="#DejaVuSans-54" transform="translate(420.458984 0.78125)"/>
     <use xlink:href="#DejaVuSans-52" transform="translate(481.542969 0.78125)"/>
     <use xlink:href="#DejaVuSans-4c" transform="translate(551.025391 0.78125)"/>
    </g>
   </g>
   <g id="text_47">
    <!-- (d) -->
    <g transform="translate(608.609 31.68) scale(0.192 -0.192)">
     <use xlink:href="#DejaVuSans-28"/>
     <use xlink:href="#DejaVuSans-64" transform="translate(39.013672 0)"/>
     <use xlink:href="#DejaVuSans-29" transform="translate(102.490234 0)"/>
    </g>
   </g>
   <g id="legend_2">
    <g id="patch_17">
     <path d="M 617.009 101.13375 
L 770.502125 101.13375 
Q 772.902125 101.13375 772.902125 98.73375 
L 772.902125 46.08 
Q 772.902125 43.68 770.502125 43.68 
L 617.009 43.68 
Q 614.609 43.68 614.609 46.08 
L 614.609 98.73375 
Q 614.609 101.13375 617.009 101.13375 
z
" style="fill: #ffffff; opacity: 0.8; stroke: #cccccc; stroke-linejoin: miter"/>
    </g>
    <g id="line2d_84">
     <path d="M 619.409 53.398125 
L 631.409 53.398125 
L 643.409 53.398125 
" style="fill: none; stroke: #1f77b4; stroke-width: 1.5; stroke-linecap: square"/>
    </g>
    <g id="text_48">
     <!-- U10 monthly mean -->
     <g transform="translate(653.009 57.598125) scale(0.12 -0.12)">
      <use xlink:href="#DejaVuSans-55"/>
      <use xlink:href="#DejaVuSans-31" transform="translate(73.193359 0)"/>
      <use xlink:href="#DejaVuSans-30" transform="translate(136.816406 0)"/>
      <use xlink:href="#DejaVuSans-20" transform="translate(200.439453 0)"/>
      <use xlink:href="#DejaVuSans-6d" transform="translate(232.226562 0)"/>
      <use xlink:href="#DejaVuSans-6f" transform="translate(329.638672 0)"/>
      <use xlink:href="#DejaVuSans-6e" transform="translate(390.820312 0)"/>
      <use xlink:href="#DejaVuSans-74" transform="translate(454.199219 0)"/>
      <use xlink:href="#DejaVuSans-68" transform="translate(493.408203 0)"/>
      <use xlink:href="#DejaVuSans-6c" transform="translate(556.787109 0)"/>
      <use xlink:href="#DejaVuSans-79" transform="translate(584.570312 0)"/>
      <use xlink:href="#DejaVuSans-20" transform="translate(643.75 0)"/>
      <use xlink:href="#DejaVuSans-6d" transform="translate(675.537109 0)"/>
      <use xlink:href="#DejaVuSans-65" transform="translate(772.949219 0)"/>
      <use xlink:href="#DejaVuSans-61" transform="translate(834.472656 0)"/>
      <use xlink:href="#DejaVuSans-6e" transform="translate(895.751953 0)"/>
     </g>
    </g>
    <g id="line2d_85">
     <path d="M 619.409 71.13375 
L 631.409 71.13375 
L 643.409 71.13375 
" style="fill: none; stroke-dasharray: 1.5,2.475; stroke-dashoffset: 0; stroke: #1f77b4; stroke-width: 1.5"/>
    </g>
    <g id="text_49">
     <!-- $|U|_{bot}$ -->
     <g transform="translate(653.009 75.33375) scale(0.12 -0.12)">
      <use xlink:href="#DejaVuSans-7c" transform="translate(0 0.578125)"/>
      <use xlink:href="#DejaVuSans-Oblique-55" transform="translate(33.691406 0.578125)"/>
      <use xlink:href="#DejaVuSans-7c" transform="translate(106.884766 0.578125)"/>
      <use xlink:href="#DejaVuSans-Oblique-62" transform="translate(141.533203 -15.828125) scale(0.7)"/>
      <use xlink:href="#DejaVuSans-Oblique-6f" transform="translate(185.966797 -15.828125) scale(0.7)"/>
      <use xlink:href="#DejaVuSans-Oblique-74" transform="translate(228.793945 -15.828125) scale(0.7)"/>
     </g>
    </g>
    <g id="line2d_86">
     <path d="M 619.409 89.25375 
L 631.409 89.25375 
L 643.409 89.25375 
" style="fill: none; stroke: #bcbd22; stroke-width: 1.5; stroke-linecap: square"/>
    </g>
    <g id="text_50">
     <!-- $|U|_{bot}$ non-TC -->
     <g transform="translate(653.009 93.45375) scale(0.12 -0.12)">
      <use xlink:href="#DejaVuSans-7c" transform="translate(0 0.578125)"/>
      <use xlink:href="#DejaVuSans-Oblique-55" transform="translate(33.691406 0.578125)"/>
      <use xlink:href="#DejaVuSans-7c" transform="translate(106.884766 0.578125)"/>
      <use xlink:href="#DejaVuSans-Oblique-62" transform="translate(141.533203 -15.828125) scale(0.7)"/>
      <use xlink:href="#DejaVuSans-Oblique-6f" transform="translate(185.966797 -15.828125) scale(0.7)"/>
      <use xlink:href="#DejaVuSans-Oblique-74" transform="translate(228.793945 -15.828125) scale(0.7)"/>
      <use xlink:href="#DejaVuSans-20" transform="translate(258.974609 0.578125)"/>
      <use xlink:href="#DejaVuSans-6e" transform="translate(290.761719 0.578125)"/>
      <use xlink:href="#DejaVuSans-6f" transform="translate(354.140625 0.578125)"/>
      <use xlink:href="#DejaVuSans-6e" transform="translate(415.322266 0.578125)"/>
      <use xlink:href="#DejaVuSans-2d" transform="translate(478.701172 0.578125)"/>
      <use xlink:href="#DejaVuSans-54" transform="translate(514.785156 0.578125)"/>
      <use xlink:href="#DejaVuSans-43" transform="translate(575.869141 0.578125)"/>
     </g>
    </g>
   </g>
  </g>
 </g>
 <defs>
  <clipPath id="p45685012a2">
   <rect x="72.164" y="37.68" width="450.611" height="224.92"/>
  </clipPath>
  <clipPath id="p032a7679c3">
   <rect x="608.609" y="37.68" width="450.611" height="224.92"/>
  </clipPath>
 </defs>
</svg>
