<?xml version="1.0" encoding="utf-8" standalone="no"?>
<!DOCTYPE svg PUBLIC "-//W3C//DTD SVG 1.1//EN"
  "http://www.w3.org/Graphics/SVG/1.1/DTD/svg11.dtd">
<svg xmlns:xlink="http://www.w3.org/1999/xlink" width="1152pt" height="288pt" viewBox="0 0 1152 288" xmlns="http://www.w3.org/2000/svg" version="1.1">
 <metadata>
  <rdf:RDF xmlns:dc="http://purl.org/dc/elements/1.1/" xmlns:cc="http://creativecommons.org/ns#" xmlns:rdf="http://www.w3.org/1999/02/22-rdf-syntax-ns#">
   <cc:Work>
    <dc:type rdf:resource="http://purl.org/dc/dcmitype/StillImage"/>
    <dc:date>2025-10-27T15:02:40.052035</dc:date>
    <dc:format>image/svg+xml</dc:format>
    <dc:creator>
     <cc:Agent>
      <dc:title>Matplotlib v3.10.0, https://matplotlib.org/</dc:title>
     </cc:Agent>
    </dc:creator>
   </cc:Work>
  </rdf:RDF>
 </metadata>
 <defs>
  <style type="text/css">*{stroke-linejoin: round; stroke-linecap: butt}</style>
 </defs>
 <g id="figure_1">
  <g id="patch_1">
   <path d="M 0 288 
L 1152 288 
L 1152 0 
L 0 0 
z
" style="fill: #ffffff"/>
  </g>
  <g id="axes_1">
   <g id="patch_2">
    <path d="M 67.62899 246.90101 
L 370.97258 246.90101 
L 370.97258 21.917584 
L 67.62899 21.917584 
z
" style="fill: #ffffff"/>
   </g>
   <g id="matplotlib.axis_1">
    <g id="xtick_1">
     <g id="line2d_1">
      <defs>
       <path id="m37657ca84e" d="M 0 0 
L 0 3.5 
" style="stroke: #000000; stroke-width: 0.8"/>
      </defs>
      <g>
       <use xlink:href="#m37657ca84e" x="67.62899" y="246.90101" style="stroke: #000000; stroke-width: 0.8"/>
      </g>
     </g>
     <g id="text_1">
      <!-- -90 -->
      <g transform="translate(56.196021 264.538822) scale(0.14 -0.14)">
       <defs>
        <path id="DejaVuSans-2d" d="M 313 2009 
L 1997 2009 
L 1997 1497 
L 313 1497 
L 313 2009 
z
" transform="scale(0.015625)"/>
        <path id="DejaVuSans-39" d="M 703 97 
L 703 672 
Q 941 559 1184 500 
Q 1428 441 1663 441 
Q 2288 441 2617 861 
Q 2947 1281 2994 2138 
Q 2813 1869 2534 1725 
Q 2256 1581 1919 1581 
Q 1219 1581 811 2004 
Q 403 2428 403 3163 
Q 403 3881 828 4315 
Q 1253 4750 1959 4750 
Q 2769 4750 3195 4129 
Q 3622 3509 3622 2328 
Q 3622 1225 3098 567 
Q 2575 -91 1691 -91 
Q 1453 -91 1209 -44 
Q 966 3 703 97 
z
M 1959 2075 
Q 2384 2075 2632 2365 
Q 2881 2656 2881 3163 
Q 2881 3666 2632 3958 
Q 2384 4250 1959 4250 
Q 1534 4250 1286 3958 
Q 1038 3666 1038 3163 
Q 1038 2656 1286 2365 
Q 1534 2075 1959 2075 
z
" transform="scale(0.015625)"/>
        <path id="DejaVuSans-30" d="M 2034 4250 
Q 1547 4250 1301 3770 
Q 1056 3291 1056 2328 
Q 1056 1369 1301 889 
Q 1547 409 2034 409 
Q 2525 409 2770 889 
Q 3016 1369 3016 2328 
Q 3016 3291 2770 3770 
Q 2525 4250 2034 4250 
z
M 2034 4750 
Q 2819 4750 3233 4129 
Q 3647 3509 3647 2328 
Q 3647 1150 3233 529 
Q 2819 -91 2034 -91 
Q 1250 -91 836 529 
Q 422 1150 422 2328 
Q 422 3509 836 4129 
Q 1250 4750 2034 4750 
z
" transform="scale(0.015625)"/>
       </defs>
       <use xlink:href="#DejaVuSans-2d"/>
       <use xlink:href="#DejaVuSans-39" transform="translate(36.083984 0)"/>
       <use xlink:href="#DejaVuSans-30" transform="translate(99.707031 0)"/>
      </g>
     </g>
    </g>
    <g id="xtick_2">
     <g id="line2d_2">
      <g>
       <use xlink:href="#m37657ca84e" x="87.949157" y="246.90101" style="stroke: #000000; stroke-width: 0.8"/>
      </g>
     </g>
     <g id="text_2">
      <!-- -60 -->
      <g transform="translate(76.516189 264.538822) scale(0.14 -0.14)">
       <defs>
        <path id="DejaVuSans-36" d="M 2113 2584 
Q 1688 2584 1439 2293 
Q 1191 2003 1191 1497 
Q 1191 994 1439 701 
Q 1688 409 2113 409 
Q 2538 409 2786 701 
Q 3034 994 3034 1497 
Q 3034 2003 2786 2293 
Q 2538 2584 2113 2584 
z
M 3366 4563 
L 3366 3988 
Q 3128 4100 2886 4159 
Q 2644 4219 2406 4219 
Q 1781 4219 1451 3797 
Q 1122 3375 1075 2522 
Q 1259 2794 1537 2939 
Q 1816 3084 2150 3084 
Q 2853 3084 3261 2657 
Q 3669 2231 3669 1497 
Q 3669 778 3244 343 
Q 2819 -91 2113 -91 
Q 1303 -91 875 529 
Q 447 1150 447 2328 
Q 447 3434 972 4092 
Q 1497 4750 2381 4750 
Q 2619 4750 2861 4703 
Q 3103 4656 3366 4563 
z
" transform="scale(0.015625)"/>
       </defs>
       <use xlink:href="#DejaVuSans-2d"/>
       <use xlink:href="#DejaVuSans-36" transform="translate(36.083984 0)"/>
       <use xlink:href="#DejaVuSans-30" transform="translate(99.707031 0)"/>
      </g>
     </g>
    </g>
    <g id="xtick_3">
     <g id="line2d_3">
      <g>
       <use xlink:href="#m37657ca84e" x="143.464887" y="246.90101" style="stroke: #000000; stroke-width: 0.8"/>
      </g>
     </g>
     <g id="text_3">
      <!-- -30 -->
      <g transform="translate(132.031919 264.538822) scale(0.14 -0.14)">
       <defs>
        <path id="DejaVuSans-33" d="M 2597 2516 
Q 3050 2419 3304 2112 
Q 3559 1806 3559 1356 
Q 3559 666 3084 287 
Q 2609 -91 1734 -91 
Q 1441 -91 1130 -33 
Q 819 25 488 141 
L 488 750 
Q 750 597 1062 519 
Q 1375 441 1716 441 
Q 2309 441 2620 675 
Q 2931 909 2931 1356 
Q 2931 1769 2642 2001 
Q 2353 2234 1838 2234 
L 1294 2234 
L 1294 2753 
L 1863 2753 
Q 2328 2753 2575 2939 
Q 2822 3125 2822 3475 
Q 2822 3834 2567 4026 
Q 2313 4219 1838 4219 
Q 1578 4219 1281 4162 
Q 984 4106 628 3988 
L 628 4550 
Q 988 4650 1302 4700 
Q 1616 4750 1894 4750 
Q 2613 4750 3031 4423 
Q 3450 4097 3450 3541 
Q 3450 3153 3228 2886 
Q 3006 2619 2597 2516 
z
" transform="scale(0.015625)"/>
       </defs>
       <use xlink:href="#DejaVuSans-2d"/>
       <use xlink:href="#DejaVuSans-33" transform="translate(36.083984 0)"/>
       <use xlink:href="#DejaVuSans-30" transform="translate(99.707031 0)"/>
      </g>
     </g>
    </g>
    <g id="xtick_4">
     <g id="line2d_4">
      <g>
       <use xlink:href="#m37657ca84e" x="219.300785" y="246.90101" style="stroke: #000000; stroke-width: 0.8"/>
      </g>
     </g>
     <g id="text_4">
      <!-- 0 -->
      <g transform="translate(214.847035 264.538822) scale(0.14 -0.14)">
       <use xlink:href="#DejaVuSans-30"/>
      </g>
     </g>
    </g>
    <g id="xtick_5">
     <g id="line2d_5">
      <g>
       <use xlink:href="#m37657ca84e" x="295.136682" y="246.90101" style="stroke: #000000; stroke-width: 0.8"/>
      </g>
     </g>
     <g id="text_5">
      <!-- 30 -->
      <g transform="translate(286.229182 264.538822) scale(0.14 -0.14)">
       <use xlink:href="#DejaVuSans-33"/>
       <use xlink:href="#DejaVuSans-30" transform="translate(63.623047 0)"/>
      </g>
     </g>
    </g>
    <g id="xtick_6">
     <g id="line2d_6">
      <g>
       <use xlink:href="#m37657ca84e" x="350.652413" y="246.90101" style="stroke: #000000; stroke-width: 0.8"/>
      </g>
     </g>
     <g id="text_6">
      <!-- 60 -->
      <g transform="translate(341.744913 264.538822) scale(0.14 -0.14)">
       <use xlink:href="#DejaVuSans-36"/>
       <use xlink:href="#DejaVuSans-30" transform="translate(63.623047 0)"/>
      </g>
     </g>
    </g>
    <g id="xtick_7">
     <g id="line2d_7">
      <g>
       <use xlink:href="#m37657ca84e" x="370.97258" y="246.90101" style="stroke: #000000; stroke-width: 0.8"/>
      </g>
     </g>
     <g id="text_7">
      <!-- 90 -->
      <g transform="translate(362.06508 264.538822) scale(0.14 -0.14)">
       <use xlink:href="#DejaVuSans-39"/>
       <use xlink:href="#DejaVuSans-30" transform="translate(63.623047 0)"/>
      </g>
     </g>
    </g>
    <g id="text_8">
     <!-- Latitude [°] -->
     <g transform="translate(179.303441 282.088197) scale(0.14 -0.14)">
      <defs>
       <path id="DejaVuSans-4c" d="M 628 4666 
L 1259 4666 
L 1259 531 
L 3531 531 
L 3531 0 
L 628 0 
L 628 4666 
z
" transform="scale(0.015625)"/>
       <path id="DejaVuSans-61" d="M 2194 1759 
Q 1497 1759 1228 1600 
Q 959 1441 959 1056 
Q 959 750 1161 570 
Q 1363 391 1709 391 
Q 2188 391 2477 730 
Q 2766 1069 2766 1631 
L 2766 1759 
L 2194 1759 
z
M 3341 1997 
L 3341 0 
L 2766 0 
L 2766 531 
Q 2569 213 2275 61 
Q 1981 -91 1556 -91 
Q 1019 -91 701 211 
Q 384 513 384 1019 
Q 384 1609 779 1909 
Q 1175 2209 1959 2209 
L 2766 2209 
L 2766 2266 
Q 2766 2663 2505 2880 
Q 2244 3097 1772 3097 
Q 1472 3097 1187 3025 
Q 903 2953 641 2809 
L 641 3341 
Q 956 3463 1253 3523 
Q 1550 3584 1831 3584 
Q 2591 3584 2966 3190 
Q 3341 2797 3341 1997 
z
" transform="scale(0.015625)"/>
       <path id="DejaVuSans-74" d="M 1172 4494 
L 1172 3500 
L 2356 3500 
L 2356 3053 
L 1172 3053 
L 1172 1153 
Q 1172 725 1289 603 
Q 1406 481 1766 481 
L 2356 481 
L 2356 0 
L 1766 0 
Q 1100 0 847 248 
Q 594 497 594 1153 
L 594 3053 
L 172 3053 
L 172 3500 
L 594 3500 
L 594 4494 
L 1172 4494 
z
" transform="scale(0.015625)"/>
       <path id="DejaVuSans-69" d="M 603 3500 
L 1178 3500 
L 1178 0 
L 603 0 
L 603 3500 
z
M 603 4863 
L 1178 4863 
L 1178 4134 
L 603 4134 
L 603 4863 
z
" transform="scale(0.015625)"/>
       <path id="DejaVuSans-75" d="M 544 1381 
L 544 3500 
L 1119 3500 
L 1119 1403 
Q 1119 906 1312 657 
Q 1506 409 1894 409 
Q 2359 409 2629 706 
Q 2900 1003 2900 1516 
L 2900 3500 
L 3475 3500 
L 3475 0 
L 2900 0 
L 2900 538 
Q 2691 219 2414 64 
Q 2138 -91 1772 -91 
Q 1169 -91 856 284 
Q 544 659 544 1381 
z
M 1991 3584 
L 1991 3584 
z
" transform="scale(0.015625)"/>
       <path id="DejaVuSans-64" d="M 2906 2969 
L 2906 4863 
L 3481 4863 
L 3481 0 
L 2906 0 
L 2906 525 
Q 2725 213 2448 61 
Q 2172 -91 1784 -91 
Q 1150 -91 751 415 
Q 353 922 353 1747 
Q 353 2572 751 3078 
Q 1150 3584 1784 3584 
Q 2172 3584 2448 3432 
Q 2725 3281 2906 2969 
z
M 947 1747 
Q 947 1113 1208 752 
Q 1469 391 1925 391 
Q 2381 391 2643 752 
Q 2906 1113 2906 1747 
Q 2906 2381 2643 2742 
Q 2381 3103 1925 3103 
Q 1469 3103 1208 2742 
Q 947 2381 947 1747 
z
" transform="scale(0.015625)"/>
       <path id="DejaVuSans-65" d="M 3597 1894 
L 3597 1613 
L 953 1613 
Q 991 1019 1311 708 
Q 1631 397 2203 397 
Q 2534 397 2845 478 
Q 3156 559 3463 722 
L 3463 178 
Q 3153 47 2828 -22 
Q 2503 -91 2169 -91 
Q 1331 -91 842 396 
Q 353 884 353 1716 
Q 353 2575 817 3079 
Q 1281 3584 2069 3584 
Q 2775 3584 3186 3129 
Q 3597 2675 3597 1894 
z
M 3022 2063 
Q 3016 2534 2758 2815 
Q 2500 3097 2075 3097 
Q 1594 3097 1305 2825 
Q 1016 2553 972 2059 
L 3022 2063 
z
" transform="scale(0.015625)"/>
       <path id="DejaVuSans-20" transform="scale(0.015625)"/>
       <path id="DejaVuSans-5b" d="M 550 4863 
L 1875 4863 
L 1875 4416 
L 1125 4416 
L 1125 -397 
L 1875 -397 
L 1875 -844 
L 550 -844 
L 550 4863 
z
" transform="scale(0.015625)"/>
       <path id="DejaVuSans-b0" d="M 1600 4347 
Q 1350 4347 1178 4173 
Q 1006 4000 1006 3750 
Q 1006 3503 1178 3333 
Q 1350 3163 1600 3163 
Q 1850 3163 2022 3333 
Q 2194 3503 2194 3750 
Q 2194 3997 2020 4172 
Q 1847 4347 1600 4347 
z
M 1600 4750 
Q 1800 4750 1984 4673 
Q 2169 4597 2303 4453 
Q 2447 4313 2519 4134 
Q 2591 3956 2591 3750 
Q 2591 3338 2302 3052 
Q 2013 2766 1594 2766 
Q 1172 2766 890 3047 
Q 609 3328 609 3750 
Q 609 4169 896 4459 
Q 1184 4750 1600 4750 
z
" transform="scale(0.015625)"/>
       <path id="DejaVuSans-5d" d="M 1947 4863 
L 1947 -844 
L 622 -844 
L 622 -397 
L 1369 -397 
L 1369 4416 
L 622 4416 
L 622 4863 
L 1947 4863 
z
" transform="scale(0.015625)"/>
      </defs>
      <use xlink:href="#DejaVuSans-4c"/>
      <use xlink:href="#DejaVuSans-61" transform="translate(55.712891 0)"/>
      <use xlink:href="#DejaVuSans-74" transform="translate(116.992188 0)"/>
      <use xlink:href="#DejaVuSans-69" transform="translate(156.201172 0)"/>
      <use xlink:href="#DejaVuSans-74" transform="translate(183.984375 0)"/>
      <use xlink:href="#DejaVuSans-75" transform="translate(223.193359 0)"/>
      <use xlink:href="#DejaVuSans-64" transform="translate(286.572266 0)"/>
      <use xlink:href="#DejaVuSans-65" transform="translate(350.048828 0)"/>
      <use xlink:href="#DejaVuSans-20" transform="translate(411.572266 0)"/>
      <use xlink:href="#DejaVuSans-5b" transform="translate(443.359375 0)"/>
      <use xlink:href="#DejaVuSans-b0" transform="translate(482.373047 0)"/>
      <use xlink:href="#DejaVuSans-5d" transform="translate(532.373047 0)"/>
     </g>
    </g>
   </g>
   <g id="matplotlib.axis_2">
    <g id="ytick_1">
     <g id="line2d_8">
      <defs>
       <path id="m583a7177c8" d="M 0 0 
L -3.5 0 
" style="stroke: #000000; stroke-width: 0.8"/>
      </defs>
      <g>
       <use xlink:href="#m583a7177c8" x="67.62899" y="236.674491" style="stroke: #000000; stroke-width: 0.8"/>
      </g>
     </g>
     <g id="line2d_9">
      <defs>
       <path id="ma062da7036" d="M 0 0 
L 3.5 0 
" style="stroke: #000000; stroke-width: 0.8"/>
      </defs>
      <g>
       <use xlink:href="#ma062da7036" x="370.97258" y="236.674491" style="stroke: #000000; stroke-width: 0.8"/>
      </g>
     </g>
     <g id="text_9">
      <!-- 0.000 -->
      <g transform="translate(20.549615 241.993397) scale(0.14 -0.14)">
       <defs>
        <path id="DejaVuSans-2e" d="M 684 794 
L 1344 794 
L 1344 0 
L 684 0 
L 684 794 
z
" transform="scale(0.015625)"/>
       </defs>
       <use xlink:href="#DejaVuSans-30"/>
       <use xlink:href="#DejaVuSans-2e" transform="translate(63.623047 0)"/>
       <use xlink:href="#DejaVuSans-30" transform="translate(95.410156 0)"/>
       <use xlink:href="#DejaVuSans-30" transform="translate(159.033203 0)"/>
       <use xlink:href="#DejaVuSans-30" transform="translate(222.65625 0)"/>
      </g>
     </g>
    </g>
    <g id="ytick_2">
     <g id="line2d_10">
      <g>
       <use xlink:href="#m583a7177c8" x="67.62899" y="206.621632" style="stroke: #000000; stroke-width: 0.8"/>
      </g>
     </g>
     <g id="line2d_11">
      <g>
       <use xlink:href="#ma062da7036" x="370.97258" y="206.621632" style="stroke: #000000; stroke-width: 0.8"/>
      </g>
     </g>
     <g id="text_10">
      <!-- 0.025 -->
      <g transform="translate(20.549615 211.940539) scale(0.14 -0.14)">
       <defs>
        <path id="DejaVuSans-32" d="M 1228 531 
L 3431 531 
L 3431 0 
L 469 0 
L 469 531 
Q 828 903 1448 1529 
Q 2069 2156 2228 2338 
Q 2531 2678 2651 2914 
Q 2772 3150 2772 3378 
Q 2772 3750 2511 3984 
Q 2250 4219 1831 4219 
Q 1534 4219 1204 4116 
Q 875 4013 500 3803 
L 500 4441 
Q 881 4594 1212 4672 
Q 1544 4750 1819 4750 
Q 2544 4750 2975 4387 
Q 3406 4025 3406 3419 
Q 3406 3131 3298 2873 
Q 3191 2616 2906 2266 
Q 2828 2175 2409 1742 
Q 1991 1309 1228 531 
z
" transform="scale(0.015625)"/>
        <path id="DejaVuSans-35" d="M 691 4666 
L 3169 4666 
L 3169 4134 
L 1269 4134 
L 1269 2991 
Q 1406 3038 1543 3061 
Q 1681 3084 1819 3084 
Q 2600 3084 3056 2656 
Q 3513 2228 3513 1497 
Q 3513 744 3044 326 
Q 2575 -91 1722 -91 
Q 1428 -91 1123 -41 
Q 819 9 494 109 
L 494 744 
Q 775 591 1075 516 
Q 1375 441 1709 441 
Q 2250 441 2565 725 
Q 2881 1009 2881 1497 
Q 2881 1984 2565 2268 
Q 2250 2553 1709 2553 
Q 1456 2553 1204 2497 
Q 953 2441 691 2322 
L 691 4666 
z
" transform="scale(0.015625)"/>
       </defs>
       <use xlink:href="#DejaVuSans-30"/>
       <use xlink:href="#DejaVuSans-2e" transform="translate(63.623047 0)"/>
       <use xlink:href="#DejaVuSans-30" transform="translate(95.410156 0)"/>
       <use xlink:href="#DejaVuSans-32" transform="translate(159.033203 0)"/>
       <use xlink:href="#DejaVuSans-35" transform="translate(222.65625 0)"/>
      </g>
     </g>
    </g>
    <g id="ytick_3">
     <g id="line2d_12">
      <g>
       <use xlink:href="#m583a7177c8" x="67.62899" y="176.568774" style="stroke: #000000; stroke-width: 0.8"/>
      </g>
     </g>
     <g id="line2d_13">
      <g>
       <use xlink:href="#ma062da7036" x="370.97258" y="176.568774" style="stroke: #000000; stroke-width: 0.8"/>
      </g>
     </g>
     <g id="text_11">
      <!-- 0.050 -->
      <g transform="translate(20.549615 181.88768) scale(0.14 -0.14)">
       <use xlink:href="#DejaVuSans-30"/>
       <use xlink:href="#DejaVuSans-2e" transform="translate(63.623047 0)"/>
       <use xlink:href="#DejaVuSans-30" transform="translate(95.410156 0)"/>
       <use xlink:href="#DejaVuSans-35" transform="translate(159.033203 0)"/>
       <use xlink:href="#DejaVuSans-30" transform="translate(222.65625 0)"/>
      </g>
     </g>
    </g>
    <g id="ytick_4">
     <g id="line2d_14">
      <g>
       <use xlink:href="#m583a7177c8" x="67.62899" y="146.515916" style="stroke: #000000; stroke-width: 0.8"/>
      </g>
     </g>
     <g id="line2d_15">
      <g>
       <use xlink:href="#ma062da7036" x="370.97258" y="146.515916" style="stroke: #000000; stroke-width: 0.8"/>
      </g>
     </g>
     <g id="text_12">
      <!-- 0.075 -->
      <g transform="translate(20.549615 151.834822) scale(0.14 -0.14)">
       <defs>
        <path id="DejaVuSans-37" d="M 525 4666 
L 3525 4666 
L 3525 4397 
L 1831 0 
L 1172 0 
L 2766 4134 
L 525 4134 
L 525 4666 
z
" transform="scale(0.015625)"/>
       </defs>
       <use xlink:href="#DejaVuSans-30"/>
       <use xlink:href="#DejaVuSans-2e" transform="translate(63.623047 0)"/>
       <use xlink:href="#DejaVuSans-30" transform="translate(95.410156 0)"/>
       <use xlink:href="#DejaVuSans-37" transform="translate(159.033203 0)"/>
       <use xlink:href="#DejaVuSans-35" transform="translate(222.65625 0)"/>
      </g>
     </g>
    </g>
    <g id="ytick_5">
     <g id="line2d_16">
      <g>
       <use xlink:href="#m583a7177c8" x="67.62899" y="116.463057" style="stroke: #000000; stroke-width: 0.8"/>
      </g>
     </g>
     <g id="line2d_17">
      <g>
       <use xlink:href="#ma062da7036" x="370.97258" y="116.463057" style="stroke: #000000; stroke-width: 0.8"/>
      </g>
     </g>
     <g id="text_13">
      <!-- 0.100 -->
      <g transform="translate(20.549615 121.781964) scale(0.14 -0.14)">
       <defs>
        <path id="DejaVuSans-31" d="M 794 531 
L 1825 531 
L 1825 4091 
L 703 3866 
L 703 4441 
L 1819 4666 
L 2450 4666 
L 2450 531 
L 3481 531 
L 3481 0 
L 794 0 
L 794 531 
z
" transform="scale(0.015625)"/>
       </defs>
       <use xlink:href="#DejaVuSans-30"/>
       <use xlink:href="#DejaVuSans-2e" transform="translate(63.623047 0)"/>
       <use xlink:href="#DejaVuSans-31" transform="translate(95.410156 0)"/>
       <use xlink:href="#DejaVuSans-30" transform="translate(159.033203 0)"/>
       <use xlink:href="#DejaVuSans-30" transform="translate(222.65625 0)"/>
      </g>
     </g>
    </g>
    <g id="ytick_6">
     <g id="line2d_18">
      <g>
       <use xlink:href="#m583a7177c8" x="67.62899" y="86.410199" style="stroke: #000000; stroke-width: 0.8"/>
      </g>
     </g>
     <g id="line2d_19">
      <g>
       <use xlink:href="#ma062da7036" x="370.97258" y="86.410199" style="stroke: #000000; stroke-width: 0.8"/>
      </g>
     </g>
     <g id="text_14">
      <!-- 0.125 -->
      <g transform="translate(20.549615 91.729105) scale(0.14 -0.14)">
       <use xlink:href="#DejaVuSans-30"/>
       <use xlink:href="#DejaVuSans-2e" transform="translate(63.623047 0)"/>
       <use xlink:href="#DejaVuSans-31" transform="translate(95.410156 0)"/>
       <use xlink:href="#DejaVuSans-32" transform="translate(159.033203 0)"/>
       <use xlink:href="#DejaVuSans-35" transform="translate(222.65625 0)"/>
      </g>
     </g>
    </g>
    <g id="ytick_7">
     <g id="line2d_20">
      <g>
       <use xlink:href="#m583a7177c8" x="67.62899" y="56.357341" style="stroke: #000000; stroke-width: 0.8"/>
      </g>
     </g>
     <g id="line2d_21">
      <g>
       <use xlink:href="#ma062da7036" x="370.97258" y="56.357341" style="stroke: #000000; stroke-width: 0.8"/>
      </g>
     </g>
     <g id="text_15">
      <!-- 0.150 -->
      <g transform="translate(20.549615 61.676247) scale(0.14 -0.14)">
       <use xlink:href="#DejaVuSans-30"/>
       <use xlink:href="#DejaVuSans-2e" transform="translate(63.623047 0)"/>
       <use xlink:href="#DejaVuSans-31" transform="translate(95.410156 0)"/>
       <use xlink:href="#DejaVuSans-35" transform="translate(159.033203 0)"/>
       <use xlink:href="#DejaVuSans-30" transform="translate(222.65625 0)"/>
      </g>
     </g>
    </g>
    <g id="ytick_8">
     <g id="line2d_22">
      <g>
       <use xlink:href="#m583a7177c8" x="67.62899" y="26.304482" style="stroke: #000000; stroke-width: 0.8"/>
      </g>
     </g>
     <g id="line2d_23">
      <g>
       <use xlink:href="#ma062da7036" x="370.97258" y="26.304482" style="stroke: #000000; stroke-width: 0.8"/>
      </g>
     </g>
     <g id="text_16">
      <!-- 0.175 -->
      <g transform="translate(20.549615 31.623389) scale(0.14 -0.14)">
       <use xlink:href="#DejaVuSans-30"/>
       <use xlink:href="#DejaVuSans-2e" transform="translate(63.623047 0)"/>
       <use xlink:href="#DejaVuSans-31" transform="translate(95.410156 0)"/>
       <use xlink:href="#DejaVuSans-37" transform="translate(159.033203 0)"/>
       <use xlink:href="#DejaVuSans-35" transform="translate(222.65625 0)"/>
      </g>
     </g>
    </g>
    <g id="text_17">
     <!-- TC $r_4$ fractional area -->
     <g transform="translate(13.638053 205.389297) rotate(-90) scale(0.14 -0.14)">
      <defs>
       <path id="DejaVuSans-54" d="M -19 4666 
L 3928 4666 
L 3928 4134 
L 2272 4134 
L 2272 0 
L 1638 0 
L 1638 4134 
L -19 4134 
L -19 4666 
z
" transform="scale(0.015625)"/>
       <path id="DejaVuSans-43" d="M 4122 4306 
L 4122 3641 
Q 3803 3938 3442 4084 
Q 3081 4231 2675 4231 
Q 1875 4231 1450 3742 
Q 1025 3253 1025 2328 
Q 1025 1406 1450 917 
Q 1875 428 2675 428 
Q 3081 428 3442 575 
Q 3803 722 4122 1019 
L 4122 359 
Q 3791 134 3420 21 
Q 3050 -91 2638 -91 
Q 1578 -91 968 557 
Q 359 1206 359 2328 
Q 359 3453 968 4101 
Q 1578 4750 2638 4750 
Q 3056 4750 3426 4639 
Q 3797 4528 4122 4306 
z
" transform="scale(0.015625)"/>
       <path id="DejaVuSans-Oblique-72" d="M 2853 2969 
Q 2766 3016 2653 3041 
Q 2541 3066 2413 3066 
Q 1953 3066 1609 2717 
Q 1266 2369 1153 1784 
L 800 0 
L 225 0 
L 909 3500 
L 1484 3500 
L 1375 2956 
Q 1603 3259 1920 3421 
Q 2238 3584 2597 3584 
Q 2691 3584 2781 3573 
Q 2872 3563 2963 3538 
L 2853 2969 
z
" transform="scale(0.015625)"/>
       <path id="DejaVuSans-34" d="M 2419 4116 
L 825 1625 
L 2419 1625 
L 2419 4116 
z
M 2253 4666 
L 3047 4666 
L 3047 1625 
L 3713 1625 
L 3713 1100 
L 3047 1100 
L 3047 0 
L 2419 0 
L 2419 1100 
L 313 1100 
L 313 1709 
L 2253 4666 
z
" transform="scale(0.015625)"/>
       <path id="DejaVuSans-66" d="M 2375 4863 
L 2375 4384 
L 1825 4384 
Q 1516 4384 1395 4259 
Q 1275 4134 1275 3809 
L 1275 3500 
L 2222 3500 
L 2222 3053 
L 1275 3053 
L 1275 0 
L 697 0 
L 697 3053 
L 147 3053 
L 147 3500 
L 697 3500 
L 697 3744 
Q 697 4328 969 4595 
Q 1241 4863 1831 4863 
L 2375 4863 
z
" transform="scale(0.015625)"/>
       <path id="DejaVuSans-72" d="M 2631 2963 
Q 2534 3019 2420 3045 
Q 2306 3072 2169 3072 
Q 1681 3072 1420 2755 
Q 1159 2438 1159 1844 
L 1159 0 
L 581 0 
L 581 3500 
L 1159 3500 
L 1159 2956 
Q 1341 3275 1631 3429 
Q 1922 3584 2338 3584 
Q 2397 3584 2469 3576 
Q 2541 3569 2628 3553 
L 2631 2963 
z
" transform="scale(0.015625)"/>
       <path id="DejaVuSans-63" d="M 3122 3366 
L 3122 2828 
Q 2878 2963 2633 3030 
Q 2388 3097 2138 3097 
Q 1578 3097 1268 2742 
Q 959 2388 959 1747 
Q 959 1106 1268 751 
Q 1578 397 2138 397 
Q 2388 397 2633 464 
Q 2878 531 3122 666 
L 3122 134 
Q 2881 22 2623 -34 
Q 2366 -91 2075 -91 
Q 1284 -91 818 406 
Q 353 903 353 1747 
Q 353 2603 823 3093 
Q 1294 3584 2113 3584 
Q 2378 3584 2631 3529 
Q 2884 3475 3122 3366 
z
" transform="scale(0.015625)"/>
       <path id="DejaVuSans-6f" d="M 1959 3097 
Q 1497 3097 1228 2736 
Q 959 2375 959 1747 
Q 959 1119 1226 758 
Q 1494 397 1959 397 
Q 2419 397 2687 759 
Q 2956 1122 2956 1747 
Q 2956 2369 2687 2733 
Q 2419 3097 1959 3097 
z
M 1959 3584 
Q 2709 3584 3137 3096 
Q 3566 2609 3566 1747 
Q 3566 888 3137 398 
Q 2709 -91 1959 -91 
Q 1206 -91 779 398 
Q 353 888 353 1747 
Q 353 2609 779 3096 
Q 1206 3584 1959 3584 
z
" transform="scale(0.015625)"/>
       <path id="DejaVuSans-6e" d="M 3513 2113 
L 3513 0 
L 2938 0 
L 2938 2094 
Q 2938 2591 2744 2837 
Q 2550 3084 2163 3084 
Q 1697 3084 1428 2787 
Q 1159 2491 1159 1978 
L 1159 0 
L 581 0 
L 581 3500 
L 1159 3500 
L 1159 2956 
Q 1366 3272 1645 3428 
Q 1925 3584 2291 3584 
Q 2894 3584 3203 3211 
Q 3513 2838 3513 2113 
z
" transform="scale(0.015625)"/>
       <path id="DejaVuSans-6c" d="M 603 4863 
L 1178 4863 
L 1178 0 
L 603 0 
L 603 4863 
z
" transform="scale(0.015625)"/>
      </defs>
      <use xlink:href="#DejaVuSans-54" transform="translate(0 0.015625)"/>
      <use xlink:href="#DejaVuSans-43" transform="translate(61.083984 0.015625)"/>
      <use xlink:href="#DejaVuSans-20" transform="translate(130.908203 0.015625)"/>
      <use xlink:href="#DejaVuSans-Oblique-72" transform="translate(162.695312 0.015625)"/>
      <use xlink:href="#DejaVuSans-34" transform="translate(203.808594 -16.390625) scale(0.7)"/>
      <use xlink:href="#DejaVuSans-20" transform="translate(251.079102 0.015625)"/>
      <use xlink:href="#DejaVuSans-66" transform="translate(282.866211 0.015625)"/>
      <use xlink:href="#DejaVuSans-72" transform="translate(318.071289 0.015625)"/>
      <use xlink:href="#DejaVuSans-61" transform="translate(359.18457 0.015625)"/>
      <use xlink:href="#DejaVuSans-63" transform="translate(420.463867 0.015625)"/>
      <use xlink:href="#DejaVuSans-74" transform="translate(475.444336 0.015625)"/>
      <use xlink:href="#DejaVuSans-69" transform="translate(514.65332 0.015625)"/>
      <use xlink:href="#DejaVuSans-6f" transform="translate(542.436523 0.015625)"/>
      <use xlink:href="#DejaVuSans-6e" transform="translate(603.618164 0.015625)"/>
      <use xlink:href="#DejaVuSans-61" transform="translate(666.99707 0.015625)"/>
      <use xlink:href="#DejaVuSans-6c" transform="translate(728.276367 0.015625)"/>
      <use xlink:href="#DejaVuSans-20" transform="translate(756.05957 0.015625)"/>
      <use xlink:href="#DejaVuSans-61" transform="translate(787.84668 0.015625)"/>
      <use xlink:href="#DejaVuSans-72" transform="translate(849.125977 0.015625)"/>
      <use xlink:href="#DejaVuSans-65" transform="translate(890.239258 0.015625)"/>
      <use xlink:href="#DejaVuSans-61" transform="translate(951.762695 0.015625)"/>
     </g>
    </g>
   </g>
   <g id="line2d_24">
    <path d="M 67.62899 246.90101 
L 67.62899 21.917584 
" clip-path="url(#pfff98d8a6b)" style="fill: none; stroke: #808080; stroke-width: 0.5; stroke-linecap: square"/>
   </g>
   <g id="line2d_25">
    <path d="M 87.949157 246.90101 
L 87.949157 21.917584 
" clip-path="url(#pfff98d8a6b)" style="fill: none; stroke: #808080; stroke-width: 0.5; stroke-linecap: square"/>
   </g>
   <g id="line2d_26">
    <path d="M 103.113449 246.90101 
L 103.113449 21.917584 
" clip-path="url(#pfff98d8a6b)" style="fill: none; stroke: #808080; stroke-width: 0.5; stroke-linecap: square"/>
   </g>
   <g id="line2d_27">
    <path d="M 121.808034 246.90101 
L 121.808034 21.917584 
" clip-path="url(#pfff98d8a6b)" style="fill: none; stroke: #808080; stroke-width: 0.5; stroke-linecap: square"/>
   </g>
   <g id="line2d_28">
    <path d="M 143.464887 246.90101 
L 143.464887 21.917584 
" clip-path="url(#pfff98d8a6b)" style="fill: none; stroke: #808080; stroke-width: 0.5; stroke-linecap: square"/>
   </g>
   <g id="line2d_29">
    <path d="M 167.425976 246.90101 
L 167.425976 21.917584 
" clip-path="url(#pfff98d8a6b)" style="fill: none; stroke: #808080; stroke-width: 0.5; stroke-linecap: square"/>
   </g>
   <g id="line2d_30">
    <path d="M 192.963254 246.90101 
L 192.963254 21.917584 
" clip-path="url(#pfff98d8a6b)" style="fill: none; stroke: #808080; stroke-width: 0.5; stroke-linecap: square"/>
   </g>
   <g id="line2d_31">
    <path d="M 219.300785 246.90101 
L 219.300785 21.917584 
" clip-path="url(#pfff98d8a6b)" style="fill: none; stroke: #808080; stroke-width: 0.5; stroke-linecap: square"/>
   </g>
   <g id="line2d_32">
    <path d="M 245.638316 246.90101 
L 245.638316 21.917584 
" clip-path="url(#pfff98d8a6b)" style="fill: none; stroke: #808080; stroke-width: 0.5; stroke-linecap: square"/>
   </g>
   <g id="line2d_33">
    <path d="M 271.175594 246.90101 
L 271.175594 21.917584 
" clip-path="url(#pfff98d8a6b)" style="fill: none; stroke: #808080; stroke-width: 0.5; stroke-linecap: square"/>
   </g>
   <g id="line2d_34">
    <path d="M 295.136682 246.90101 
L 295.136682 21.917584 
" clip-path="url(#pfff98d8a6b)" style="fill: none; stroke: #808080; stroke-width: 0.5; stroke-linecap: square"/>
   </g>
   <g id="line2d_35">
    <path d="M 316.793536 246.90101 
L 316.793536 21.917584 
" clip-path="url(#pfff98d8a6b)" style="fill: none; stroke: #808080; stroke-width: 0.5; stroke-linecap: square"/>
   </g>
   <g id="line2d_36">
    <path d="M 335.488121 246.90101 
L 335.488121 21.917584 
" clip-path="url(#pfff98d8a6b)" style="fill: none; stroke: #808080; stroke-width: 0.5; stroke-linecap: square"/>
   </g>
   <g id="line2d_37">
    <path d="M 350.652413 246.90101 
L 350.652413 21.917584 
" clip-path="url(#pfff98d8a6b)" style="fill: none; stroke: #808080; stroke-width: 0.5; stroke-linecap: square"/>
   </g>
   <g id="line2d_38">
    <path d="M 370.97258 246.90101 
L 370.97258 21.917584 
" clip-path="url(#pfff98d8a6b)" style="fill: none; stroke: #808080; stroke-width: 0.5; stroke-linecap: square"/>
   </g>
   <g id="line2d_39">
    <path d="M 67.62899 236.674491 
L 73.874875 236.565679 
L 76.775918 236.333451 
L 79.174318 236.159846 
L 82.404055 236.074841 
L 88.615944 236.142082 
L 92.098115 236.281845 
L 95.058524 236.220378 
L 97.378372 235.991861 
L 98.97146 235.727569 
L 101.429662 235.143744 
L 103.968647 234.778283 
L 108.375056 234.390854 
L 116.832806 233.968765 
L 119.795134 234.015768 
L 124.882873 234.444875 
L 132.305417 235.20513 
L 144.61402 235.491982 
L 148.09519 235.402376 
L 152.812246 235.057263 
L 155.201515 234.73375 
L 156.403517 234.457195 
L 157.610308 234.015556 
L 161.258502 232.107032 
L 163.712886 230.463522 
L 166.184203 228.342373 
L 167.425976 227.213777 
L 168.671699 225.812218 
L 171.174618 222.248485 
L 172.431623 220.351416 
L 174.956244 215.783717 
L 177.494372 210.663699 
L 180.045236 205.232421 
L 181.3252 202.466683 
L 183.893708 197.709032 
L 185.182055 195.485998 
L 186.473 193.708762 
L 187.766446 192.258209 
L 189.062293 191.11621 
L 190.360442 190.366483 
L 191.660796 190.000071 
L 192.963254 190.289167 
L 194.267718 191.155203 
L 195.574089 192.56565 
L 196.882266 194.688896 
L 198.192151 197.13563 
L 199.503643 200.185971 
L 203.446765 210.950376 
L 204.763688 214.816846 
L 208.720695 224.734284 
L 211.362897 229.701902 
L 212.684954 231.599212 
L 214.007516 232.894358 
L 215.33048 234.004232 
L 216.653747 234.849338 
L 219.300785 235.829443 
L 221.947823 236.2878 
L 224.594054 236.504745 
L 228.560127 236.566399 
L 232.519853 236.363179 
L 235.154805 236.047832 
L 237.784927 235.523786 
L 241.719304 233.740096 
L 244.333852 232.010636 
L 246.940774 229.975409 
L 249.539277 227.809435 
L 253.419515 224.212029 
L 255.993513 222.065265 
L 258.556334 220.350756 
L 259.833309 219.602077 
L 261.107198 218.994327 
L 263.645326 218.388722 
L 266.169947 218.248293 
L 267.426952 218.330062 
L 268.680291 218.592961 
L 269.929871 219.012273 
L 272.417367 220.220806 
L 276.118039 222.564734 
L 278.563677 224.39946 
L 280.991262 226.432112 
L 283.400055 228.618644 
L 285.789324 230.378643 
L 289.335026 232.68313 
L 291.672311 233.794799 
L 293.98755 234.443101 
L 296.28004 234.739963 
L 297.417534 234.856563 
L 300.793981 234.767085 
L 303.014058 234.469068 
L 305.208636 233.920384 
L 310.57915 232.358911 
L 314.750938 230.679534 
L 317.803736 229.783159 
L 320.789025 229.223928 
L 324.660867 228.949537 
L 326.54894 229.008508 
L 329.319618 229.42426 
L 332.014895 230.042925 
L 333.768942 230.637964 
L 339.63011 233.027342 
L 341.223198 233.812278 
L 342.779147 234.25484 
L 345.777744 234.836836 
L 351.955926 235.673756 
L 360.418888 236.453567 
L 369.842041 236.674491 
L 370.97258 236.674491 
L 370.97258 236.674491 
" clip-path="url(#pfff98d8a6b)" style="fill: none; stroke: #0000ff; stroke-width: 1.5; stroke-linecap: square"/>
   </g>
   <g id="line2d_40">
    <path d="M 67.62899 236.674491 
L 80.741706 236.581658 
L 83.564484 236.3426 
L 92.098115 235.320984 
L 97.378372 234.118416 
L 104.832628 232.772865 
L 110.197226 231.718808 
L 114.896811 231.320718 
L 118.800013 231.150848 
L 124.882873 231.349765 
L 129.082945 231.894572 
L 136.694405 233.361212 
L 140.05249 234.089442 
L 151.625162 235.916973 
L 156.403517 236.204614 
L 158.821798 236.222624 
L 163.712886 235.966084 
L 168.671699 235.559794 
L 171.174618 235.127398 
L 172.431623 234.845894 
L 173.692197 234.44644 
L 176.223668 233.181023 
L 178.768261 231.579708 
L 183.893708 227.836773 
L 186.473 225.669658 
L 189.062293 223.660074 
L 191.660796 222.013011 
L 192.963254 221.436054 
L 194.267718 221.167151 
L 195.574089 221.154459 
L 196.882266 221.38694 
L 198.192151 221.917076 
L 199.503643 222.653047 
L 202.13105 224.710457 
L 204.763688 227.311369 
L 208.720695 231.233947 
L 210.041443 232.257272 
L 212.684954 233.927065 
L 215.33048 235.077935 
L 216.653747 235.520936 
L 219.300785 236.025734 
L 221.947823 236.303442 
L 224.594054 236.361103 
L 227.238673 236.199295 
L 232.519853 235.159925 
L 235.154805 234.48138 
L 237.784927 233.52316 
L 240.409419 232.094684 
L 241.719304 231.2792 
L 244.333852 229.12423 
L 246.940774 226.767286 
L 250.835124 223.092834 
L 253.419515 221.220882 
L 254.707862 220.375238 
L 257.27637 219.069974 
L 258.556334 218.539068 
L 259.833309 218.149731 
L 261.107198 217.938215 
L 262.377902 217.865595 
L 263.645326 217.916371 
L 264.909373 218.138966 
L 266.169947 218.525804 
L 268.680291 219.677733 
L 271.175594 221.182358 
L 272.417367 222.043028 
L 277.343068 226.015207 
L 283.400055 230.440088 
L 286.976408 232.631344 
L 289.335026 233.551187 
L 291.672311 234.177678 
L 293.98755 234.411747 
L 296.28004 234.521396 
L 299.674591 234.380202 
L 308.451229 233.837147 
L 311.632724 233.64315 
L 320.789025 233.485023 
L 324.660867 233.840432 
L 336.334471 235.55353 
L 341.223198 236.113876 
L 346.503455 236.355367 
L 350.652413 236.250945 
L 355.622491 235.964691 
L 360.418888 235.963523 
L 363.549234 236.142482 
L 366.141475 236.494723 
L 367.085242 236.674491 
L 370.97258 236.674491 
L 370.97258 236.674491 
" clip-path="url(#pfff98d8a6b)" style="fill: none; stroke: #ffa500; stroke-width: 1.5; stroke-linecap: square"/>
   </g>
   <g id="patch_3">
    <path d="M 245.638316 246.90101 
L 271.175594 246.90101 
L 271.175594 21.917584 
L 245.638316 21.917584 
z
" clip-path="url(#pfff98d8a6b)" style="fill: #800080; opacity: 0.08"/>
   </g>
   <g id="patch_4">
    <path d="M 271.175594 246.90101 
L 295.136682 246.90101 
L 295.136682 21.917584 
L 271.175594 21.917584 
z
" clip-path="url(#pfff98d8a6b)" style="fill: #ffff00; opacity: 0.12"/>
   </g>
   <g id="patch_5">
    <path d="M 67.62899 246.90101 
L 67.62899 21.917584 
" style="fill: none; stroke: #000000; stroke-width: 0.8; stroke-linejoin: miter; stroke-linecap: square"/>
   </g>
   <g id="patch_6">
    <path d="M 370.97258 246.90101 
L 370.97258 21.917584 
" style="fill: none; stroke: #000000; stroke-width: 0.8; stroke-linejoin: miter; stroke-linecap: square"/>
   </g>
   <g id="patch_7">
    <path d="M 67.62899 246.90101 
L 370.97258 246.90101 
" style="fill: none; stroke: #000000; stroke-width: 0.8; stroke-linejoin: miter; stroke-linecap: square"/>
   </g>
   <g id="patch_8">
    <path d="M 67.62899 21.917584 
L 370.97258 21.917584 
" style="fill: none; stroke: #000000; stroke-width: 0.8; stroke-linejoin: miter; stroke-linecap: square"/>
   </g>
   <g id="text_18">
    <!-- UNSEED (NH max=0.016) -->
    <g transform="translate(109.274926 15.917584) scale(0.17 -0.17)">
     <defs>
      <path id="DejaVuSans-55" d="M 556 4666 
L 1191 4666 
L 1191 1831 
Q 1191 1081 1462 751 
Q 1734 422 2344 422 
Q 2950 422 3222 751 
Q 3494 1081 3494 1831 
L 3494 4666 
L 4128 4666 
L 4128 1753 
Q 4128 841 3676 375 
Q 3225 -91 2344 -91 
Q 1459 -91 1007 375 
Q 556 841 556 1753 
L 556 4666 
z
" transform="scale(0.015625)"/>
      <path id="DejaVuSans-4e" d="M 628 4666 
L 1478 4666 
L 3547 763 
L 3547 4666 
L 4159 4666 
L 4159 0 
L 3309 0 
L 1241 3903 
L 1241 0 
L 628 0 
L 628 4666 
z
" transform="scale(0.015625)"/>
      <path id="DejaVuSans-53" d="M 3425 4513 
L 3425 3897 
Q 3066 4069 2747 4153 
Q 2428 4238 2131 4238 
Q 1616 4238 1336 4038 
Q 1056 3838 1056 3469 
Q 1056 3159 1242 3001 
Q 1428 2844 1947 2747 
L 2328 2669 
Q 3034 2534 3370 2195 
Q 3706 1856 3706 1288 
Q 3706 609 3251 259 
Q 2797 -91 1919 -91 
Q 1588 -91 1214 -16 
Q 841 59 441 206 
L 441 856 
Q 825 641 1194 531 
Q 1563 422 1919 422 
Q 2459 422 2753 634 
Q 3047 847 3047 1241 
Q 3047 1584 2836 1778 
Q 2625 1972 2144 2069 
L 1759 2144 
Q 1053 2284 737 2584 
Q 422 2884 422 3419 
Q 422 4038 858 4394 
Q 1294 4750 2059 4750 
Q 2388 4750 2728 4690 
Q 3069 4631 3425 4513 
z
" transform="scale(0.015625)"/>
      <path id="DejaVuSans-45" d="M 628 4666 
L 3578 4666 
L 3578 4134 
L 1259 4134 
L 1259 2753 
L 3481 2753 
L 3481 2222 
L 1259 2222 
L 1259 531 
L 3634 531 
L 3634 0 
L 628 0 
L 628 4666 
z
" transform="scale(0.015625)"/>
      <path id="DejaVuSans-44" d="M 1259 4147 
L 1259 519 
L 2022 519 
Q 2988 519 3436 956 
Q 3884 1394 3884 2338 
Q 3884 3275 3436 3711 
Q 2988 4147 2022 4147 
L 1259 4147 
z
M 628 4666 
L 1925 4666 
Q 3281 4666 3915 4102 
Q 4550 3538 4550 2338 
Q 4550 1131 3912 565 
Q 3275 0 1925 0 
L 628 0 
L 628 4666 
z
" transform="scale(0.015625)"/>
      <path id="DejaVuSans-28" d="M 1984 4856 
Q 1566 4138 1362 3434 
Q 1159 2731 1159 2009 
Q 1159 1288 1364 580 
Q 1569 -128 1984 -844 
L 1484 -844 
Q 1016 -109 783 600 
Q 550 1309 550 2009 
Q 550 2706 781 3412 
Q 1013 4119 1484 4856 
L 1984 4856 
z
" transform="scale(0.015625)"/>
      <path id="DejaVuSans-48" d="M 628 4666 
L 1259 4666 
L 1259 2753 
L 3553 2753 
L 3553 4666 
L 4184 4666 
L 4184 0 
L 3553 0 
L 3553 2222 
L 1259 2222 
L 1259 0 
L 628 0 
L 628 4666 
z
" transform="scale(0.015625)"/>
      <path id="DejaVuSans-6d" d="M 3328 2828 
Q 3544 3216 3844 3400 
Q 4144 3584 4550 3584 
Q 5097 3584 5394 3201 
Q 5691 2819 5691 2113 
L 5691 0 
L 5113 0 
L 5113 2094 
Q 5113 2597 4934 2840 
Q 4756 3084 4391 3084 
Q 3944 3084 3684 2787 
Q 3425 2491 3425 1978 
L 3425 0 
L 2847 0 
L 2847 2094 
Q 2847 2600 2669 2842 
Q 2491 3084 2119 3084 
Q 1678 3084 1418 2786 
Q 1159 2488 1159 1978 
L 1159 0 
L 581 0 
L 581 3500 
L 1159 3500 
L 1159 2956 
Q 1356 3278 1631 3431 
Q 1906 3584 2284 3584 
Q 2666 3584 2933 3390 
Q 3200 3197 3328 2828 
z
" transform="scale(0.015625)"/>
      <path id="DejaVuSans-78" d="M 3513 3500 
L 2247 1797 
L 3578 0 
L 2900 0 
L 1881 1375 
L 863 0 
L 184 0 
L 1544 1831 
L 300 3500 
L 978 3500 
L 1906 2253 
L 2834 3500 
L 3513 3500 
z
" transform="scale(0.015625)"/>
      <path id="DejaVuSans-3d" d="M 678 2906 
L 4684 2906 
L 4684 2381 
L 678 2381 
L 678 2906 
z
M 678 1631 
L 4684 1631 
L 4684 1100 
L 678 1100 
L 678 1631 
z
" transform="scale(0.015625)"/>
      <path id="DejaVuSans-29" d="M 513 4856 
L 1013 4856 
Q 1481 4119 1714 3412 
Q 1947 2706 1947 2009 
Q 1947 1309 1714 600 
Q 1481 -109 1013 -844 
L 513 -844 
Q 928 -128 1133 580 
Q 1338 1288 1338 2009 
Q 1338 2731 1133 3434 
Q 928 4138 513 4856 
z
" transform="scale(0.015625)"/>
     </defs>
     <use xlink:href="#DejaVuSans-55"/>
     <use xlink:href="#DejaVuSans-4e" transform="translate(73.193359 0)"/>
     <use xlink:href="#DejaVuSans-53" transform="translate(147.998047 0)"/>
     <use xlink:href="#DejaVuSans-45" transform="translate(211.474609 0)"/>
     <use xlink:href="#DejaVuSans-45" transform="translate(274.658203 0)"/>
     <use xlink:href="#DejaVuSans-44" transform="translate(337.841797 0)"/>
     <use xlink:href="#DejaVuSans-20" transform="translate(414.84375 0)"/>
     <use xlink:href="#DejaVuSans-28" transform="translate(446.630859 0)"/>
     <use xlink:href="#DejaVuSans-4e" transform="translate(485.644531 0)"/>
     <use xlink:href="#DejaVuSans-48" transform="translate(560.449219 0)"/>
     <use xlink:href="#DejaVuSans-20" transform="translate(635.644531 0)"/>
     <use xlink:href="#DejaVuSans-6d" transform="translate(667.431641 0)"/>
     <use xlink:href="#DejaVuSans-61" transform="translate(764.84375 0)"/>
     <use xlink:href="#DejaVuSans-78" transform="translate(826.123047 0)"/>
     <use xlink:href="#DejaVuSans-3d" transform="translate(885.302734 0)"/>
     <use xlink:href="#DejaVuSans-30" transform="translate(969.091797 0)"/>
     <use xlink:href="#DejaVuSans-2e" transform="translate(1032.714844 0)"/>
     <use xlink:href="#DejaVuSans-30" transform="translate(1064.501953 0)"/>
     <use xlink:href="#DejaVuSans-31" transform="translate(1128.125 0)"/>
     <use xlink:href="#DejaVuSans-36" transform="translate(1191.748047 0)"/>
     <use xlink:href="#DejaVuSans-29" transform="translate(1255.371094 0)"/>
    </g>
   </g>
   <g id="text_19">
    <!-- (a) -->
    <g transform="translate(67.62899 15.917584) scale(0.168 -0.168)">
     <use xlink:href="#DejaVuSans-28"/>
     <use xlink:href="#DejaVuSans-61" transform="translate(39.013672 0)"/>
     <use xlink:href="#DejaVuSans-29" transform="translate(100.292969 0)"/>
    </g>
   </g>
   <g id="legend_1">
    <g id="patch_9">
     <path d="M 77.42899 53.666959 
L 237.403053 53.666959 
Q 240.203053 53.666959 240.203053 50.866959 
L 240.203053 31.717584 
Q 240.203053 28.917584 237.403053 28.917584 
L 77.42899 28.917584 
Q 74.62899 28.917584 74.62899 31.717584 
L 74.62899 50.866959 
Q 74.62899 53.666959 77.42899 53.666959 
z
" style="fill: #ffffff; opacity: 0.8; stroke: #cccccc; stroke-linejoin: miter"/>
    </g>
    <g id="line2d_41">
     <path d="M 80.22899 40.255396 
L 94.22899 40.255396 
L 108.22899 40.255396 
" style="fill: none; stroke: #0000ff; stroke-width: 1.5; stroke-linecap: square"/>
    </g>
    <g id="text_20">
     <!-- JJA -->
     <g transform="translate(119.42899 45.155396) scale(0.14 -0.14)">
      <defs>
       <path id="DejaVuSans-4a" d="M 628 4666 
L 1259 4666 
L 1259 325 
Q 1259 -519 939 -900 
Q 619 -1281 -91 -1281 
L -331 -1281 
L -331 -750 
L -134 -750 
Q 284 -750 456 -515 
Q 628 -281 628 325 
L 628 4666 
z
" transform="scale(0.015625)"/>
       <path id="DejaVuSans-41" d="M 2188 4044 
L 1331 1722 
L 3047 1722 
L 2188 4044 
z
M 1831 4666 
L 2547 4666 
L 4325 0 
L 3669 0 
L 3244 1197 
L 1141 1197 
L 716 0 
L 50 0 
L 1831 4666 
z
" transform="scale(0.015625)"/>
      </defs>
      <use xlink:href="#DejaVuSans-4a"/>
      <use xlink:href="#DejaVuSans-4a" transform="translate(29.492188 0)"/>
      <use xlink:href="#DejaVuSans-41" transform="translate(57.234375 0)"/>
     </g>
    </g>
    <g id="line2d_42">
     <path d="M 165.020865 40.255396 
L 179.020865 40.255396 
L 193.020865 40.255396 
" style="fill: none; stroke: #ffa500; stroke-width: 1.5; stroke-linecap: square"/>
    </g>
    <g id="text_21">
     <!-- SON -->
     <g transform="translate(204.220865 45.155396) scale(0.14 -0.14)">
      <defs>
       <path id="DejaVuSans-4f" d="M 2522 4238 
Q 1834 4238 1429 3725 
Q 1025 3213 1025 2328 
Q 1025 1447 1429 934 
Q 1834 422 2522 422 
Q 3209 422 3611 934 
Q 4013 1447 4013 2328 
Q 4013 3213 3611 3725 
Q 3209 4238 2522 4238 
z
M 2522 4750 
Q 3503 4750 4090 4092 
Q 4678 3434 4678 2328 
Q 4678 1225 4090 567 
Q 3503 -91 2522 -91 
Q 1538 -91 948 565 
Q 359 1222 359 2328 
Q 359 3434 948 4092 
Q 1538 4750 2522 4750 
z
" transform="scale(0.015625)"/>
      </defs>
      <use xlink:href="#DejaVuSans-53"/>
      <use xlink:href="#DejaVuSans-4f" transform="translate(63.476562 0)"/>
      <use xlink:href="#DejaVuSans-4e" transform="translate(142.1875 0)"/>
     </g>
    </g>
   </g>
  </g>
  <g id="axes_2">
   <g id="patch_10">
    <path d="M 452.18883 246.90101 
L 755.53242 246.90101 
L 755.53242 21.917584 
L 452.18883 21.917584 
z
" style="fill: #ffffff"/>
   </g>
   <g id="matplotlib.axis_3">
    <g id="xtick_8">
     <g id="line2d_43">
      <g>
       <use xlink:href="#m37657ca84e" x="452.18883" y="246.90101" style="stroke: #000000; stroke-width: 0.8"/>
      </g>
     </g>
     <g id="text_22">
      <!-- -90 -->
      <g transform="translate(440.755861 264.538822) scale(0.14 -0.14)">
       <use xlink:href="#DejaVuSans-2d"/>
       <use xlink:href="#DejaVuSans-39" transform="translate(36.083984 0)"/>
       <use xlink:href="#DejaVuSans-30" transform="translate(99.707031 0)"/>
      </g>
     </g>
    </g>
    <g id="xtick_9">
     <g id="line2d_44">
      <g>
       <use xlink:href="#m37657ca84e" x="472.508997" y="246.90101" style="stroke: #000000; stroke-width: 0.8"/>
      </g>
     </g>
     <g id="text_23">
      <!-- -60 -->
      <g transform="translate(461.076029 264.538822) scale(0.14 -0.14)">
       <use xlink:href="#DejaVuSans-2d"/>
       <use xlink:href="#DejaVuSans-36" transform="translate(36.083984 0)"/>
       <use xlink:href="#DejaVuSans-30" transform="translate(99.707031 0)"/>
      </g>
     </g>
    </g>
    <g id="xtick_10">
     <g id="line2d_45">
      <g>
       <use xlink:href="#m37657ca84e" x="528.024727" y="246.90101" style="stroke: #000000; stroke-width: 0.8"/>
      </g>
     </g>
     <g id="text_24">
      <!-- -30 -->
      <g transform="translate(516.591759 264.538822) scale(0.14 -0.14)">
       <use xlink:href="#DejaVuSans-2d"/>
       <use xlink:href="#DejaVuSans-33" transform="translate(36.083984 0)"/>
       <use xlink:href="#DejaVuSans-30" transform="translate(99.707031 0)"/>
      </g>
     </g>
    </g>
    <g id="xtick_11">
     <g id="line2d_46">
      <g>
       <use xlink:href="#m37657ca84e" x="603.860625" y="246.90101" style="stroke: #000000; stroke-width: 0.8"/>
      </g>
     </g>
     <g id="text_25">
      <!-- 0 -->
      <g transform="translate(599.406875 264.538822) scale(0.14 -0.14)">
       <use xlink:href="#DejaVuSans-30"/>
      </g>
     </g>
    </g>
    <g id="xtick_12">
     <g id="line2d_47">
      <g>
       <use xlink:href="#m37657ca84e" x="679.696522" y="246.90101" style="stroke: #000000; stroke-width: 0.8"/>
      </g>
     </g>
     <g id="text_26">
      <!-- 30 -->
      <g transform="translate(670.789022 264.538822) scale(0.14 -0.14)">
       <use xlink:href="#DejaVuSans-33"/>
       <use xlink:href="#DejaVuSans-30" transform="translate(63.623047 0)"/>
      </g>
     </g>
    </g>
    <g id="xtick_13">
     <g id="line2d_48">
      <g>
       <use xlink:href="#m37657ca84e" x="735.212253" y="246.90101" style="stroke: #000000; stroke-width: 0.8"/>
      </g>
     </g>
     <g id="text_27">
      <!-- 60 -->
      <g transform="translate(726.304753 264.538822) scale(0.14 -0.14)">
       <use xlink:href="#DejaVuSans-36"/>
       <use xlink:href="#DejaVuSans-30" transform="translate(63.623047 0)"/>
      </g>
     </g>
    </g>
    <g id="xtick_14">
     <g id="line2d_49">
      <g>
       <use xlink:href="#m37657ca84e" x="755.53242" y="246.90101" style="stroke: #000000; stroke-width: 0.8"/>
      </g>
     </g>
     <g id="text_28">
      <!-- 90 -->
      <g transform="translate(746.62492 264.538822) scale(0.14 -0.14)">
       <use xlink:href="#DejaVuSans-39"/>
       <use xlink:href="#DejaVuSans-30" transform="translate(63.623047 0)"/>
      </g>
     </g>
    </g>
    <g id="text_29">
     <!-- Latitude [°] -->
     <g transform="translate(563.863281 282.088197) scale(0.14 -0.14)">
      <use xlink:href="#DejaVuSans-4c"/>
      <use xlink:href="#DejaVuSans-61" transform="translate(55.712891 0)"/>
      <use xlink:href="#DejaVuSans-74" transform="translate(116.992188 0)"/>
      <use xlink:href="#DejaVuSans-69" transform="translate(156.201172 0)"/>
      <use xlink:href="#DejaVuSans-74" transform="translate(183.984375 0)"/>
      <use xlink:href="#DejaVuSans-75" transform="translate(223.193359 0)"/>
      <use xlink:href="#DejaVuSans-64" transform="translate(286.572266 0)"/>
      <use xlink:href="#DejaVuSans-65" transform="translate(350.048828 0)"/>
      <use xlink:href="#DejaVuSans-20" transform="translate(411.572266 0)"/>
      <use xlink:href="#DejaVuSans-5b" transform="translate(443.359375 0)"/>
      <use xlink:href="#DejaVuSans-b0" transform="translate(482.373047 0)"/>
      <use xlink:href="#DejaVuSans-5d" transform="translate(532.373047 0)"/>
     </g>
    </g>
   </g>
   <g id="matplotlib.axis_4">
    <g id="ytick_9">
     <g id="line2d_50">
      <g>
       <use xlink:href="#m583a7177c8" x="452.18883" y="236.674491" style="stroke: #000000; stroke-width: 0.8"/>
      </g>
     </g>
     <g id="line2d_51">
      <g>
       <use xlink:href="#ma062da7036" x="755.53242" y="236.674491" style="stroke: #000000; stroke-width: 0.8"/>
      </g>
     </g>
     <g id="text_30">
      <!-- 0.000 -->
      <g transform="translate(405.109455 241.993397) scale(0.14 -0.14)">
       <use xlink:href="#DejaVuSans-30"/>
       <use xlink:href="#DejaVuSans-2e" transform="translate(63.623047 0)"/>
       <use xlink:href="#DejaVuSans-30" transform="translate(95.410156 0)"/>
       <use xlink:href="#DejaVuSans-30" transform="translate(159.033203 0)"/>
       <use xlink:href="#DejaVuSans-30" transform="translate(222.65625 0)"/>
      </g>
     </g>
    </g>
    <g id="ytick_10">
     <g id="line2d_52">
      <g>
       <use xlink:href="#m583a7177c8" x="452.18883" y="206.621632" style="stroke: #000000; stroke-width: 0.8"/>
      </g>
     </g>
     <g id="line2d_53">
      <g>
       <use xlink:href="#ma062da7036" x="755.53242" y="206.621632" style="stroke: #000000; stroke-width: 0.8"/>
      </g>
     </g>
     <g id="text_31">
      <!-- 0.025 -->
      <g transform="translate(405.109455 211.940539) scale(0.14 -0.14)">
       <use xlink:href="#DejaVuSans-30"/>
       <use xlink:href="#DejaVuSans-2e" transform="translate(63.623047 0)"/>
       <use xlink:href="#DejaVuSans-30" transform="translate(95.410156 0)"/>
       <use xlink:href="#DejaVuSans-32" transform="translate(159.033203 0)"/>
       <use xlink:href="#DejaVuSans-35" transform="translate(222.65625 0)"/>
      </g>
     </g>
    </g>
    <g id="ytick_11">
     <g id="line2d_54">
      <g>
       <use xlink:href="#m583a7177c8" x="452.18883" y="176.568774" style="stroke: #000000; stroke-width: 0.8"/>
      </g>
     </g>
     <g id="line2d_55">
      <g>
       <use xlink:href="#ma062da7036" x="755.53242" y="176.568774" style="stroke: #000000; stroke-width: 0.8"/>
      </g>
     </g>
     <g id="text_32">
      <!-- 0.050 -->
      <g transform="translate(405.109455 181.88768) scale(0.14 -0.14)">
       <use xlink:href="#DejaVuSans-30"/>
       <use xlink:href="#DejaVuSans-2e" transform="translate(63.623047 0)"/>
       <use xlink:href="#DejaVuSans-30" transform="translate(95.410156 0)"/>
       <use xlink:href="#DejaVuSans-35" transform="translate(159.033203 0)"/>
       <use xlink:href="#DejaVuSans-30" transform="translate(222.65625 0)"/>
      </g>
     </g>
    </g>
    <g id="ytick_12">
     <g id="line2d_56">
      <g>
       <use xlink:href="#m583a7177c8" x="452.18883" y="146.515916" style="stroke: #000000; stroke-width: 0.8"/>
      </g>
     </g>
     <g id="line2d_57">
      <g>
       <use xlink:href="#ma062da7036" x="755.53242" y="146.515916" style="stroke: #000000; stroke-width: 0.8"/>
      </g>
     </g>
     <g id="text_33">
      <!-- 0.075 -->
      <g transform="translate(405.109455 151.834822) scale(0.14 -0.14)">
       <use xlink:href="#DejaVuSans-30"/>
       <use xlink:href="#DejaVuSans-2e" transform="translate(63.623047 0)"/>
       <use xlink:href="#DejaVuSans-30" transform="translate(95.410156 0)"/>
       <use xlink:href="#DejaVuSans-37" transform="translate(159.033203 0)"/>
       <use xlink:href="#DejaVuSans-35" transform="translate(222.65625 0)"/>
      </g>
     </g>
    </g>
    <g id="ytick_13">
     <g id="line2d_58">
      <g>
       <use xlink:href="#m583a7177c8" x="452.18883" y="116.463057" style="stroke: #000000; stroke-width: 0.8"/>
      </g>
     </g>
     <g id="line2d_59">
      <g>
       <use xlink:href="#ma062da7036" x="755.53242" y="116.463057" style="stroke: #000000; stroke-width: 0.8"/>
      </g>
     </g>
     <g id="text_34">
      <!-- 0.100 -->
      <g transform="translate(405.109455 121.781964) scale(0.14 -0.14)">
       <use xlink:href="#DejaVuSans-30"/>
       <use xlink:href="#DejaVuSans-2e" transform="translate(63.623047 0)"/>
       <use xlink:href="#DejaVuSans-31" transform="translate(95.410156 0)"/>
       <use xlink:href="#DejaVuSans-30" transform="translate(159.033203 0)"/>
       <use xlink:href="#DejaVuSans-30" transform="translate(222.65625 0)"/>
      </g>
     </g>
    </g>
    <g id="ytick_14">
     <g id="line2d_60">
      <g>
       <use xlink:href="#m583a7177c8" x="452.18883" y="86.410199" style="stroke: #000000; stroke-width: 0.8"/>
      </g>
     </g>
     <g id="line2d_61">
      <g>
       <use xlink:href="#ma062da7036" x="755.53242" y="86.410199" style="stroke: #000000; stroke-width: 0.8"/>
      </g>
     </g>
     <g id="text_35">
      <!-- 0.125 -->
      <g transform="translate(405.109455 91.729105) scale(0.14 -0.14)">
       <use xlink:href="#DejaVuSans-30"/>
       <use xlink:href="#DejaVuSans-2e" transform="translate(63.623047 0)"/>
       <use xlink:href="#DejaVuSans-31" transform="translate(95.410156 0)"/>
       <use xlink:href="#DejaVuSans-32" transform="translate(159.033203 0)"/>
       <use xlink:href="#DejaVuSans-35" transform="translate(222.65625 0)"/>
      </g>
     </g>
    </g>
    <g id="ytick_15">
     <g id="line2d_62">
      <g>
       <use xlink:href="#m583a7177c8" x="452.18883" y="56.357341" style="stroke: #000000; stroke-width: 0.8"/>
      </g>
     </g>
     <g id="line2d_63">
      <g>
       <use xlink:href="#ma062da7036" x="755.53242" y="56.357341" style="stroke: #000000; stroke-width: 0.8"/>
      </g>
     </g>
     <g id="text_36">
      <!-- 0.150 -->
      <g transform="translate(405.109455 61.676247) scale(0.14 -0.14)">
       <use xlink:href="#DejaVuSans-30"/>
       <use xlink:href="#DejaVuSans-2e" transform="translate(63.623047 0)"/>
       <use xlink:href="#DejaVuSans-31" transform="translate(95.410156 0)"/>
       <use xlink:href="#DejaVuSans-35" transform="translate(159.033203 0)"/>
       <use xlink:href="#DejaVuSans-30" transform="translate(222.65625 0)"/>
      </g>
     </g>
    </g>
    <g id="ytick_16">
     <g id="line2d_64">
      <g>
       <use xlink:href="#m583a7177c8" x="452.18883" y="26.304482" style="stroke: #000000; stroke-width: 0.8"/>
      </g>
     </g>
     <g id="line2d_65">
      <g>
       <use xlink:href="#ma062da7036" x="755.53242" y="26.304482" style="stroke: #000000; stroke-width: 0.8"/>
      </g>
     </g>
     <g id="text_37">
      <!-- 0.175 -->
      <g transform="translate(405.109455 31.623389) scale(0.14 -0.14)">
       <use xlink:href="#DejaVuSans-30"/>
       <use xlink:href="#DejaVuSans-2e" transform="translate(63.623047 0)"/>
       <use xlink:href="#DejaVuSans-31" transform="translate(95.410156 0)"/>
       <use xlink:href="#DejaVuSans-37" transform="translate(159.033203 0)"/>
       <use xlink:href="#DejaVuSans-35" transform="translate(222.65625 0)"/>
      </g>
     </g>
    </g>
    <g id="text_38">
     <!-- TC $r_4$ fractional area -->
     <g transform="translate(398.197892 205.389297) rotate(-90) scale(0.14 -0.14)">
      <use xlink:href="#DejaVuSans-54" transform="translate(0 0.015625)"/>
      <use xlink:href="#DejaVuSans-43" transform="translate(61.083984 0.015625)"/>
      <use xlink:href="#DejaVuSans-20" transform="translate(130.908203 0.015625)"/>
      <use xlink:href="#DejaVuSans-Oblique-72" transform="translate(162.695312 0.015625)"/>
      <use xlink:href="#DejaVuSans-34" transform="translate(203.808594 -16.390625) scale(0.7)"/>
      <use xlink:href="#DejaVuSans-20" transform="translate(251.079102 0.015625)"/>
      <use xlink:href="#DejaVuSans-66" transform="translate(282.866211 0.015625)"/>
      <use xlink:href="#DejaVuSans-72" transform="translate(318.071289 0.015625)"/>
      <use xlink:href="#DejaVuSans-61" transform="translate(359.18457 0.015625)"/>
      <use xlink:href="#DejaVuSans-63" transform="translate(420.463867 0.015625)"/>
      <use xlink:href="#DejaVuSans-74" transform="translate(475.444336 0.015625)"/>
      <use xlink:href="#DejaVuSans-69" transform="translate(514.65332 0.015625)"/>
      <use xlink:href="#DejaVuSans-6f" transform="translate(542.436523 0.015625)"/>
      <use xlink:href="#DejaVuSans-6e" transform="translate(603.618164 0.015625)"/>
      <use xlink:href="#DejaVuSans-61" transform="translate(666.99707 0.015625)"/>
      <use xlink:href="#DejaVuSans-6c" transform="translate(728.276367 0.015625)"/>
      <use xlink:href="#DejaVuSans-20" transform="translate(756.05957 0.015625)"/>
      <use xlink:href="#DejaVuSans-61" transform="translate(787.84668 0.015625)"/>
      <use xlink:href="#DejaVuSans-72" transform="translate(849.125977 0.015625)"/>
      <use xlink:href="#DejaVuSans-65" transform="translate(890.239258 0.015625)"/>
      <use xlink:href="#DejaVuSans-61" transform="translate(951.762695 0.015625)"/>
     </g>
    </g>
   </g>
   <g id="line2d_66">
    <path d="M 452.18883 246.90101 
L 452.18883 21.917584 
" clip-path="url(#pddb9d2982d)" style="fill: none; stroke: #808080; stroke-width: 0.5; stroke-linecap: square"/>
   </g>
   <g id="line2d_67">
    <path d="M 472.508997 246.90101 
L 472.508997 21.917584 
" clip-path="url(#pddb9d2982d)" style="fill: none; stroke: #808080; stroke-width: 0.5; stroke-linecap: square"/>
   </g>
   <g id="line2d_68">
    <path d="M 487.673289 246.90101 
L 487.673289 21.917584 
" clip-path="url(#pddb9d2982d)" style="fill: none; stroke: #808080; stroke-width: 0.5; stroke-linecap: square"/>
   </g>
   <g id="line2d_69">
    <path d="M 506.367874 246.90101 
L 506.367874 21.917584 
" clip-path="url(#pddb9d2982d)" style="fill: none; stroke: #808080; stroke-width: 0.5; stroke-linecap: square"/>
   </g>
   <g id="line2d_70">
    <path d="M 528.024727 246.90101 
L 528.024727 21.917584 
" clip-path="url(#pddb9d2982d)" style="fill: none; stroke: #808080; stroke-width: 0.5; stroke-linecap: square"/>
   </g>
   <g id="line2d_71">
    <path d="M 551.985816 246.90101 
L 551.985816 21.917584 
" clip-path="url(#pddb9d2982d)" style="fill: none; stroke: #808080; stroke-width: 0.5; stroke-linecap: square"/>
   </g>
   <g id="line2d_72">
    <path d="M 577.523094 246.90101 
L 577.523094 21.917584 
" clip-path="url(#pddb9d2982d)" style="fill: none; stroke: #808080; stroke-width: 0.5; stroke-linecap: square"/>
   </g>
   <g id="line2d_73">
    <path d="M 603.860625 246.90101 
L 603.860625 21.917584 
" clip-path="url(#pddb9d2982d)" style="fill: none; stroke: #808080; stroke-width: 0.5; stroke-linecap: square"/>
   </g>
   <g id="line2d_74">
    <path d="M 630.198156 246.90101 
L 630.198156 21.917584 
" clip-path="url(#pddb9d2982d)" style="fill: none; stroke: #808080; stroke-width: 0.5; stroke-linecap: square"/>
   </g>
   <g id="line2d_75">
    <path d="M 655.735434 246.90101 
L 655.735434 21.917584 
" clip-path="url(#pddb9d2982d)" style="fill: none; stroke: #808080; stroke-width: 0.5; stroke-linecap: square"/>
   </g>
   <g id="line2d_76">
    <path d="M 679.696522 246.90101 
L 679.696522 21.917584 
" clip-path="url(#pddb9d2982d)" style="fill: none; stroke: #808080; stroke-width: 0.5; stroke-linecap: square"/>
   </g>
   <g id="line2d_77">
    <path d="M 701.353376 246.90101 
L 701.353376 21.917584 
" clip-path="url(#pddb9d2982d)" style="fill: none; stroke: #808080; stroke-width: 0.5; stroke-linecap: square"/>
   </g>
   <g id="line2d_78">
    <path d="M 720.047961 246.90101 
L 720.047961 21.917584 
" clip-path="url(#pddb9d2982d)" style="fill: none; stroke: #808080; stroke-width: 0.5; stroke-linecap: square"/>
   </g>
   <g id="line2d_79">
    <path d="M 735.212253 246.90101 
L 735.212253 21.917584 
" clip-path="url(#pddb9d2982d)" style="fill: none; stroke: #808080; stroke-width: 0.5; stroke-linecap: square"/>
   </g>
   <g id="line2d_80">
    <path d="M 755.53242 246.90101 
L 755.53242 21.917584 
" clip-path="url(#pddb9d2982d)" style="fill: none; stroke: #808080; stroke-width: 0.5; stroke-linecap: square"/>
   </g>
   <g id="line2d_81">
    <path d="M 452.18883 236.674491 
L 459.208663 236.569403 
L 474.539161 236.210742 
L 476.657955 235.979416 
L 480.382263 235.157944 
L 487.673289 233.463348 
L 499.456651 230.493154 
L 502.372385 230.22999 
L 505.357674 230.372679 
L 514.710181 231.60026 
L 517.952774 232.376313 
L 522.367429 233.419798 
L 526.88137 234.330259 
L 531.489099 234.801251 
L 535.003071 234.763357 
L 537.372086 234.606032 
L 539.761355 234.280987 
L 542.170148 233.721688 
L 543.381638 233.308699 
L 544.597733 232.759899 
L 547.043371 231.339141 
L 548.272726 230.392595 
L 550.744043 227.948508 
L 553.231539 224.962438 
L 555.734458 221.343626 
L 556.991463 219.246794 
L 559.516084 214.496948 
L 562.054212 209.189479 
L 567.167897 198.419395 
L 569.741895 193.529507 
L 571.03284 191.424052 
L 573.622133 188.173368 
L 574.920282 187.172859 
L 576.220636 186.707901 
L 577.523094 186.815966 
L 578.827558 187.542934 
L 580.133929 189.045267 
L 581.442106 191.252007 
L 582.751991 193.88466 
L 584.063483 197.063071 
L 588.006605 208.950949 
L 589.323528 213.232022 
L 591.960593 220.599495 
L 593.280535 223.82103 
L 595.922737 229.06564 
L 597.244794 231.2244 
L 598.567356 232.773495 
L 599.89032 233.931076 
L 601.213587 234.865869 
L 603.860625 235.932979 
L 605.184194 236.217231 
L 607.83093 236.491847 
L 610.476456 236.481862 
L 613.119967 236.27544 
L 615.760657 235.722619 
L 618.397722 234.876629 
L 619.714645 234.215748 
L 621.03036 233.383285 
L 623.657767 231.24805 
L 624.969259 230.008171 
L 626.279144 228.506309 
L 627.587321 226.750549 
L 628.893692 224.682194 
L 630.198156 222.405857 
L 631.500614 219.716497 
L 634.099117 213.583389 
L 639.267702 199.734948 
L 641.83621 193.348953 
L 644.393149 187.490601 
L 646.937742 182.900572 
L 648.205166 181.147989 
L 649.469213 179.649268 
L 650.729787 178.434858 
L 651.986792 177.649166 
L 653.240131 177.342782 
L 654.489711 177.521145 
L 655.735434 177.820295 
L 656.977207 178.472401 
L 658.214935 179.407555 
L 659.448524 180.675019 
L 661.902908 183.691928 
L 663.123517 185.391875 
L 664.339612 187.320687 
L 666.757893 191.810607 
L 670.349164 199.163486 
L 673.894866 205.881594 
L 676.232151 209.457678 
L 678.54739 212.648724 
L 679.696522 214.165949 
L 683.10892 217.879455 
L 685.353821 220.041531 
L 686.467005 221.007556 
L 687.573898 221.742182 
L 688.674416 222.2235 
L 689.768476 222.512326 
L 691.936885 222.711707 
L 694.078465 222.902899 
L 696.192564 223.102891 
L 699.310778 223.116735 
L 704.361397 222.725646 
L 706.328604 222.751028 
L 708.264599 223.021394 
L 710.168791 223.587964 
L 712.040601 224.30194 
L 713.879458 225.208485 
L 715.684802 226.228685 
L 721.731748 230.396732 
L 724.18995 231.214848 
L 725.783038 231.472528 
L 728.102886 231.716207 
L 729.602242 231.743367 
L 738.39515 231.375623 
L 740.182331 231.384748 
L 741.321954 231.362567 
L 742.952773 231.703281 
L 744.488265 232.203697 
L 745.458444 232.561681 
L 747.269125 233.555094 
L 748.512587 234.170653 
L 749.656912 234.510984 
L 751.027119 234.897274 
L 752.487564 235.658205 
L 752.992662 236.118825 
L 753.228185 236.418722 
L 754.557452 236.674491 
L 755.53242 236.674491 
L 755.53242 236.674491 
" clip-path="url(#pddb9d2982d)" style="fill: none; stroke: #0000ff; stroke-width: 1.5; stroke-linecap: square"/>
   </g>
   <g id="line2d_82">
    <path d="M 452.18883 236.674491 
L 459.208663 236.565633 
L 461.335758 236.29213 
L 463.232985 236.045275 
L 466.963895 235.811785 
L 476.657955 235.241639 
L 479.618364 234.35017 
L 481.938212 233.557367 
L 488.528487 231.822158 
L 493.841792 230.994822 
L 496.61247 230.915289 
L 499.456651 231.072851 
L 502.372385 231.654522 
L 504.354974 232.221865 
L 508.410472 233.427379 
L 510.482144 233.903296 
L 520.147352 235.474355 
L 525.743876 236.051963 
L 533.826384 236.245603 
L 544.597733 236.143104 
L 548.272726 235.882378 
L 553.231539 235.090514 
L 555.734458 234.453204 
L 559.516084 232.973679 
L 560.783508 232.324583 
L 562.054212 231.482934 
L 564.605076 229.231701 
L 568.453548 225.366177 
L 571.03284 222.663636 
L 573.622133 220.333531 
L 574.920282 219.457594 
L 576.220636 218.787668 
L 577.523094 218.358636 
L 578.827558 218.256874 
L 580.133929 218.352285 
L 581.442106 218.760314 
L 582.751991 219.497317 
L 584.063483 220.56488 
L 588.006605 225.197177 
L 590.641557 228.333729 
L 593.280535 231.182578 
L 595.922737 233.126137 
L 597.244794 233.9674 
L 599.89032 235.147203 
L 601.213587 235.520496 
L 603.860625 236.042432 
L 606.507663 236.208894 
L 609.153894 236.04799 
L 611.798513 235.707071 
L 613.119967 235.381488 
L 614.440715 234.934899 
L 615.760657 234.294239 
L 618.397722 232.626204 
L 621.03036 230.497095 
L 622.344767 229.096436 
L 624.969259 225.479183 
L 626.279144 223.558425 
L 628.893692 218.654929 
L 631.500614 213.479456 
L 635.394964 205.209524 
L 641.83621 191.317972 
L 644.393149 186.749683 
L 645.667038 184.906084 
L 646.937742 183.300486 
L 648.205166 182.119833 
L 649.469213 181.240601 
L 650.729787 180.660083 
L 651.986792 180.36964 
L 653.240131 180.438106 
L 654.489711 181.001979 
L 655.735434 181.748905 
L 656.977207 182.781328 
L 659.448524 185.457881 
L 660.677879 187.076876 
L 663.123517 190.994276 
L 666.757893 197.6339 
L 669.157016 202.254723 
L 673.894866 210.029571 
L 677.39257 214.90357 
L 679.696522 217.42438 
L 680.83988 218.439916 
L 684.234431 220.868431 
L 686.467005 221.979949 
L 689.768476 223.182505 
L 693.011069 224.035607 
L 701.353376 225.198216 
L 706.328604 226.267578 
L 715.684802 229.298924 
L 718.328782 230.285984 
L 720.894311 231.345756 
L 722.560209 231.866587 
L 727.338987 233.115266 
L 743.987092 235.509135 
L 747.694576 236.294181 
L 748.905084 236.510936 
L 751.027119 236.674491 
L 755.53242 236.674491 
L 755.53242 236.674491 
" clip-path="url(#pddb9d2982d)" style="fill: none; stroke: #ffa500; stroke-width: 1.5; stroke-linecap: square"/>
   </g>
   <g id="patch_11">
    <path d="M 630.198156 246.90101 
L 655.735434 246.90101 
L 655.735434 21.917584 
L 630.198156 21.917584 
z
" clip-path="url(#pddb9d2982d)" style="fill: #800080; opacity: 0.08"/>
   </g>
   <g id="patch_12">
    <path d="M 655.735434 246.90101 
L 679.696522 246.90101 
L 679.696522 21.917584 
L 655.735434 21.917584 
z
" clip-path="url(#pddb9d2982d)" style="fill: #ffff00; opacity: 0.12"/>
   </g>
   <g id="patch_13">
    <path d="M 452.18883 246.90101 
L 452.18883 21.917584 
" style="fill: none; stroke: #000000; stroke-width: 0.8; stroke-linejoin: miter; stroke-linecap: square"/>
   </g>
   <g id="patch_14">
    <path d="M 755.53242 246.90101 
L 755.53242 21.917584 
" style="fill: none; stroke: #000000; stroke-width: 0.8; stroke-linejoin: miter; stroke-linecap: square"/>
   </g>
   <g id="patch_15">
    <path d="M 452.18883 246.90101 
L 755.53242 246.90101 
" style="fill: none; stroke: #000000; stroke-width: 0.8; stroke-linejoin: miter; stroke-linecap: square"/>
   </g>
   <g id="patch_16">
    <path d="M 452.18883 21.917584 
L 755.53242 21.917584 
" style="fill: none; stroke: #000000; stroke-width: 0.8; stroke-linejoin: miter; stroke-linecap: square"/>
   </g>
   <g id="text_39">
    <!-- CTRL (NH max=0.049) -->
    <g transform="translate(507.328516 15.917584) scale(0.17 -0.17)">
     <defs>
      <path id="DejaVuSans-52" d="M 2841 2188 
Q 3044 2119 3236 1894 
Q 3428 1669 3622 1275 
L 4263 0 
L 3584 0 
L 2988 1197 
Q 2756 1666 2539 1819 
Q 2322 1972 1947 1972 
L 1259 1972 
L 1259 0 
L 628 0 
L 628 4666 
L 2053 4666 
Q 2853 4666 3247 4331 
Q 3641 3997 3641 3322 
Q 3641 2881 3436 2590 
Q 3231 2300 2841 2188 
z
M 1259 4147 
L 1259 2491 
L 2053 2491 
Q 2509 2491 2742 2702 
Q 2975 2913 2975 3322 
Q 2975 3731 2742 3939 
Q 2509 4147 2053 4147 
L 1259 4147 
z
" transform="scale(0.015625)"/>
     </defs>
     <use xlink:href="#DejaVuSans-43"/>
     <use xlink:href="#DejaVuSans-54" transform="translate(69.824219 0)"/>
     <use xlink:href="#DejaVuSans-52" transform="translate(130.908203 0)"/>
     <use xlink:href="#DejaVuSans-4c" transform="translate(200.390625 0)"/>
     <use xlink:href="#DejaVuSans-20" transform="translate(256.103516 0)"/>
     <use xlink:href="#DejaVuSans-28" transform="translate(287.890625 0)"/>
     <use xlink:href="#DejaVuSans-4e" transform="translate(326.904297 0)"/>
     <use xlink:href="#DejaVuSans-48" transform="translate(401.708984 0)"/>
     <use xlink:href="#DejaVuSans-20" transform="translate(476.904297 0)"/>
     <use xlink:href="#DejaVuSans-6d" transform="translate(508.691406 0)"/>
     <use xlink:href="#DejaVuSans-61" transform="translate(606.103516 0)"/>
     <use xlink:href="#DejaVuSans-78" transform="translate(667.382812 0)"/>
     <use xlink:href="#DejaVuSans-3d" transform="translate(726.5625 0)"/>
     <use xlink:href="#DejaVuSans-30" transform="translate(810.351562 0)"/>
     <use xlink:href="#DejaVuSans-2e" transform="translate(873.974609 0)"/>
     <use xlink:href="#DejaVuSans-30" transform="translate(905.761719 0)"/>
     <use xlink:href="#DejaVuSans-34" transform="translate(969.384766 0)"/>
     <use xlink:href="#DejaVuSans-39" transform="translate(1033.007812 0)"/>
     <use xlink:href="#DejaVuSans-29" transform="translate(1096.630859 0)"/>
    </g>
   </g>
   <g id="text_40">
    <!-- (b) -->
    <g transform="translate(452.18883 15.917584) scale(0.168 -0.168)">
     <defs>
      <path id="DejaVuSans-62" d="M 3116 1747 
Q 3116 2381 2855 2742 
Q 2594 3103 2138 3103 
Q 1681 3103 1420 2742 
Q 1159 2381 1159 1747 
Q 1159 1113 1420 752 
Q 1681 391 2138 391 
Q 2594 391 2855 752 
Q 3116 1113 3116 1747 
z
M 1159 2969 
Q 1341 3281 1617 3432 
Q 1894 3584 2278 3584 
Q 2916 3584 3314 3078 
Q 3713 2572 3713 1747 
Q 3713 922 3314 415 
Q 2916 -91 2278 -91 
Q 1894 -91 1617 61 
Q 1341 213 1159 525 
L 1159 0 
L 581 0 
L 581 4863 
L 1159 4863 
L 1159 2969 
z
" transform="scale(0.015625)"/>
     </defs>
     <use xlink:href="#DejaVuSans-28"/>
     <use xlink:href="#DejaVuSans-62" transform="translate(39.013672 0)"/>
     <use xlink:href="#DejaVuSans-29" transform="translate(102.490234 0)"/>
    </g>
   </g>
   <g id="legend_2">
    <g id="patch_17">
     <path d="M 461.98883 53.666959 
L 621.962893 53.666959 
Q 624.762893 53.666959 624.762893 50.866959 
L 624.762893 31.717584 
Q 624.762893 28.917584 621.962893 28.917584 
L 461.98883 28.917584 
Q 459.18883 28.917584 459.18883 31.717584 
L 459.18883 50.866959 
Q 459.18883 53.666959 461.98883 53.666959 
z
" style="fill: #ffffff; opacity: 0.8; stroke: #cccccc; stroke-linejoin: miter"/>
    </g>
    <g id="line2d_83">
     <path d="M 464.78883 40.255396 
L 478.78883 40.255396 
L 492.78883 40.255396 
" style="fill: none; stroke: #0000ff; stroke-width: 1.5; stroke-linecap: square"/>
    </g>
    <g id="text_41">
     <!-- JJA -->
     <g transform="translate(503.98883 45.155396) scale(0.14 -0.14)">
      <use xlink:href="#DejaVuSans-4a"/>
      <use xlink:href="#DejaVuSans-4a" transform="translate(29.492188 0)"/>
      <use xlink:href="#DejaVuSans-41" transform="translate(57.234375 0)"/>
     </g>
    </g>
    <g id="line2d_84">
     <path d="M 549.580705 40.255396 
L 563.580705 40.255396 
L 577.580705 40.255396 
" style="fill: none; stroke: #ffa500; stroke-width: 1.5; stroke-linecap: square"/>
    </g>
    <g id="text_42">
     <!-- SON -->
     <g transform="translate(588.780705 45.155396) scale(0.14 -0.14)">
      <use xlink:href="#DejaVuSans-53"/>
      <use xlink:href="#DejaVuSans-4f" transform="translate(63.476562 0)"/>
      <use xlink:href="#DejaVuSans-4e" transform="translate(142.1875 0)"/>
     </g>
    </g>
   </g>
  </g>
  <g id="axes_3">
   <g id="patch_18">
    <path d="M 836.74867 246.90101 
L 1140.09226 246.90101 
L 1140.09226 21.917584 
L 836.74867 21.917584 
z
" style="fill: #ffffff"/>
   </g>
   <g id="matplotlib.axis_5">
    <g id="xtick_15">
     <g id="line2d_85">
      <g>
       <use xlink:href="#m37657ca84e" x="836.74867" y="246.90101" style="stroke: #000000; stroke-width: 0.8"/>
      </g>
     </g>
     <g id="text_43">
      <!-- -90 -->
      <g transform="translate(825.315701 264.538822) scale(0.14 -0.14)">
       <use xlink:href="#DejaVuSans-2d"/>
       <use xlink:href="#DejaVuSans-39" transform="translate(36.083984 0)"/>
       <use xlink:href="#DejaVuSans-30" transform="translate(99.707031 0)"/>
      </g>
     </g>
    </g>
    <g id="xtick_16">
     <g id="line2d_86">
      <g>
       <use xlink:href="#m37657ca84e" x="857.068837" y="246.90101" style="stroke: #000000; stroke-width: 0.8"/>
      </g>
     </g>
     <g id="text_44">
      <!-- -60 -->
      <g transform="translate(845.635869 264.538822) scale(0.14 -0.14)">
       <use xlink:href="#DejaVuSans-2d"/>
       <use xlink:href="#DejaVuSans-36" transform="translate(36.083984 0)"/>
       <use xlink:href="#DejaVuSans-30" transform="translate(99.707031 0)"/>
      </g>
     </g>
    </g>
    <g id="xtick_17">
     <g id="line2d_87">
      <g>
       <use xlink:href="#m37657ca84e" x="912.584567" y="246.90101" style="stroke: #000000; stroke-width: 0.8"/>
      </g>
     </g>
     <g id="text_45">
      <!-- -30 -->
      <g transform="translate(901.151599 264.538822) scale(0.14 -0.14)">
       <use xlink:href="#DejaVuSans-2d"/>
       <use xlink:href="#DejaVuSans-33" transform="translate(36.083984 0)"/>
       <use xlink:href="#DejaVuSans-30" transform="translate(99.707031 0)"/>
      </g>
     </g>
    </g>
    <g id="xtick_18">
     <g id="line2d_88">
      <g>
       <use xlink:href="#m37657ca84e" x="988.420465" y="246.90101" style="stroke: #000000; stroke-width: 0.8"/>
      </g>
     </g>
     <g id="text_46">
      <!-- 0 -->
      <g transform="translate(983.966715 264.538822) scale(0.14 -0.14)">
       <use xlink:href="#DejaVuSans-30"/>
      </g>
     </g>
    </g>
    <g id="xtick_19">
     <g id="line2d_89">
      <g>
       <use xlink:href="#m37657ca84e" x="1064.256363" y="246.90101" style="stroke: #000000; stroke-width: 0.8"/>
      </g>
     </g>
     <g id="text_47">
      <!-- 30 -->
      <g transform="translate(1055.348862 264.538822) scale(0.14 -0.14)">
       <use xlink:href="#DejaVuSans-33"/>
       <use xlink:href="#DejaVuSans-30" transform="translate(63.623047 0)"/>
      </g>
     </g>
    </g>
    <g id="xtick_20">
     <g id="line2d_90">
      <g>
       <use xlink:href="#m37657ca84e" x="1119.772093" y="246.90101" style="stroke: #000000; stroke-width: 0.8"/>
      </g>
     </g>
     <g id="text_48">
      <!-- 60 -->
      <g transform="translate(1110.864593 264.538822) scale(0.14 -0.14)">
       <use xlink:href="#DejaVuSans-36"/>
       <use xlink:href="#DejaVuSans-30" transform="translate(63.623047 0)"/>
      </g>
     </g>
    </g>
    <g id="xtick_21">
     <g id="line2d_91">
      <g>
       <use xlink:href="#m37657ca84e" x="1140.09226" y="246.90101" style="stroke: #000000; stroke-width: 0.8"/>
      </g>
     </g>
     <g id="text_49">
      <!-- 90 -->
      <g transform="translate(1131.18476 264.538822) scale(0.14 -0.14)">
       <use xlink:href="#DejaVuSans-39"/>
       <use xlink:href="#DejaVuSans-30" transform="translate(63.623047 0)"/>
      </g>
     </g>
    </g>
    <g id="text_50">
     <!-- Latitude [°] -->
     <g transform="translate(948.423121 282.088197) scale(0.14 -0.14)">
      <use xlink:href="#DejaVuSans-4c"/>
      <use xlink:href="#DejaVuSans-61" transform="translate(55.712891 0)"/>
      <use xlink:href="#DejaVuSans-74" transform="translate(116.992188 0)"/>
      <use xlink:href="#DejaVuSans-69" transform="translate(156.201172 0)"/>
      <use xlink:href="#DejaVuSans-74" transform="translate(183.984375 0)"/>
      <use xlink:href="#DejaVuSans-75" transform="translate(223.193359 0)"/>
      <use xlink:href="#DejaVuSans-64" transform="translate(286.572266 0)"/>
      <use xlink:href="#DejaVuSans-65" transform="translate(350.048828 0)"/>
      <use xlink:href="#DejaVuSans-20" transform="translate(411.572266 0)"/>
      <use xlink:href="#DejaVuSans-5b" transform="translate(443.359375 0)"/>
      <use xlink:href="#DejaVuSans-b0" transform="translate(482.373047 0)"/>
      <use xlink:href="#DejaVuSans-5d" transform="translate(532.373047 0)"/>
     </g>
    </g>
   </g>
   <g id="matplotlib.axis_6">
    <g id="ytick_17">
     <g id="line2d_92">
      <g>
       <use xlink:href="#m583a7177c8" x="836.74867" y="236.674491" style="stroke: #000000; stroke-width: 0.8"/>
      </g>
     </g>
     <g id="line2d_93">
      <g>
       <use xlink:href="#ma062da7036" x="1140.09226" y="236.674491" style="stroke: #000000; stroke-width: 0.8"/>
      </g>
     </g>
     <g id="text_51">
      <!-- 0.000 -->
      <g transform="translate(789.669295 241.993397) scale(0.14 -0.14)">
       <use xlink:href="#DejaVuSans-30"/>
       <use xlink:href="#DejaVuSans-2e" transform="translate(63.623047 0)"/>
       <use xlink:href="#DejaVuSans-30" transform="translate(95.410156 0)"/>
       <use xlink:href="#DejaVuSans-30" transform="translate(159.033203 0)"/>
       <use xlink:href="#DejaVuSans-30" transform="translate(222.65625 0)"/>
      </g>
     </g>
    </g>
    <g id="ytick_18">
     <g id="line2d_94">
      <g>
       <use xlink:href="#m583a7177c8" x="836.74867" y="206.621632" style="stroke: #000000; stroke-width: 0.8"/>
      </g>
     </g>
     <g id="line2d_95">
      <g>
       <use xlink:href="#ma062da7036" x="1140.09226" y="206.621632" style="stroke: #000000; stroke-width: 0.8"/>
      </g>
     </g>
     <g id="text_52">
      <!-- 0.025 -->
      <g transform="translate(789.669295 211.940539) scale(0.14 -0.14)">
       <use xlink:href="#DejaVuSans-30"/>
       <use xlink:href="#DejaVuSans-2e" transform="translate(63.623047 0)"/>
       <use xlink:href="#DejaVuSans-30" transform="translate(95.410156 0)"/>
       <use xlink:href="#DejaVuSans-32" transform="translate(159.033203 0)"/>
       <use xlink:href="#DejaVuSans-35" transform="translate(222.65625 0)"/>
      </g>
     </g>
    </g>
    <g id="ytick_19">
     <g id="line2d_96">
      <g>
       <use xlink:href="#m583a7177c8" x="836.74867" y="176.568774" style="stroke: #000000; stroke-width: 0.8"/>
      </g>
     </g>
     <g id="line2d_97">
      <g>
       <use xlink:href="#ma062da7036" x="1140.09226" y="176.568774" style="stroke: #000000; stroke-width: 0.8"/>
      </g>
     </g>
     <g id="text_53">
      <!-- 0.050 -->
      <g transform="translate(789.669295 181.88768) scale(0.14 -0.14)">
       <use xlink:href="#DejaVuSans-30"/>
       <use xlink:href="#DejaVuSans-2e" transform="translate(63.623047 0)"/>
       <use xlink:href="#DejaVuSans-30" transform="translate(95.410156 0)"/>
       <use xlink:href="#DejaVuSans-35" transform="translate(159.033203 0)"/>
       <use xlink:href="#DejaVuSans-30" transform="translate(222.65625 0)"/>
      </g>
     </g>
    </g>
    <g id="ytick_20">
     <g id="line2d_98">
      <g>
       <use xlink:href="#m583a7177c8" x="836.74867" y="146.515916" style="stroke: #000000; stroke-width: 0.8"/>
      </g>
     </g>
     <g id="line2d_99">
      <g>
       <use xlink:href="#ma062da7036" x="1140.09226" y="146.515916" style="stroke: #000000; stroke-width: 0.8"/>
      </g>
     </g>
     <g id="text_54">
      <!-- 0.075 -->
      <g transform="translate(789.669295 151.834822) scale(0.14 -0.14)">
       <use xlink:href="#DejaVuSans-30"/>
       <use xlink:href="#DejaVuSans-2e" transform="translate(63.623047 0)"/>
       <use xlink:href="#DejaVuSans-30" transform="translate(95.410156 0)"/>
       <use xlink:href="#DejaVuSans-37" transform="translate(159.033203 0)"/>
       <use xlink:href="#DejaVuSans-35" transform="translate(222.65625 0)"/>
      </g>
     </g>
    </g>
    <g id="ytick_21">
     <g id="line2d_100">
      <g>
       <use xlink:href="#m583a7177c8" x="836.74867" y="116.463057" style="stroke: #000000; stroke-width: 0.8"/>
      </g>
     </g>
     <g id="line2d_101">
      <g>
       <use xlink:href="#ma062da7036" x="1140.09226" y="116.463057" style="stroke: #000000; stroke-width: 0.8"/>
      </g>
     </g>
     <g id="text_55">
      <!-- 0.100 -->
      <g transform="translate(789.669295 121.781964) scale(0.14 -0.14)">
       <use xlink:href="#DejaVuSans-30"/>
       <use xlink:href="#DejaVuSans-2e" transform="translate(63.623047 0)"/>
       <use xlink:href="#DejaVuSans-31" transform="translate(95.410156 0)"/>
       <use xlink:href="#DejaVuSans-30" transform="translate(159.033203 0)"/>
       <use xlink:href="#DejaVuSans-30" transform="translate(222.65625 0)"/>
      </g>
     </g>
    </g>
    <g id="ytick_22">
     <g id="line2d_102">
      <g>
       <use xlink:href="#m583a7177c8" x="836.74867" y="86.410199" style="stroke: #000000; stroke-width: 0.8"/>
      </g>
     </g>
     <g id="line2d_103">
      <g>
       <use xlink:href="#ma062da7036" x="1140.09226" y="86.410199" style="stroke: #000000; stroke-width: 0.8"/>
      </g>
     </g>
     <g id="text_56">
      <!-- 0.125 -->
      <g transform="translate(789.669295 91.729105) scale(0.14 -0.14)">
       <use xlink:href="#DejaVuSans-30"/>
       <use xlink:href="#DejaVuSans-2e" transform="translate(63.623047 0)"/>
       <use xlink:href="#DejaVuSans-31" transform="translate(95.410156 0)"/>
       <use xlink:href="#DejaVuSans-32" transform="translate(159.033203 0)"/>
       <use xlink:href="#DejaVuSans-35" transform="translate(222.65625 0)"/>
      </g>
     </g>
    </g>
    <g id="ytick_23">
     <g id="line2d_104">
      <g>
       <use xlink:href="#m583a7177c8" x="836.74867" y="56.357341" style="stroke: #000000; stroke-width: 0.8"/>
      </g>
     </g>
     <g id="line2d_105">
      <g>
       <use xlink:href="#ma062da7036" x="1140.09226" y="56.357341" style="stroke: #000000; stroke-width: 0.8"/>
      </g>
     </g>
     <g id="text_57">
      <!-- 0.150 -->
      <g transform="translate(789.669295 61.676247) scale(0.14 -0.14)">
       <use xlink:href="#DejaVuSans-30"/>
       <use xlink:href="#DejaVuSans-2e" transform="translate(63.623047 0)"/>
       <use xlink:href="#DejaVuSans-31" transform="translate(95.410156 0)"/>
       <use xlink:href="#DejaVuSans-35" transform="translate(159.033203 0)"/>
       <use xlink:href="#DejaVuSans-30" transform="translate(222.65625 0)"/>
      </g>
     </g>
    </g>
    <g id="ytick_24">
     <g id="line2d_106">
      <g>
       <use xlink:href="#m583a7177c8" x="836.74867" y="26.304482" style="stroke: #000000; stroke-width: 0.8"/>
      </g>
     </g>
     <g id="line2d_107">
      <g>
       <use xlink:href="#ma062da7036" x="1140.09226" y="26.304482" style="stroke: #000000; stroke-width: 0.8"/>
      </g>
     </g>
     <g id="text_58">
      <!-- 0.175 -->
      <g transform="translate(789.669295 31.623389) scale(0.14 -0.14)">
       <use xlink:href="#DejaVuSans-30"/>
       <use xlink:href="#DejaVuSans-2e" transform="translate(63.623047 0)"/>
       <use xlink:href="#DejaVuSans-31" transform="translate(95.410156 0)"/>
       <use xlink:href="#DejaVuSans-37" transform="translate(159.033203 0)"/>
       <use xlink:href="#DejaVuSans-35" transform="translate(222.65625 0)"/>
      </g>
     </g>
    </g>
    <g id="text_59">
     <!-- TC $r_4$ fractional area -->
     <g transform="translate(782.757732 205.389297) rotate(-90) scale(0.14 -0.14)">
      <use xlink:href="#DejaVuSans-54" transform="translate(0 0.015625)"/>
      <use xlink:href="#DejaVuSans-43" transform="translate(61.083984 0.015625)"/>
      <use xlink:href="#DejaVuSans-20" transform="translate(130.908203 0.015625)"/>
      <use xlink:href="#DejaVuSans-Oblique-72" transform="translate(162.695312 0.015625)"/>
      <use xlink:href="#DejaVuSans-34" transform="translate(203.808594 -16.390625) scale(0.7)"/>
      <use xlink:href="#DejaVuSans-20" transform="translate(251.079102 0.015625)"/>
      <use xlink:href="#DejaVuSans-66" transform="translate(282.866211 0.015625)"/>
      <use xlink:href="#DejaVuSans-72" transform="translate(318.071289 0.015625)"/>
      <use xlink:href="#DejaVuSans-61" transform="translate(359.18457 0.015625)"/>
      <use xlink:href="#DejaVuSans-63" transform="translate(420.463867 0.015625)"/>
      <use xlink:href="#DejaVuSans-74" transform="translate(475.444336 0.015625)"/>
      <use xlink:href="#DejaVuSans-69" transform="translate(514.65332 0.015625)"/>
      <use xlink:href="#DejaVuSans-6f" transform="translate(542.436523 0.015625)"/>
      <use xlink:href="#DejaVuSans-6e" transform="translate(603.618164 0.015625)"/>
      <use xlink:href="#DejaVuSans-61" transform="translate(666.99707 0.015625)"/>
      <use xlink:href="#DejaVuSans-6c" transform="translate(728.276367 0.015625)"/>
      <use xlink:href="#DejaVuSans-20" transform="translate(756.05957 0.015625)"/>
      <use xlink:href="#DejaVuSans-61" transform="translate(787.84668 0.015625)"/>
      <use xlink:href="#DejaVuSans-72" transform="translate(849.125977 0.015625)"/>
      <use xlink:href="#DejaVuSans-65" transform="translate(890.239258 0.015625)"/>
      <use xlink:href="#DejaVuSans-61" transform="translate(951.762695 0.015625)"/>
     </g>
    </g>
   </g>
   <g id="line2d_108">
    <path d="M 836.74867 246.90101 
L 836.74867 21.917584 
" clip-path="url(#pfef47e307b)" style="fill: none; stroke: #808080; stroke-width: 0.5; stroke-linecap: square"/>
   </g>
   <g id="line2d_109">
    <path d="M 857.068837 246.90101 
L 857.068837 21.917584 
" clip-path="url(#pfef47e307b)" style="fill: none; stroke: #808080; stroke-width: 0.5; stroke-linecap: square"/>
   </g>
   <g id="line2d_110">
    <path d="M 872.233129 246.90101 
L 872.233129 21.917584 
" clip-path="url(#pfef47e307b)" style="fill: none; stroke: #808080; stroke-width: 0.5; stroke-linecap: square"/>
   </g>
   <g id="line2d_111">
    <path d="M 890.927714 246.90101 
L 890.927714 21.917584 
" clip-path="url(#pfef47e307b)" style="fill: none; stroke: #808080; stroke-width: 0.5; stroke-linecap: square"/>
   </g>
   <g id="line2d_112">
    <path d="M 912.584567 246.90101 
L 912.584567 21.917584 
" clip-path="url(#pfef47e307b)" style="fill: none; stroke: #808080; stroke-width: 0.5; stroke-linecap: square"/>
   </g>
   <g id="line2d_113">
    <path d="M 936.545656 246.90101 
L 936.545656 21.917584 
" clip-path="url(#pfef47e307b)" style="fill: none; stroke: #808080; stroke-width: 0.5; stroke-linecap: square"/>
   </g>
   <g id="line2d_114">
    <path d="M 962.082934 246.90101 
L 962.082934 21.917584 
" clip-path="url(#pfef47e307b)" style="fill: none; stroke: #808080; stroke-width: 0.5; stroke-linecap: square"/>
   </g>
   <g id="line2d_115">
    <path d="M 988.420465 246.90101 
L 988.420465 21.917584 
" clip-path="url(#pfef47e307b)" style="fill: none; stroke: #808080; stroke-width: 0.5; stroke-linecap: square"/>
   </g>
   <g id="line2d_116">
    <path d="M 1014.757996 246.90101 
L 1014.757996 21.917584 
" clip-path="url(#pfef47e307b)" style="fill: none; stroke: #808080; stroke-width: 0.5; stroke-linecap: square"/>
   </g>
   <g id="line2d_117">
    <path d="M 1040.295274 246.90101 
L 1040.295274 21.917584 
" clip-path="url(#pfef47e307b)" style="fill: none; stroke: #808080; stroke-width: 0.5; stroke-linecap: square"/>
   </g>
   <g id="line2d_118">
    <path d="M 1064.256363 246.90101 
L 1064.256363 21.917584 
" clip-path="url(#pfef47e307b)" style="fill: none; stroke: #808080; stroke-width: 0.5; stroke-linecap: square"/>
   </g>
   <g id="line2d_119">
    <path d="M 1085.913216 246.90101 
L 1085.913216 21.917584 
" clip-path="url(#pfef47e307b)" style="fill: none; stroke: #808080; stroke-width: 0.5; stroke-linecap: square"/>
   </g>
   <g id="line2d_120">
    <path d="M 1104.607801 246.90101 
L 1104.607801 21.917584 
" clip-path="url(#pfef47e307b)" style="fill: none; stroke: #808080; stroke-width: 0.5; stroke-linecap: square"/>
   </g>
   <g id="line2d_121">
    <path d="M 1119.772093 246.90101 
L 1119.772093 21.917584 
" clip-path="url(#pfef47e307b)" style="fill: none; stroke: #808080; stroke-width: 0.5; stroke-linecap: square"/>
   </g>
   <g id="line2d_122">
    <path d="M 1140.09226 246.90101 
L 1140.09226 21.917584 
" clip-path="url(#pfef47e307b)" style="fill: none; stroke: #808080; stroke-width: 0.5; stroke-linecap: square"/>
   </g>
   <g id="line2d_123">
    <path d="M 836.74867 235.041183 
L 836.754445 235.041183 
L 836.77177 235.197919 
L 836.841064 235.112738 
L 836.893028 235.1201 
L 837.216224 234.515258 
L 837.579544 234.4868 
L 838.224729 234.50073 
L 838.828757 234.55437 
L 840.343897 234.881253 
L 841.579775 235.081526 
L 846.822646 235.996425 
L 849.328317 236.083189 
L 853.279906 236.164735 
L 856.412054 236.138623 
L 860.501771 235.844876 
L 862.678848 235.294916 
L 864.942103 234.620228 
L 869.720881 232.677456 
L 872.233129 231.91271 
L 882.112299 229.47447 
L 884.016491 229.138955 
L 885.952486 228.962119 
L 887.919693 229.040091 
L 890.927714 229.399413 
L 892.970312 229.720271 
L 897.1421 230.672988 
L 901.425097 231.43109 
L 905.814085 232.352253 
L 910.303716 233.618899 
L 913.7337 234.395406 
L 916.048939 234.809163 
L 920.744842 235.256997 
L 924.321195 235.366429 
L 926.729988 235.297456 
L 930.378182 234.88595 
L 932.832566 234.279855 
L 934.066155 233.878826 
L 937.791379 232.033167 
L 940.294298 230.484286 
L 944.075924 227.787896 
L 951.727737 221.997735 
L 955.59268 219.965411 
L 956.886126 219.628419 
L 958.181973 219.429004 
L 959.480122 219.342513 
L 960.780476 219.428326 
L 962.082934 219.709482 
L 963.387398 220.112104 
L 964.693769 220.636382 
L 967.311831 222.032797 
L 969.936323 223.751826 
L 977.840375 229.410273 
L 981.804634 231.937329 
L 983.127196 232.574624 
L 984.45016 232.989368 
L 985.773427 233.032258 
L 987.096896 232.82419 
L 988.420465 232.411397 
L 989.744034 231.638789 
L 991.067503 230.589429 
L 992.39077 228.963411 
L 993.713734 226.925998 
L 995.036296 224.684275 
L 997.679807 218.518555 
L 999.000555 215.089858 
L 1000.320497 211.114406 
L 1001.639533 206.786325 
L 1002.957562 202.072354 
L 1005.5902 191.342381 
L 1006.904607 185.664981 
L 1010.838984 165.787714 
L 1014.757996 143.093236 
L 1018.658957 118.804244 
L 1021.24825 103.386476 
L 1023.827542 89.41302 
L 1026.39605 77.326627 
L 1028.952989 66.253092 
L 1031.497582 56.41082 
L 1034.029053 47.890594 
L 1035.289627 43.967573 
L 1036.546632 40.800477 
L 1037.799971 38.162387 
L 1039.049551 35.846058 
L 1040.295274 34.120397 
L 1041.537047 33.016011 
L 1042.774775 32.446071 
L 1044.008364 32.144103 
L 1045.237719 32.315046 
L 1046.462748 33.01646 
L 1047.683357 34.004016 
L 1048.899452 35.794719 
L 1050.110942 38.094862 
L 1052.519735 43.853751 
L 1054.909004 50.969791 
L 1058.454706 62.079464 
L 1060.791991 69.156056 
L 1069.913661 98.683564 
L 1072.133738 106.191816 
L 1075.415833 116.141766 
L 1080.752404 131.037973 
L 1081.798946 133.536839 
L 1084.89559 140.151734 
L 1086.923416 143.691019 
L 1091.86038 152.69865 
L 1095.66862 160.738947 
L 1099.346194 168.486975 
L 1103.752603 176.509465 
L 1107.93947 184.169072 
L 1109.550946 186.993338 
L 1112.662726 191.658648 
L 1114.162082 193.822267 
L 1120.428876 201.877762 
L 1122.338711 204.649563 
L 1122.95499 205.397823 
L 1126.435924 210.669444 
L 1128.035088 213.104892 
L 1130.018284 216.777683 
L 1131.828965 220.02469 
L 1133.846375 222.999945 
L 1134.576026 223.832484 
L 1136.204922 226.664241 
L 1137.788025 230.651938 
L 1138.961721 233.331155 
L 1140.09226 236.674491 
L 1140.09226 236.674491 
" clip-path="url(#pfef47e307b)" style="fill: none; stroke: #0000ff; stroke-width: 1.5; stroke-linecap: square"/>
   </g>
   <g id="line2d_124">
    <path d="M 836.74867 236.674491 
L 849.328317 236.58465 
L 850.959136 236.413517 
L 853.88594 236.03396 
L 857.735624 235.623225 
L 860.501771 235.026673 
L 863.423767 234.143911 
L 866.498052 232.809051 
L 875.706355 228.71231 
L 877.494736 227.977748 
L 880.240489 227.318975 
L 882.112299 227.028776 
L 884.016491 226.968651 
L 885.952486 227.011538 
L 890.927714 227.65978 
L 896.088526 228.503288 
L 902.512614 229.198194 
L 906.927269 229.319728 
L 909.17217 229.32238 
L 913.7337 228.692175 
L 918.386224 227.923564 
L 920.744842 227.398974 
L 926.729988 225.76143 
L 937.791379 221.875957 
L 942.811877 220.594167 
L 946.614052 219.570167 
L 949.164916 219.263444 
L 951.727737 219.158767 
L 954.301735 219.388416 
L 956.886126 219.890895 
L 959.480122 220.755864 
L 962.082934 221.841497 
L 964.693769 223.179355 
L 968.623323 225.386144 
L 971.25073 226.910206 
L 977.840375 231.112856 
L 981.804634 233.042031 
L 984.45016 233.91061 
L 985.773427 234.165791 
L 987.096896 233.978241 
L 988.420465 233.447172 
L 989.744034 232.629242 
L 991.067503 231.563336 
L 992.39077 230.008572 
L 993.713734 228.183508 
L 995.036296 226.000704 
L 997.679807 220.343078 
L 999.000555 217.032337 
L 1001.639533 208.844809 
L 1002.957562 204.367993 
L 1006.904607 188.601467 
L 1010.838984 170.499766 
L 1016.060454 143.429556 
L 1019.954804 123.817793 
L 1023.827542 105.026194 
L 1027.676014 88.150811 
L 1030.226878 78.091061 
L 1031.497582 73.636144 
L 1032.765006 69.719582 
L 1034.029053 66.3538 
L 1036.546632 60.734823 
L 1037.799971 58.544729 
L 1039.049551 56.812295 
L 1040.295274 55.356642 
L 1041.537047 54.235969 
L 1042.774775 53.482205 
L 1044.008364 53.318443 
L 1045.237719 53.672142 
L 1046.462748 54.550542 
L 1047.683357 55.755623 
L 1048.899452 57.415863 
L 1050.110942 59.845427 
L 1052.519735 66.179229 
L 1056.096088 76.743023 
L 1058.454706 83.756239 
L 1059.62606 87.313574 
L 1061.95241 95.469409 
L 1064.256363 104.16786 
L 1066.537214 112.950348 
L 1068.794271 120.792866 
L 1072.133738 131.447473 
L 1075.415833 140.2406 
L 1078.638305 147.846665 
L 1082.838377 155.970463 
L 1084.89559 159.534357 
L 1088.921237 165.467347 
L 1091.86038 170.2859 
L 1093.780547 173.275402 
L 1095.66862 176.269591 
L 1097.524024 179.516821 
L 1103.752603 190.430482 
L 1106.291588 195.322069 
L 1109.550946 201.065842 
L 1114.162082 208.576749 
L 1117.741929 213.46207 
L 1119.772093 216.291626 
L 1121.075606 217.808538 
L 1122.338711 219.530453 
L 1124.156766 222.026408 
L 1125.317195 223.607858 
L 1128.546932 227.136154 
L 1130.487217 228.72882 
L 1133.464924 230.07943 
L 1134.216752 230.281072 
L 1134.576026 230.433505 
L 1136.497033 231.801513 
L 1138.012173 232.956373 
L 1139.117292 234.304812 
L 1139.515103 234.977291 
L 1139.999866 236.31646 
L 1140.09226 236.674491 
L 1140.09226 236.674491 
" clip-path="url(#pfef47e307b)" style="fill: none; stroke: #ffa500; stroke-width: 1.5; stroke-linecap: square"/>
   </g>
   <g id="patch_19">
    <path d="M 1014.757996 246.90101 
L 1040.295274 246.90101 
L 1040.295274 21.917584 
L 1014.757996 21.917584 
z
" clip-path="url(#pfef47e307b)" style="fill: #800080; opacity: 0.08"/>
   </g>
   <g id="patch_20">
    <path d="M 1040.295274 246.90101 
L 1064.256363 246.90101 
L 1064.256363 21.917584 
L 1040.295274 21.917584 
z
" clip-path="url(#pfef47e307b)" style="fill: #ffff00; opacity: 0.12"/>
   </g>
   <g id="patch_21">
    <path d="M 836.74867 246.90101 
L 836.74867 21.917584 
" style="fill: none; stroke: #000000; stroke-width: 0.8; stroke-linejoin: miter; stroke-linecap: square"/>
   </g>
   <g id="patch_22">
    <path d="M 1140.09226 246.90101 
L 1140.09226 21.917584 
" style="fill: none; stroke: #000000; stroke-width: 0.8; stroke-linejoin: miter; stroke-linecap: square"/>
   </g>
   <g id="patch_23">
    <path d="M 836.74867 246.90101 
L 1140.09226 246.90101 
" style="fill: none; stroke: #000000; stroke-width: 0.8; stroke-linejoin: miter; stroke-linecap: square"/>
   </g>
   <g id="patch_24">
    <path d="M 836.74867 21.917584 
L 1140.09226 21.917584 
" style="fill: none; stroke: #000000; stroke-width: 0.8; stroke-linejoin: miter; stroke-linecap: square"/>
   </g>
   <g id="text_60">
    <!-- SEED (NH max=0.170) -->
    <g transform="translate(890.974606 15.917584) scale(0.17 -0.17)">
     <use xlink:href="#DejaVuSans-53"/>
     <use xlink:href="#DejaVuSans-45" transform="translate(63.476562 0)"/>
     <use xlink:href="#DejaVuSans-45" transform="translate(126.660156 0)"/>
     <use xlink:href="#DejaVuSans-44" transform="translate(189.84375 0)"/>
     <use xlink:href="#DejaVuSans-20" transform="translate(266.845703 0)"/>
     <use xlink:href="#DejaVuSans-28" transform="translate(298.632812 0)"/>
     <use xlink:href="#DejaVuSans-4e" transform="translate(337.646484 0)"/>
     <use xlink:href="#DejaVuSans-48" transform="translate(412.451172 0)"/>
     <use xlink:href="#DejaVuSans-20" transform="translate(487.646484 0)"/>
     <use xlink:href="#DejaVuSans-6d" transform="translate(519.433594 0)"/>
     <use xlink:href="#DejaVuSans-61" transform="translate(616.845703 0)"/>
     <use xlink:href="#DejaVuSans-78" transform="translate(678.125 0)"/>
     <use xlink:href="#DejaVuSans-3d" transform="translate(737.304688 0)"/>
     <use xlink:href="#DejaVuSans-30" transform="translate(821.09375 0)"/>
     <use xlink:href="#DejaVuSans-2e" transform="translate(884.716797 0)"/>
     <use xlink:href="#DejaVuSans-31" transform="translate(916.503906 0)"/>
     <use xlink:href="#DejaVuSans-37" transform="translate(980.126953 0)"/>
     <use xlink:href="#DejaVuSans-30" transform="translate(1043.75 0)"/>
     <use xlink:href="#DejaVuSans-29" transform="translate(1107.373047 0)"/>
    </g>
   </g>
   <g id="text_61">
    <!-- (c) -->
    <g transform="translate(836.74867 15.917584) scale(0.168 -0.168)">
     <use xlink:href="#DejaVuSans-28"/>
     <use xlink:href="#DejaVuSans-63" transform="translate(39.013672 0)"/>
     <use xlink:href="#DejaVuSans-29" transform="translate(93.994141 0)"/>
    </g>
   </g>
   <g id="legend_3">
    <g id="patch_25">
     <path d="M 846.54867 53.666959 
L 1006.522732 53.666959 
Q 1009.322732 53.666959 1009.322732 50.866959 
L 1009.322732 31.717584 
Q 1009.322732 28.917584 1006.522732 28.917584 
L 846.54867 28.917584 
Q 843.74867 28.917584 843.74867 31.717584 
L 843.74867 50.866959 
Q 843.74867 53.666959 846.54867 53.666959 
z
" style="fill: #ffffff; opacity: 0.8; stroke: #cccccc; stroke-linejoin: miter"/>
    </g>
    <g id="line2d_125">
     <path d="M 849.34867 40.255396 
L 863.34867 40.255396 
L 877.34867 40.255396 
" style="fill: none; stroke: #0000ff; stroke-width: 1.5; stroke-linecap: square"/>
    </g>
    <g id="text_62">
     <!-- JJA -->
     <g transform="translate(888.54867 45.155396) scale(0.14 -0.14)">
      <use xlink:href="#DejaVuSans-4a"/>
      <use xlink:href="#DejaVuSans-4a" transform="translate(29.492188 0)"/>
      <use xlink:href="#DejaVuSans-41" transform="translate(57.234375 0)"/>
     </g>
    </g>
    <g id="line2d_126">
     <path d="M 934.140545 40.255396 
L 948.140545 40.255396 
L 962.140545 40.255396 
" style="fill: none; stroke: #ffa500; stroke-width: 1.5; stroke-linecap: square"/>
    </g>
    <g id="text_63">
     <!-- SON -->
     <g transform="translate(973.340545 45.155396) scale(0.14 -0.14)">
      <use xlink:href="#DejaVuSans-53"/>
      <use xlink:href="#DejaVuSans-4f" transform="translate(63.476562 0)"/>
      <use xlink:href="#DejaVuSans-4e" transform="translate(142.1875 0)"/>
     </g>
    </g>
   </g>
  </g>
 </g>
 <defs>
  <clipPath id="pfff98d8a6b">
   <rect x="67.62899" y="21.917584" width="303.34359" height="224.983426"/>
  </clipPath>
  <clipPath id="pddb9d2982d">
   <rect x="452.18883" y="21.917584" width="303.34359" height="224.983426"/>
  </clipPath>
  <clipPath id="pfef47e307b">
   <rect x="836.74867" y="21.917584" width="303.34359" height="224.983426"/>
  </clipPath>
 </defs>
</svg>
