<?xml version="1.0" encoding="utf-8" standalone="no"?>
<!DOCTYPE svg PUBLIC "-//W3C//DTD SVG 1.1//EN"
  "http://www.w3.org/Graphics/SVG/1.1/DTD/svg11.dtd">
<svg xmlns:xlink="http://www.w3.org/1999/xlink" width="1152pt" height="288pt" viewBox="0 0 1152 288" xmlns="http://www.w3.org/2000/svg" version="1.1">
 <metadata>
  <rdf:RDF xmlns:dc="http://purl.org/dc/elements/1.1/" xmlns:cc="http://creativecommons.org/ns#" xmlns:rdf="http://www.w3.org/1999/02/22-rdf-syntax-ns#">
   <cc:Work>
    <dc:type rdf:resource="http://purl.org/dc/dcmitype/StillImage"/>
    <dc:date>2026-01-02T13:32:48.825777</dc:date>
    <dc:format>image/svg+xml</dc:format>
    <dc:creator>
     <cc:Agent>
      <dc:title>Matplotlib v3.10.0, https://matplotlib.org/</dc:title>
     </cc:Agent>
    </dc:creator>
   </cc:Work>
  </rdf:RDF>
 </metadata>
 <defs>
  <style type="text/css">*{stroke-linejoin: round; stroke-linecap: butt}</style>
 </defs>
 <g id="figure_1">
  <g id="patch_1">
   <path d="M 0 288 
L 1152 288 
L 1152 0 
L 0 0 
z
" style="fill: #ffffff"/>
  </g>
  <g id="axes_1">
   <g id="patch_2">
    <path d="M 58.72149 246.90101 
L 370.97258 246.90101 
L 370.97258 36.512323 
L 58.72149 36.512323 
z
" style="fill: #ffffff"/>
   </g>
   <g id="matplotlib.axis_1">
    <g id="xtick_1">
     <g id="line2d_1">
      <defs>
       <path id="mf5aba982f9" d="M 0 0 
L 0 3.5 
" style="stroke: #000000; stroke-width: 0.8"/>
      </defs>
      <g>
       <use xlink:href="#mf5aba982f9" x="58.72149" y="246.90101" style="stroke: #000000; stroke-width: 0.8"/>
      </g>
     </g>
     <g id="text_1">
      <!-- -90 -->
      <g transform="translate(47.288521 264.538822) scale(0.14 -0.14)">
       <defs>
        <path id="DejaVuSans-2d" d="M 313 2009 
L 1997 2009 
L 1997 1497 
L 313 1497 
L 313 2009 
z
" transform="scale(0.015625)"/>
        <path id="DejaVuSans-39" d="M 703 97 
L 703 672 
Q 941 559 1184 500 
Q 1428 441 1663 441 
Q 2288 441 2617 861 
Q 2947 1281 2994 2138 
Q 2813 1869 2534 1725 
Q 2256 1581 1919 1581 
Q 1219 1581 811 2004 
Q 403 2428 403 3163 
Q 403 3881 828 4315 
Q 1253 4750 1959 4750 
Q 2769 4750 3195 4129 
Q 3622 3509 3622 2328 
Q 3622 1225 3098 567 
Q 2575 -91 1691 -91 
Q 1453 -91 1209 -44 
Q 966 3 703 97 
z
M 1959 2075 
Q 2384 2075 2632 2365 
Q 2881 2656 2881 3163 
Q 2881 3666 2632 3958 
Q 2384 4250 1959 4250 
Q 1534 4250 1286 3958 
Q 1038 3666 1038 3163 
Q 1038 2656 1286 2365 
Q 1534 2075 1959 2075 
z
" transform="scale(0.015625)"/>
        <path id="DejaVuSans-30" d="M 2034 4250 
Q 1547 4250 1301 3770 
Q 1056 3291 1056 2328 
Q 1056 1369 1301 889 
Q 1547 409 2034 409 
Q 2525 409 2770 889 
Q 3016 1369 3016 2328 
Q 3016 3291 2770 3770 
Q 2525 4250 2034 4250 
z
M 2034 4750 
Q 2819 4750 3233 4129 
Q 3647 3509 3647 2328 
Q 3647 1150 3233 529 
Q 2819 -91 2034 -91 
Q 1250 -91 836 529 
Q 422 1150 422 2328 
Q 422 3509 836 4129 
Q 1250 4750 2034 4750 
z
" transform="scale(0.015625)"/>
       </defs>
       <use xlink:href="#DejaVuSans-2d"/>
       <use xlink:href="#DejaVuSans-39" transform="translate(36.083984 0)"/>
       <use xlink:href="#DejaVuSans-30" transform="translate(99.707031 0)"/>
      </g>
     </g>
    </g>
    <g id="xtick_2">
     <g id="line2d_2">
      <g>
       <use xlink:href="#mf5aba982f9" x="79.638347" y="246.90101" style="stroke: #000000; stroke-width: 0.8"/>
      </g>
     </g>
     <g id="text_2">
      <!-- -60 -->
      <g transform="translate(68.205378 264.538822) scale(0.14 -0.14)">
       <defs>
        <path id="DejaVuSans-36" d="M 2113 2584 
Q 1688 2584 1439 2293 
Q 1191 2003 1191 1497 
Q 1191 994 1439 701 
Q 1688 409 2113 409 
Q 2538 409 2786 701 
Q 3034 994 3034 1497 
Q 3034 2003 2786 2293 
Q 2538 2584 2113 2584 
z
M 3366 4563 
L 3366 3988 
Q 3128 4100 2886 4159 
Q 2644 4219 2406 4219 
Q 1781 4219 1451 3797 
Q 1122 3375 1075 2522 
Q 1259 2794 1537 2939 
Q 1816 3084 2150 3084 
Q 2853 3084 3261 2657 
Q 3669 2231 3669 1497 
Q 3669 778 3244 343 
Q 2819 -91 2113 -91 
Q 1303 -91 875 529 
Q 447 1150 447 2328 
Q 447 3434 972 4092 
Q 1497 4750 2381 4750 
Q 2619 4750 2861 4703 
Q 3103 4656 3366 4563 
z
" transform="scale(0.015625)"/>
       </defs>
       <use xlink:href="#DejaVuSans-2d"/>
       <use xlink:href="#DejaVuSans-36" transform="translate(36.083984 0)"/>
       <use xlink:href="#DejaVuSans-30" transform="translate(99.707031 0)"/>
      </g>
     </g>
    </g>
    <g id="xtick_3">
     <g id="line2d_3">
      <g>
       <use xlink:href="#mf5aba982f9" x="136.784262" y="246.90101" style="stroke: #000000; stroke-width: 0.8"/>
      </g>
     </g>
     <g id="text_3">
      <!-- -30 -->
      <g transform="translate(125.351294 264.538822) scale(0.14 -0.14)">
       <defs>
        <path id="DejaVuSans-33" d="M 2597 2516 
Q 3050 2419 3304 2112 
Q 3559 1806 3559 1356 
Q 3559 666 3084 287 
Q 2609 -91 1734 -91 
Q 1441 -91 1130 -33 
Q 819 25 488 141 
L 488 750 
Q 750 597 1062 519 
Q 1375 441 1716 441 
Q 2309 441 2620 675 
Q 2931 909 2931 1356 
Q 2931 1769 2642 2001 
Q 2353 2234 1838 2234 
L 1294 2234 
L 1294 2753 
L 1863 2753 
Q 2328 2753 2575 2939 
Q 2822 3125 2822 3475 
Q 2822 3834 2567 4026 
Q 2313 4219 1838 4219 
Q 1578 4219 1281 4162 
Q 984 4106 628 3988 
L 628 4550 
Q 988 4650 1302 4700 
Q 1616 4750 1894 4750 
Q 2613 4750 3031 4423 
Q 3450 4097 3450 3541 
Q 3450 3153 3228 2886 
Q 3006 2619 2597 2516 
z
" transform="scale(0.015625)"/>
       </defs>
       <use xlink:href="#DejaVuSans-2d"/>
       <use xlink:href="#DejaVuSans-33" transform="translate(36.083984 0)"/>
       <use xlink:href="#DejaVuSans-30" transform="translate(99.707031 0)"/>
      </g>
     </g>
    </g>
    <g id="xtick_4">
     <g id="line2d_4">
      <g>
       <use xlink:href="#mf5aba982f9" x="214.847035" y="246.90101" style="stroke: #000000; stroke-width: 0.8"/>
      </g>
     </g>
     <g id="text_4">
      <!-- 0 -->
      <g transform="translate(210.393285 264.538822) scale(0.14 -0.14)">
       <use xlink:href="#DejaVuSans-30"/>
      </g>
     </g>
    </g>
    <g id="xtick_5">
     <g id="line2d_5">
      <g>
       <use xlink:href="#mf5aba982f9" x="292.909807" y="246.90101" style="stroke: #000000; stroke-width: 0.8"/>
      </g>
     </g>
     <g id="text_5">
      <!-- 30 -->
      <g transform="translate(284.002307 264.538822) scale(0.14 -0.14)">
       <use xlink:href="#DejaVuSans-33"/>
       <use xlink:href="#DejaVuSans-30" transform="translate(63.623047 0)"/>
      </g>
     </g>
    </g>
    <g id="xtick_6">
     <g id="line2d_6">
      <g>
       <use xlink:href="#mf5aba982f9" x="350.055723" y="246.90101" style="stroke: #000000; stroke-width: 0.8"/>
      </g>
     </g>
     <g id="text_6">
      <!-- 60 -->
      <g transform="translate(341.148223 264.538822) scale(0.14 -0.14)">
       <use xlink:href="#DejaVuSans-36"/>
       <use xlink:href="#DejaVuSans-30" transform="translate(63.623047 0)"/>
      </g>
     </g>
    </g>
    <g id="xtick_7">
     <g id="line2d_7">
      <g>
       <use xlink:href="#mf5aba982f9" x="370.97258" y="246.90101" style="stroke: #000000; stroke-width: 0.8"/>
      </g>
     </g>
     <g id="text_7">
      <!-- 90 -->
      <g transform="translate(362.06508 264.538822) scale(0.14 -0.14)">
       <use xlink:href="#DejaVuSans-39"/>
       <use xlink:href="#DejaVuSans-30" transform="translate(63.623047 0)"/>
      </g>
     </g>
    </g>
    <g id="text_8">
     <!-- Latitude [°] -->
     <g transform="translate(174.849691 282.088197) scale(0.14 -0.14)">
      <defs>
       <path id="DejaVuSans-4c" d="M 628 4666 
L 1259 4666 
L 1259 531 
L 3531 531 
L 3531 0 
L 628 0 
L 628 4666 
z
" transform="scale(0.015625)"/>
       <path id="DejaVuSans-61" d="M 2194 1759 
Q 1497 1759 1228 1600 
Q 959 1441 959 1056 
Q 959 750 1161 570 
Q 1363 391 1709 391 
Q 2188 391 2477 730 
Q 2766 1069 2766 1631 
L 2766 1759 
L 2194 1759 
z
M 3341 1997 
L 3341 0 
L 2766 0 
L 2766 531 
Q 2569 213 2275 61 
Q 1981 -91 1556 -91 
Q 1019 -91 701 211 
Q 384 513 384 1019 
Q 384 1609 779 1909 
Q 1175 2209 1959 2209 
L 2766 2209 
L 2766 2266 
Q 2766 2663 2505 2880 
Q 2244 3097 1772 3097 
Q 1472 3097 1187 3025 
Q 903 2953 641 2809 
L 641 3341 
Q 956 3463 1253 3523 
Q 1550 3584 1831 3584 
Q 2591 3584 2966 3190 
Q 3341 2797 3341 1997 
z
" transform="scale(0.015625)"/>
       <path id="DejaVuSans-74" d="M 1172 4494 
L 1172 3500 
L 2356 3500 
L 2356 3053 
L 1172 3053 
L 1172 1153 
Q 1172 725 1289 603 
Q 1406 481 1766 481 
L 2356 481 
L 2356 0 
L 1766 0 
Q 1100 0 847 248 
Q 594 497 594 1153 
L 594 3053 
L 172 3053 
L 172 3500 
L 594 3500 
L 594 4494 
L 1172 4494 
z
" transform="scale(0.015625)"/>
       <path id="DejaVuSans-69" d="M 603 3500 
L 1178 3500 
L 1178 0 
L 603 0 
L 603 3500 
z
M 603 4863 
L 1178 4863 
L 1178 4134 
L 603 4134 
L 603 4863 
z
" transform="scale(0.015625)"/>
       <path id="DejaVuSans-75" d="M 544 1381 
L 544 3500 
L 1119 3500 
L 1119 1403 
Q 1119 906 1312 657 
Q 1506 409 1894 409 
Q 2359 409 2629 706 
Q 2900 1003 2900 1516 
L 2900 3500 
L 3475 3500 
L 3475 0 
L 2900 0 
L 2900 538 
Q 2691 219 2414 64 
Q 2138 -91 1772 -91 
Q 1169 -91 856 284 
Q 544 659 544 1381 
z
M 1991 3584 
L 1991 3584 
z
" transform="scale(0.015625)"/>
       <path id="DejaVuSans-64" d="M 2906 2969 
L 2906 4863 
L 3481 4863 
L 3481 0 
L 2906 0 
L 2906 525 
Q 2725 213 2448 61 
Q 2172 -91 1784 -91 
Q 1150 -91 751 415 
Q 353 922 353 1747 
Q 353 2572 751 3078 
Q 1150 3584 1784 3584 
Q 2172 3584 2448 3432 
Q 2725 3281 2906 2969 
z
M 947 1747 
Q 947 1113 1208 752 
Q 1469 391 1925 391 
Q 2381 391 2643 752 
Q 2906 1113 2906 1747 
Q 2906 2381 2643 2742 
Q 2381 3103 1925 3103 
Q 1469 3103 1208 2742 
Q 947 2381 947 1747 
z
" transform="scale(0.015625)"/>
       <path id="DejaVuSans-65" d="M 3597 1894 
L 3597 1613 
L 953 1613 
Q 991 1019 1311 708 
Q 1631 397 2203 397 
Q 2534 397 2845 478 
Q 3156 559 3463 722 
L 3463 178 
Q 3153 47 2828 -22 
Q 2503 -91 2169 -91 
Q 1331 -91 842 396 
Q 353 884 353 1716 
Q 353 2575 817 3079 
Q 1281 3584 2069 3584 
Q 2775 3584 3186 3129 
Q 3597 2675 3597 1894 
z
M 3022 2063 
Q 3016 2534 2758 2815 
Q 2500 3097 2075 3097 
Q 1594 3097 1305 2825 
Q 1016 2553 972 2059 
L 3022 2063 
z
" transform="scale(0.015625)"/>
       <path id="DejaVuSans-20" transform="scale(0.015625)"/>
       <path id="DejaVuSans-5b" d="M 550 4863 
L 1875 4863 
L 1875 4416 
L 1125 4416 
L 1125 -397 
L 1875 -397 
L 1875 -844 
L 550 -844 
L 550 4863 
z
" transform="scale(0.015625)"/>
       <path id="DejaVuSans-b0" d="M 1600 4347 
Q 1350 4347 1178 4173 
Q 1006 4000 1006 3750 
Q 1006 3503 1178 3333 
Q 1350 3163 1600 3163 
Q 1850 3163 2022 3333 
Q 2194 3503 2194 3750 
Q 2194 3997 2020 4172 
Q 1847 4347 1600 4347 
z
M 1600 4750 
Q 1800 4750 1984 4673 
Q 2169 4597 2303 4453 
Q 2447 4313 2519 4134 
Q 2591 3956 2591 3750 
Q 2591 3338 2302 3052 
Q 2013 2766 1594 2766 
Q 1172 2766 890 3047 
Q 609 3328 609 3750 
Q 609 4169 896 4459 
Q 1184 4750 1600 4750 
z
" transform="scale(0.015625)"/>
       <path id="DejaVuSans-5d" d="M 1947 4863 
L 1947 -844 
L 622 -844 
L 622 -397 
L 1369 -397 
L 1369 4416 
L 622 4416 
L 622 4863 
L 1947 4863 
z
" transform="scale(0.015625)"/>
      </defs>
      <use xlink:href="#DejaVuSans-4c"/>
      <use xlink:href="#DejaVuSans-61" transform="translate(55.712891 0)"/>
      <use xlink:href="#DejaVuSans-74" transform="translate(116.992188 0)"/>
      <use xlink:href="#DejaVuSans-69" transform="translate(156.201172 0)"/>
      <use xlink:href="#DejaVuSans-74" transform="translate(183.984375 0)"/>
      <use xlink:href="#DejaVuSans-75" transform="translate(223.193359 0)"/>
      <use xlink:href="#DejaVuSans-64" transform="translate(286.572266 0)"/>
      <use xlink:href="#DejaVuSans-65" transform="translate(350.048828 0)"/>
      <use xlink:href="#DejaVuSans-20" transform="translate(411.572266 0)"/>
      <use xlink:href="#DejaVuSans-5b" transform="translate(443.359375 0)"/>
      <use xlink:href="#DejaVuSans-b0" transform="translate(482.373047 0)"/>
      <use xlink:href="#DejaVuSans-5d" transform="translate(532.373047 0)"/>
     </g>
    </g>
   </g>
   <g id="matplotlib.axis_2">
    <g id="ytick_1">
     <g id="line2d_8">
      <defs>
       <path id="mde0611fa4c" d="M 0 0 
L -3.5 0 
" style="stroke: #000000; stroke-width: 0.8"/>
      </defs>
      <g>
       <use xlink:href="#mde0611fa4c" x="58.72149" y="237.337888" style="stroke: #000000; stroke-width: 0.8"/>
      </g>
     </g>
     <g id="line2d_9">
      <defs>
       <path id="md0605ce87b" d="M 0 0 
L 3.5 0 
" style="stroke: #000000; stroke-width: 0.8"/>
      </defs>
      <g>
       <use xlink:href="#md0605ce87b" x="370.97258" y="237.337888" style="stroke: #000000; stroke-width: 0.8"/>
      </g>
     </g>
     <g id="text_9">
      <!-- 0.00 -->
      <g transform="translate(20.549615 242.656794) scale(0.14 -0.14)">
       <defs>
        <path id="DejaVuSans-2e" d="M 684 794 
L 1344 794 
L 1344 0 
L 684 0 
L 684 794 
z
" transform="scale(0.015625)"/>
       </defs>
       <use xlink:href="#DejaVuSans-30"/>
       <use xlink:href="#DejaVuSans-2e" transform="translate(63.623047 0)"/>
       <use xlink:href="#DejaVuSans-30" transform="translate(95.410156 0)"/>
       <use xlink:href="#DejaVuSans-30" transform="translate(159.033203 0)"/>
      </g>
     </g>
    </g>
    <g id="ytick_2">
     <g id="line2d_10">
      <g>
       <use xlink:href="#mde0611fa4c" x="58.72149" y="181.131246" style="stroke: #000000; stroke-width: 0.8"/>
      </g>
     </g>
     <g id="line2d_11">
      <g>
       <use xlink:href="#md0605ce87b" x="370.97258" y="181.131246" style="stroke: #000000; stroke-width: 0.8"/>
      </g>
     </g>
     <g id="text_10">
      <!-- 0.05 -->
      <g transform="translate(20.549615 186.450153) scale(0.14 -0.14)">
       <defs>
        <path id="DejaVuSans-35" d="M 691 4666 
L 3169 4666 
L 3169 4134 
L 1269 4134 
L 1269 2991 
Q 1406 3038 1543 3061 
Q 1681 3084 1819 3084 
Q 2600 3084 3056 2656 
Q 3513 2228 3513 1497 
Q 3513 744 3044 326 
Q 2575 -91 1722 -91 
Q 1428 -91 1123 -41 
Q 819 9 494 109 
L 494 744 
Q 775 591 1075 516 
Q 1375 441 1709 441 
Q 2250 441 2565 725 
Q 2881 1009 2881 1497 
Q 2881 1984 2565 2268 
Q 2250 2553 1709 2553 
Q 1456 2553 1204 2497 
Q 953 2441 691 2322 
L 691 4666 
z
" transform="scale(0.015625)"/>
       </defs>
       <use xlink:href="#DejaVuSans-30"/>
       <use xlink:href="#DejaVuSans-2e" transform="translate(63.623047 0)"/>
       <use xlink:href="#DejaVuSans-30" transform="translate(95.410156 0)"/>
       <use xlink:href="#DejaVuSans-35" transform="translate(159.033203 0)"/>
      </g>
     </g>
    </g>
    <g id="ytick_3">
     <g id="line2d_12">
      <g>
       <use xlink:href="#mde0611fa4c" x="58.72149" y="124.924605" style="stroke: #000000; stroke-width: 0.8"/>
      </g>
     </g>
     <g id="line2d_13">
      <g>
       <use xlink:href="#md0605ce87b" x="370.97258" y="124.924605" style="stroke: #000000; stroke-width: 0.8"/>
      </g>
     </g>
     <g id="text_11">
      <!-- 0.10 -->
      <g transform="translate(20.549615 130.243511) scale(0.14 -0.14)">
       <defs>
        <path id="DejaVuSans-31" d="M 794 531 
L 1825 531 
L 1825 4091 
L 703 3866 
L 703 4441 
L 1819 4666 
L 2450 4666 
L 2450 531 
L 3481 531 
L 3481 0 
L 794 0 
L 794 531 
z
" transform="scale(0.015625)"/>
       </defs>
       <use xlink:href="#DejaVuSans-30"/>
       <use xlink:href="#DejaVuSans-2e" transform="translate(63.623047 0)"/>
       <use xlink:href="#DejaVuSans-31" transform="translate(95.410156 0)"/>
       <use xlink:href="#DejaVuSans-30" transform="translate(159.033203 0)"/>
      </g>
     </g>
    </g>
    <g id="ytick_4">
     <g id="line2d_14">
      <g>
       <use xlink:href="#mde0611fa4c" x="58.72149" y="68.717963" style="stroke: #000000; stroke-width: 0.8"/>
      </g>
     </g>
     <g id="line2d_15">
      <g>
       <use xlink:href="#md0605ce87b" x="370.97258" y="68.717963" style="stroke: #000000; stroke-width: 0.8"/>
      </g>
     </g>
     <g id="text_12">
      <!-- 0.15 -->
      <g transform="translate(20.549615 74.036869) scale(0.14 -0.14)">
       <use xlink:href="#DejaVuSans-30"/>
       <use xlink:href="#DejaVuSans-2e" transform="translate(63.623047 0)"/>
       <use xlink:href="#DejaVuSans-31" transform="translate(95.410156 0)"/>
       <use xlink:href="#DejaVuSans-35" transform="translate(159.033203 0)"/>
      </g>
     </g>
    </g>
    <g id="text_13">
     <!-- TC $r_4$ fractional area -->
     <g transform="translate(13.638053 212.686666) rotate(-90) scale(0.14 -0.14)">
      <defs>
       <path id="DejaVuSans-54" d="M -19 4666 
L 3928 4666 
L 3928 4134 
L 2272 4134 
L 2272 0 
L 1638 0 
L 1638 4134 
L -19 4134 
L -19 4666 
z
" transform="scale(0.015625)"/>
       <path id="DejaVuSans-43" d="M 4122 4306 
L 4122 3641 
Q 3803 3938 3442 4084 
Q 3081 4231 2675 4231 
Q 1875 4231 1450 3742 
Q 1025 3253 1025 2328 
Q 1025 1406 1450 917 
Q 1875 428 2675 428 
Q 3081 428 3442 575 
Q 3803 722 4122 1019 
L 4122 359 
Q 3791 134 3420 21 
Q 3050 -91 2638 -91 
Q 1578 -91 968 557 
Q 359 1206 359 2328 
Q 359 3453 968 4101 
Q 1578 4750 2638 4750 
Q 3056 4750 3426 4639 
Q 3797 4528 4122 4306 
z
" transform="scale(0.015625)"/>
       <path id="DejaVuSans-Oblique-72" d="M 2853 2969 
Q 2766 3016 2653 3041 
Q 2541 3066 2413 3066 
Q 1953 3066 1609 2717 
Q 1266 2369 1153 1784 
L 800 0 
L 225 0 
L 909 3500 
L 1484 3500 
L 1375 2956 
Q 1603 3259 1920 3421 
Q 2238 3584 2597 3584 
Q 2691 3584 2781 3573 
Q 2872 3563 2963 3538 
L 2853 2969 
z
" transform="scale(0.015625)"/>
       <path id="DejaVuSans-34" d="M 2419 4116 
L 825 1625 
L 2419 1625 
L 2419 4116 
z
M 2253 4666 
L 3047 4666 
L 3047 1625 
L 3713 1625 
L 3713 1100 
L 3047 1100 
L 3047 0 
L 2419 0 
L 2419 1100 
L 313 1100 
L 313 1709 
L 2253 4666 
z
" transform="scale(0.015625)"/>
       <path id="DejaVuSans-66" d="M 2375 4863 
L 2375 4384 
L 1825 4384 
Q 1516 4384 1395 4259 
Q 1275 4134 1275 3809 
L 1275 3500 
L 2222 3500 
L 2222 3053 
L 1275 3053 
L 1275 0 
L 697 0 
L 697 3053 
L 147 3053 
L 147 3500 
L 697 3500 
L 697 3744 
Q 697 4328 969 4595 
Q 1241 4863 1831 4863 
L 2375 4863 
z
" transform="scale(0.015625)"/>
       <path id="DejaVuSans-72" d="M 2631 2963 
Q 2534 3019 2420 3045 
Q 2306 3072 2169 3072 
Q 1681 3072 1420 2755 
Q 1159 2438 1159 1844 
L 1159 0 
L 581 0 
L 581 3500 
L 1159 3500 
L 1159 2956 
Q 1341 3275 1631 3429 
Q 1922 3584 2338 3584 
Q 2397 3584 2469 3576 
Q 2541 3569 2628 3553 
L 2631 2963 
z
" transform="scale(0.015625)"/>
       <path id="DejaVuSans-63" d="M 3122 3366 
L 3122 2828 
Q 2878 2963 2633 3030 
Q 2388 3097 2138 3097 
Q 1578 3097 1268 2742 
Q 959 2388 959 1747 
Q 959 1106 1268 751 
Q 1578 397 2138 397 
Q 2388 397 2633 464 
Q 2878 531 3122 666 
L 3122 134 
Q 2881 22 2623 -34 
Q 2366 -91 2075 -91 
Q 1284 -91 818 406 
Q 353 903 353 1747 
Q 353 2603 823 3093 
Q 1294 3584 2113 3584 
Q 2378 3584 2631 3529 
Q 2884 3475 3122 3366 
z
" transform="scale(0.015625)"/>
       <path id="DejaVuSans-6f" d="M 1959 3097 
Q 1497 3097 1228 2736 
Q 959 2375 959 1747 
Q 959 1119 1226 758 
Q 1494 397 1959 397 
Q 2419 397 2687 759 
Q 2956 1122 2956 1747 
Q 2956 2369 2687 2733 
Q 2419 3097 1959 3097 
z
M 1959 3584 
Q 2709 3584 3137 3096 
Q 3566 2609 3566 1747 
Q 3566 888 3137 398 
Q 2709 -91 1959 -91 
Q 1206 -91 779 398 
Q 353 888 353 1747 
Q 353 2609 779 3096 
Q 1206 3584 1959 3584 
z
" transform="scale(0.015625)"/>
       <path id="DejaVuSans-6e" d="M 3513 2113 
L 3513 0 
L 2938 0 
L 2938 2094 
Q 2938 2591 2744 2837 
Q 2550 3084 2163 3084 
Q 1697 3084 1428 2787 
Q 1159 2491 1159 1978 
L 1159 0 
L 581 0 
L 581 3500 
L 1159 3500 
L 1159 2956 
Q 1366 3272 1645 3428 
Q 1925 3584 2291 3584 
Q 2894 3584 3203 3211 
Q 3513 2838 3513 2113 
z
" transform="scale(0.015625)"/>
       <path id="DejaVuSans-6c" d="M 603 4863 
L 1178 4863 
L 1178 0 
L 603 0 
L 603 4863 
z
" transform="scale(0.015625)"/>
      </defs>
      <use xlink:href="#DejaVuSans-54" transform="translate(0 0.015625)"/>
      <use xlink:href="#DejaVuSans-43" transform="translate(61.083984 0.015625)"/>
      <use xlink:href="#DejaVuSans-20" transform="translate(130.908203 0.015625)"/>
      <use xlink:href="#DejaVuSans-Oblique-72" transform="translate(162.695312 0.015625)"/>
      <use xlink:href="#DejaVuSans-34" transform="translate(203.808594 -16.390625) scale(0.7)"/>
      <use xlink:href="#DejaVuSans-20" transform="translate(251.079102 0.015625)"/>
      <use xlink:href="#DejaVuSans-66" transform="translate(282.866211 0.015625)"/>
      <use xlink:href="#DejaVuSans-72" transform="translate(318.071289 0.015625)"/>
      <use xlink:href="#DejaVuSans-61" transform="translate(359.18457 0.015625)"/>
      <use xlink:href="#DejaVuSans-63" transform="translate(420.463867 0.015625)"/>
      <use xlink:href="#DejaVuSans-74" transform="translate(475.444336 0.015625)"/>
      <use xlink:href="#DejaVuSans-69" transform="translate(514.65332 0.015625)"/>
      <use xlink:href="#DejaVuSans-6f" transform="translate(542.436523 0.015625)"/>
      <use xlink:href="#DejaVuSans-6e" transform="translate(603.618164 0.015625)"/>
      <use xlink:href="#DejaVuSans-61" transform="translate(666.99707 0.015625)"/>
      <use xlink:href="#DejaVuSans-6c" transform="translate(728.276367 0.015625)"/>
      <use xlink:href="#DejaVuSans-20" transform="translate(756.05957 0.015625)"/>
      <use xlink:href="#DejaVuSans-61" transform="translate(787.84668 0.015625)"/>
      <use xlink:href="#DejaVuSans-72" transform="translate(849.125977 0.015625)"/>
      <use xlink:href="#DejaVuSans-65" transform="translate(890.239258 0.015625)"/>
      <use xlink:href="#DejaVuSans-61" transform="translate(951.762695 0.015625)"/>
     </g>
    </g>
   </g>
   <g id="line2d_16">
    <path d="M 58.72149 246.90101 
L 58.72149 36.512323 
" clip-path="url(#p05e5f731fb)" style="fill: none; stroke: #808080; stroke-width: 0.5; stroke-linecap: square"/>
   </g>
   <g id="line2d_17">
    <path d="M 79.638347 246.90101 
L 79.638347 36.512323 
" clip-path="url(#p05e5f731fb)" style="fill: none; stroke: #808080; stroke-width: 0.5; stroke-linecap: square"/>
   </g>
   <g id="line2d_18">
    <path d="M 95.247929 246.90101 
L 95.247929 36.512323 
" clip-path="url(#p05e5f731fb)" style="fill: none; stroke: #808080; stroke-width: 0.5; stroke-linecap: square"/>
   </g>
   <g id="line2d_19">
    <path d="M 114.491469 246.90101 
L 114.491469 36.512323 
" clip-path="url(#p05e5f731fb)" style="fill: none; stroke: #808080; stroke-width: 0.5; stroke-linecap: square"/>
   </g>
   <g id="line2d_20">
    <path d="M 136.784262 246.90101 
L 136.784262 36.512323 
" clip-path="url(#p05e5f731fb)" style="fill: none; stroke: #808080; stroke-width: 0.5; stroke-linecap: square"/>
   </g>
   <g id="line2d_21">
    <path d="M 161.448954 246.90101 
L 161.448954 36.512323 
" clip-path="url(#p05e5f731fb)" style="fill: none; stroke: #808080; stroke-width: 0.5; stroke-linecap: square"/>
   </g>
   <g id="line2d_22">
    <path d="M 187.736119 246.90101 
L 187.736119 36.512323 
" clip-path="url(#p05e5f731fb)" style="fill: none; stroke: #808080; stroke-width: 0.5; stroke-linecap: square"/>
   </g>
   <g id="line2d_23">
    <path d="M 214.847035 246.90101 
L 214.847035 36.512323 
" clip-path="url(#p05e5f731fb)" style="fill: none; stroke: #808080; stroke-width: 0.5; stroke-linecap: square"/>
   </g>
   <g id="line2d_24">
    <path d="M 241.957951 246.90101 
L 241.957951 36.512323 
" clip-path="url(#p05e5f731fb)" style="fill: none; stroke: #808080; stroke-width: 0.5; stroke-linecap: square"/>
   </g>
   <g id="line2d_25">
    <path d="M 268.245116 246.90101 
L 268.245116 36.512323 
" clip-path="url(#p05e5f731fb)" style="fill: none; stroke: #808080; stroke-width: 0.5; stroke-linecap: square"/>
   </g>
   <g id="line2d_26">
    <path d="M 292.909807 246.90101 
L 292.909807 36.512323 
" clip-path="url(#p05e5f731fb)" style="fill: none; stroke: #808080; stroke-width: 0.5; stroke-linecap: square"/>
   </g>
   <g id="line2d_27">
    <path d="M 315.202601 246.90101 
L 315.202601 36.512323 
" clip-path="url(#p05e5f731fb)" style="fill: none; stroke: #808080; stroke-width: 0.5; stroke-linecap: square"/>
   </g>
   <g id="line2d_28">
    <path d="M 334.446141 246.90101 
L 334.446141 36.512323 
" clip-path="url(#p05e5f731fb)" style="fill: none; stroke: #808080; stroke-width: 0.5; stroke-linecap: square"/>
   </g>
   <g id="line2d_29">
    <path d="M 350.055723 246.90101 
L 350.055723 36.512323 
" clip-path="url(#p05e5f731fb)" style="fill: none; stroke: #808080; stroke-width: 0.5; stroke-linecap: square"/>
   </g>
   <g id="line2d_30">
    <path d="M 370.97258 246.90101 
L 370.97258 36.512323 
" clip-path="url(#p05e5f731fb)" style="fill: none; stroke: #808080; stroke-width: 0.5; stroke-linecap: square"/>
   </g>
   <g id="line2d_31">
    <path d="M 58.72149 237.337888 
L 65.150781 237.236135 
L 68.608579 236.968406 
L 73.349238 236.790641 
L 77.641234 236.781663 
L 86.956476 236.913234 
L 89.344445 236.69954 
L 90.984312 236.452393 
L 93.514698 235.906441 
L 97.01759 235.474613 
L 100.66404 235.202391 
L 109.370146 234.807684 
L 112.419462 234.851637 
L 117.656598 235.252908 
L 125.297101 235.963845 
L 137.967138 236.232089 
L 141.550531 236.148295 
L 146.406101 235.82557 
L 148.865529 235.523044 
L 150.102826 235.264428 
L 151.345055 234.851439 
L 155.100376 233.066722 
L 157.626831 231.529826 
L 160.170717 229.546277 
L 161.448954 228.490894 
L 162.731257 227.180254 
L 165.307673 223.847702 
L 166.601588 222.073696 
L 169.200343 217.802305 
L 171.813003 213.014423 
L 174.438771 207.935474 
L 175.75632 205.349151 
L 178.40025 200.90013 
L 179.726429 198.821305 
L 181.055282 197.159359 
L 182.386709 195.802903 
L 183.720608 194.734986 
L 185.056877 194.033894 
L 186.395414 193.691251 
L 187.736119 193.961593 
L 189.078888 194.77145 
L 190.423619 196.0904 
L 191.77021 198.075911 
L 193.118559 200.363924 
L 194.468562 203.216389 
L 198.527472 213.282504 
L 199.883065 216.898155 
L 203.956268 226.172246 
L 206.676055 230.817613 
L 208.036934 232.591844 
L 209.398332 233.802973 
L 210.760145 234.84085 
L 212.122269 235.631133 
L 214.847035 236.547659 
L 217.571801 236.976282 
L 220.295738 237.179153 
L 224.378272 237.236808 
L 228.454273 237.046771 
L 231.166598 236.75188 
L 233.873953 236.26183 
L 237.92386 234.593848 
L 240.615182 232.976579 
L 243.298656 231.073377 
L 245.973462 229.047911 
L 249.967641 225.68387 
L 252.617223 223.676367 
L 255.255299 222.073079 
L 256.569772 221.372967 
L 257.881067 220.804642 
L 260.493727 220.238323 
L 263.092482 220.107003 
L 264.386397 220.183467 
L 265.676541 220.429313 
L 266.962813 220.821424 
L 269.523353 221.951559 
L 273.332694 224.143436 
L 275.850145 225.859142 
L 278.349015 227.759936 
L 280.828541 229.804626 
L 283.287969 231.450453 
L 286.937789 233.605448 
L 289.343706 234.645003 
L 291.726932 235.251249 
L 295.257635 235.63789 
L 298.733229 235.554217 
L 301.018498 235.275531 
L 303.277517 234.762441 
L 308.805733 233.302262 
L 314.155094 231.421624 
L 317.274608 230.686786 
L 320.323924 230.282158 
L 323.300952 230.114054 
L 325.244467 230.1692 
L 328.096504 230.557982 
L 330.870926 231.136514 
L 332.67648 231.692953 
L 338.709758 233.927331 
L 340.349625 234.661347 
L 341.951264 235.075201 
L 345.037913 235.619442 
L 351.397513 236.402071 
L 360.602788 237.146958 
L 364.543289 237.281177 
L 370.97258 237.337888 
L 370.97258 237.337888 
" clip-path="url(#p05e5f731fb)" style="fill: none; stroke: #0000ff; stroke-width: 1.5; stroke-linecap: square"/>
   </g>
   <g id="line2d_32">
    <path d="M 58.72149 237.337888 
L 72.219253 237.251077 
L 75.738156 236.965161 
L 80.324713 236.582866 
L 83.172086 236.198096 
L 86.956476 235.442231 
L 93.514698 234.267756 
L 97.01759 233.689361 
L 102.539717 232.703682 
L 107.377302 232.331416 
L 111.395119 232.172566 
L 117.656598 232.358578 
L 121.980003 232.868044 
L 129.814969 234.239543 
L 133.271662 234.920532 
L 145.184158 236.62951 
L 150.102826 236.898493 
L 152.592119 236.915334 
L 157.626831 236.675436 
L 162.731257 236.295502 
L 165.307673 235.891155 
L 167.899178 235.254372 
L 170.504985 234.071043 
L 173.124298 232.573605 
L 178.40025 229.073476 
L 181.055282 227.046942 
L 183.720608 225.16772 
L 186.395414 223.627503 
L 187.736119 223.087973 
L 189.078888 222.836514 
L 190.423619 222.824645 
L 191.77021 223.042045 
L 193.118559 223.537791 
L 194.468562 224.22602 
L 197.173122 226.149964 
L 199.883065 228.582155 
L 203.956268 232.250274 
L 205.315798 233.207216 
L 208.036934 234.768688 
L 210.760145 235.844901 
L 212.122269 236.259164 
L 214.847035 236.731216 
L 217.571801 236.990909 
L 220.295738 237.04483 
L 223.018015 236.893518 
L 228.454273 235.921572 
L 231.166598 235.287045 
L 233.873953 234.390985 
L 236.575511 233.055175 
L 237.92386 232.292591 
L 240.615182 230.277415 
L 243.298656 228.073366 
L 247.307361 224.637277 
L 249.967641 222.886759 
L 251.29382 222.095973 
L 253.93775 220.875381 
L 255.255299 220.378915 
L 256.569772 220.014834 
L 257.881067 219.81704 
L 259.189085 219.74913 
L 260.493727 219.796613 
L 261.794892 220.004768 
L 263.092482 220.366512 
L 265.676541 221.443714 
L 268.245116 222.850735 
L 269.523353 223.655573 
L 274.593694 227.370075 
L 282.060815 232.224941 
L 284.509912 233.557021 
L 286.937789 234.417193 
L 289.343706 235.003044 
L 291.726932 235.221929 
L 294.086739 235.324465 
L 297.580969 235.192431 
L 306.615328 234.684603 
L 309.890245 234.503191 
L 319.315416 234.355322 
L 323.300952 234.687675 
L 335.317344 236.289645 
L 340.349625 236.81364 
L 345.784934 237.039466 
L 350.055723 236.941818 
L 355.171745 236.674133 
L 360.108985 236.673041 
L 363.746614 236.875871 
L 365.999613 237.169782 
L 366.971092 237.337888 
L 370.97258 237.337888 
L 370.97258 237.337888 
" clip-path="url(#p05e5f731fb)" style="fill: none; stroke: #ffa500; stroke-width: 1.5; stroke-linecap: square"/>
   </g>
   <g id="patch_3">
    <path d="M 241.957951 246.90101 
L 268.245116 246.90101 
L 268.245116 36.512323 
L 241.957951 36.512323 
z
" clip-path="url(#p05e5f731fb)" style="fill: #800080; opacity: 0.08"/>
   </g>
   <g id="patch_4">
    <path d="M 268.245116 246.90101 
L 292.909807 246.90101 
L 292.909807 36.512323 
L 268.245116 36.512323 
z
" clip-path="url(#p05e5f731fb)" style="fill: #ffff00; opacity: 0.12"/>
   </g>
   <g id="patch_5">
    <path d="M 58.72149 246.90101 
L 58.72149 36.512323 
" style="fill: none; stroke: #000000; stroke-width: 0.8; stroke-linejoin: miter; stroke-linecap: square"/>
   </g>
   <g id="patch_6">
    <path d="M 370.97258 246.90101 
L 370.97258 36.512323 
" style="fill: none; stroke: #000000; stroke-width: 0.8; stroke-linejoin: miter; stroke-linecap: square"/>
   </g>
   <g id="patch_7">
    <path d="M 58.72149 246.90101 
L 370.97258 246.90101 
" style="fill: none; stroke: #000000; stroke-width: 0.8; stroke-linejoin: miter; stroke-linecap: square"/>
   </g>
   <g id="patch_8">
    <path d="M 58.72149 36.512323 
L 370.97258 36.512323 
" style="fill: none; stroke: #000000; stroke-width: 0.8; stroke-linejoin: miter; stroke-linecap: square"/>
   </g>
   <g id="text_14">
    <!-- UNSEED (NH max=0.016) -->
    <g transform="translate(104.821176 30.512323) scale(0.17 -0.17)">
     <defs>
      <path id="DejaVuSans-55" d="M 556 4666 
L 1191 4666 
L 1191 1831 
Q 1191 1081 1462 751 
Q 1734 422 2344 422 
Q 2950 422 3222 751 
Q 3494 1081 3494 1831 
L 3494 4666 
L 4128 4666 
L 4128 1753 
Q 4128 841 3676 375 
Q 3225 -91 2344 -91 
Q 1459 -91 1007 375 
Q 556 841 556 1753 
L 556 4666 
z
" transform="scale(0.015625)"/>
      <path id="DejaVuSans-4e" d="M 628 4666 
L 1478 4666 
L 3547 763 
L 3547 4666 
L 4159 4666 
L 4159 0 
L 3309 0 
L 1241 3903 
L 1241 0 
L 628 0 
L 628 4666 
z
" transform="scale(0.015625)"/>
      <path id="DejaVuSans-53" d="M 3425 4513 
L 3425 3897 
Q 3066 4069 2747 4153 
Q 2428 4238 2131 4238 
Q 1616 4238 1336 4038 
Q 1056 3838 1056 3469 
Q 1056 3159 1242 3001 
Q 1428 2844 1947 2747 
L 2328 2669 
Q 3034 2534 3370 2195 
Q 3706 1856 3706 1288 
Q 3706 609 3251 259 
Q 2797 -91 1919 -91 
Q 1588 -91 1214 -16 
Q 841 59 441 206 
L 441 856 
Q 825 641 1194 531 
Q 1563 422 1919 422 
Q 2459 422 2753 634 
Q 3047 847 3047 1241 
Q 3047 1584 2836 1778 
Q 2625 1972 2144 2069 
L 1759 2144 
Q 1053 2284 737 2584 
Q 422 2884 422 3419 
Q 422 4038 858 4394 
Q 1294 4750 2059 4750 
Q 2388 4750 2728 4690 
Q 3069 4631 3425 4513 
z
" transform="scale(0.015625)"/>
      <path id="DejaVuSans-45" d="M 628 4666 
L 3578 4666 
L 3578 4134 
L 1259 4134 
L 1259 2753 
L 3481 2753 
L 3481 2222 
L 1259 2222 
L 1259 531 
L 3634 531 
L 3634 0 
L 628 0 
L 628 4666 
z
" transform="scale(0.015625)"/>
      <path id="DejaVuSans-44" d="M 1259 4147 
L 1259 519 
L 2022 519 
Q 2988 519 3436 956 
Q 3884 1394 3884 2338 
Q 3884 3275 3436 3711 
Q 2988 4147 2022 4147 
L 1259 4147 
z
M 628 4666 
L 1925 4666 
Q 3281 4666 3915 4102 
Q 4550 3538 4550 2338 
Q 4550 1131 3912 565 
Q 3275 0 1925 0 
L 628 0 
L 628 4666 
z
" transform="scale(0.015625)"/>
      <path id="DejaVuSans-28" d="M 1984 4856 
Q 1566 4138 1362 3434 
Q 1159 2731 1159 2009 
Q 1159 1288 1364 580 
Q 1569 -128 1984 -844 
L 1484 -844 
Q 1016 -109 783 600 
Q 550 1309 550 2009 
Q 550 2706 781 3412 
Q 1013 4119 1484 4856 
L 1984 4856 
z
" transform="scale(0.015625)"/>
      <path id="DejaVuSans-48" d="M 628 4666 
L 1259 4666 
L 1259 2753 
L 3553 2753 
L 3553 4666 
L 4184 4666 
L 4184 0 
L 3553 0 
L 3553 2222 
L 1259 2222 
L 1259 0 
L 628 0 
L 628 4666 
z
" transform="scale(0.015625)"/>
      <path id="DejaVuSans-6d" d="M 3328 2828 
Q 3544 3216 3844 3400 
Q 4144 3584 4550 3584 
Q 5097 3584 5394 3201 
Q 5691 2819 5691 2113 
L 5691 0 
L 5113 0 
L 5113 2094 
Q 5113 2597 4934 2840 
Q 4756 3084 4391 3084 
Q 3944 3084 3684 2787 
Q 3425 2491 3425 1978 
L 3425 0 
L 2847 0 
L 2847 2094 
Q 2847 2600 2669 2842 
Q 2491 3084 2119 3084 
Q 1678 3084 1418 2786 
Q 1159 2488 1159 1978 
L 1159 0 
L 581 0 
L 581 3500 
L 1159 3500 
L 1159 2956 
Q 1356 3278 1631 3431 
Q 1906 3584 2284 3584 
Q 2666 3584 2933 3390 
Q 3200 3197 3328 2828 
z
" transform="scale(0.015625)"/>
      <path id="DejaVuSans-78" d="M 3513 3500 
L 2247 1797 
L 3578 0 
L 2900 0 
L 1881 1375 
L 863 0 
L 184 0 
L 1544 1831 
L 300 3500 
L 978 3500 
L 1906 2253 
L 2834 3500 
L 3513 3500 
z
" transform="scale(0.015625)"/>
      <path id="DejaVuSans-3d" d="M 678 2906 
L 4684 2906 
L 4684 2381 
L 678 2381 
L 678 2906 
z
M 678 1631 
L 4684 1631 
L 4684 1100 
L 678 1100 
L 678 1631 
z
" transform="scale(0.015625)"/>
      <path id="DejaVuSans-29" d="M 513 4856 
L 1013 4856 
Q 1481 4119 1714 3412 
Q 1947 2706 1947 2009 
Q 1947 1309 1714 600 
Q 1481 -109 1013 -844 
L 513 -844 
Q 928 -128 1133 580 
Q 1338 1288 1338 2009 
Q 1338 2731 1133 3434 
Q 928 4138 513 4856 
z
" transform="scale(0.015625)"/>
     </defs>
     <use xlink:href="#DejaVuSans-55"/>
     <use xlink:href="#DejaVuSans-4e" transform="translate(73.193359 0)"/>
     <use xlink:href="#DejaVuSans-53" transform="translate(147.998047 0)"/>
     <use xlink:href="#DejaVuSans-45" transform="translate(211.474609 0)"/>
     <use xlink:href="#DejaVuSans-45" transform="translate(274.658203 0)"/>
     <use xlink:href="#DejaVuSans-44" transform="translate(337.841797 0)"/>
     <use xlink:href="#DejaVuSans-20" transform="translate(414.84375 0)"/>
     <use xlink:href="#DejaVuSans-28" transform="translate(446.630859 0)"/>
     <use xlink:href="#DejaVuSans-4e" transform="translate(485.644531 0)"/>
     <use xlink:href="#DejaVuSans-48" transform="translate(560.449219 0)"/>
     <use xlink:href="#DejaVuSans-20" transform="translate(635.644531 0)"/>
     <use xlink:href="#DejaVuSans-6d" transform="translate(667.431641 0)"/>
     <use xlink:href="#DejaVuSans-61" transform="translate(764.84375 0)"/>
     <use xlink:href="#DejaVuSans-78" transform="translate(826.123047 0)"/>
     <use xlink:href="#DejaVuSans-3d" transform="translate(885.302734 0)"/>
     <use xlink:href="#DejaVuSans-30" transform="translate(969.091797 0)"/>
     <use xlink:href="#DejaVuSans-2e" transform="translate(1032.714844 0)"/>
     <use xlink:href="#DejaVuSans-30" transform="translate(1064.501953 0)"/>
     <use xlink:href="#DejaVuSans-31" transform="translate(1128.125 0)"/>
     <use xlink:href="#DejaVuSans-36" transform="translate(1191.748047 0)"/>
     <use xlink:href="#DejaVuSans-29" transform="translate(1255.371094 0)"/>
    </g>
   </g>
   <g id="text_15">
    <!-- (a) -->
    <g transform="translate(58.72149 30.512323) scale(0.168 -0.168)">
     <use xlink:href="#DejaVuSans-28"/>
     <use xlink:href="#DejaVuSans-61" transform="translate(39.013672 0)"/>
     <use xlink:href="#DejaVuSans-29" transform="translate(100.292969 0)"/>
    </g>
   </g>
   <g id="legend_1">
    <g id="patch_9">
     <path d="M 68.52149 68.261698 
L 228.495553 68.261698 
Q 231.295553 68.261698 231.295553 65.461698 
L 231.295553 46.312323 
Q 231.295553 43.512323 228.495553 43.512323 
L 68.52149 43.512323 
Q 65.72149 43.512323 65.72149 46.312323 
L 65.72149 65.461698 
Q 65.72149 68.261698 68.52149 68.261698 
z
" style="fill: #ffffff; opacity: 0.8; stroke: #cccccc; stroke-linejoin: miter"/>
    </g>
    <g id="line2d_33">
     <path d="M 71.32149 54.850135 
L 85.32149 54.850135 
L 99.32149 54.850135 
" style="fill: none; stroke: #0000ff; stroke-width: 1.5; stroke-linecap: square"/>
    </g>
    <g id="text_16">
     <!-- JJA -->
     <g transform="translate(110.52149 59.750135) scale(0.14 -0.14)">
      <defs>
       <path id="DejaVuSans-4a" d="M 628 4666 
L 1259 4666 
L 1259 325 
Q 1259 -519 939 -900 
Q 619 -1281 -91 -1281 
L -331 -1281 
L -331 -750 
L -134 -750 
Q 284 -750 456 -515 
Q 628 -281 628 325 
L 628 4666 
z
" transform="scale(0.015625)"/>
       <path id="DejaVuSans-41" d="M 2188 4044 
L 1331 1722 
L 3047 1722 
L 2188 4044 
z
M 1831 4666 
L 2547 4666 
L 4325 0 
L 3669 0 
L 3244 1197 
L 1141 1197 
L 716 0 
L 50 0 
L 1831 4666 
z
" transform="scale(0.015625)"/>
      </defs>
      <use xlink:href="#DejaVuSans-4a"/>
      <use xlink:href="#DejaVuSans-4a" transform="translate(29.492188 0)"/>
      <use xlink:href="#DejaVuSans-41" transform="translate(57.234375 0)"/>
     </g>
    </g>
    <g id="line2d_34">
     <path d="M 156.113365 54.850135 
L 170.113365 54.850135 
L 184.113365 54.850135 
" style="fill: none; stroke: #ffa500; stroke-width: 1.5; stroke-linecap: square"/>
    </g>
    <g id="text_17">
     <!-- SON -->
     <g transform="translate(195.313365 59.750135) scale(0.14 -0.14)">
      <defs>
       <path id="DejaVuSans-4f" d="M 2522 4238 
Q 1834 4238 1429 3725 
Q 1025 3213 1025 2328 
Q 1025 1447 1429 934 
Q 1834 422 2522 422 
Q 3209 422 3611 934 
Q 4013 1447 4013 2328 
Q 4013 3213 3611 3725 
Q 3209 4238 2522 4238 
z
M 2522 4750 
Q 3503 4750 4090 4092 
Q 4678 3434 4678 2328 
Q 4678 1225 4090 567 
Q 3503 -91 2522 -91 
Q 1538 -91 948 565 
Q 359 1222 359 2328 
Q 359 3434 948 4092 
Q 1538 4750 2522 4750 
z
" transform="scale(0.015625)"/>
      </defs>
      <use xlink:href="#DejaVuSans-53"/>
      <use xlink:href="#DejaVuSans-4f" transform="translate(63.476562 0)"/>
      <use xlink:href="#DejaVuSans-4e" transform="translate(142.1875 0)"/>
     </g>
    </g>
   </g>
  </g>
  <g id="axes_2">
   <g id="patch_10">
    <path d="M 443.28133 246.90101 
L 755.53242 246.90101 
L 755.53242 36.512323 
L 443.28133 36.512323 
z
" style="fill: #ffffff"/>
   </g>
   <g id="matplotlib.axis_3">
    <g id="xtick_8">
     <g id="line2d_35">
      <g>
       <use xlink:href="#mf5aba982f9" x="443.28133" y="246.90101" style="stroke: #000000; stroke-width: 0.8"/>
      </g>
     </g>
     <g id="text_18">
      <!-- -90 -->
      <g transform="translate(431.848361 264.538822) scale(0.14 -0.14)">
       <use xlink:href="#DejaVuSans-2d"/>
       <use xlink:href="#DejaVuSans-39" transform="translate(36.083984 0)"/>
       <use xlink:href="#DejaVuSans-30" transform="translate(99.707031 0)"/>
      </g>
     </g>
    </g>
    <g id="xtick_9">
     <g id="line2d_36">
      <g>
       <use xlink:href="#mf5aba982f9" x="464.198187" y="246.90101" style="stroke: #000000; stroke-width: 0.8"/>
      </g>
     </g>
     <g id="text_19">
      <!-- -60 -->
      <g transform="translate(452.765218 264.538822) scale(0.14 -0.14)">
       <use xlink:href="#DejaVuSans-2d"/>
       <use xlink:href="#DejaVuSans-36" transform="translate(36.083984 0)"/>
       <use xlink:href="#DejaVuSans-30" transform="translate(99.707031 0)"/>
      </g>
     </g>
    </g>
    <g id="xtick_10">
     <g id="line2d_37">
      <g>
       <use xlink:href="#mf5aba982f9" x="521.344102" y="246.90101" style="stroke: #000000; stroke-width: 0.8"/>
      </g>
     </g>
     <g id="text_20">
      <!-- -30 -->
      <g transform="translate(509.911134 264.538822) scale(0.14 -0.14)">
       <use xlink:href="#DejaVuSans-2d"/>
       <use xlink:href="#DejaVuSans-33" transform="translate(36.083984 0)"/>
       <use xlink:href="#DejaVuSans-30" transform="translate(99.707031 0)"/>
      </g>
     </g>
    </g>
    <g id="xtick_11">
     <g id="line2d_38">
      <g>
       <use xlink:href="#mf5aba982f9" x="599.406875" y="246.90101" style="stroke: #000000; stroke-width: 0.8"/>
      </g>
     </g>
     <g id="text_21">
      <!-- 0 -->
      <g transform="translate(594.953125 264.538822) scale(0.14 -0.14)">
       <use xlink:href="#DejaVuSans-30"/>
      </g>
     </g>
    </g>
    <g id="xtick_12">
     <g id="line2d_39">
      <g>
       <use xlink:href="#mf5aba982f9" x="677.469647" y="246.90101" style="stroke: #000000; stroke-width: 0.8"/>
      </g>
     </g>
     <g id="text_22">
      <!-- 30 -->
      <g transform="translate(668.562147 264.538822) scale(0.14 -0.14)">
       <use xlink:href="#DejaVuSans-33"/>
       <use xlink:href="#DejaVuSans-30" transform="translate(63.623047 0)"/>
      </g>
     </g>
    </g>
    <g id="xtick_13">
     <g id="line2d_40">
      <g>
       <use xlink:href="#mf5aba982f9" x="734.615563" y="246.90101" style="stroke: #000000; stroke-width: 0.8"/>
      </g>
     </g>
     <g id="text_23">
      <!-- 60 -->
      <g transform="translate(725.708063 264.538822) scale(0.14 -0.14)">
       <use xlink:href="#DejaVuSans-36"/>
       <use xlink:href="#DejaVuSans-30" transform="translate(63.623047 0)"/>
      </g>
     </g>
    </g>
    <g id="xtick_14">
     <g id="line2d_41">
      <g>
       <use xlink:href="#mf5aba982f9" x="755.53242" y="246.90101" style="stroke: #000000; stroke-width: 0.8"/>
      </g>
     </g>
     <g id="text_24">
      <!-- 90 -->
      <g transform="translate(746.62492 264.538822) scale(0.14 -0.14)">
       <use xlink:href="#DejaVuSans-39"/>
       <use xlink:href="#DejaVuSans-30" transform="translate(63.623047 0)"/>
      </g>
     </g>
    </g>
    <g id="text_25">
     <!-- Latitude [°] -->
     <g transform="translate(559.409531 282.088197) scale(0.14 -0.14)">
      <use xlink:href="#DejaVuSans-4c"/>
      <use xlink:href="#DejaVuSans-61" transform="translate(55.712891 0)"/>
      <use xlink:href="#DejaVuSans-74" transform="translate(116.992188 0)"/>
      <use xlink:href="#DejaVuSans-69" transform="translate(156.201172 0)"/>
      <use xlink:href="#DejaVuSans-74" transform="translate(183.984375 0)"/>
      <use xlink:href="#DejaVuSans-75" transform="translate(223.193359 0)"/>
      <use xlink:href="#DejaVuSans-64" transform="translate(286.572266 0)"/>
      <use xlink:href="#DejaVuSans-65" transform="translate(350.048828 0)"/>
      <use xlink:href="#DejaVuSans-20" transform="translate(411.572266 0)"/>
      <use xlink:href="#DejaVuSans-5b" transform="translate(443.359375 0)"/>
      <use xlink:href="#DejaVuSans-b0" transform="translate(482.373047 0)"/>
      <use xlink:href="#DejaVuSans-5d" transform="translate(532.373047 0)"/>
     </g>
    </g>
   </g>
   <g id="matplotlib.axis_4">
    <g id="ytick_5">
     <g id="line2d_42">
      <g>
       <use xlink:href="#mde0611fa4c" x="443.28133" y="237.337888" style="stroke: #000000; stroke-width: 0.8"/>
      </g>
     </g>
     <g id="line2d_43">
      <g>
       <use xlink:href="#md0605ce87b" x="755.53242" y="237.337888" style="stroke: #000000; stroke-width: 0.8"/>
      </g>
     </g>
     <g id="text_26">
      <!-- 0.00 -->
      <g transform="translate(405.109455 242.656794) scale(0.14 -0.14)">
       <use xlink:href="#DejaVuSans-30"/>
       <use xlink:href="#DejaVuSans-2e" transform="translate(63.623047 0)"/>
       <use xlink:href="#DejaVuSans-30" transform="translate(95.410156 0)"/>
       <use xlink:href="#DejaVuSans-30" transform="translate(159.033203 0)"/>
      </g>
     </g>
    </g>
    <g id="ytick_6">
     <g id="line2d_44">
      <g>
       <use xlink:href="#mde0611fa4c" x="443.28133" y="181.131246" style="stroke: #000000; stroke-width: 0.8"/>
      </g>
     </g>
     <g id="line2d_45">
      <g>
       <use xlink:href="#md0605ce87b" x="755.53242" y="181.131246" style="stroke: #000000; stroke-width: 0.8"/>
      </g>
     </g>
     <g id="text_27">
      <!-- 0.05 -->
      <g transform="translate(405.109455 186.450153) scale(0.14 -0.14)">
       <use xlink:href="#DejaVuSans-30"/>
       <use xlink:href="#DejaVuSans-2e" transform="translate(63.623047 0)"/>
       <use xlink:href="#DejaVuSans-30" transform="translate(95.410156 0)"/>
       <use xlink:href="#DejaVuSans-35" transform="translate(159.033203 0)"/>
      </g>
     </g>
    </g>
    <g id="ytick_7">
     <g id="line2d_46">
      <g>
       <use xlink:href="#mde0611fa4c" x="443.28133" y="124.924605" style="stroke: #000000; stroke-width: 0.8"/>
      </g>
     </g>
     <g id="line2d_47">
      <g>
       <use xlink:href="#md0605ce87b" x="755.53242" y="124.924605" style="stroke: #000000; stroke-width: 0.8"/>
      </g>
     </g>
     <g id="text_28">
      <!-- 0.10 -->
      <g transform="translate(405.109455 130.243511) scale(0.14 -0.14)">
       <use xlink:href="#DejaVuSans-30"/>
       <use xlink:href="#DejaVuSans-2e" transform="translate(63.623047 0)"/>
       <use xlink:href="#DejaVuSans-31" transform="translate(95.410156 0)"/>
       <use xlink:href="#DejaVuSans-30" transform="translate(159.033203 0)"/>
      </g>
     </g>
    </g>
    <g id="ytick_8">
     <g id="line2d_48">
      <g>
       <use xlink:href="#mde0611fa4c" x="443.28133" y="68.717963" style="stroke: #000000; stroke-width: 0.8"/>
      </g>
     </g>
     <g id="line2d_49">
      <g>
       <use xlink:href="#md0605ce87b" x="755.53242" y="68.717963" style="stroke: #000000; stroke-width: 0.8"/>
      </g>
     </g>
     <g id="text_29">
      <!-- 0.15 -->
      <g transform="translate(405.109455 74.036869) scale(0.14 -0.14)">
       <use xlink:href="#DejaVuSans-30"/>
       <use xlink:href="#DejaVuSans-2e" transform="translate(63.623047 0)"/>
       <use xlink:href="#DejaVuSans-31" transform="translate(95.410156 0)"/>
       <use xlink:href="#DejaVuSans-35" transform="translate(159.033203 0)"/>
      </g>
     </g>
    </g>
    <g id="text_30">
     <!-- TC $r_4$ fractional area -->
     <g transform="translate(398.197892 212.686666) rotate(-90) scale(0.14 -0.14)">
      <use xlink:href="#DejaVuSans-54" transform="translate(0 0.015625)"/>
      <use xlink:href="#DejaVuSans-43" transform="translate(61.083984 0.015625)"/>
      <use xlink:href="#DejaVuSans-20" transform="translate(130.908203 0.015625)"/>
      <use xlink:href="#DejaVuSans-Oblique-72" transform="translate(162.695312 0.015625)"/>
      <use xlink:href="#DejaVuSans-34" transform="translate(203.808594 -16.390625) scale(0.7)"/>
      <use xlink:href="#DejaVuSans-20" transform="translate(251.079102 0.015625)"/>
      <use xlink:href="#DejaVuSans-66" transform="translate(282.866211 0.015625)"/>
      <use xlink:href="#DejaVuSans-72" transform="translate(318.071289 0.015625)"/>
      <use xlink:href="#DejaVuSans-61" transform="translate(359.18457 0.015625)"/>
      <use xlink:href="#DejaVuSans-63" transform="translate(420.463867 0.015625)"/>
      <use xlink:href="#DejaVuSans-74" transform="translate(475.444336 0.015625)"/>
      <use xlink:href="#DejaVuSans-69" transform="translate(514.65332 0.015625)"/>
      <use xlink:href="#DejaVuSans-6f" transform="translate(542.436523 0.015625)"/>
      <use xlink:href="#DejaVuSans-6e" transform="translate(603.618164 0.015625)"/>
      <use xlink:href="#DejaVuSans-61" transform="translate(666.99707 0.015625)"/>
      <use xlink:href="#DejaVuSans-6c" transform="translate(728.276367 0.015625)"/>
      <use xlink:href="#DejaVuSans-20" transform="translate(756.05957 0.015625)"/>
      <use xlink:href="#DejaVuSans-61" transform="translate(787.84668 0.015625)"/>
      <use xlink:href="#DejaVuSans-72" transform="translate(849.125977 0.015625)"/>
      <use xlink:href="#DejaVuSans-65" transform="translate(890.239258 0.015625)"/>
      <use xlink:href="#DejaVuSans-61" transform="translate(951.762695 0.015625)"/>
     </g>
    </g>
   </g>
   <g id="line2d_50">
    <path d="M 443.28133 246.90101 
L 443.28133 36.512323 
" clip-path="url(#pdaf9e4e6ee)" style="fill: none; stroke: #808080; stroke-width: 0.5; stroke-linecap: square"/>
   </g>
   <g id="line2d_51">
    <path d="M 464.198187 246.90101 
L 464.198187 36.512323 
" clip-path="url(#pdaf9e4e6ee)" style="fill: none; stroke: #808080; stroke-width: 0.5; stroke-linecap: square"/>
   </g>
   <g id="line2d_52">
    <path d="M 479.807769 246.90101 
L 479.807769 36.512323 
" clip-path="url(#pdaf9e4e6ee)" style="fill: none; stroke: #808080; stroke-width: 0.5; stroke-linecap: square"/>
   </g>
   <g id="line2d_53">
    <path d="M 499.051309 246.90101 
L 499.051309 36.512323 
" clip-path="url(#pdaf9e4e6ee)" style="fill: none; stroke: #808080; stroke-width: 0.5; stroke-linecap: square"/>
   </g>
   <g id="line2d_54">
    <path d="M 521.344102 246.90101 
L 521.344102 36.512323 
" clip-path="url(#pdaf9e4e6ee)" style="fill: none; stroke: #808080; stroke-width: 0.5; stroke-linecap: square"/>
   </g>
   <g id="line2d_55">
    <path d="M 546.008794 246.90101 
L 546.008794 36.512323 
" clip-path="url(#pdaf9e4e6ee)" style="fill: none; stroke: #808080; stroke-width: 0.5; stroke-linecap: square"/>
   </g>
   <g id="line2d_56">
    <path d="M 572.295959 246.90101 
L 572.295959 36.512323 
" clip-path="url(#pdaf9e4e6ee)" style="fill: none; stroke: #808080; stroke-width: 0.5; stroke-linecap: square"/>
   </g>
   <g id="line2d_57">
    <path d="M 599.406875 246.90101 
L 599.406875 36.512323 
" clip-path="url(#pdaf9e4e6ee)" style="fill: none; stroke: #808080; stroke-width: 0.5; stroke-linecap: square"/>
   </g>
   <g id="line2d_58">
    <path d="M 626.517791 246.90101 
L 626.517791 36.512323 
" clip-path="url(#pdaf9e4e6ee)" style="fill: none; stroke: #808080; stroke-width: 0.5; stroke-linecap: square"/>
   </g>
   <g id="line2d_59">
    <path d="M 652.804956 246.90101 
L 652.804956 36.512323 
" clip-path="url(#pdaf9e4e6ee)" style="fill: none; stroke: #808080; stroke-width: 0.5; stroke-linecap: square"/>
   </g>
   <g id="line2d_60">
    <path d="M 677.469647 246.90101 
L 677.469647 36.512323 
" clip-path="url(#pdaf9e4e6ee)" style="fill: none; stroke: #808080; stroke-width: 0.5; stroke-linecap: square"/>
   </g>
   <g id="line2d_61">
    <path d="M 699.762441 246.90101 
L 699.762441 36.512323 
" clip-path="url(#pdaf9e4e6ee)" style="fill: none; stroke: #808080; stroke-width: 0.5; stroke-linecap: square"/>
   </g>
   <g id="line2d_62">
    <path d="M 719.005981 246.90101 
L 719.005981 36.512323 
" clip-path="url(#pdaf9e4e6ee)" style="fill: none; stroke: #808080; stroke-width: 0.5; stroke-linecap: square"/>
   </g>
   <g id="line2d_63">
    <path d="M 734.615563 246.90101 
L 734.615563 36.512323 
" clip-path="url(#pdaf9e4e6ee)" style="fill: none; stroke: #808080; stroke-width: 0.5; stroke-linecap: square"/>
   </g>
   <g id="line2d_64">
    <path d="M 755.53242 246.90101 
L 755.53242 36.512323 
" clip-path="url(#pdaf9e4e6ee)" style="fill: none; stroke: #808080; stroke-width: 0.5; stroke-linecap: square"/>
   </g>
   <g id="line2d_65">
    <path d="M 443.28133 237.337888 
L 451.349327 237.228895 
L 464.884553 236.973514 
L 467.731926 236.789115 
L 470.739725 236.277721 
L 473.098656 235.761075 
L 475.544152 235.236648 
L 490.952958 231.732926 
L 492.929509 231.455085 
L 495.954959 231.321856 
L 499.051309 231.561616 
L 504.363665 232.133101 
L 507.638582 232.592824 
L 510.976393 233.318535 
L 515.520681 234.294328 
L 520.167171 235.145727 
L 524.910204 235.586166 
L 528.527361 235.55073 
L 530.965941 235.403611 
L 533.425369 235.099651 
L 535.904895 234.576635 
L 537.151959 234.190436 
L 539.660216 233.04756 
L 540.921216 232.348644 
L 542.186671 231.4635 
L 544.730557 229.177962 
L 547.291097 226.3856 
L 549.867513 223.001541 
L 551.161428 221.040731 
L 553.760183 216.599008 
L 556.372843 211.635836 
L 561.636687 201.564411 
L 564.286269 196.991731 
L 565.615122 195.022859 
L 568.280448 191.983047 
L 569.616717 191.047441 
L 570.955254 190.612645 
L 572.295959 190.7137 
L 573.638728 191.393509 
L 574.983459 192.798385 
L 576.33005 194.861974 
L 577.678399 197.323846 
L 579.028402 200.296072 
L 583.087312 211.41278 
L 584.442905 215.416139 
L 587.157406 222.305682 
L 588.516108 225.318235 
L 591.235895 230.222625 
L 592.596774 232.241346 
L 593.958172 233.689951 
L 595.319985 234.77244 
L 596.682109 235.646592 
L 599.406875 236.644478 
L 602.131641 237.063415 
L 604.855578 237.192128 
L 607.577855 237.105547 
L 610.297642 236.757744 
L 613.014113 236.082016 
L 614.370845 235.656654 
L 615.726438 235.038644 
L 617.080788 234.260184 
L 619.785348 232.263462 
L 621.135351 231.104014 
L 622.4837 229.699579 
L 623.830291 228.057716 
L 625.175022 226.123535 
L 626.517791 223.994865 
L 627.858496 221.479964 
L 630.533302 215.744712 
L 635.85366 202.794624 
L 638.49759 196.82289 
L 641.129612 191.344571 
L 643.748925 187.052298 
L 645.053567 185.413406 
L 646.354732 184.011907 
L 647.652322 182.876277 
L 648.946237 182.141553 
L 650.236381 181.855044 
L 651.522653 182.021837 
L 652.804956 182.30158 
L 654.083193 182.911384 
L 655.357266 183.785875 
L 656.627079 184.971118 
L 659.153534 187.792319 
L 660.409985 189.381991 
L 661.661791 191.185679 
L 664.151084 195.384338 
L 667.847809 202.260233 
L 671.497629 208.542535 
L 673.903546 211.886637 
L 676.286772 214.870679 
L 677.469647 216.289482 
L 680.982248 219.762092 
L 683.293069 221.783913 
L 684.438941 222.687271 
L 685.578338 223.374243 
L 686.711172 223.824337 
L 687.837357 224.094427 
L 690.06944 224.280874 
L 692.273907 224.459663 
L 694.450085 224.646682 
L 697.659864 224.659627 
L 702.858791 224.293909 
L 704.883764 224.317644 
L 706.876608 224.570471 
L 708.836716 225.100288 
L 711.714193 226.157688 
L 714.514701 227.569704 
L 720.739212 231.467369 
L 723.269598 232.232414 
L 724.909465 232.473378 
L 727.297434 232.70125 
L 728.840818 232.726647 
L 737.891925 232.38276 
L 739.731585 232.391293 
L 740.904672 232.37055 
L 742.583379 232.689162 
L 744.16396 233.157116 
L 745.162628 233.491877 
L 747.026478 234.420847 
L 748.306454 234.996475 
L 749.484381 235.314728 
L 750.894824 235.675959 
L 752.398154 236.387529 
L 752.918083 236.818268 
L 753.160522 237.098711 
L 754.528822 237.337888 
L 755.53242 237.337888 
L 755.53242 237.337888 
" clip-path="url(#pdaf9e4e6ee)" style="fill: none; stroke: #0000ff; stroke-width: 1.5; stroke-linecap: square"/>
   </g>
   <g id="line2d_66">
    <path d="M 443.28133 237.337888 
L 450.507296 237.236092 
L 452.696852 236.980331 
L 455.165679 236.708007 
L 459.68476 236.488909 
L 467.004904 236.186159 
L 468.468976 235.997986 
L 471.516316 235.164347 
L 473.904285 234.422973 
L 480.688079 232.800328 
L 486.157406 232.026661 
L 489.009443 231.952287 
L 491.937142 232.099628 
L 494.938494 232.643566 
L 496.979302 233.174106 
L 501.153886 234.301417 
L 503.286392 234.746461 
L 513.235412 236.215606 
L 518.996275 236.755744 
L 527.316121 236.936822 
L 538.403765 236.840972 
L 542.186671 236.59716 
L 547.291097 235.856665 
L 549.867513 235.260697 
L 553.760183 233.877149 
L 555.064825 233.27016 
L 556.372843 232.483109 
L 558.998611 230.377914 
L 562.96009 226.763148 
L 565.615122 224.235921 
L 568.280448 222.056971 
L 569.616717 221.237856 
L 570.955254 220.611389 
L 572.295959 220.210188 
L 573.638728 220.115027 
L 574.983459 220.204249 
L 576.33005 220.585809 
L 577.678399 221.275003 
L 579.028402 222.273312 
L 583.087312 226.605111 
L 585.799637 229.538194 
L 588.516108 232.202237 
L 591.235895 234.019717 
L 592.596774 234.806407 
L 595.319985 235.909676 
L 598.04444 236.496531 
L 599.406875 236.746831 
L 602.131641 236.902494 
L 604.855578 236.752028 
L 607.577855 236.433225 
L 610.297642 235.711144 
L 611.656344 235.112044 
L 614.370845 233.552214 
L 617.080788 231.561221 
L 618.433793 230.251424 
L 621.135351 226.868823 
L 622.4837 225.072665 
L 625.175022 220.487261 
L 627.858496 215.647522 
L 631.867201 207.914062 
L 638.49759 194.923659 
L 641.129612 190.651717 
L 642.440907 188.927712 
L 643.748925 187.42627 
L 645.053567 186.322206 
L 646.354732 185.50001 
L 647.652322 184.957151 
L 648.946237 184.685549 
L 650.236381 184.749574 
L 651.522653 185.276868 
L 652.804956 185.975341 
L 654.083193 186.94079 
L 656.627079 189.443715 
L 657.892534 190.957685 
L 660.409985 194.620962 
L 664.151084 200.829872 
L 666.620655 205.150941 
L 671.497629 212.421432 
L 675.098041 216.979253 
L 677.469647 219.336537 
L 678.646579 220.286195 
L 682.140809 222.557172 
L 684.438941 223.596585 
L 687.837357 224.721131 
L 691.175168 225.518892 
L 699.762441 226.606082 
L 704.883764 227.606075 
L 715.430766 230.714979 
L 721.592 232.841874 
L 726.511104 234.009551 
L 743.648071 236.248129 
L 747.464423 236.982249 
L 748.710476 237.184943 
L 750.894824 237.337888 
L 755.53242 237.337888 
L 755.53242 237.337888 
" clip-path="url(#pdaf9e4e6ee)" style="fill: none; stroke: #ffa500; stroke-width: 1.5; stroke-linecap: square"/>
   </g>
   <g id="patch_11">
    <path d="M 626.517791 246.90101 
L 652.804956 246.90101 
L 652.804956 36.512323 
L 626.517791 36.512323 
z
" clip-path="url(#pdaf9e4e6ee)" style="fill: #800080; opacity: 0.08"/>
   </g>
   <g id="patch_12">
    <path d="M 652.804956 246.90101 
L 677.469647 246.90101 
L 677.469647 36.512323 
L 652.804956 36.512323 
z
" clip-path="url(#pdaf9e4e6ee)" style="fill: #ffff00; opacity: 0.12"/>
   </g>
   <g id="patch_13">
    <path d="M 443.28133 246.90101 
L 443.28133 36.512323 
" style="fill: none; stroke: #000000; stroke-width: 0.8; stroke-linejoin: miter; stroke-linecap: square"/>
   </g>
   <g id="patch_14">
    <path d="M 755.53242 246.90101 
L 755.53242 36.512323 
" style="fill: none; stroke: #000000; stroke-width: 0.8; stroke-linejoin: miter; stroke-linecap: square"/>
   </g>
   <g id="patch_15">
    <path d="M 443.28133 246.90101 
L 755.53242 246.90101 
" style="fill: none; stroke: #000000; stroke-width: 0.8; stroke-linejoin: miter; stroke-linecap: square"/>
   </g>
   <g id="patch_16">
    <path d="M 443.28133 36.512323 
L 755.53242 36.512323 
" style="fill: none; stroke: #000000; stroke-width: 0.8; stroke-linejoin: miter; stroke-linecap: square"/>
   </g>
   <g id="patch_17">
    <path d="M 652.804956 16.133921 
L 652.804956 13.750791 
L 626.517791 13.750791 
L 626.517791 16.133921 
" style="fill: none; stroke: #800080; stroke-width: 1.5; stroke-linecap: round"/>
    <path d="M 626.517791 16.133921 
L 626.517791 16.133921 
L 626.517791 16.133921 
L 626.517791 16.133921 
" style="fill: none; stroke: #800080; stroke-width: 1.5; stroke-linecap: round"/>
   </g>
   <g id="text_31">
    <!-- MT -->
    <g style="fill: #800080" transform="translate(631.274655 10.431634) scale(0.1 -0.1)">
     <defs>
      <path id="DejaVuSans-Bold-4d" d="M 588 4666 
L 2119 4666 
L 3181 2169 
L 4250 4666 
L 5778 4666 
L 5778 0 
L 4641 0 
L 4641 3413 
L 3566 897 
L 2803 897 
L 1728 3413 
L 1728 0 
L 588 0 
L 588 4666 
z
" transform="scale(0.015625)"/>
      <path id="DejaVuSans-Bold-54" d="M 31 4666 
L 4331 4666 
L 4331 3756 
L 2784 3756 
L 2784 0 
L 1581 0 
L 1581 3756 
L 31 3756 
L 31 4666 
z
" transform="scale(0.015625)"/>
     </defs>
     <use xlink:href="#DejaVuSans-Bold-4d"/>
     <use xlink:href="#DejaVuSans-Bold-54" transform="translate(99.511719 0)"/>
    </g>
   </g>
   <g id="patch_18">
    <path d="M 677.469647 16.128782 
L 677.469647 14.021204 
L 652.804956 14.021204 
L 652.804956 16.128782 
" style="fill: none; stroke: #e4d00a; stroke-width: 1.5; stroke-linecap: round"/>
    <path d="M 652.804956 16.128782 
L 652.804956 16.128782 
L 652.804956 16.128782 
L 652.804956 16.128782 
" style="fill: none; stroke: #e4d00a; stroke-width: 1.5; stroke-linecap: round"/>
   </g>
   <g id="text_32">
    <!-- STZ -->
    <g style="fill: #e4d00a" transform="translate(654.499802 10.431634) scale(0.1 -0.1)">
     <defs>
      <path id="DejaVuSans-Bold-53" d="M 3834 4519 
L 3834 3531 
Q 3450 3703 3084 3790 
Q 2719 3878 2394 3878 
Q 1963 3878 1756 3759 
Q 1550 3641 1550 3391 
Q 1550 3203 1689 3098 
Q 1828 2994 2194 2919 
L 2706 2816 
Q 3484 2659 3812 2340 
Q 4141 2022 4141 1434 
Q 4141 663 3683 286 
Q 3225 -91 2284 -91 
Q 1841 -91 1394 -6 
Q 947 78 500 244 
L 500 1259 
Q 947 1022 1364 901 
Q 1781 781 2169 781 
Q 2563 781 2772 912 
Q 2981 1044 2981 1288 
Q 2981 1506 2839 1625 
Q 2697 1744 2272 1838 
L 1806 1941 
Q 1106 2091 782 2419 
Q 459 2747 459 3303 
Q 459 4000 909 4375 
Q 1359 4750 2203 4750 
Q 2588 4750 2994 4692 
Q 3400 4634 3834 4519 
z
" transform="scale(0.015625)"/>
      <path id="DejaVuSans-Bold-5a" d="M 359 4666 
L 4281 4666 
L 4281 3938 
L 1778 909 
L 4353 909 
L 4353 0 
L 288 0 
L 288 728 
L 2791 3756 
L 359 3756 
L 359 4666 
z
" transform="scale(0.015625)"/>
     </defs>
     <use xlink:href="#DejaVuSans-Bold-53"/>
     <use xlink:href="#DejaVuSans-Bold-54" transform="translate(72.021484 0)"/>
     <use xlink:href="#DejaVuSans-Bold-5a" transform="translate(140.234375 0)"/>
    </g>
   </g>
   <g id="text_33">
    <!-- CTRL (NH max=0.049) -->
    <g transform="translate(502.874766 30.512323) scale(0.17 -0.17)">
     <defs>
      <path id="DejaVuSans-52" d="M 2841 2188 
Q 3044 2119 3236 1894 
Q 3428 1669 3622 1275 
L 4263 0 
L 3584 0 
L 2988 1197 
Q 2756 1666 2539 1819 
Q 2322 1972 1947 1972 
L 1259 1972 
L 1259 0 
L 628 0 
L 628 4666 
L 2053 4666 
Q 2853 4666 3247 4331 
Q 3641 3997 3641 3322 
Q 3641 2881 3436 2590 
Q 3231 2300 2841 2188 
z
M 1259 4147 
L 1259 2491 
L 2053 2491 
Q 2509 2491 2742 2702 
Q 2975 2913 2975 3322 
Q 2975 3731 2742 3939 
Q 2509 4147 2053 4147 
L 1259 4147 
z
" transform="scale(0.015625)"/>
     </defs>
     <use xlink:href="#DejaVuSans-43"/>
     <use xlink:href="#DejaVuSans-54" transform="translate(69.824219 0)"/>
     <use xlink:href="#DejaVuSans-52" transform="translate(130.908203 0)"/>
     <use xlink:href="#DejaVuSans-4c" transform="translate(200.390625 0)"/>
     <use xlink:href="#DejaVuSans-20" transform="translate(256.103516 0)"/>
     <use xlink:href="#DejaVuSans-28" transform="translate(287.890625 0)"/>
     <use xlink:href="#DejaVuSans-4e" transform="translate(326.904297 0)"/>
     <use xlink:href="#DejaVuSans-48" transform="translate(401.708984 0)"/>
     <use xlink:href="#DejaVuSans-20" transform="translate(476.904297 0)"/>
     <use xlink:href="#DejaVuSans-6d" transform="translate(508.691406 0)"/>
     <use xlink:href="#DejaVuSans-61" transform="translate(606.103516 0)"/>
     <use xlink:href="#DejaVuSans-78" transform="translate(667.382812 0)"/>
     <use xlink:href="#DejaVuSans-3d" transform="translate(726.5625 0)"/>
     <use xlink:href="#DejaVuSans-30" transform="translate(810.351562 0)"/>
     <use xlink:href="#DejaVuSans-2e" transform="translate(873.974609 0)"/>
     <use xlink:href="#DejaVuSans-30" transform="translate(905.761719 0)"/>
     <use xlink:href="#DejaVuSans-34" transform="translate(969.384766 0)"/>
     <use xlink:href="#DejaVuSans-39" transform="translate(1033.007812 0)"/>
     <use xlink:href="#DejaVuSans-29" transform="translate(1096.630859 0)"/>
    </g>
   </g>
   <g id="text_34">
    <!-- (b) -->
    <g transform="translate(443.28133 30.512323) scale(0.168 -0.168)">
     <defs>
      <path id="DejaVuSans-62" d="M 3116 1747 
Q 3116 2381 2855 2742 
Q 2594 3103 2138 3103 
Q 1681 3103 1420 2742 
Q 1159 2381 1159 1747 
Q 1159 1113 1420 752 
Q 1681 391 2138 391 
Q 2594 391 2855 752 
Q 3116 1113 3116 1747 
z
M 1159 2969 
Q 1341 3281 1617 3432 
Q 1894 3584 2278 3584 
Q 2916 3584 3314 3078 
Q 3713 2572 3713 1747 
Q 3713 922 3314 415 
Q 2916 -91 2278 -91 
Q 1894 -91 1617 61 
Q 1341 213 1159 525 
L 1159 0 
L 581 0 
L 581 4863 
L 1159 4863 
L 1159 2969 
z
" transform="scale(0.015625)"/>
     </defs>
     <use xlink:href="#DejaVuSans-28"/>
     <use xlink:href="#DejaVuSans-62" transform="translate(39.013672 0)"/>
     <use xlink:href="#DejaVuSans-29" transform="translate(102.490234 0)"/>
    </g>
   </g>
   <g id="legend_2">
    <g id="patch_19">
     <path d="M 453.08133 68.261698 
L 613.055393 68.261698 
Q 615.855392 68.261698 615.855392 65.461698 
L 615.855392 46.312323 
Q 615.855392 43.512323 613.055393 43.512323 
L 453.08133 43.512323 
Q 450.28133 43.512323 450.28133 46.312323 
L 450.28133 65.461698 
Q 450.28133 68.261698 453.08133 68.261698 
z
" style="fill: #ffffff; opacity: 0.8; stroke: #cccccc; stroke-linejoin: miter"/>
    </g>
    <g id="line2d_67">
     <path d="M 455.88133 54.850135 
L 469.88133 54.850135 
L 483.88133 54.850135 
" style="fill: none; stroke: #0000ff; stroke-width: 1.5; stroke-linecap: square"/>
    </g>
    <g id="text_35">
     <!-- JJA -->
     <g transform="translate(495.08133 59.750135) scale(0.14 -0.14)">
      <use xlink:href="#DejaVuSans-4a"/>
      <use xlink:href="#DejaVuSans-4a" transform="translate(29.492188 0)"/>
      <use xlink:href="#DejaVuSans-41" transform="translate(57.234375 0)"/>
     </g>
    </g>
    <g id="line2d_68">
     <path d="M 540.673205 54.850135 
L 554.673205 54.850135 
L 568.673205 54.850135 
" style="fill: none; stroke: #ffa500; stroke-width: 1.5; stroke-linecap: square"/>
    </g>
    <g id="text_36">
     <!-- SON -->
     <g transform="translate(579.873205 59.750135) scale(0.14 -0.14)">
      <use xlink:href="#DejaVuSans-53"/>
      <use xlink:href="#DejaVuSans-4f" transform="translate(63.476562 0)"/>
      <use xlink:href="#DejaVuSans-4e" transform="translate(142.1875 0)"/>
     </g>
    </g>
   </g>
  </g>
  <g id="axes_3">
   <g id="patch_20">
    <path d="M 827.84117 246.90101 
L 1140.09226 246.90101 
L 1140.09226 36.512323 
L 827.84117 36.512323 
z
" style="fill: #ffffff"/>
   </g>
   <g id="matplotlib.axis_5">
    <g id="xtick_15">
     <g id="line2d_69">
      <g>
       <use xlink:href="#mf5aba982f9" x="827.84117" y="246.90101" style="stroke: #000000; stroke-width: 0.8"/>
      </g>
     </g>
     <g id="text_37">
      <!-- -90 -->
      <g transform="translate(816.408201 264.538822) scale(0.14 -0.14)">
       <use xlink:href="#DejaVuSans-2d"/>
       <use xlink:href="#DejaVuSans-39" transform="translate(36.083984 0)"/>
       <use xlink:href="#DejaVuSans-30" transform="translate(99.707031 0)"/>
      </g>
     </g>
    </g>
    <g id="xtick_16">
     <g id="line2d_70">
      <g>
       <use xlink:href="#mf5aba982f9" x="848.758027" y="246.90101" style="stroke: #000000; stroke-width: 0.8"/>
      </g>
     </g>
     <g id="text_38">
      <!-- -60 -->
      <g transform="translate(837.325058 264.538822) scale(0.14 -0.14)">
       <use xlink:href="#DejaVuSans-2d"/>
       <use xlink:href="#DejaVuSans-36" transform="translate(36.083984 0)"/>
       <use xlink:href="#DejaVuSans-30" transform="translate(99.707031 0)"/>
      </g>
     </g>
    </g>
    <g id="xtick_17">
     <g id="line2d_71">
      <g>
       <use xlink:href="#mf5aba982f9" x="905.903942" y="246.90101" style="stroke: #000000; stroke-width: 0.8"/>
      </g>
     </g>
     <g id="text_39">
      <!-- -30 -->
      <g transform="translate(894.470974 264.538822) scale(0.14 -0.14)">
       <use xlink:href="#DejaVuSans-2d"/>
       <use xlink:href="#DejaVuSans-33" transform="translate(36.083984 0)"/>
       <use xlink:href="#DejaVuSans-30" transform="translate(99.707031 0)"/>
      </g>
     </g>
    </g>
    <g id="xtick_18">
     <g id="line2d_72">
      <g>
       <use xlink:href="#mf5aba982f9" x="983.966715" y="246.90101" style="stroke: #000000; stroke-width: 0.8"/>
      </g>
     </g>
     <g id="text_40">
      <!-- 0 -->
      <g transform="translate(979.512965 264.538822) scale(0.14 -0.14)">
       <use xlink:href="#DejaVuSans-30"/>
      </g>
     </g>
    </g>
    <g id="xtick_19">
     <g id="line2d_73">
      <g>
       <use xlink:href="#mf5aba982f9" x="1062.029487" y="246.90101" style="stroke: #000000; stroke-width: 0.8"/>
      </g>
     </g>
     <g id="text_41">
      <!-- 30 -->
      <g transform="translate(1053.121987 264.538822) scale(0.14 -0.14)">
       <use xlink:href="#DejaVuSans-33"/>
       <use xlink:href="#DejaVuSans-30" transform="translate(63.623047 0)"/>
      </g>
     </g>
    </g>
    <g id="xtick_20">
     <g id="line2d_74">
      <g>
       <use xlink:href="#mf5aba982f9" x="1119.175403" y="246.90101" style="stroke: #000000; stroke-width: 0.8"/>
      </g>
     </g>
     <g id="text_42">
      <!-- 60 -->
      <g transform="translate(1110.267903 264.538822) scale(0.14 -0.14)">
       <use xlink:href="#DejaVuSans-36"/>
       <use xlink:href="#DejaVuSans-30" transform="translate(63.623047 0)"/>
      </g>
     </g>
    </g>
    <g id="xtick_21">
     <g id="line2d_75">
      <g>
       <use xlink:href="#mf5aba982f9" x="1140.09226" y="246.90101" style="stroke: #000000; stroke-width: 0.8"/>
      </g>
     </g>
     <g id="text_43">
      <!-- 90 -->
      <g transform="translate(1131.18476 264.538822) scale(0.14 -0.14)">
       <use xlink:href="#DejaVuSans-39"/>
       <use xlink:href="#DejaVuSans-30" transform="translate(63.623047 0)"/>
      </g>
     </g>
    </g>
    <g id="text_44">
     <!-- Latitude [°] -->
     <g transform="translate(943.969371 282.088197) scale(0.14 -0.14)">
      <use xlink:href="#DejaVuSans-4c"/>
      <use xlink:href="#DejaVuSans-61" transform="translate(55.712891 0)"/>
      <use xlink:href="#DejaVuSans-74" transform="translate(116.992188 0)"/>
      <use xlink:href="#DejaVuSans-69" transform="translate(156.201172 0)"/>
      <use xlink:href="#DejaVuSans-74" transform="translate(183.984375 0)"/>
      <use xlink:href="#DejaVuSans-75" transform="translate(223.193359 0)"/>
      <use xlink:href="#DejaVuSans-64" transform="translate(286.572266 0)"/>
      <use xlink:href="#DejaVuSans-65" transform="translate(350.048828 0)"/>
      <use xlink:href="#DejaVuSans-20" transform="translate(411.572266 0)"/>
      <use xlink:href="#DejaVuSans-5b" transform="translate(443.359375 0)"/>
      <use xlink:href="#DejaVuSans-b0" transform="translate(482.373047 0)"/>
      <use xlink:href="#DejaVuSans-5d" transform="translate(532.373047 0)"/>
     </g>
    </g>
   </g>
   <g id="matplotlib.axis_6">
    <g id="ytick_9">
     <g id="line2d_76">
      <g>
       <use xlink:href="#mde0611fa4c" x="827.84117" y="237.337888" style="stroke: #000000; stroke-width: 0.8"/>
      </g>
     </g>
     <g id="line2d_77">
      <g>
       <use xlink:href="#md0605ce87b" x="1140.09226" y="237.337888" style="stroke: #000000; stroke-width: 0.8"/>
      </g>
     </g>
     <g id="text_45">
      <!-- 0.00 -->
      <g transform="translate(789.669295 242.656794) scale(0.14 -0.14)">
       <use xlink:href="#DejaVuSans-30"/>
       <use xlink:href="#DejaVuSans-2e" transform="translate(63.623047 0)"/>
       <use xlink:href="#DejaVuSans-30" transform="translate(95.410156 0)"/>
       <use xlink:href="#DejaVuSans-30" transform="translate(159.033203 0)"/>
      </g>
     </g>
    </g>
    <g id="ytick_10">
     <g id="line2d_78">
      <g>
       <use xlink:href="#mde0611fa4c" x="827.84117" y="181.131246" style="stroke: #000000; stroke-width: 0.8"/>
      </g>
     </g>
     <g id="line2d_79">
      <g>
       <use xlink:href="#md0605ce87b" x="1140.09226" y="181.131246" style="stroke: #000000; stroke-width: 0.8"/>
      </g>
     </g>
     <g id="text_46">
      <!-- 0.05 -->
      <g transform="translate(789.669295 186.450153) scale(0.14 -0.14)">
       <use xlink:href="#DejaVuSans-30"/>
       <use xlink:href="#DejaVuSans-2e" transform="translate(63.623047 0)"/>
       <use xlink:href="#DejaVuSans-30" transform="translate(95.410156 0)"/>
       <use xlink:href="#DejaVuSans-35" transform="translate(159.033203 0)"/>
      </g>
     </g>
    </g>
    <g id="ytick_11">
     <g id="line2d_80">
      <g>
       <use xlink:href="#mde0611fa4c" x="827.84117" y="124.924605" style="stroke: #000000; stroke-width: 0.8"/>
      </g>
     </g>
     <g id="line2d_81">
      <g>
       <use xlink:href="#md0605ce87b" x="1140.09226" y="124.924605" style="stroke: #000000; stroke-width: 0.8"/>
      </g>
     </g>
     <g id="text_47">
      <!-- 0.10 -->
      <g transform="translate(789.669295 130.243511) scale(0.14 -0.14)">
       <use xlink:href="#DejaVuSans-30"/>
       <use xlink:href="#DejaVuSans-2e" transform="translate(63.623047 0)"/>
       <use xlink:href="#DejaVuSans-31" transform="translate(95.410156 0)"/>
       <use xlink:href="#DejaVuSans-30" transform="translate(159.033203 0)"/>
      </g>
     </g>
    </g>
    <g id="ytick_12">
     <g id="line2d_82">
      <g>
       <use xlink:href="#mde0611fa4c" x="827.84117" y="68.717963" style="stroke: #000000; stroke-width: 0.8"/>
      </g>
     </g>
     <g id="line2d_83">
      <g>
       <use xlink:href="#md0605ce87b" x="1140.09226" y="68.717963" style="stroke: #000000; stroke-width: 0.8"/>
      </g>
     </g>
     <g id="text_48">
      <!-- 0.15 -->
      <g transform="translate(789.669295 74.036869) scale(0.14 -0.14)">
       <use xlink:href="#DejaVuSans-30"/>
       <use xlink:href="#DejaVuSans-2e" transform="translate(63.623047 0)"/>
       <use xlink:href="#DejaVuSans-31" transform="translate(95.410156 0)"/>
       <use xlink:href="#DejaVuSans-35" transform="translate(159.033203 0)"/>
      </g>
     </g>
    </g>
    <g id="text_49">
     <!-- TC $r_4$ fractional area -->
     <g transform="translate(782.757732 212.686666) rotate(-90) scale(0.14 -0.14)">
      <use xlink:href="#DejaVuSans-54" transform="translate(0 0.015625)"/>
      <use xlink:href="#DejaVuSans-43" transform="translate(61.083984 0.015625)"/>
      <use xlink:href="#DejaVuSans-20" transform="translate(130.908203 0.015625)"/>
      <use xlink:href="#DejaVuSans-Oblique-72" transform="translate(162.695312 0.015625)"/>
      <use xlink:href="#DejaVuSans-34" transform="translate(203.808594 -16.390625) scale(0.7)"/>
      <use xlink:href="#DejaVuSans-20" transform="translate(251.079102 0.015625)"/>
      <use xlink:href="#DejaVuSans-66" transform="translate(282.866211 0.015625)"/>
      <use xlink:href="#DejaVuSans-72" transform="translate(318.071289 0.015625)"/>
      <use xlink:href="#DejaVuSans-61" transform="translate(359.18457 0.015625)"/>
      <use xlink:href="#DejaVuSans-63" transform="translate(420.463867 0.015625)"/>
      <use xlink:href="#DejaVuSans-74" transform="translate(475.444336 0.015625)"/>
      <use xlink:href="#DejaVuSans-69" transform="translate(514.65332 0.015625)"/>
      <use xlink:href="#DejaVuSans-6f" transform="translate(542.436523 0.015625)"/>
      <use xlink:href="#DejaVuSans-6e" transform="translate(603.618164 0.015625)"/>
      <use xlink:href="#DejaVuSans-61" transform="translate(666.99707 0.015625)"/>
      <use xlink:href="#DejaVuSans-6c" transform="translate(728.276367 0.015625)"/>
      <use xlink:href="#DejaVuSans-20" transform="translate(756.05957 0.015625)"/>
      <use xlink:href="#DejaVuSans-61" transform="translate(787.84668 0.015625)"/>
      <use xlink:href="#DejaVuSans-72" transform="translate(849.125977 0.015625)"/>
      <use xlink:href="#DejaVuSans-65" transform="translate(890.239258 0.015625)"/>
      <use xlink:href="#DejaVuSans-61" transform="translate(951.762695 0.015625)"/>
     </g>
    </g>
   </g>
   <g id="line2d_84">
    <path d="M 827.84117 246.90101 
L 827.84117 36.512323 
" clip-path="url(#pc0ccaea1aa)" style="fill: none; stroke: #808080; stroke-width: 0.5; stroke-linecap: square"/>
   </g>
   <g id="line2d_85">
    <path d="M 848.758027 246.90101 
L 848.758027 36.512323 
" clip-path="url(#pc0ccaea1aa)" style="fill: none; stroke: #808080; stroke-width: 0.5; stroke-linecap: square"/>
   </g>
   <g id="line2d_86">
    <path d="M 864.367609 246.90101 
L 864.367609 36.512323 
" clip-path="url(#pc0ccaea1aa)" style="fill: none; stroke: #808080; stroke-width: 0.5; stroke-linecap: square"/>
   </g>
   <g id="line2d_87">
    <path d="M 883.611149 246.90101 
L 883.611149 36.512323 
" clip-path="url(#pc0ccaea1aa)" style="fill: none; stroke: #808080; stroke-width: 0.5; stroke-linecap: square"/>
   </g>
   <g id="line2d_88">
    <path d="M 905.903942 246.90101 
L 905.903942 36.512323 
" clip-path="url(#pc0ccaea1aa)" style="fill: none; stroke: #808080; stroke-width: 0.5; stroke-linecap: square"/>
   </g>
   <g id="line2d_89">
    <path d="M 930.568634 246.90101 
L 930.568634 36.512323 
" clip-path="url(#pc0ccaea1aa)" style="fill: none; stroke: #808080; stroke-width: 0.5; stroke-linecap: square"/>
   </g>
   <g id="line2d_90">
    <path d="M 956.855799 246.90101 
L 956.855799 36.512323 
" clip-path="url(#pc0ccaea1aa)" style="fill: none; stroke: #808080; stroke-width: 0.5; stroke-linecap: square"/>
   </g>
   <g id="line2d_91">
    <path d="M 983.966715 246.90101 
L 983.966715 36.512323 
" clip-path="url(#pc0ccaea1aa)" style="fill: none; stroke: #808080; stroke-width: 0.5; stroke-linecap: square"/>
   </g>
   <g id="line2d_92">
    <path d="M 1011.077631 246.90101 
L 1011.077631 36.512323 
" clip-path="url(#pc0ccaea1aa)" style="fill: none; stroke: #808080; stroke-width: 0.5; stroke-linecap: square"/>
   </g>
   <g id="line2d_93">
    <path d="M 1037.364796 246.90101 
L 1037.364796 36.512323 
" clip-path="url(#pc0ccaea1aa)" style="fill: none; stroke: #808080; stroke-width: 0.5; stroke-linecap: square"/>
   </g>
   <g id="line2d_94">
    <path d="M 1062.029487 246.90101 
L 1062.029487 36.512323 
" clip-path="url(#pc0ccaea1aa)" style="fill: none; stroke: #808080; stroke-width: 0.5; stroke-linecap: square"/>
   </g>
   <g id="line2d_95">
    <path d="M 1084.322281 246.90101 
L 1084.322281 36.512323 
" clip-path="url(#pc0ccaea1aa)" style="fill: none; stroke: #808080; stroke-width: 0.5; stroke-linecap: square"/>
   </g>
   <g id="line2d_96">
    <path d="M 1103.565821 246.90101 
L 1103.565821 36.512323 
" clip-path="url(#pc0ccaea1aa)" style="fill: none; stroke: #808080; stroke-width: 0.5; stroke-linecap: square"/>
   </g>
   <g id="line2d_97">
    <path d="M 1119.175403 246.90101 
L 1119.175403 36.512323 
" clip-path="url(#pc0ccaea1aa)" style="fill: none; stroke: #808080; stroke-width: 0.5; stroke-linecap: square"/>
   </g>
   <g id="line2d_98">
    <path d="M 1140.09226 246.90101 
L 1140.09226 36.512323 
" clip-path="url(#pc0ccaea1aa)" style="fill: none; stroke: #808080; stroke-width: 0.5; stroke-linecap: square"/>
   </g>
   <g id="line2d_99">
    <path d="M 827.84117 235.810533 
L 827.847115 235.810533 
L 827.864949 235.957102 
L 827.936277 235.877447 
L 827.989767 235.884331 
L 828.322453 235.318725 
L 828.696442 235.292113 
L 829.360573 235.305139 
L 829.982338 235.3553 
L 831.541969 235.660978 
L 833.519385 235.98242 
L 835.482498 236.304671 
L 837.256692 236.652909 
L 845.481665 236.872363 
L 848.081958 236.836782 
L 852.291766 236.56209 
L 854.532772 236.047807 
L 856.862486 235.416886 
L 862.634378 233.332632 
L 867.942824 232.082829 
L 876.496982 230.291185 
L 878.489826 230.12582 
L 880.514799 230.198734 
L 883.611149 230.534746 
L 885.713726 230.834791 
L 890.008017 231.725704 
L 894.416781 232.434628 
L 898.934649 233.296035 
L 903.556115 234.480513 
L 907.086818 235.206648 
L 909.470044 235.593565 
L 914.303838 236.012347 
L 917.985209 236.114681 
L 920.464735 236.050182 
L 924.220056 235.665371 
L 926.746511 235.098593 
L 928.016324 234.723579 
L 931.850937 232.997648 
L 934.427353 231.549244 
L 938.320023 229.027769 
L 946.196527 223.613218 
L 950.174962 221.712731 
L 951.506389 221.3976 
L 954.176557 221.13024 
L 955.515094 221.210487 
L 958.198568 221.849908 
L 959.543299 222.340176 
L 962.238239 223.646005 
L 964.939797 225.253521 
L 973.075948 230.544903 
L 977.156614 232.908028 
L 978.518012 233.503981 
L 979.879825 233.891821 
L 981.241949 233.931928 
L 982.60428 233.737357 
L 983.966715 233.351342 
L 985.32915 232.628854 
L 986.691481 231.647566 
L 988.053605 230.127028 
L 989.415418 228.221782 
L 990.776816 226.125481 
L 993.497952 220.359733 
L 994.857482 217.153457 
L 996.216184 213.435893 
L 997.573953 209.388576 
L 998.930685 204.980402 
L 1001.640628 194.946485 
L 1002.993633 189.63738 
L 1007.04354 171.049557 
L 1011.077631 149.827276 
L 1015.093142 127.113918 
L 1017.758468 112.696304 
L 1020.4135 99.629311 
L 1023.05743 88.326966 
L 1025.689452 77.971774 
L 1028.308765 68.767974 
L 1030.914572 60.800457 
L 1032.212162 57.131923 
L 1033.506077 54.170278 
L 1034.796221 51.703321 
L 1036.082493 49.537254 
L 1037.364796 47.923536 
L 1038.643033 46.890792 
L 1039.917106 46.357824 
L 1041.186919 46.075445 
L 1042.452374 46.235299 
L 1043.713374 46.891212 
L 1044.969825 47.814705 
L 1046.221631 49.489245 
L 1047.468695 51.640177 
L 1049.948221 57.025485 
L 1052.407649 63.679905 
L 1056.057469 74.06889 
L 1058.463386 80.686422 
L 1067.852909 108.298472 
L 1070.138178 115.319662 
L 1073.516649 124.624156 
L 1079.009925 138.554042 
L 1080.087198 140.890805 
L 1083.274774 147.07659 
L 1085.362145 150.386281 
L 1090.444081 158.809584 
L 1094.364147 166.328305 
L 1098.14971 173.573716 
L 1102.685511 181.075785 
L 1106.995323 188.238511 
L 1108.654119 190.879566 
L 1111.857274 195.242236 
L 1113.400658 197.2655 
L 1119.851472 204.798433 
L 1121.817389 207.390427 
L 1122.451765 208.090147 
L 1126.034914 213.019796 
L 1127.681037 215.297256 
L 1129.722468 218.731792 
L 1131.586318 221.768164 
L 1133.662969 224.550414 
L 1134.414045 225.328946 
L 1136.090772 227.977006 
L 1137.720362 231.70602 
L 1138.928524 234.211435 
L 1140.09226 237.337888 
L 1140.09226 237.337888 
" clip-path="url(#pc0ccaea1aa)" style="fill: none; stroke: #0000ff; stroke-width: 1.5; stroke-linecap: square"/>
   </g>
   <g id="line2d_100">
    <path d="M 827.84117 237.337888 
L 841.338933 237.23075 
L 843.050096 237.008707 
L 851.564744 235.959618 
L 854.532772 235.203273 
L 856.862486 234.418055 
L 861.78159 232.314459 
L 865.247919 230.870459 
L 869.78372 229.205305 
L 872.6101 228.589268 
L 874.536874 228.317894 
L 876.496982 228.261669 
L 878.489826 228.301774 
L 883.611149 228.907964 
L 888.923505 229.696754 
L 896.662418 230.397524 
L 898.934649 230.459018 
L 902.391342 230.462711 
L 907.086818 229.873387 
L 911.875961 229.154637 
L 914.303838 228.664077 
L 920.464735 227.132761 
L 931.850937 223.499339 
L 937.018858 222.3007 
L 940.932683 221.343126 
L 943.558451 221.056301 
L 946.196527 220.958414 
L 948.846109 221.173166 
L 951.506389 221.643049 
L 954.176557 222.451908 
L 956.855799 223.467115 
L 960.88989 225.374898 
L 966.292802 228.207016 
L 973.075948 232.137038 
L 977.156614 233.941067 
L 979.879825 234.753301 
L 981.241949 234.991929 
L 982.60428 234.816545 
L 983.966715 234.319926 
L 985.32915 233.555056 
L 986.691481 232.558295 
L 988.053605 231.10439 
L 989.415418 229.397717 
L 990.776816 227.356513 
L 993.497952 222.065899 
L 994.857482 218.969926 
L 997.573953 211.313525 
L 998.930685 207.127122 
L 1002.993633 192.383375 
L 1007.04354 175.455936 
L 1012.418336 150.141779 
L 1016.427041 131.802236 
L 1019.087321 120.008573 
L 1021.736903 108.926443 
L 1025.689452 93.576594 
L 1028.308765 84.875885 
L 1029.613407 81.213392 
L 1030.914572 78.065949 
L 1032.212162 75.303757 
L 1033.506077 72.811477 
L 1034.796221 70.763455 
L 1036.082493 69.143404 
L 1037.364796 67.78218 
L 1038.643033 66.734206 
L 1039.917106 66.029338 
L 1041.186919 65.876199 
L 1042.452374 66.206954 
L 1043.713374 67.028372 
L 1044.969825 68.155279 
L 1046.221631 69.707819 
L 1047.468695 71.979776 
L 1049.948221 77.902702 
L 1053.629592 87.78122 
L 1056.057469 94.339487 
L 1057.263219 97.666057 
L 1059.657881 105.29282 
L 1062.029487 113.427 
L 1064.377315 121.639765 
L 1066.700649 128.973537 
L 1070.138178 138.936977 
L 1073.516649 147.159691 
L 1076.833747 154.272348 
L 1081.157152 161.869153 
L 1083.274774 165.201857 
L 1087.418631 170.749972 
L 1090.444081 175.255944 
L 1092.420632 178.051516 
L 1094.364147 180.851471 
L 1096.274033 183.888053 
L 1102.685511 194.093742 
L 1105.299052 198.66801 
L 1108.654119 204.039182 
L 1113.400658 211.062855 
L 1117.085625 215.631264 
L 1119.175403 218.277265 
L 1120.517193 219.695775 
L 1121.817389 221.305989 
L 1123.68883 223.64003 
L 1124.883334 225.118892 
L 1128.207911 228.418306 
L 1130.205171 229.907655 
L 1133.270316 231.170651 
L 1134.044221 231.359212 
L 1134.772411 231.755437 
L 1138.377356 234.302288 
L 1139.498155 235.750786 
L 1139.997153 237.003083 
L 1140.09226 237.337888 
L 1140.09226 237.337888 
" clip-path="url(#pc0ccaea1aa)" style="fill: none; stroke: #ffa500; stroke-width: 1.5; stroke-linecap: square"/>
   </g>
   <g id="patch_21">
    <path d="M 1011.077631 246.90101 
L 1037.364796 246.90101 
L 1037.364796 36.512323 
L 1011.077631 36.512323 
z
" clip-path="url(#pc0ccaea1aa)" style="fill: #800080; opacity: 0.08"/>
   </g>
   <g id="patch_22">
    <path d="M 1037.364796 246.90101 
L 1062.029487 246.90101 
L 1062.029487 36.512323 
L 1037.364796 36.512323 
z
" clip-path="url(#pc0ccaea1aa)" style="fill: #ffff00; opacity: 0.12"/>
   </g>
   <g id="patch_23">
    <path d="M 827.84117 246.90101 
L 827.84117 36.512323 
" style="fill: none; stroke: #000000; stroke-width: 0.8; stroke-linejoin: miter; stroke-linecap: square"/>
   </g>
   <g id="patch_24">
    <path d="M 1140.09226 246.90101 
L 1140.09226 36.512323 
" style="fill: none; stroke: #000000; stroke-width: 0.8; stroke-linejoin: miter; stroke-linecap: square"/>
   </g>
   <g id="patch_25">
    <path d="M 827.84117 246.90101 
L 1140.09226 246.90101 
" style="fill: none; stroke: #000000; stroke-width: 0.8; stroke-linejoin: miter; stroke-linecap: square"/>
   </g>
   <g id="patch_26">
    <path d="M 827.84117 36.512323 
L 1140.09226 36.512323 
" style="fill: none; stroke: #000000; stroke-width: 0.8; stroke-linejoin: miter; stroke-linecap: square"/>
   </g>
   <g id="text_50">
    <!-- SEED (NH max=0.170) -->
    <g transform="translate(886.520856 30.512323) scale(0.17 -0.17)">
     <defs>
      <path id="DejaVuSans-37" d="M 525 4666 
L 3525 4666 
L 3525 4397 
L 1831 0 
L 1172 0 
L 2766 4134 
L 525 4134 
L 525 4666 
z
" transform="scale(0.015625)"/>
     </defs>
     <use xlink:href="#DejaVuSans-53"/>
     <use xlink:href="#DejaVuSans-45" transform="translate(63.476562 0)"/>
     <use xlink:href="#DejaVuSans-45" transform="translate(126.660156 0)"/>
     <use xlink:href="#DejaVuSans-44" transform="translate(189.84375 0)"/>
     <use xlink:href="#DejaVuSans-20" transform="translate(266.845703 0)"/>
     <use xlink:href="#DejaVuSans-28" transform="translate(298.632812 0)"/>
     <use xlink:href="#DejaVuSans-4e" transform="translate(337.646484 0)"/>
     <use xlink:href="#DejaVuSans-48" transform="translate(412.451172 0)"/>
     <use xlink:href="#DejaVuSans-20" transform="translate(487.646484 0)"/>
     <use xlink:href="#DejaVuSans-6d" transform="translate(519.433594 0)"/>
     <use xlink:href="#DejaVuSans-61" transform="translate(616.845703 0)"/>
     <use xlink:href="#DejaVuSans-78" transform="translate(678.125 0)"/>
     <use xlink:href="#DejaVuSans-3d" transform="translate(737.304688 0)"/>
     <use xlink:href="#DejaVuSans-30" transform="translate(821.09375 0)"/>
     <use xlink:href="#DejaVuSans-2e" transform="translate(884.716797 0)"/>
     <use xlink:href="#DejaVuSans-31" transform="translate(916.503906 0)"/>
     <use xlink:href="#DejaVuSans-37" transform="translate(980.126953 0)"/>
     <use xlink:href="#DejaVuSans-30" transform="translate(1043.75 0)"/>
     <use xlink:href="#DejaVuSans-29" transform="translate(1107.373047 0)"/>
    </g>
   </g>
   <g id="text_51">
    <!-- (c) -->
    <g transform="translate(827.84117 30.512323) scale(0.168 -0.168)">
     <use xlink:href="#DejaVuSans-28"/>
     <use xlink:href="#DejaVuSans-63" transform="translate(39.013672 0)"/>
     <use xlink:href="#DejaVuSans-29" transform="translate(93.994141 0)"/>
    </g>
   </g>
   <g id="legend_3">
    <g id="patch_27">
     <path d="M 837.64117 68.261698 
L 997.615232 68.261698 
Q 1000.415232 68.261698 1000.415232 65.461698 
L 1000.415232 46.312323 
Q 1000.415232 43.512323 997.615232 43.512323 
L 837.64117 43.512323 
Q 834.84117 43.512323 834.84117 46.312323 
L 834.84117 65.461698 
Q 834.84117 68.261698 837.64117 68.261698 
z
" style="fill: #ffffff; opacity: 0.8; stroke: #cccccc; stroke-linejoin: miter"/>
    </g>
    <g id="line2d_101">
     <path d="M 840.44117 54.850135 
L 854.44117 54.850135 
L 868.44117 54.850135 
" style="fill: none; stroke: #0000ff; stroke-width: 1.5; stroke-linecap: square"/>
    </g>
    <g id="text_52">
     <!-- JJA -->
     <g transform="translate(879.64117 59.750135) scale(0.14 -0.14)">
      <use xlink:href="#DejaVuSans-4a"/>
      <use xlink:href="#DejaVuSans-4a" transform="translate(29.492188 0)"/>
      <use xlink:href="#DejaVuSans-41" transform="translate(57.234375 0)"/>
     </g>
    </g>
    <g id="line2d_102">
     <path d="M 925.233045 54.850135 
L 939.233045 54.850135 
L 953.233045 54.850135 
" style="fill: none; stroke: #ffa500; stroke-width: 1.5; stroke-linecap: square"/>
    </g>
    <g id="text_53">
     <!-- SON -->
     <g transform="translate(964.433045 59.750135) scale(0.14 -0.14)">
      <use xlink:href="#DejaVuSans-53"/>
      <use xlink:href="#DejaVuSans-4f" transform="translate(63.476562 0)"/>
      <use xlink:href="#DejaVuSans-4e" transform="translate(142.1875 0)"/>
     </g>
    </g>
   </g>
  </g>
 </g>
 <defs>
  <clipPath id="p05e5f731fb">
   <rect x="58.72149" y="36.512323" width="312.25109" height="210.388687"/>
  </clipPath>
  <clipPath id="pdaf9e4e6ee">
   <rect x="443.28133" y="36.512323" width="312.25109" height="210.388687"/>
  </clipPath>
  <clipPath id="pc0ccaea1aa">
   <rect x="827.84117" y="36.512323" width="312.25109" height="210.388687"/>
  </clipPath>
 </defs>
</svg>
